<?xml version="1.0" encoding="utf-8"?>
<svg height="268" version="1.1" width="773" xmlns="http://www.w3.org/2000/svg" xmlns:xlink="http://www.w3.org/1999/xlink"><defs/><g><g><path d=" M 139 10 L 763 10 L 763 258 L 139 258 L 139 10" fill="none" paint-order="fill stroke markers" stroke="#000000" stroke-dasharray="" stroke-miterlimit="10"/></g><g><path d=" M 139 10 L 139 33 L 348.4384765625 33 L 359.9384765625 21.5 L 359.9384765625 10 L 139 10" fill="#ffffff" paint-order="stroke fill markers" stroke="none"/></g><g><path d=" M 139 10 L 139 33 L 348.4384765625 33 L 359.9384765625 21.5 L 359.9384765625 10 L 139 10 L 139 10" fill="none" paint-order="fill stroke markers" stroke="#000000" stroke-dasharray="" stroke-miterlimit="10"/></g><g><g><path fill="none" stroke="none"/><text dominant-baseline="central" fill="#000000" font-family="Arial" font-size="13px" font-style="normal" font-weight="normal" stroke="none" text-anchor="middle" text-decoration="undefined" transform="matrix(1 0 0 1 -301 -326)" x="554.584228515625" y="347.5">UC_GuiYeuChinhSuaThongTin</text></g></g><g><g><path fill="none" stroke="none"/><text dominant-baseline="central" fill="#000000" font-family="Arial" font-size="13px" font-style="normal" font-weight="bold" stroke="none" text-anchor="middle" text-decoration="undefined" transform="matrix(1 0 0 1 -301 -326)" x="451.864990234375" y="347.5">uc</text></g></g><g><path d=" M 51.907558593750025 77.85000000000002 C 51.907558593750025 72.96227952000004 55.865360961750014 69 60.74755859375 69 C 65.62975622574999 69 69.58755859374997 72.96227952000004 69.58755859374997 77.85000000000002 C 69.58755859374997 82.73772048000001 65.62975622574999 86.69999999999999 60.74755859375 86.69999999999999 C 55.865360961750014 86.69999999999999 51.907558593750025 82.73772048000001 51.907558593750025 77.85000000000002 Z" fill="#ffffff" paint-order="stroke fill markers" stroke="none"/></g><g><path d=" M 51.907558593750025 77.85000000000002 C 51.907558593750025 72.96227952000004 55.865360961750014 69 60.74755859375 69 C 65.62975622574999 69 69.58755859374997 72.96227952000004 69.58755859374997 77.85000000000002 C 69.58755859374997 82.73772048000001 65.62975622574999 86.69999999999999 60.74755859375 86.69999999999999 C 55.865360961750014 86.69999999999999 51.907558593750025 82.73772048000001 51.907558593750025 77.85000000000002 Z" fill="none" paint-order="fill stroke markers" stroke="#000000" stroke-dasharray="" stroke-miterlimit="10"/></g><g><path d=" M 60.74755859375 86.69999999999999 L 60.74755859375 104.30000000000001" fill="none" paint-order="fill stroke markers" stroke="#000000" stroke-dasharray="" stroke-miterlimit="10"/></g><g><path d=" M 51.387558593749986 93.30000000000001 L 70.10755859375001 93.30000000000001" fill="none" paint-order="fill stroke markers" stroke="#000000" stroke-dasharray="" stroke-miterlimit="10"/></g><g><path d=" M 60.74755859375 104.30000000000001 L 47.74755859375 122" fill="none" paint-order="fill stroke markers" stroke="#000000" stroke-dasharray="" stroke-miterlimit="10"/></g><g><path d=" M 60.74755859375 104.30000000000001 L 73.74755859375 122" fill="none" paint-order="fill stroke markers" stroke="#000000" stroke-dasharray="" stroke-miterlimit="10"/></g><g><g><path fill="none" stroke="none"/><text dominant-baseline="central" fill="#000000" font-family="Arial" font-size="13px" font-style="normal" font-weight="bold" stroke="none" text-anchor="middle" text-decoration="undefined" transform="matrix(1 0 0 1 -301 -326)" x="362.24755859375" y="462.5">Vận Động Viên</text></g></g><g><path d=" M 185 124.5 C 185 114.835016 268.0511696 107 370.5 107 C 472.9488304 107 556 114.835016 556 124.5 C 556 134.164984 472.9488304 142 370.5 142 C 268.0511696 142 185 134.164984 185 124.5 Z" fill="#C0C0C0" fill-opacity="0.2" paint-order="stroke fill markers" stroke="none"/></g><g><path d=" M 178 117.5 C 178 107.835016 261.0511696 100 363.5 100 C 465.9488304 100 549 107.835016 549 117.5 C 549 127.164984 465.9488304 135 363.5 135 C 261.0511696 135 178 127.164984 178 117.5 Z" fill="#ffffff" paint-order="stroke fill markers" stroke="none"/></g><g><path d=" M 178 117.5 C 178 107.835016 261.0511696 100 363.5 100 C 465.9488304 100 549 107.835016 549 117.5 C 549 127.164984 465.9488304 135 363.5 135 C 261.0511696 135 178 127.164984 178 117.5 Z" fill="none" paint-order="fill stroke markers" stroke="#000000" stroke-dasharray="" stroke-miterlimit="10"/></g><g><g><path fill="none" stroke="none"/><text dominant-baseline="central" fill="#000000" font-family="Arial" font-size="13px" font-style="normal" font-weight="bold" stroke="none" text-anchor="middle" text-decoration="undefined" transform="matrix(1 0 0 1 -301 -326)" x="664.5" y="444.5">Gửi yêu cầu chỉnh sửa thông tin cá nhân</text></g></g><g><path d=" M 112 110 L 177 111" fill="none" paint-order="fill stroke markers" stroke="#000000" stroke-dasharray="" stroke-miterlimit="10"/></g><g><path d=" M 513 204.5 C 513 194.835016 560.2339536 187 618.5 187 C 676.7660464 187 724 194.835016 724 204.5 C 724 214.164984 676.7660464 222 618.5 222 C 560.2339536 222 513 214.164984 513 204.5 Z" fill="#C0C0C0" fill-opacity="0.2" paint-order="stroke fill markers" stroke="none"/></g><g><path d=" M 506 197.5 C 506 187.835016 553.2339536 180 611.5 180 C 669.7660464 180 717 187.835016 717 197.5 C 717 207.164984 669.7660464 215 611.5 215 C 553.2339536 215 506 207.164984 506 197.5 Z" fill="#ffffff" paint-order="stroke fill markers" stroke="none"/></g><g><path d=" M 506 197.5 C 506 187.835016 553.2339536 180 611.5 180 C 669.7660464 180 717 187.835016 717 197.5 C 717 207.164984 669.7660464 215 611.5 215 C 553.2339536 215 506 207.164984 506 197.5 Z" fill="none" paint-order="fill stroke markers" stroke="#000000" stroke-dasharray="" stroke-miterlimit="10"/></g><g><g><path fill="none" stroke="none"/><text dominant-baseline="central" fill="#000000" font-family="Arial" font-size="13px" font-style="normal" font-weight="bold" stroke="none" text-anchor="middle" text-decoration="undefined" transform="matrix(1 0 0 1 -301 -326)" x="912.5" y="524.5">Xem thông tin cá nhân</text></g></g><g><path d=" M 422 136 L 555 179" fill="none" paint-order="fill stroke markers" stroke="#000000" stroke-dasharray="3" stroke-miterlimit="10"/></g><g><path d=" M 544.035179520052 179.8790402962959 L 555 179 L 546.6251257296885 171.86827643858265" fill="none" paint-order="fill stroke markers" stroke="#000000" stroke-dasharray="" stroke-miterlimit="10"/></g><g><rect fill="#ffffff" height="13" stroke="none" transform="matrix(1 0 0 1 -301 -326)" width="55.65625" x="743" y="490"/></g><g><g><path fill="none" stroke="none"/><text dominant-baseline="central" fill="#000000" font-family="Arial" font-size="13px" font-style="normal" font-weight="normal" stroke="none" text-anchor="middle" text-decoration="undefined" transform="matrix(1 0 0 1 -301 -326)" x="770.828125" y="496.5">«include»</text></g></g></g></svg>