<?xml version="1.0" encoding="utf-8"?>
<svg height="332" version="1.1" width="1020" xmlns="http://www.w3.org/2000/svg" xmlns:xlink="http://www.w3.org/1999/xlink"><defs/><g><g><path d=" M 178 10 L 1010 10 L 1010 322 L 178 322 L 178 10" fill="none" paint-order="fill stroke markers" stroke="#000000" stroke-dasharray="" stroke-miterlimit="10"/></g><g><path d=" M 178 10 L 178 33 L 340.935546875 33 L 352.435546875 21.5 L 352.435546875 10 L 178 10" fill="#ffffff" paint-order="stroke fill markers" stroke="none"/></g><g><path d=" M 178 10 L 178 33 L 340.935546875 33 L 352.435546875 21.5 L 352.435546875 10 L 178 10 L 178 10" fill="none" paint-order="fill stroke markers" stroke="#000000" stroke-dasharray="" stroke-miterlimit="10"/></g><g><g><path fill="none" stroke="none"/><text dominant-baseline="central" fill="#000000" font-family="Arial" font-size="13px" font-style="normal" font-weight="normal" stroke="none" text-anchor="middle" text-decoration="undefined" transform="matrix(1 0 0 1 -142 -326)" x="411.332763671875" y="347.5">UC_ThongKeThongTin</text></g></g><g><g><path fill="none" stroke="none"/><text dominant-baseline="central" fill="#000000" font-family="Arial" font-size="13px" font-style="normal" font-weight="bold" stroke="none" text-anchor="middle" text-decoration="undefined" transform="matrix(1 0 0 1 -142 -326)" x="331.864990234375" y="347.5">uc</text></g></g><g><path d=" M 45.88998046875 163.85000000000002 C 45.88998046875 158.96227952000004 49.847782836749985 155 54.72998046875 155 C 59.612178100750015 155 63.56998046875 158.96227952000004 63.56998046875 163.85000000000002 C 63.56998046875 168.73772048 59.612178100750015 172.7 54.72998046875 172.7 C 49.847782836749985 172.7 45.88998046875 168.73772048 45.88998046875 163.85000000000002 Z" fill="#ffffff" paint-order="stroke fill markers" stroke="none"/></g><g><path d=" M 45.88998046875 163.85000000000002 C 45.88998046875 158.96227952000004 49.847782836749985 155 54.72998046875 155 C 59.612178100750015 155 63.56998046875 158.96227952000004 63.56998046875 163.85000000000002 C 63.56998046875 168.73772048 59.612178100750015 172.7 54.72998046875 172.7 C 49.847782836749985 172.7 45.88998046875 168.73772048 45.88998046875 163.85000000000002 Z" fill="none" paint-order="fill stroke markers" stroke="#000000" stroke-dasharray="" stroke-miterlimit="10"/></g><g><path d=" M 54.72998046875 172.7 L 54.72998046875 190.29999999999995" fill="none" paint-order="fill stroke markers" stroke="#000000" stroke-dasharray="" stroke-miterlimit="10"/></g><g><path d=" M 45.369980468749986 179.3 L 64.08998046875001 179.3" fill="none" paint-order="fill stroke markers" stroke="#000000" stroke-dasharray="" stroke-miterlimit="10"/></g><g><path d=" M 54.72998046875 190.29999999999995 L 41.72998046875 208" fill="none" paint-order="fill stroke markers" stroke="#000000" stroke-dasharray="" stroke-miterlimit="10"/></g><g><path d=" M 54.72998046875 190.29999999999995 L 67.72998046875 208" fill="none" paint-order="fill stroke markers" stroke="#000000" stroke-dasharray="" stroke-miterlimit="10"/></g><g><g><path fill="none" stroke="none"/><text dominant-baseline="central" fill="#000000" font-family="Arial" font-size="13px" font-style="normal" font-weight="bold" stroke="none" text-anchor="middle" text-decoration="undefined" transform="matrix(1 0 0 1 -142 -326)" x="197.22998046875" y="548.5">Quản trị viên</text></g></g><g><path d=" M 241 162.5 C 241 152.835016 281.0705104 145 330.5 145 C 379.9294896 145 420 152.835016 420 162.5 C 420 172.164984 379.9294896 180 330.5 180 C 281.0705104 180 241 172.164984 241 162.5 Z" fill="#C0C0C0" fill-opacity="0.2" paint-order="stroke fill markers" stroke="none"/></g><g><path d=" M 234 155.5 C 234 145.835016 274.0705104 138 323.5 138 C 372.9294896 138 413 145.835016 413 155.5 C 413 165.164984 372.9294896 173 323.5 173 C 274.0705104 173 234 165.164984 234 155.5 Z" fill="#ffffff" paint-order="stroke fill markers" stroke="none"/></g><g><path d=" M 234 155.5 C 234 145.835016 274.0705104 138 323.5 138 C 372.9294896 138 413 145.835016 413 155.5 C 413 165.164984 372.9294896 173 323.5 173 C 274.0705104 173 234 165.164984 234 155.5 Z" fill="none" paint-order="fill stroke markers" stroke="#000000" stroke-dasharray="" stroke-miterlimit="10"/></g><g><g><path fill="none" stroke="none"/><text dominant-baseline="central" fill="#000000" font-family="Arial" font-size="13px" font-style="normal" font-weight="bold" stroke="none" text-anchor="middle" text-decoration="undefined" transform="matrix(1 0 0 1 -142 -326)" x="465.5" y="482.5">Thống kê thông tin</text></g></g><g><path d=" M 513 82.5 C 513 72.835016 570.7552608 65 642 65 C 713.2447392 65 771 72.835016 771 82.5 C 771 92.164984 713.2447392 100 642 100 C 570.7552608 100 513 92.164984 513 82.5 Z" fill="#C0C0C0" fill-opacity="0.2" paint-order="stroke fill markers" stroke="none"/></g><g><path d=" M 506 75.5 C 506 65.835016 563.7552608 58 635 58 C 706.2447392 58 764 65.835016 764 75.5 C 764 85.164984 706.2447392 93 635 93 C 563.7552608 93 506 85.164984 506 75.5 Z" fill="#ffffff" paint-order="stroke fill markers" stroke="none"/></g><g><path d=" M 506 75.5 C 506 65.835016 563.7552608 58 635 58 C 706.2447392 58 764 65.835016 764 75.5 C 764 85.164984 706.2447392 93 635 93 C 563.7552608 93 506 85.164984 506 75.5 Z" fill="none" paint-order="fill stroke markers" stroke="#000000" stroke-dasharray="" stroke-miterlimit="10"/></g><g><g><path fill="none" stroke="none"/><text dominant-baseline="central" fill="#000000" font-family="Arial" font-size="13px" font-style="normal" font-weight="bold" stroke="none" text-anchor="middle" text-decoration="undefined" transform="matrix(1 0 0 1 -142 -326)" x="777" y="402.5">Thống kê số lượng truy cập</text></g></g><g><path d=" M 521 202.5 C 521 192.835016 604.7227424 185 708 185 C 811.2772576 185 895 192.835016 895 202.5 C 895 212.164984 811.2772576 220 708 220 C 604.7227424 220 521 212.164984 521 202.5 Z" fill="#C0C0C0" fill-opacity="0.2" paint-order="stroke fill markers" stroke="none"/></g><g><path d=" M 514 195.5 C 514 185.835016 597.7227424 178 701 178 C 804.2772576 178 888 185.835016 888 195.5 C 888 205.164984 804.2772576 213 701 213 C 597.7227424 213 514 205.164984 514 195.5 Z" fill="#ffffff" paint-order="stroke fill markers" stroke="none"/></g><g><path d=" M 514 195.5 C 514 185.835016 597.7227424 178 701 178 C 804.2772576 178 888 185.835016 888 195.5 C 888 205.164984 804.2772576 213 701 213 C 597.7227424 213 514 205.164984 514 195.5 Z" fill="none" paint-order="fill stroke markers" stroke="#000000" stroke-dasharray="" stroke-miterlimit="10"/></g><g><g><path fill="none" stroke="none"/><text dominant-baseline="central" fill="#000000" font-family="Arial" font-size="13px" font-style="normal" font-weight="bold" stroke="none" text-anchor="middle" text-decoration="undefined" transform="matrix(1 0 0 1 -142 -326)" x="843" y="522.5">Thống kê tỉ lệ được tổ chức của các môn</text></g></g><g><path d=" M 100 187 L 233 168" fill="none" paint-order="fill stroke markers" stroke="#000000" stroke-dasharray="" stroke-miterlimit="10"/></g><g><path d=" M 531 177 L 414 165" fill="none" paint-order="fill stroke markers" stroke="#000000" stroke-dasharray="" stroke-miterlimit="10"/></g><g><path d=" M 435.0782652718923 158.69867211393176 L 414 165 L 433.36029598812263 175.44887263068517" fill="#FFFFFF" paint-order="stroke fill markers" stroke="none"/></g><g><path d=" M 435.0782652718923 158.69867211393176 L 414 165 L 433.36029598812263 175.44887263068517 L 435.0782652718923 158.69867211393176" fill="none" paint-order="fill stroke markers" stroke="#000000" stroke-dasharray="" stroke-miterlimit="10"/></g><g><path d=" M 561 94 L 393 137" fill="none" paint-order="fill stroke markers" stroke="#000000" stroke-dasharray="" stroke-miterlimit="10"/></g><g><path d=" M 410.60302255933516 123.80403104067244 L 393 137 L 414.7781757565534 140.116257485618" fill="#FFFFFF" paint-order="stroke fill markers" stroke="none"/></g><g><path d=" M 410.60302255933516 123.80403104067244 L 393 137 L 414.7781757565534 140.116257485618 L 410.60302255933516 123.80403104067244" fill="none" paint-order="fill stroke markers" stroke="#000000" stroke-dasharray="" stroke-miterlimit="10"/></g></g></svg>