<?xml version="1.0" encoding="utf-8"?>
<svg height="292" version="1.1" width="716" xmlns="http://www.w3.org/2000/svg" xmlns:xlink="http://www.w3.org/1999/xlink"><defs/><g><g><path d=" M 170 10 L 706 10 L 706 282 L 170 282 L 170 10" fill="none" paint-order="fill stroke markers" stroke="#000000" stroke-dasharray="" stroke-miterlimit="10"/></g><g><path d=" M 170 10 L 170 33 L 354.60009765625 33 L 366.10009765625 21.5 L 366.10009765625 10 L 170 10" fill="#ffffff" paint-order="stroke fill markers" stroke="none"/></g><g><path d=" M 170 10 L 170 33 L 354.60009765625 33 L 366.10009765625 21.5 L 366.10009765625 10 L 170 10 L 170 10" fill="none" paint-order="fill stroke markers" stroke="#000000" stroke-dasharray="" stroke-miterlimit="10"/></g><g><g><path fill="none" stroke="none"/><text dominant-baseline="central" fill="#000000" font-family="Arial" font-size="13px" font-style="normal" font-weight="normal" stroke="none" text-anchor="middle" text-decoration="undefined" transform="matrix(1 0 0 1 -102 -198)" x="374.1650390625" y="219.5">UC_XemThongTinCaNhan</text></g></g><g><g><path fill="none" stroke="none"/><text dominant-baseline="central" fill="#000000" font-family="Arial" font-size="13px" font-style="normal" font-weight="bold" stroke="none" text-anchor="middle" text-decoration="undefined" transform="matrix(1 0 0 1 -102 -198)" x="283.864990234375" y="219.5">uc</text></g></g><g><path d=" M 70.014248046875 147.85000000000002 C 70.014248046875 142.96227952000004 73.97205041487499 139 78.854248046875 139 C 83.73644567887501 139 87.694248046875 142.96227952000004 87.694248046875 147.85000000000002 C 87.694248046875 152.73772048 83.73644567887501 156.7 78.854248046875 156.7 C 73.97205041487499 156.7 70.014248046875 152.73772048 70.014248046875 147.85000000000002 Z" fill="#ffffff" paint-order="stroke fill markers" stroke="none"/></g><g><path d=" M 70.014248046875 147.85000000000002 C 70.014248046875 142.96227952000004 73.97205041487499 139 78.854248046875 139 C 83.73644567887501 139 87.694248046875 142.96227952000004 87.694248046875 147.85000000000002 C 87.694248046875 152.73772048 83.73644567887501 156.7 78.854248046875 156.7 C 73.97205041487499 156.7 70.014248046875 152.73772048 70.014248046875 147.85000000000002 Z" fill="none" paint-order="fill stroke markers" stroke="#000000" stroke-dasharray="" stroke-miterlimit="10"/></g><g><path d=" M 78.854248046875 156.7 L 78.854248046875 174.3" fill="none" paint-order="fill stroke markers" stroke="#000000" stroke-dasharray="" stroke-miterlimit="10"/></g><g><path d=" M 69.49424804687499 163.3 L 88.21424804687501 163.3" fill="none" paint-order="fill stroke markers" stroke="#000000" stroke-dasharray="" stroke-miterlimit="10"/></g><g><path d=" M 78.854248046875 174.3 L 65.854248046875 192" fill="none" paint-order="fill stroke markers" stroke="#000000" stroke-dasharray="" stroke-miterlimit="10"/></g><g><path d=" M 78.854248046875 174.3 L 91.854248046875 192" fill="none" paint-order="fill stroke markers" stroke="#000000" stroke-dasharray="" stroke-miterlimit="10"/></g><g><g><path fill="none" stroke="none"/><text dominant-baseline="central" fill="#000000" font-family="Arial" font-size="13px" font-style="normal" font-weight="bold" stroke="none" text-anchor="middle" text-decoration="undefined" transform="matrix(1 0 0 1 -102 -198)" x="181.354248046875" y="404.5">Người đã đăng nhập</text></g></g><g><path d=" M 337 146.5 C 337 136.835016 390.5019664 129 456.5 129 C 522.4980336 129 576 136.835016 576 146.5 C 576 156.164984 522.4980336 164 456.5 164 C 390.5019664 164 337 156.164984 337 146.5 Z" fill="#C0C0C0" fill-opacity="0.2" paint-order="stroke fill markers" stroke="none"/></g><g><path d=" M 330 139.5 C 330 129.835016 383.5019664 122 449.5 122 C 515.4980336 122 569 129.835016 569 139.5 C 569 149.164984 515.4980336 157 449.5 157 C 383.5019664 157 330 149.164984 330 139.5 Z" fill="#ffffff" paint-order="stroke fill markers" stroke="none"/></g><g><path d=" M 330 139.5 C 330 129.835016 383.5019664 122 449.5 122 C 515.4980336 122 569 129.835016 569 139.5 C 569 149.164984 515.4980336 157 449.5 157 C 383.5019664 157 330 149.164984 330 139.5 Z" fill="none" paint-order="fill stroke markers" stroke="#000000" stroke-dasharray="" stroke-miterlimit="10"/></g><g><g><path fill="none" stroke="none"/><text dominant-baseline="central" fill="#000000" font-family="Arial" font-size="13px" font-style="normal" font-weight="bold" stroke="none" text-anchor="middle" text-decoration="undefined" transform="matrix(1 0 0 1 -102 -198)" x="551.5" y="338.5">Xem thông tin cá nhân</text></g></g><g><path d=" M 149 171 L 329 152" fill="none" paint-order="fill stroke markers" stroke="#000000" stroke-dasharray="" stroke-miterlimit="10"/></g></g></svg>