<?xml version="1.0" encoding="utf-8"?>
<svg height="804" version="1.1" width="804" xmlns="http://www.w3.org/2000/svg" xmlns:xlink="http://www.w3.org/1999/xlink"><defs/><g><g><path d=" M 146 10 L 794 10 L 794 794 L 146 794 L 146 10" fill="none" paint-order="fill stroke markers" stroke="#000000" stroke-dasharray="" stroke-miterlimit="10"/></g><g><path d=" M 146 10 L 146 33 L 294.24072265625 33 L 305.74072265625 21.5 L 305.74072265625 10 L 146 10" fill="#ffffff" paint-order="stroke fill markers" stroke="none"/></g><g><path d=" M 146 10 L 146 33 L 294.24072265625 33 L 305.74072265625 21.5 L 305.74072265625 10 L 146 10 L 146 10" fill="none" paint-order="fill stroke markers" stroke="#000000" stroke-dasharray="" stroke-miterlimit="10"/></g><g><g><path fill="none" stroke="none"/><text dominant-baseline="central" fill="#000000" font-family="Arial" font-size="13px" font-style="normal" font-weight="normal" stroke="none" text-anchor="middle" text-decoration="undefined" transform="matrix(1 0 0 1 -358 -302)" x="587.9853515625" y="323.5">UseCaseNguoiDung</text></g></g><g><g><path fill="none" stroke="none"/><text dominant-baseline="central" fill="#000000" font-family="Arial" font-size="13px" font-style="normal" font-weight="bold" stroke="none" text-anchor="middle" text-decoration="undefined" transform="matrix(1 0 0 1 -358 -302)" x="515.864990234375" y="323.5">uc</text></g></g><g><path d=" M 44.369716796875025 379.85 C 44.369716796875025 374.96227952000004 48.327519164875014 371 53.209716796875 371 C 58.091914428874986 371 62.049716796874975 374.96227952000004 62.049716796874975 379.85 C 62.049716796874975 384.73772048 58.091914428874986 388.70000000000005 53.209716796875 388.70000000000005 C 48.327519164875014 388.70000000000005 44.369716796875025 384.73772048 44.369716796875025 379.85 Z" fill="#ffffff" paint-order="stroke fill markers" stroke="none"/></g><g><path d=" M 44.369716796875025 379.85 C 44.369716796875025 374.96227952000004 48.327519164875014 371 53.209716796875 371 C 58.091914428874986 371 62.049716796874975 374.96227952000004 62.049716796874975 379.85 C 62.049716796874975 384.73772048 58.091914428874986 388.70000000000005 53.209716796875 388.70000000000005 C 48.327519164875014 388.70000000000005 44.369716796875025 384.73772048 44.369716796875025 379.85 Z" fill="none" paint-order="fill stroke markers" stroke="#000000" stroke-dasharray="" stroke-miterlimit="10"/></g><g><path d=" M 53.209716796875 388.70000000000005 L 53.209716796875 406.29999999999995" fill="none" paint-order="fill stroke markers" stroke="#000000" stroke-dasharray="" stroke-miterlimit="10"/></g><g><path d=" M 43.849716796874986 395.29999999999995 L 62.569716796875014 395.29999999999995" fill="none" paint-order="fill stroke markers" stroke="#000000" stroke-dasharray="" stroke-miterlimit="10"/></g><g><path d=" M 53.209716796875 406.29999999999995 L 40.209716796875 424" fill="none" paint-order="fill stroke markers" stroke="#000000" stroke-dasharray="" stroke-miterlimit="10"/></g><g><path d=" M 53.209716796875 406.29999999999995 L 66.209716796875 424" fill="none" paint-order="fill stroke markers" stroke="#000000" stroke-dasharray="" stroke-miterlimit="10"/></g><g><g><path fill="none" stroke="none"/><text dominant-baseline="central" fill="#000000" font-family="Arial" font-size="13px" font-style="normal" font-weight="bold" stroke="none" text-anchor="middle" text-decoration="undefined" transform="matrix(1 0 0 1 -358 -302)" x="411.709716796875" y="740.5">Người Dùng</text></g></g><g><path d=" M 321 394.5 C 321 384.835016 365.9953776 377 421.5 377 C 477.0046224 377 522 384.835016 522 394.5 C 522 404.164984 477.0046224 412 421.5 412 C 365.9953776 412 321 404.164984 321 394.5 Z" fill="#C0C0C0" fill-opacity="0.2" paint-order="stroke fill markers" stroke="none"/></g><g><path d=" M 314 387.5 C 314 377.835016 358.9953776 370 414.5 370 C 470.0046224 370 515 377.835016 515 387.5 C 515 397.164984 470.0046224 405 414.5 405 C 358.9953776 405 314 397.164984 314 387.5 Z" fill="#ffffff" paint-order="stroke fill markers" stroke="none"/></g><g><path d=" M 314 387.5 C 314 377.835016 358.9953776 370 414.5 370 C 470.0046224 370 515 377.835016 515 387.5 C 515 397.164984 470.0046224 405 414.5 405 C 358.9953776 405 314 397.164984 314 387.5 Z" fill="none" paint-order="fill stroke markers" stroke="#000000" stroke-dasharray="" stroke-miterlimit="10"/></g><g><g><path fill="none" stroke="none"/><text dominant-baseline="central" fill="#000000" font-family="Arial" font-size="13px" font-style="normal" font-weight="bold" stroke="none" text-anchor="middle" text-decoration="undefined" transform="matrix(1 0 0 1 -358 -302)" x="772.5" y="690.5">Xem thông tin chi tiết</text></g></g><g><path d=" M 97 407 L 313 393" fill="none" paint-order="fill stroke markers" stroke="#000000" stroke-dasharray="" stroke-miterlimit="10"/></g><g><path d=" M 97 407 L 313 393" fill="none" paint-order="fill stroke markers" stroke="#000000" stroke-dasharray="" stroke-miterlimit="10"/></g><g><path d=" M 257 546.5 C 257 536.835016 291.69792800000005 529 334.5 529 C 377.30207199999995 529 412 536.835016 412 546.5 C 412 556.164984 377.30207199999995 564 334.5 564 C 291.69792800000005 564 257 556.164984 257 546.5 Z" fill="#C0C0C0" fill-opacity="0.2" paint-order="stroke fill markers" stroke="none"/></g><g><path d=" M 250 539.5 C 250 529.835016 284.69792800000005 522 327.5 522 C 370.30207199999995 522 405 529.835016 405 539.5 C 405 549.164984 370.30207199999995 557 327.5 557 C 284.69792800000005 557 250 549.164984 250 539.5 Z" fill="#ffffff" paint-order="stroke fill markers" stroke="none"/></g><g><path d=" M 250 539.5 C 250 529.835016 284.69792800000005 522 327.5 522 C 370.30207199999995 522 405 529.835016 405 539.5 C 405 549.164984 370.30207199999995 557 327.5 557 C 284.69792800000005 557 250 549.164984 250 539.5 Z" fill="none" paint-order="fill stroke markers" stroke="#000000" stroke-dasharray="" stroke-miterlimit="10"/></g><g><g><path fill="none" stroke="none"/><text dominant-baseline="central" fill="#000000" font-family="Arial" font-size="13px" font-style="normal" font-weight="bold" stroke="none" text-anchor="middle" text-decoration="undefined" transform="matrix(1 0 0 1 -358 -302)" x="685.5" y="842.5">Xem lịch thi đấu</text></g></g><g><path d=" M 97 431 L 289 521" fill="none" paint-order="fill stroke markers" stroke="#000000" stroke-dasharray="" stroke-miterlimit="10"/></g><g><path d=" M 249 226.5 C 249 216.835016 279.89234880000004 209 318 209 C 356.10765119999996 209 387 216.835016 387 226.5 C 387 236.164984 356.10765119999996 244 318 244 C 279.89234880000004 244 249 236.164984 249 226.5 Z" fill="#C0C0C0" fill-opacity="0.2" paint-order="stroke fill markers" stroke="none"/></g><g><path d=" M 242 219.5 C 242 209.835016 272.89234880000004 202 311 202 C 349.10765119999996 202 380 209.835016 380 219.5 C 380 229.164984 349.10765119999996 237 311 237 C 272.89234880000004 237 242 229.164984 242 219.5 Z" fill="#ffffff" paint-order="stroke fill markers" stroke="none"/></g><g><path d=" M 242 219.5 C 242 209.835016 272.89234880000004 202 311 202 C 349.10765119999996 202 380 209.835016 380 219.5 C 380 229.164984 349.10765119999996 237 311 237 C 272.89234880000004 237 242 229.164984 242 219.5 Z" fill="none" paint-order="fill stroke markers" stroke="#000000" stroke-dasharray="" stroke-miterlimit="10"/></g><g><g><path fill="none" stroke="none"/><text dominant-baseline="central" fill="#000000" font-family="Arial" font-size="13px" font-style="normal" font-weight="bold" stroke="none" text-anchor="middle" text-decoration="undefined" transform="matrix(1 0 0 1 -358 -302)" x="669" y="522.5">Xem diễn biến</text></g></g><g><path d=" M 97 377 L 285 238" fill="none" paint-order="fill stroke markers" stroke="#000000" stroke-dasharray="" stroke-miterlimit="10"/></g><g><path d=" M 449 666.5 C 449 656.835016 478.54920319999997 649 515 649 C 551.4507968 649 581 656.835016 581 666.5 C 581 676.164984 551.4507968 684 515 684 C 478.54920319999997 684 449 676.164984 449 666.5 Z" fill="#C0C0C0" fill-opacity="0.2" paint-order="stroke fill markers" stroke="none"/></g><g><path d=" M 442 659.5 C 442 649.835016 471.54920319999997 642 508 642 C 544.4507968 642 574 649.835016 574 659.5 C 574 669.164984 544.4507968 677 508 677 C 471.54920319999997 677 442 669.164984 442 659.5 Z" fill="#ffffff" paint-order="stroke fill markers" stroke="none"/></g><g><path d=" M 442 659.5 C 442 649.835016 471.54920319999997 642 508 642 C 544.4507968 642 574 649.835016 574 659.5 C 574 669.164984 544.4507968 677 508 677 C 471.54920319999997 677 442 669.164984 442 659.5 Z" fill="none" paint-order="fill stroke markers" stroke="#000000" stroke-dasharray="" stroke-miterlimit="10"/></g><g><g><path fill="none" stroke="none"/><text dominant-baseline="central" fill="#000000" font-family="Arial" font-size="13px" font-style="normal" font-weight="bold" stroke="none" text-anchor="middle" text-decoration="undefined" transform="matrix(1 0 0 1 -358 -302)" x="866" y="962.5">In lịch thi đấu</text></g></g><g><path d=" M 385 114.5 C 385 104.835016 441.6359728 97 511.5 97 C 581.3640272 97 638 104.835016 638 114.5 C 638 124.164984 581.3640272 132 511.5 132 C 441.6359728 132 385 124.164984 385 114.5 Z" fill="#C0C0C0" fill-opacity="0.2" paint-order="stroke fill markers" stroke="none"/></g><g><path d=" M 378 107.5 C 378 97.835016 434.6359728 90 504.5 90 C 574.3640272 90 631 97.835016 631 107.5 C 631 117.164984 574.3640272 125 504.5 125 C 434.6359728 125 378 117.164984 378 107.5 Z" fill="#ffffff" paint-order="stroke fill markers" stroke="none"/></g><g><path d=" M 378 107.5 C 378 97.835016 434.6359728 90 504.5 90 C 574.3640272 90 631 97.835016 631 107.5 C 631 117.164984 574.3640272 125 504.5 125 C 434.6359728 125 378 117.164984 378 107.5 Z" fill="none" paint-order="fill stroke markers" stroke="#000000" stroke-dasharray="" stroke-miterlimit="10"/></g><g><g><path fill="none" stroke="none"/><text dominant-baseline="central" fill="#000000" font-family="Arial" font-size="13px" font-style="normal" font-weight="bold" stroke="none" text-anchor="middle" text-decoration="undefined" transform="matrix(1 0 0 1 -358 -302)" x="862.5" y="410.5">Xem diễn biến trận đấu loại</text></g></g><g><path d=" M 521 194.5 C 521 184.835016 568.6816688 177 627.5 177 C 686.3183312000001 177 734 184.835016 734 194.5 C 734 204.164984 686.3183312000001 212 627.5 212 C 568.6816688 212 521 204.164984 521 194.5 Z" fill="#C0C0C0" fill-opacity="0.2" paint-order="stroke fill markers" stroke="none"/></g><g><path d=" M 514 187.5 C 514 177.835016 561.6816688 170 620.5 170 C 679.3183312000001 170 727 177.835016 727 187.5 C 727 197.164984 679.3183312000001 205 620.5 205 C 561.6816688 205 514 197.164984 514 187.5 Z" fill="#ffffff" paint-order="stroke fill markers" stroke="none"/></g><g><path d=" M 514 187.5 C 514 177.835016 561.6816688 170 620.5 170 C 679.3183312000001 170 727 177.835016 727 187.5 C 727 197.164984 679.3183312000001 205 620.5 205 C 561.6816688 205 514 197.164984 514 187.5 Z" fill="none" paint-order="fill stroke markers" stroke="#000000" stroke-dasharray="" stroke-miterlimit="10"/></g><g><g><path fill="none" stroke="none"/><text dominant-baseline="central" fill="#000000" font-family="Arial" font-size="13px" font-style="normal" font-weight="bold" stroke="none" text-anchor="middle" text-decoration="undefined" transform="matrix(1 0 0 1 -358 -302)" x="978.5" y="490.5">Xem diễn biến giải đấu</text></g></g><g><path d=" M 449 266.5 C 449 256.835016 516.6049952 249 600 249 C 683.3950047999999 249 751 256.835016 751 266.5 C 751 276.164984 683.3950047999999 284 600 284 C 516.6049952 284 449 276.164984 449 266.5 Z" fill="#C0C0C0" fill-opacity="0.2" paint-order="stroke fill markers" stroke="none"/></g><g><path d=" M 442 259.5 C 442 249.835016 509.60499519999996 242 593 242 C 676.3950047999999 242 744 249.835016 744 259.5 C 744 269.164984 676.3950047999999 277 593 277 C 509.60499519999996 277 442 269.164984 442 259.5 Z" fill="#ffffff" paint-order="stroke fill markers" stroke="none"/></g><g><path d=" M 442 259.5 C 442 249.835016 509.60499519999996 242 593 242 C 676.3950047999999 242 744 249.835016 744 259.5 C 744 269.164984 676.3950047999999 277 593 277 C 509.60499519999996 277 442 269.164984 442 259.5 Z" fill="none" paint-order="fill stroke markers" stroke="#000000" stroke-dasharray="" stroke-miterlimit="10"/></g><g><g><path fill="none" stroke="none"/><text dominant-baseline="central" fill="#000000" font-family="Arial" font-size="13px" font-style="normal" font-weight="bold" stroke="none" text-anchor="middle" text-decoration="undefined" transform="matrix(1 0 0 1 -358 -302)" x="951" y="562.5">Xem thông tin của vận động viên</text></g></g><g><path d=" M 585 330.5 C 585 320.835016 631.1146656 313 688 313 C 744.8853343999999 313 791 320.835016 791 330.5 C 791 340.164984 744.8853343999999 348 688 348 C 631.1146656 348 585 340.164984 585 330.5 Z" fill="#C0C0C0" fill-opacity="0.2" paint-order="stroke fill markers" stroke="none"/></g><g><path d=" M 578 323.5 C 578 313.835016 624.1146656 306 681 306 C 737.8853343999999 306 784 313.835016 784 323.5 C 784 333.164984 737.8853343999999 341 681 341 C 624.1146656 341 578 333.164984 578 323.5 Z" fill="#ffffff" paint-order="stroke fill markers" stroke="none"/></g><g><path d=" M 578 323.5 C 578 313.835016 624.1146656 306 681 306 C 737.8853343999999 306 784 313.835016 784 323.5 C 784 333.164984 737.8853343999999 341 681 341 C 624.1146656 341 578 333.164984 578 323.5 Z" fill="none" paint-order="fill stroke markers" stroke="#000000" stroke-dasharray="" stroke-miterlimit="10"/></g><g><g><path fill="none" stroke="none"/><text dominant-baseline="central" fill="#000000" font-family="Arial" font-size="13px" font-style="normal" font-weight="bold" stroke="none" text-anchor="middle" text-decoration="undefined" transform="matrix(1 0 0 1 -358 -302)" x="1039" y="626.5">Xem thông tin của đội</text></g></g><g><path d=" M 569 442.5 C 569 432.835016 618.6963872 425 680 425 C 741.3036128000001 425 791 432.835016 791 442.5 C 791 452.164984 741.3036128000001 460 680 460 C 618.6963872 460 569 452.164984 569 442.5 Z" fill="#C0C0C0" fill-opacity="0.2" paint-order="stroke fill markers" stroke="none"/></g><g><path d=" M 562 435.5 C 562 425.835016 611.6963872 418 673 418 C 734.3036128000001 418 784 425.835016 784 435.5 C 784 445.164984 734.3036128000001 453 673 453 C 611.6963872 453 562 445.164984 562 435.5 Z" fill="#ffffff" paint-order="stroke fill markers" stroke="none"/></g><g><path d=" M 562 435.5 C 562 425.835016 611.6963872 418 673 418 C 734.3036128000001 418 784 425.835016 784 435.5 C 784 445.164984 734.3036128000001 453 673 453 C 611.6963872 453 562 445.164984 562 435.5 Z" fill="none" paint-order="fill stroke markers" stroke="#000000" stroke-dasharray="" stroke-miterlimit="10"/></g><g><g><path fill="none" stroke="none"/><text dominant-baseline="central" fill="#000000" font-family="Arial" font-size="13px" font-style="normal" font-weight="bold" stroke="none" text-anchor="middle" text-decoration="undefined" transform="matrix(1 0 0 1 -358 -302)" x="1031" y="738.5">Xem thông tin của đoàn</text></g></g><g><path d=" M 521 562.5 C 521 552.835016 576.5166848 545 645 545 C 713.4833152000001 545 769 552.835016 769 562.5 C 769 572.164984 713.4833152000001 580 645 580 C 576.5166848 580 521 572.164984 521 562.5 Z" fill="#C0C0C0" fill-opacity="0.2" paint-order="stroke fill markers" stroke="none"/></g><g><path d=" M 514 555.5 C 514 545.835016 569.5166848 538 638 538 C 706.4833152000001 538 762 545.835016 762 555.5 C 762 565.164984 706.4833152000001 573 638 573 C 569.5166848 573 514 565.164984 514 555.5 Z" fill="#ffffff" paint-order="stroke fill markers" stroke="none"/></g><g><path d=" M 514 555.5 C 514 545.835016 569.5166848 538 638 538 C 706.4833152000001 538 762 545.835016 762 555.5 C 762 565.164984 706.4833152000001 573 638 573 C 569.5166848 573 514 565.164984 514 555.5 Z" fill="none" paint-order="fill stroke markers" stroke="#000000" stroke-dasharray="" stroke-miterlimit="10"/></g><g><g><path fill="none" stroke="none"/><text dominant-baseline="central" fill="#000000" font-family="Arial" font-size="13px" font-style="normal" font-weight="bold" stroke="none" text-anchor="middle" text-decoration="undefined" transform="matrix(1 0 0 1 -358 -302)" x="996" y="858.5">Xem thông tin của giải đầu</text></g></g><g><path d=" M 513 198 L 381 212" fill="none" paint-order="fill stroke markers" stroke="#000000" stroke-dasharray="" stroke-miterlimit="10"/></g><g><path d=" M 400.3240390202217 201.4842253758959 L 381 212 L 402.09993457724556 218.22838348497874" fill="#FFFFFF" paint-order="stroke fill markers" stroke="none"/></g><g><path d=" M 400.3240390202217 201.4842253758959 L 381 212 L 402.09993457724556 218.22838348497874 L 400.3240390202217 201.4842253758959" fill="none" paint-order="fill stroke markers" stroke="#000000" stroke-dasharray="" stroke-miterlimit="10"/></g><g><path d=" M 471 126 L 342 201" fill="none" paint-order="fill stroke markers" stroke="#000000" stroke-dasharray="" stroke-miterlimit="10"/></g><g><path d=" M 355.3398314209918 183.5057467247235 L 342 201 L 363.80299038041164 198.06238013492566" fill="#FFFFFF" paint-order="stroke fill markers" stroke="none"/></g><g><path d=" M 355.3398314209918 183.5057467247235 L 342 201 L 363.80299038041164 198.06238013492566 L 355.3398314209918 183.5057467247235" fill="none" paint-order="fill stroke markers" stroke="#000000" stroke-dasharray="" stroke-miterlimit="10"/></g><g><path d=" M 566 278 L 439 369" fill="none" paint-order="fill stroke markers" stroke="#000000" stroke-dasharray="" stroke-miterlimit="10"/></g><g><path d=" M 450.61816463785954 350.3179698520854 L 439 369 L 460.4254732042941 364.0050927964502" fill="#FFFFFF" paint-order="stroke fill markers" stroke="none"/></g><g><path d=" M 450.61816463785954 350.3179698520854 L 439 369 L 460.4254732042941 364.0050927964502 L 450.61816463785954 350.3179698520854" fill="none" paint-order="fill stroke markers" stroke="#000000" stroke-dasharray="" stroke-miterlimit="10"/></g><g><path d=" M 602 342 L 489 369" fill="none" paint-order="fill stroke markers" stroke="#000000" stroke-dasharray="" stroke-miterlimit="10"/></g><g><path d=" M 506.8123140368733 356.08793321532903 L 489 369 L 510.72541802667195 372.46499806152303" fill="#FFFFFF" paint-order="stroke fill markers" stroke="none"/></g><g><path d=" M 506.8123140368733 356.08793321532903 L 489 369 L 510.72541802667195 372.46499806152303 L 506.8123140368733 356.08793321532903" fill="none" paint-order="fill stroke markers" stroke="#000000" stroke-dasharray="" stroke-miterlimit="10"/></g><g><path d=" M 576 417 L 516 406" fill="none" paint-order="fill stroke markers" stroke="#000000" stroke-dasharray="" stroke-miterlimit="10"/></g><g><path d=" M 537.5103339925779 401.38420846140673 L 516 406 L 534.473960529222 417.9462455342566" fill="#FFFFFF" paint-order="stroke fill markers" stroke="none"/></g><g><path d=" M 537.5103339925779 401.38420846140673 L 516 406 L 534.473960529222 417.9462455342566 L 537.5103339925779 401.38420846140673" fill="none" paint-order="fill stroke markers" stroke="#000000" stroke-dasharray="" stroke-miterlimit="10"/></g><g><path d=" M 614 537 L 439 406" fill="none" paint-order="fill stroke markers" stroke="#000000" stroke-dasharray="" stroke-miterlimit="10"/></g><g><path d=" M 460.31668756611805 411.4404807883592 L 439 406 L 450.2261734720731 424.92017518880107" fill="#FFFFFF" paint-order="stroke fill markers" stroke="none"/></g><g><path d=" M 460.31668756611805 411.4404807883592 L 439 406 L 450.2261734720731 424.92017518880107 L 460.31668756611805 411.4404807883592" fill="none" paint-order="fill stroke markers" stroke="#000000" stroke-dasharray="" stroke-miterlimit="10"/></g><g><path d=" M 481 641 L 356 558" fill="none" paint-order="fill stroke markers" stroke="#000000" stroke-dasharray="3" stroke-miterlimit="10"/></g><g><path d=" M 366.7948043450277 560.1147574689714 L 356 558 L 362.1377200070765 567.1284387008258" fill="none" paint-order="fill stroke markers" stroke="#000000" stroke-dasharray="" stroke-miterlimit="10"/></g><g><rect fill="#ffffff" height="13" stroke="none" transform="matrix(1 0 0 1 -358 -302)" width="53.49169921875" x="733" y="920"/></g><g><g><path fill="none" stroke="none"/><text dominant-baseline="central" fill="#000000" font-family="Arial" font-size="13px" font-style="normal" font-weight="normal" stroke="none" text-anchor="middle" text-decoration="undefined" transform="matrix(1 0 0 1 -358 -302)" x="759.745849609375" y="926.5">«extend»</text></g></g><g><path d=" M 406 543 L 513 549" fill="none" paint-order="fill stroke markers" stroke="#000000" stroke-dasharray="3" stroke-miterlimit="10"/></g><g><path d=" M 502.6175877280996 552.6339393798316 L 513 549 L 503.088942699565 544.2281090553645" fill="none" paint-order="fill stroke markers" stroke="#000000" stroke-dasharray="" stroke-miterlimit="10"/></g><g><rect fill="#ffffff" height="13" stroke="none" transform="matrix(1 0 0 1 -358 -302)" width="53.49169921875" x="792" y="812"/></g><g><g><path fill="none" stroke="none"/><text dominant-baseline="central" fill="#000000" font-family="Arial" font-size="13px" font-style="normal" font-weight="normal" stroke="none" text-anchor="middle" text-decoration="undefined" transform="matrix(1 0 0 1 -358 -302)" x="818.745849609375" y="818.5">«extend»</text></g></g><g><path d=" M 169 106.5 C 169 96.835016 209.0705104 89 258.5 89 C 307.9294896 89 348 96.835016 348 106.5 C 348 116.164984 307.9294896 124 258.5 124 C 209.0705104 124 169 116.164984 169 106.5 Z" fill="#C0C0C0" fill-opacity="0.2" paint-order="stroke fill markers" stroke="none"/></g><g><path d=" M 162 99.5 C 162 89.835016 202.0705104 82 251.5 82 C 300.9294896 82 341 89.835016 341 99.5 C 341 109.164984 300.9294896 117 251.5 117 C 202.0705104 117 162 109.164984 162 99.5 Z" fill="#ffffff" paint-order="stroke fill markers" stroke="none"/></g><g><path d=" M 162 99.5 C 162 89.835016 202.0705104 82 251.5 82 C 300.9294896 82 341 89.835016 341 99.5 C 341 109.164984 300.9294896 117 251.5 117 C 202.0705104 117 162 109.164984 162 99.5 Z" fill="none" paint-order="fill stroke markers" stroke="#000000" stroke-dasharray="" stroke-miterlimit="10"/></g><g><g><path fill="none" stroke="none"/><text dominant-baseline="central" fill="#000000" font-family="Arial" font-size="13px" font-style="normal" font-weight="bold" stroke="none" text-anchor="middle" text-decoration="undefined" transform="matrix(1 0 0 1 -358 -302)" x="609.5" y="402.5">Tìm kiếm diễn biến</text></g></g><g><path d=" M 261 118 L 302 201" fill="none" paint-order="fill stroke markers" stroke="#000000" stroke-dasharray="3" stroke-miterlimit="10"/></g><g><path d=" M 293.72492053926453 193.75272051604782 L 302 201 L 301.27323566671316 190.02403473019973" fill="none" paint-order="fill stroke markers" stroke="#000000" stroke-dasharray="" stroke-miterlimit="10"/></g><g><rect fill="#ffffff" height="13" stroke="none" transform="matrix(1 0 0 1 -358 -302)" width="53.49169921875" x="638" y="446"/></g><g><g><path fill="none" stroke="none"/><text dominant-baseline="central" fill="#000000" font-family="Arial" font-size="13px" font-style="normal" font-weight="normal" stroke="none" text-anchor="middle" text-decoration="undefined" transform="matrix(1 0 0 1 -358 -302)" x="664.745849609375" y="452.5">«extend»</text></g></g></g></svg>