<?xml version="1.0" encoding="utf-8"?>
<svg height="588" version="1.1" width="972" xmlns="http://www.w3.org/2000/svg" xmlns:xlink="http://www.w3.org/1999/xlink"><defs/><g><g><path d=" M 170 10 L 962 10 L 962 578 L 170 578 L 170 10" fill="none" paint-order="fill stroke markers" stroke="#000000" stroke-dasharray="" stroke-miterlimit="10"/></g><g><path d=" M 170 10 L 170 33 L 324.98193359375 33 L 336.48193359375 21.5 L 336.48193359375 10 L 170 10" fill="#ffffff" paint-order="stroke fill markers" stroke="none"/></g><g><path d=" M 170 10 L 170 33 L 324.98193359375 33 L 336.48193359375 21.5 L 336.48193359375 10 L 170 10 L 170 10" fill="none" paint-order="fill stroke markers" stroke="#000000" stroke-dasharray="" stroke-miterlimit="10"/></g><g><g><path fill="none" stroke="none"/><text dominant-baseline="central" fill="#000000" font-family="Arial" font-size="13px" font-style="normal" font-weight="normal" stroke="none" text-anchor="middle" text-decoration="undefined" transform="matrix(1 0 0 1 -398 -150)" x="655.35595703125" y="171.5">UseCaseTruongDoan</text></g></g><g><g><path fill="none" stroke="none"/><text dominant-baseline="central" fill="#000000" font-family="Arial" font-size="13px" font-style="normal" font-weight="bold" stroke="none" text-anchor="middle" text-decoration="undefined" transform="matrix(1 0 0 1 -398 -150)" x="579.864990234375" y="171.5">uc</text></g></g><g><path d=" M 70.01424804687503 115.85000000000002 C 70.01424804687503 110.96227952000004 73.97205041487501 107 78.854248046875 107 C 83.73644567887499 107 87.69424804687497 110.96227952000004 87.69424804687497 115.85000000000002 C 87.69424804687497 120.73772048000001 83.73644567887499 124.69999999999999 78.854248046875 124.69999999999999 C 73.97205041487501 124.69999999999999 70.01424804687503 120.73772048000001 70.01424804687503 115.85000000000002 Z" fill="#ffffff" paint-order="stroke fill markers" stroke="none"/></g><g><path d=" M 70.01424804687503 115.85000000000002 C 70.01424804687503 110.96227952000004 73.97205041487501 107 78.854248046875 107 C 83.73644567887499 107 87.69424804687497 110.96227952000004 87.69424804687497 115.85000000000002 C 87.69424804687497 120.73772048000001 83.73644567887499 124.69999999999999 78.854248046875 124.69999999999999 C 73.97205041487501 124.69999999999999 70.01424804687503 120.73772048000001 70.01424804687503 115.85000000000002 Z" fill="none" paint-order="fill stroke markers" stroke="#000000" stroke-dasharray="" stroke-miterlimit="10"/></g><g><path d=" M 78.854248046875 124.69999999999999 L 78.854248046875 142.3" fill="none" paint-order="fill stroke markers" stroke="#000000" stroke-dasharray="" stroke-miterlimit="10"/></g><g><path d=" M 69.49424804687499 131.3 L 88.21424804687501 131.3" fill="none" paint-order="fill stroke markers" stroke="#000000" stroke-dasharray="" stroke-miterlimit="10"/></g><g><path d=" M 78.854248046875 142.3 L 65.854248046875 160" fill="none" paint-order="fill stroke markers" stroke="#000000" stroke-dasharray="" stroke-miterlimit="10"/></g><g><path d=" M 78.854248046875 142.3 L 91.854248046875 160" fill="none" paint-order="fill stroke markers" stroke="#000000" stroke-dasharray="" stroke-miterlimit="10"/></g><g><g><path fill="none" stroke="none"/><text dominant-baseline="central" fill="#000000" font-family="Arial" font-size="13px" font-style="normal" font-weight="bold" stroke="none" text-anchor="middle" text-decoration="undefined" transform="matrix(1 0 0 1 -398 -150)" x="477.354248046875" y="324.5">Người đã đăng nhập</text></g></g><g><path d=" M 63.626064453125025 379.85 C 63.626064453125025 374.96227952000004 67.58386682112501 371 72.466064453125 371 C 77.34826208512499 371 81.30606445312497 374.96227952000004 81.30606445312497 379.85 C 81.30606445312497 384.73772048 77.34826208512499 388.70000000000005 72.466064453125 388.70000000000005 C 67.58386682112501 388.70000000000005 63.626064453125025 384.73772048 63.626064453125025 379.85 Z" fill="#ffffff" paint-order="stroke fill markers" stroke="none"/></g><g><path d=" M 63.626064453125025 379.85 C 63.626064453125025 374.96227952000004 67.58386682112501 371 72.466064453125 371 C 77.34826208512499 371 81.30606445312497 374.96227952000004 81.30606445312497 379.85 C 81.30606445312497 384.73772048 77.34826208512499 388.70000000000005 72.466064453125 388.70000000000005 C 67.58386682112501 388.70000000000005 63.626064453125025 384.73772048 63.626064453125025 379.85 Z" fill="none" paint-order="fill stroke markers" stroke="#000000" stroke-dasharray="" stroke-miterlimit="10"/></g><g><path d=" M 72.466064453125 388.70000000000005 L 72.466064453125 406.29999999999995" fill="none" paint-order="fill stroke markers" stroke="#000000" stroke-dasharray="" stroke-miterlimit="10"/></g><g><path d=" M 63.106064453124986 395.29999999999995 L 81.82606445312501 395.29999999999995" fill="none" paint-order="fill stroke markers" stroke="#000000" stroke-dasharray="" stroke-miterlimit="10"/></g><g><path d=" M 72.466064453125 406.29999999999995 L 59.466064453125 424" fill="none" paint-order="fill stroke markers" stroke="#000000" stroke-dasharray="" stroke-miterlimit="10"/></g><g><path d=" M 72.466064453125 406.29999999999995 L 85.466064453125 424" fill="none" paint-order="fill stroke markers" stroke="#000000" stroke-dasharray="" stroke-miterlimit="10"/></g><g><g><path fill="none" stroke="none"/><text dominant-baseline="central" fill="#000000" font-family="Arial" font-size="13px" font-style="normal" font-weight="bold" stroke="none" text-anchor="middle" text-decoration="undefined" transform="matrix(1 0 0 1 -398 -150)" x="470.966064453125" y="588.5">Trưởng Đoàn</text></g></g><g><path d=" M 73 369 L 77 187" fill="none" paint-order="fill stroke markers" stroke="#000000" stroke-dasharray="" stroke-miterlimit="10"/></g><g><path d=" M 84.97039977682988 207.50543165596645 L 77 187 L 68.13639395587296 207.13545350605528" fill="#FFFFFF" paint-order="stroke fill markers" stroke="none"/></g><g><path d=" M 84.97039977682988 207.50543165596645 L 77 187 L 68.13639395587296 207.13545350605528 L 84.97039977682988 207.50543165596645" fill="none" paint-order="fill stroke markers" stroke="#000000" stroke-dasharray="" stroke-miterlimit="10"/></g><g><path d=" M 265 418.5 C 265 408.835016 312.010096 401 370 401 C 427.989904 401 475 408.835016 475 418.5 C 475 428.164984 427.989904 436 370 436 C 312.010096 436 265 428.164984 265 418.5 Z" fill="#C0C0C0" fill-opacity="0.2" paint-order="stroke fill markers" stroke="none"/></g><g><path d=" M 258 411.5 C 258 401.835016 305.010096 394 363 394 C 420.989904 394 468 401.835016 468 411.5 C 468 421.164984 420.989904 429 363 429 C 305.010096 429 258 421.164984 258 411.5 Z" fill="#ffffff" paint-order="stroke fill markers" stroke="none"/></g><g><path d=" M 258 411.5 C 258 401.835016 305.010096 394 363 394 C 420.989904 394 468 401.835016 468 411.5 C 468 421.164984 420.989904 429 363 429 C 305.010096 429 258 421.164984 258 411.5 Z" fill="none" paint-order="fill stroke markers" stroke="#000000" stroke-dasharray="" stroke-miterlimit="10"/></g><g><g><path fill="none" stroke="none"/><text dominant-baseline="central" fill="#000000" font-family="Arial" font-size="13px" font-style="normal" font-weight="bold" stroke="none" text-anchor="middle" text-decoration="undefined" transform="matrix(1 0 0 1 -398 -150)" x="761" y="562.5">Quản lý vận động viên</text></g></g><g><path d=" M 120 410 L 257 411" fill="none" paint-order="fill stroke markers" stroke="#000000" stroke-dasharray="" stroke-miterlimit="10"/></g><g><path d=" M 329 250.5 C 329 240.835016 354.5197664 233 386 233 C 417.4802336 233 443 240.835016 443 250.5 C 443 260.164984 417.4802336 268 386 268 C 354.5197664 268 329 260.164984 329 250.5 Z" fill="#C0C0C0" fill-opacity="0.2" paint-order="stroke fill markers" stroke="none"/></g><g><path d=" M 322 243.5 C 322 233.835016 347.5197664 226 379 226 C 410.4802336 226 436 233.835016 436 243.5 C 436 253.164984 410.4802336 261 379 261 C 347.5197664 261 322 253.164984 322 243.5 Z" fill="#ffffff" paint-order="stroke fill markers" stroke="none"/></g><g><path d=" M 322 243.5 C 322 233.835016 347.5197664 226 379 226 C 410.4802336 226 436 233.835016 436 243.5 C 436 253.164984 410.4802336 261 379 261 C 347.5197664 261 322 253.164984 322 243.5 Z" fill="none" paint-order="fill stroke markers" stroke="#000000" stroke-dasharray="" stroke-miterlimit="10"/></g><g><g><path fill="none" stroke="none"/><text dominant-baseline="central" fill="#000000" font-family="Arial" font-size="13px" font-style="normal" font-weight="bold" stroke="none" text-anchor="middle" text-decoration="undefined" transform="matrix(1 0 0 1 -398 -150)" x="777" y="394.5">Quán lý đội</text></g></g><g><path d=" M 120 384 L 344 262" fill="none" paint-order="fill stroke markers" stroke="#000000" stroke-dasharray="" stroke-miterlimit="10"/></g><g><path d=" M 377 114.5 C 377 104.835016 399.83347519999995 97 428 97 C 456.16652480000005 97 479 104.835016 479 114.5 C 479 124.164984 456.16652480000005 132 428 132 C 399.83347519999995 132 377 124.164984 377 114.5 Z" fill="#C0C0C0" fill-opacity="0.2" paint-order="stroke fill markers" stroke="none"/></g><g><path d=" M 370 107.5 C 370 97.835016 392.83347519999995 90 421 90 C 449.16652480000005 90 472 97.835016 472 107.5 C 472 117.164984 449.16652480000005 125 421 125 C 392.83347519999995 125 370 117.164984 370 107.5 Z" fill="#ffffff" paint-order="stroke fill markers" stroke="none"/></g><g><path d=" M 370 107.5 C 370 97.835016 392.83347519999995 90 421 90 C 449.16652480000005 90 472 97.835016 472 107.5 C 472 117.164984 449.16652480000005 125 421 125 C 392.83347519999995 125 370 117.164984 370 107.5 Z" fill="none" paint-order="fill stroke markers" stroke="#000000" stroke-dasharray="" stroke-miterlimit="10"/></g><g><g><path fill="none" stroke="none"/><text dominant-baseline="central" fill="#000000" font-family="Arial" font-size="13px" font-style="normal" font-weight="bold" stroke="none" text-anchor="middle" text-decoration="undefined" transform="matrix(1 0 0 1 -398 -150)" x="819" y="258.5">Tạo đội</text></g></g><g><path d=" M 545 162.5 C 545 152.835016 587.7568016 145 640.5 145 C 693.2431984 145 736 152.835016 736 162.5 C 736 172.164984 693.2431984 180 640.5 180 C 587.7568016 180 545 172.164984 545 162.5 Z" fill="#C0C0C0" fill-opacity="0.2" paint-order="stroke fill markers" stroke="none"/></g><g><path d=" M 538 155.5 C 538 145.835016 580.7568016 138 633.5 138 C 686.2431984 138 729 145.835016 729 155.5 C 729 165.164984 686.2431984 173 633.5 173 C 580.7568016 173 538 165.164984 538 155.5 Z" fill="#ffffff" paint-order="stroke fill markers" stroke="none"/></g><g><path d=" M 538 155.5 C 538 145.835016 580.7568016 138 633.5 138 C 686.2431984 138 729 145.835016 729 155.5 C 729 165.164984 686.2431984 173 633.5 173 C 580.7568016 173 538 165.164984 538 155.5 Z" fill="none" paint-order="fill stroke markers" stroke="#000000" stroke-dasharray="" stroke-miterlimit="10"/></g><g><g><path fill="none" stroke="none"/><text dominant-baseline="central" fill="#000000" font-family="Arial" font-size="13px" font-style="normal" font-weight="bold" stroke="none" text-anchor="middle" text-decoration="undefined" transform="matrix(1 0 0 1 -398 -150)" x="1031.5" y="306.5">Thêm vận động viên</text></g></g><g><path d=" M 473 338.5 C 473 328.835016 538.8141344000001 321 620 321 C 701.1858655999999 321 767 328.835016 767 338.5 C 767 348.164984 701.1858655999999 356 620 356 C 538.8141344000001 356 473 348.164984 473 338.5 Z" fill="#C0C0C0" fill-opacity="0.2" paint-order="stroke fill markers" stroke="none"/></g><g><path d=" M 466 331.5 C 466 321.835016 531.8141344000001 314 613 314 C 694.1858655999999 314 760 321.835016 760 331.5 C 760 341.164984 694.1858655999999 349 613 349 C 531.8141344000001 349 466 341.164984 466 331.5 Z" fill="#ffffff" paint-order="stroke fill markers" stroke="none"/></g><g><path d=" M 466 331.5 C 466 321.835016 531.8141344000001 314 613 314 C 694.1858655999999 314 760 321.835016 760 331.5 C 760 341.164984 694.1858655999999 349 613 349 C 531.8141344000001 349 466 341.164984 466 331.5 Z" fill="none" paint-order="fill stroke markers" stroke="#000000" stroke-dasharray="" stroke-miterlimit="10"/></g><g><g><path fill="none" stroke="none"/><text dominant-baseline="central" fill="#000000" font-family="Arial" font-size="13px" font-style="normal" font-weight="bold" stroke="none" text-anchor="middle" text-decoration="undefined" transform="matrix(1 0 0 1 -398 -150)" x="1011" y="482.5">Chỉnh sửa vai trò vận động viên</text></g></g><g><path d=" M 745 218.5 C 745 208.835016 782.8319343999999 201 829.5 201 C 876.1680656000001 201 914 208.835016 914 218.5 C 914 228.164984 876.1680656000001 236 829.5 236 C 782.8319343999999 236 745 228.164984 745 218.5 Z" fill="#C0C0C0" fill-opacity="0.2" paint-order="stroke fill markers" stroke="none"/></g><g><path d=" M 738 211.5 C 738 201.835016 775.8319343999999 194 822.5 194 C 869.1680656000001 194 907 201.835016 907 211.5 C 907 221.164984 869.1680656000001 229 822.5 229 C 775.8319343999999 229 738 221.164984 738 211.5 Z" fill="#ffffff" paint-order="stroke fill markers" stroke="none"/></g><g><path d=" M 738 211.5 C 738 201.835016 775.8319343999999 194 822.5 194 C 869.1680656000001 194 907 201.835016 907 211.5 C 907 221.164984 869.1680656000001 229 822.5 229 C 775.8319343999999 229 738 221.164984 738 211.5 Z" fill="none" paint-order="fill stroke markers" stroke="#000000" stroke-dasharray="" stroke-miterlimit="10"/></g><g><g><path fill="none" stroke="none"/><text dominant-baseline="central" fill="#000000" font-family="Arial" font-size="13px" font-style="normal" font-weight="bold" stroke="none" text-anchor="middle" text-decoration="undefined" transform="matrix(1 0 0 1 -398 -150)" x="1220.5" y="362.5">Lập lịch tập luyện</text></g></g><g><path d=" M 577 426.5 C 577 416.835016 646.3958560000001 409 732 409 C 817.6041439999999 409 887 416.835016 887 426.5 C 887 436.164984 817.6041439999999 444 732 444 C 646.3958560000001 444 577 436.164984 577 426.5 Z" fill="#C0C0C0" fill-opacity="0.2" paint-order="stroke fill markers" stroke="none"/></g><g><path d=" M 570 419.5 C 570 409.835016 639.3958560000001 402 725 402 C 810.6041439999999 402 880 409.835016 880 419.5 C 880 429.164984 810.6041439999999 437 725 437 C 639.3958560000001 437 570 429.164984 570 419.5 Z" fill="#ffffff" paint-order="stroke fill markers" stroke="none"/></g><g><path d=" M 570 419.5 C 570 409.835016 639.3958560000001 402 725 402 C 810.6041439999999 402 880 409.835016 880 419.5 C 880 429.164984 810.6041439999999 437 725 437 C 639.3958560000001 437 570 429.164984 570 419.5 Z" fill="none" paint-order="fill stroke markers" stroke="#000000" stroke-dasharray="" stroke-miterlimit="10"/></g><g><g><path fill="none" stroke="none"/><text dominant-baseline="central" fill="#000000" font-family="Arial" font-size="13px" font-style="normal" font-weight="bold" stroke="none" text-anchor="middle" text-decoration="undefined" transform="matrix(1 0 0 1 -398 -150)" x="1123" y="570.5">Xử lý yêu cầu chỉnh sửa thông tin</text></g></g><g><path d=" M 415 126 L 385 225" fill="none" paint-order="fill stroke markers" stroke="#000000" stroke-dasharray="" stroke-miterlimit="10"/></g><g><path d=" M 382.8372792823259 203.10656173422404 L 385 225 L 398.95172417593926 207.98972685350077" fill="#FFFFFF" paint-order="stroke fill markers" stroke="none"/></g><g><path d=" M 382.8372792823259 203.10656173422404 L 385 225 L 398.95172417593926 207.98972685350077 L 382.8372792823259 203.10656173422404" fill="none" paint-order="fill stroke markers" stroke="#000000" stroke-dasharray="" stroke-miterlimit="10"/></g><g><path d=" M 578 174 L 431 225" fill="none" paint-order="fill stroke markers" stroke="#000000" stroke-dasharray="" stroke-miterlimit="10"/></g><g><path d=" M 447.44297851421595 210.38396573686862 L 431 225 L 452.96203855182193 226.29184466879167" fill="#FFFFFF" paint-order="stroke fill markers" stroke="none"/></g><g><path d=" M 447.44297851421595 210.38396573686862 L 431 225 L 452.96203855182193 226.29184466879167 L 447.44297851421595 210.38396573686862" fill="none" paint-order="fill stroke markers" stroke="#000000" stroke-dasharray="" stroke-miterlimit="10"/></g><g><path d=" M 737 217 L 437 239" fill="none" paint-order="fill stroke markers" stroke="#000000" stroke-dasharray="" stroke-miterlimit="10"/></g><g><path d=" M 456.65517406280185 229.1169775594223 L 437 239 L 457.8866590515604 245.9099546788578" fill="#FFFFFF" paint-order="stroke fill markers" stroke="none"/></g><g><path d=" M 456.65517406280185 229.1169775594223 L 437 239 L 457.8866590515604 245.9099546788578 L 456.65517406280185 229.1169775594223" fill="none" paint-order="fill stroke markers" stroke="#000000" stroke-dasharray="" stroke-miterlimit="10"/></g><g><path d=" M 565 313 L 430 262" fill="none" paint-order="fill stroke markers" stroke="#000000" stroke-dasharray="" stroke-miterlimit="10"/></g><g><path d=" M 451.9890893906477 261.30721737167687 L 430 262 L 446.0385055146197 277.05876292586856" fill="#FFFFFF" paint-order="stroke fill markers" stroke="none"/></g><g><path d=" M 451.9890893906477 261.30721737167687 L 430 262 L 446.0385055146197 277.05876292586856 L 451.9890893906477 261.30721737167687" fill="none" paint-order="fill stroke markers" stroke="#000000" stroke-dasharray="" stroke-miterlimit="10"/></g><g><path d=" M 569 416 L 469 413" fill="none" paint-order="fill stroke markers" stroke="#000000" stroke-dasharray="" stroke-miterlimit="10"/></g><g><path d=" M 489.56866696211716 405.19423678289513 L 469 413 L 489.06375199203217 422.0247357857294" fill="#FFFFFF" paint-order="stroke fill markers" stroke="none"/></g><g><path d=" M 489.56866696211716 405.19423678289513 L 469 413 L 489.06375199203217 422.0247357857294 L 489.56866696211716 405.19423678289513" fill="none" paint-order="fill stroke markers" stroke="#000000" stroke-dasharray="" stroke-miterlimit="10"/></g></g></svg>