<?xml version="1.0" encoding="utf-8"?>
<svg height="756" version="1.1" width="996" xmlns="http://www.w3.org/2000/svg" xmlns:xlink="http://www.w3.org/1999/xlink"><defs/><g><g><path d=" M 226 10 L 986 10 L 986 746 L 226 746 L 226 10" fill="none" paint-order="fill stroke markers" stroke="#000000" stroke-dasharray="" stroke-miterlimit="10"/></g><g><path d=" M 226 10 L 226 33 L 417.11279296875 33 L 428.61279296875 21.5 L 428.61279296875 10 L 226 10" fill="#ffffff" paint-order="stroke fill markers" stroke="none"/></g><g><path d=" M 226 10 L 226 33 L 417.11279296875 33 L 428.61279296875 21.5 L 428.61279296875 10 L 226 10 L 226 10" fill="none" paint-order="fill stroke markers" stroke="#000000" stroke-dasharray="" stroke-miterlimit="10"/></g><g><g><path fill="none" stroke="none"/><text dominant-baseline="central" fill="#000000" font-family="Arial" font-size="13px" font-style="normal" font-weight="normal" stroke="none" text-anchor="middle" text-decoration="undefined" transform="matrix(1 0 0 1 -766 -238)" x="1097.42138671875" y="259.5">UseCaseTruongBanToChuc</text></g></g><g><g><path fill="none" stroke="none"/><text dominant-baseline="central" fill="#000000" font-family="Arial" font-size="13px" font-style="normal" font-weight="bold" stroke="none" text-anchor="middle" text-decoration="undefined" transform="matrix(1 0 0 1 -766 -238)" x="1003.864990234375" y="259.5">uc</text></g></g><g><path d=" M 80.19466796874997 371.85 C 80.19466796874997 366.96227952000004 84.15247033674996 363 89.03466796875 363 C 93.91686560075004 363 97.87466796875003 366.96227952000004 97.87466796875003 371.85 C 97.87466796875003 376.73772048 93.91686560075004 380.70000000000005 89.03466796875 380.70000000000005 C 84.15247033674996 380.70000000000005 80.19466796874997 376.73772048 80.19466796874997 371.85 Z" fill="#ffffff" paint-order="stroke fill markers" stroke="none"/></g><g><path d=" M 80.19466796874997 371.85 C 80.19466796874997 366.96227952000004 84.15247033674996 363 89.03466796875 363 C 93.91686560075004 363 97.87466796875003 366.96227952000004 97.87466796875003 371.85 C 97.87466796875003 376.73772048 93.91686560075004 380.70000000000005 89.03466796875 380.70000000000005 C 84.15247033674996 380.70000000000005 80.19466796874997 376.73772048 80.19466796874997 371.85 Z" fill="none" paint-order="fill stroke markers" stroke="#000000" stroke-dasharray="" stroke-miterlimit="10"/></g><g><path d=" M 89.03466796875 380.70000000000005 L 89.03466796875 398.29999999999995" fill="none" paint-order="fill stroke markers" stroke="#000000" stroke-dasharray="" stroke-miterlimit="10"/></g><g><path d=" M 79.67466796874999 387.29999999999995 L 98.39466796875001 387.29999999999995" fill="none" paint-order="fill stroke markers" stroke="#000000" stroke-dasharray="" stroke-miterlimit="10"/></g><g><path d=" M 89.03466796875 398.29999999999995 L 76.03466796875 416" fill="none" paint-order="fill stroke markers" stroke="#000000" stroke-dasharray="" stroke-miterlimit="10"/></g><g><path d=" M 89.03466796875 398.29999999999995 L 102.03466796875 416" fill="none" paint-order="fill stroke markers" stroke="#000000" stroke-dasharray="" stroke-miterlimit="10"/></g><g><g><path fill="none" stroke="none"/><text dominant-baseline="central" fill="#000000" font-family="Arial" font-size="13px" font-style="normal" font-weight="bold" stroke="none" text-anchor="middle" text-decoration="undefined" transform="matrix(1 0 0 1 -766 -238)" x="855.53466796875" y="668.5">Trưởng Ban Tổ Chức</text></g></g><g><path d=" M 70.01424804687497 195.85000000000002 C 70.01424804687497 190.96227952000004 73.97205041487496 187 78.854248046875 187 C 83.73644567887504 187 87.69424804687503 190.96227952000004 87.69424804687503 195.85000000000002 C 87.69424804687503 200.73772048 83.73644567887504 204.7 78.854248046875 204.7 C 73.97205041487496 204.7 70.01424804687497 200.73772048 70.01424804687497 195.85000000000002 Z" fill="#ffffff" paint-order="stroke fill markers" stroke="none"/></g><g><path d=" M 70.01424804687497 195.85000000000002 C 70.01424804687497 190.96227952000004 73.97205041487496 187 78.854248046875 187 C 83.73644567887504 187 87.69424804687503 190.96227952000004 87.69424804687503 195.85000000000002 C 87.69424804687503 200.73772048 83.73644567887504 204.7 78.854248046875 204.7 C 73.97205041487496 204.7 70.01424804687497 200.73772048 70.01424804687497 195.85000000000002 Z" fill="none" paint-order="fill stroke markers" stroke="#000000" stroke-dasharray="" stroke-miterlimit="10"/></g><g><path d=" M 78.854248046875 204.7 L 78.854248046875 222.3" fill="none" paint-order="fill stroke markers" stroke="#000000" stroke-dasharray="" stroke-miterlimit="10"/></g><g><path d=" M 69.49424804687499 211.3 L 88.21424804687501 211.3" fill="none" paint-order="fill stroke markers" stroke="#000000" stroke-dasharray="" stroke-miterlimit="10"/></g><g><path d=" M 78.854248046875 222.3 L 65.854248046875 240" fill="none" paint-order="fill stroke markers" stroke="#000000" stroke-dasharray="" stroke-miterlimit="10"/></g><g><path d=" M 78.854248046875 222.3 L 91.854248046875 240" fill="none" paint-order="fill stroke markers" stroke="#000000" stroke-dasharray="" stroke-miterlimit="10"/></g><g><g><path fill="none" stroke="none"/><text dominant-baseline="central" fill="#000000" font-family="Arial" font-size="13px" font-style="normal" font-weight="bold" stroke="none" text-anchor="middle" text-decoration="undefined" transform="matrix(1 0 0 1 -766 -238)" x="845.354248046875" y="492.5">Người đã đăng nhập</text></g></g><g><path d=" M 86 361 L 81 267" fill="none" paint-order="fill stroke markers" stroke="#000000" stroke-dasharray="" stroke-miterlimit="10"/></g><g><path d=" M 90.48676000574505 286.84946811865234 L 81 267 L 73.6724588219065 287.74384584119696" fill="#FFFFFF" paint-order="stroke fill markers" stroke="none"/></g><g><path d=" M 90.48676000574505 286.84946811865234 L 81 267 L 73.6724588219065 287.74384584119696 L 90.48676000574505 286.84946811865234" fill="none" paint-order="fill stroke markers" stroke="#000000" stroke-dasharray="" stroke-miterlimit="10"/></g><g><path d=" M 313 274.5 C 313 264.835016 347.9217856 257 391 257 C 434.0782144 257 469 264.835016 469 274.5 C 469 284.164984 434.0782144 292 391 292 C 347.9217856 292 313 284.164984 313 274.5 Z" fill="#C0C0C0" fill-opacity="0.2" paint-order="stroke fill markers" stroke="none"/></g><g><path d=" M 306 267.5 C 306 257.835016 340.9217856 250 384 250 C 427.0782144 250 462 257.835016 462 267.5 C 462 277.164984 427.0782144 285 384 285 C 340.9217856 285 306 277.164984 306 267.5 Z" fill="#ffffff" paint-order="stroke fill markers" stroke="none"/></g><g><path d=" M 306 267.5 C 306 257.835016 340.9217856 250 384 250 C 427.0782144 250 462 257.835016 462 267.5 C 462 277.164984 427.0782144 285 384 285 C 340.9217856 285 306 277.164984 306 267.5 Z" fill="none" paint-order="fill stroke markers" stroke="#000000" stroke-dasharray="" stroke-miterlimit="10"/></g><g><g><path fill="none" stroke="none"/><text dominant-baseline="central" fill="#000000" font-family="Arial" font-size="13px" font-style="normal" font-weight="bold" stroke="none" text-anchor="middle" text-decoration="undefined" transform="matrix(1 0 0 1 -766 -238)" x="1150" y="506.5">Quản lý giải đấu</text></g></g><g><path d=" M 161 369 L 342 286" fill="none" paint-order="fill stroke markers" stroke="#000000" stroke-dasharray="" stroke-miterlimit="10"/></g><g><path d=" M 321 514.5 C 321 504.835016 356.59335839999994 497 400.5 497 C 444.40664160000006 497 480 504.835016 480 514.5 C 480 524.164984 444.40664160000006 532 400.5 532 C 356.59335839999994 532 321 524.164984 321 514.5 Z" fill="#C0C0C0" fill-opacity="0.2" paint-order="stroke fill markers" stroke="none"/></g><g><path d=" M 314 507.5 C 314 497.835016 349.59335839999994 490 393.5 490 C 437.40664160000006 490 473 497.835016 473 507.5 C 473 517.164984 437.40664160000006 525 393.5 525 C 349.59335839999994 525 314 517.164984 314 507.5 Z" fill="#ffffff" paint-order="stroke fill markers" stroke="none"/></g><g><path d=" M 314 507.5 C 314 497.835016 349.59335839999994 490 393.5 490 C 437.40664160000006 490 473 497.835016 473 507.5 C 473 517.164984 437.40664160000006 525 393.5 525 C 349.59335839999994 525 314 517.164984 314 507.5 Z" fill="none" paint-order="fill stroke markers" stroke="#000000" stroke-dasharray="" stroke-miterlimit="10"/></g><g><g><path fill="none" stroke="none"/><text dominant-baseline="central" fill="#000000" font-family="Arial" font-size="13px" font-style="normal" font-weight="bold" stroke="none" text-anchor="middle" text-decoration="undefined" transform="matrix(1 0 0 1 -766 -238)" x="1159.5" y="746.5">Quản lý trận đấu</text></g></g><g><path d=" M 161 427 L 341 489" fill="none" paint-order="fill stroke markers" stroke="#000000" stroke-dasharray="" stroke-miterlimit="10"/></g><g><path d=" M 393 130.5 C 393 120.835016 434.8613711999999 113 486.5 113 C 538.1386288000001 113 580 120.835016 580 130.5 C 580 140.164984 538.1386288000001 148 486.5 148 C 434.8613711999999 148 393 140.164984 393 130.5 Z" fill="#C0C0C0" fill-opacity="0.2" paint-order="stroke fill markers" stroke="none"/></g><g><path d=" M 386 123.5 C 386 113.835016 427.8613711999999 106 479.5 106 C 531.1386288000001 106 573 113.835016 573 123.5 C 573 133.164984 531.1386288000001 141 479.5 141 C 427.8613711999999 141 386 133.164984 386 123.5 Z" fill="#ffffff" paint-order="stroke fill markers" stroke="none"/></g><g><path d=" M 386 123.5 C 386 113.835016 427.8613711999999 106 479.5 106 C 531.1386288000001 106 573 113.835016 573 123.5 C 573 133.164984 531.1386288000001 141 479.5 141 C 427.8613711999999 141 386 133.164984 386 123.5 Z" fill="none" paint-order="fill stroke markers" stroke="#000000" stroke-dasharray="" stroke-miterlimit="10"/></g><g><g><path fill="none" stroke="none"/><text dominant-baseline="central" fill="#000000" font-family="Arial" font-size="13px" font-style="normal" font-weight="bold" stroke="none" text-anchor="middle" text-decoration="undefined" transform="matrix(1 0 0 1 -766 -238)" x="1245.5" y="362.5">Thêm nhà tài trợ</text></g></g><g><path d=" M 681 178.5 C 681 168.835016 716.3695008 161 760 161 C 803.6304992 161 839 168.835016 839 178.5 C 839 188.164984 803.6304992 196 760 196 C 716.3695008 196 681 188.164984 681 178.5 Z" fill="#C0C0C0" fill-opacity="0.2" paint-order="stroke fill markers" stroke="none"/></g><g><path d=" M 674 171.5 C 674 161.835016 709.3695008 154 753 154 C 796.6304992 154 832 161.835016 832 171.5 C 832 181.164984 796.6304992 189 753 189 C 709.3695008 189 674 181.164984 674 171.5 Z" fill="#ffffff" paint-order="stroke fill markers" stroke="none"/></g><g><path d=" M 674 171.5 C 674 161.835016 709.3695008 154 753 154 C 796.6304992 154 832 161.835016 832 171.5 C 832 181.164984 796.6304992 189 753 189 C 709.3695008 189 674 181.164984 674 171.5 Z" fill="none" paint-order="fill stroke markers" stroke="#000000" stroke-dasharray="" stroke-miterlimit="10"/></g><g><g><path fill="none" stroke="none"/><text dominant-baseline="central" fill="#000000" font-family="Arial" font-size="13px" font-style="normal" font-weight="bold" stroke="none" text-anchor="middle" text-decoration="undefined" transform="matrix(1 0 0 1 -766 -238)" x="1519" y="410.5">Lập lịch giải đấu</text></g></g><g><path d=" M 769 258.5 C 769 248.835016 796.0867696 241 829.5 241 C 862.9132304 241 890 248.835016 890 258.5 C 890 268.164984 862.9132304 276 829.5 276 C 796.0867696 276 769 268.164984 769 258.5 Z" fill="#C0C0C0" fill-opacity="0.2" paint-order="stroke fill markers" stroke="none"/></g><g><path d=" M 762 251.5 C 762 241.835016 789.0867696 234 822.5 234 C 855.9132304 234 883 241.835016 883 251.5 C 883 261.164984 855.9132304 269 822.5 269 C 789.0867696 269 762 261.164984 762 251.5 Z" fill="#ffffff" paint-order="stroke fill markers" stroke="none"/></g><g><path d=" M 762 251.5 C 762 241.835016 789.0867696 234 822.5 234 C 855.9132304 234 883 241.835016 883 251.5 C 883 261.164984 855.9132304 269 822.5 269 C 789.0867696 269 762 261.164984 762 251.5 Z" fill="none" paint-order="fill stroke markers" stroke="#000000" stroke-dasharray="" stroke-miterlimit="10"/></g><g><g><path fill="none" stroke="none"/><text dominant-baseline="central" fill="#000000" font-family="Arial" font-size="13px" font-style="normal" font-weight="bold" stroke="none" text-anchor="middle" text-decoration="undefined" transform="matrix(1 0 0 1 -766 -238)" x="1588.5" y="490.5">Tạo giải đấu</text></g></g><g><path d=" M 681 362.5 C 681 352.835016 739.8745488 345 812.5 345 C 885.1254512 345 944 352.835016 944 362.5 C 944 372.164984 885.1254512 380 812.5 380 C 739.8745488 380 681 372.164984 681 362.5 Z" fill="#C0C0C0" fill-opacity="0.2" paint-order="stroke fill markers" stroke="none"/></g><g><path d=" M 674 355.5 C 674 345.835016 732.8745488 338 805.5 338 C 878.1254512 338 937 345.835016 937 355.5 C 937 365.164984 878.1254512 373 805.5 373 C 732.8745488 373 674 365.164984 674 355.5 Z" fill="#ffffff" paint-order="stroke fill markers" stroke="none"/></g><g><path d=" M 674 355.5 C 674 345.835016 732.8745488 338 805.5 338 C 878.1254512 338 937 345.835016 937 355.5 C 937 365.164984 878.1254512 373 805.5 373 C 732.8745488 373 674 365.164984 674 355.5 Z" fill="none" paint-order="fill stroke markers" stroke="#000000" stroke-dasharray="" stroke-miterlimit="10"/></g><g><g><path fill="none" stroke="none"/><text dominant-baseline="central" fill="#000000" font-family="Arial" font-size="13px" font-style="normal" font-weight="bold" stroke="none" text-anchor="middle" text-decoration="undefined" transform="matrix(1 0 0 1 -766 -238)" x="1571.5" y="594.5">Chỉnh sửa thông tin giaỉ đấu</text></g></g><g><path d=" M 617 466.5 C 617 456.835016 644.7583424 449 679 449 C 713.2416576 449 741 456.835016 741 466.5 C 741 476.164984 713.2416576 484 679 484 C 644.7583424 484 617 476.164984 617 466.5 Z" fill="#C0C0C0" fill-opacity="0.2" paint-order="stroke fill markers" stroke="none"/></g><g><path d=" M 610 459.5 C 610 449.835016 637.7583424 442 672 442 C 706.2416576 442 734 449.835016 734 459.5 C 734 469.164984 706.2416576 477 672 477 C 637.7583424 477 610 469.164984 610 459.5 Z" fill="#ffffff" paint-order="stroke fill markers" stroke="none"/></g><g><path d=" M 610 459.5 C 610 449.835016 637.7583424 442 672 442 C 706.2416576 442 734 449.835016 734 459.5 C 734 469.164984 706.2416576 477 672 477 C 637.7583424 477 610 469.164984 610 459.5 Z" fill="none" paint-order="fill stroke markers" stroke="#000000" stroke-dasharray="" stroke-miterlimit="10"/></g><g><g><path fill="none" stroke="none"/><text dominant-baseline="central" fill="#000000" font-family="Arial" font-size="13px" font-style="normal" font-weight="bold" stroke="none" text-anchor="middle" text-decoration="undefined" transform="matrix(1 0 0 1 -766 -238)" x="1438" y="698.5">Tạo trận đấu</text></g></g><g><path d=" M 569 594.5 C 569 584.835016 626.3075455999999 577 697 577 C 767.6924544000001 577 825 584.835016 825 594.5 C 825 604.164984 767.6924544000001 612 697 612 C 626.3075455999999 612 569 604.164984 569 594.5 Z" fill="#C0C0C0" fill-opacity="0.2" paint-order="stroke fill markers" stroke="none"/></g><g><path d=" M 562 587.5 C 562 577.835016 619.3075455999999 570 690 570 C 760.6924544000001 570 818 577.835016 818 587.5 C 818 597.164984 760.6924544000001 605 690 605 C 619.3075455999999 605 562 597.164984 562 587.5 Z" fill="#ffffff" paint-order="stroke fill markers" stroke="none"/></g><g><path d=" M 562 587.5 C 562 577.835016 619.3075455999999 570 690 570 C 760.6924544000001 570 818 577.835016 818 587.5 C 818 597.164984 760.6924544000001 605 690 605 C 619.3075455999999 605 562 597.164984 562 587.5 Z" fill="none" paint-order="fill stroke markers" stroke="#000000" stroke-dasharray="" stroke-miterlimit="10"/></g><g><g><path fill="none" stroke="none"/><text dominant-baseline="central" fill="#000000" font-family="Arial" font-size="13px" font-style="normal" font-weight="bold" stroke="none" text-anchor="middle" text-decoration="undefined" transform="matrix(1 0 0 1 -766 -238)" x="1456" y="826.5">Cập nhật diễn biến trận đấu</text></g></g><g><path d=" M 623 569 L 464 526" fill="none" paint-order="fill stroke markers" stroke="#000000" stroke-dasharray="" stroke-miterlimit="10"/></g><g><path d=" M 485.8183980281242 523.1790945626716 L 464 526 L 481.42261856413484 539.4332558364928" fill="#FFFFFF" paint-order="stroke fill markers" stroke="none"/></g><g><path d=" M 485.8183980281242 523.1790945626716 L 464 526 L 481.42261856413484 539.4332558364928 L 485.8183980281242 523.1790945626716" fill="none" paint-order="fill stroke markers" stroke="#000000" stroke-dasharray="" stroke-miterlimit="10"/></g><g><path d=" M 609 470 L 474 493" fill="none" paint-order="fill stroke markers" stroke="#000000" stroke-dasharray="" stroke-miterlimit="10"/></g><g><path d=" M 492.6226575701287 481.2869036960449 L 474 493 L 495.4506172767708 497.88579762633526" fill="#FFFFFF" paint-order="stroke fill markers" stroke="none"/></g><g><path d=" M 492.6226575701287 481.2869036960449 L 474 493 L 495.4506172767708 497.88579762633526 L 492.6226575701287 481.2869036960449" fill="none" paint-order="fill stroke markers" stroke="#000000" stroke-dasharray="" stroke-miterlimit="10"/></g><g><path d=" M 719 337 L 463 284" fill="none" paint-order="fill stroke markers" stroke="#000000" stroke-dasharray="" stroke-miterlimit="10"/></g><g><path d=" M 484.6100870725263 279.87639275417325 L 463 284 L 481.19646975748924 296.36480846454094" fill="#FFFFFF" paint-order="stroke fill markers" stroke="none"/></g><g><path d=" M 484.6100870725263 279.87639275417325 L 463 284 L 481.19646975748924 296.36480846454094 L 484.6100870725263 279.87639275417325" fill="none" paint-order="fill stroke markers" stroke="#000000" stroke-dasharray="" stroke-miterlimit="10"/></g><g><path d=" M 761 253 L 463 264" fill="none" paint-order="fill stroke markers" stroke="#000000" stroke-dasharray="" stroke-miterlimit="10"/></g><g><path d=" M 483.00095842114 254.83694034528696 L 463 264 L 483.6220749480826 271.6635517115538" fill="#FFFFFF" paint-order="stroke fill markers" stroke="none"/></g><g><path d=" M 483.00095842114 254.83694034528696 L 463 264 L 483.6220749480826 271.6635517115538 L 483.00095842114 254.83694034528696" fill="none" paint-order="fill stroke markers" stroke="#000000" stroke-dasharray="" stroke-miterlimit="10"/></g><g><path d=" M 680 190 L 453 249" fill="none" paint-order="fill stroke markers" stroke="#000000" stroke-dasharray="" stroke-miterlimit="10"/></g><g><path d=" M 470.5539110702407 235.73877056460913 L 453 249 L 474.7895948147484 252.03538429347736" fill="#FFFFFF" paint-order="stroke fill markers" stroke="none"/></g><g><path d=" M 470.5539110702407 235.73877056460913 L 453 249 L 474.7895948147484 252.03538429347736 L 470.5539110702407 235.73877056460913" fill="none" paint-order="fill stroke markers" stroke="#000000" stroke-dasharray="" stroke-miterlimit="10"/></g><g><path d=" M 466 142 L 396 249" fill="none" paint-order="fill stroke markers" stroke="#000000" stroke-dasharray="3" stroke-miterlimit="10"/></g><g><path d=" M 398.04100025256 238.19100754144728 L 396 249 L 405.0863169842255 242.8000932537518" fill="none" paint-order="fill stroke markers" stroke="#000000" stroke-dasharray="" stroke-miterlimit="10"/></g><g><rect fill="#ffffff" height="13" stroke="none" transform="matrix(1 0 0 1 -766 -238)" width="53.49169921875" x="1196" y="443"/></g><g><g><path fill="none" stroke="none"/><text dominant-baseline="central" fill="#000000" font-family="Arial" font-size="13px" font-style="normal" font-weight="normal" stroke="none" text-anchor="middle" text-decoration="undefined" transform="matrix(1 0 0 1 -766 -238)" x="1222.745849609375" y="449.5">«extend»</text></g></g></g></svg>