<?xml version="1.0" encoding="utf-8"?>
<svg height="540" version="1.1" width="925" xmlns="http://www.w3.org/2000/svg" xmlns:xlink="http://www.w3.org/1999/xlink"><defs/><g><g><rect fill="#C0C0C0" fill-opacity="0.2" height="520" stroke="none" transform="matrix(1 0 0 1 -302 -94)" width="760" x="463" y="111"/></g><g><rect fill="#ffffff" height="520" stroke="none" transform="matrix(1 0 0 1 -302 -94)" width="760" x="456" y="104"/></g><g><path d=" M 154 10 L 914 10 L 914 530 L 154 530 L 154 10 Z Z" fill="none" paint-order="fill stroke markers" stroke="#000000" stroke-dasharray="" stroke-miterlimit="10"/></g><g><g><path fill="none" stroke="none"/><text dominant-baseline="central" fill="#000000" font-family="Arial" font-size="13px" font-style="normal" font-weight="bold" stroke="none" text-anchor="middle" text-decoration="undefined" transform="matrix(1 0 0 1 -302 -94)" x="836.5" y="117.5">UseCaseTruongDoan</text></g></g><g><path d=" M 70.01424804687503 154.85 C 70.01424804687503 149.96227952 73.97205041487501 146 78.854248046875 146 C 83.73644567887499 146 87.69424804687497 149.96227952 87.69424804687497 154.85 C 87.69424804687497 159.73772047999998 83.73644567887499 163.7 78.854248046875 163.7 C 73.97205041487501 163.7 70.01424804687503 159.73772047999998 70.01424804687503 154.85 Z" fill="#ffffff" paint-order="stroke fill markers" stroke="none"/></g><g><path d=" M 70.01424804687503 154.85 C 70.01424804687503 149.96227952 73.97205041487501 146 78.854248046875 146 C 83.73644567887499 146 87.69424804687497 149.96227952 87.69424804687497 154.85 C 87.69424804687497 159.73772047999998 83.73644567887499 163.7 78.854248046875 163.7 C 73.97205041487501 163.7 70.01424804687503 159.73772047999998 70.01424804687503 154.85 Z" fill="none" paint-order="fill stroke markers" stroke="#000000" stroke-dasharray="" stroke-miterlimit="10"/></g><g><path d=" M 78.854248046875 163.7 L 78.854248046875 181.3" fill="none" paint-order="fill stroke markers" stroke="#000000" stroke-dasharray="" stroke-miterlimit="10"/></g><g><path d=" M 69.49424804687499 170.3 L 88.21424804687501 170.3" fill="none" paint-order="fill stroke markers" stroke="#000000" stroke-dasharray="" stroke-miterlimit="10"/></g><g><path d=" M 78.854248046875 181.3 L 65.854248046875 199" fill="none" paint-order="fill stroke markers" stroke="#000000" stroke-dasharray="" stroke-miterlimit="10"/></g><g><path d=" M 78.854248046875 181.3 L 91.854248046875 199" fill="none" paint-order="fill stroke markers" stroke="#000000" stroke-dasharray="" stroke-miterlimit="10"/></g><g><g><path fill="none" stroke="none"/><text dominant-baseline="central" fill="#000000" font-family="Arial" font-size="13px" font-style="normal" font-weight="bold" stroke="none" text-anchor="middle" text-decoration="undefined" transform="matrix(1 0 0 1 -302 -94)" x="381.354248046875" y="307.5">Người đã đăng nhập</text></g></g><g><path d=" M 63.626064453125025 299.85 C 63.626064453125025 294.96227952000004 67.58386682112501 291 72.466064453125 291 C 77.34826208512499 291 81.30606445312497 294.96227952000004 81.30606445312497 299.85 C 81.30606445312497 304.73772048 77.34826208512499 308.7 72.466064453125 308.7 C 67.58386682112501 308.7 63.626064453125025 304.73772048 63.626064453125025 299.85 Z" fill="#ffffff" paint-order="stroke fill markers" stroke="none"/></g><g><path d=" M 63.626064453125025 299.85 C 63.626064453125025 294.96227952000004 67.58386682112501 291 72.466064453125 291 C 77.34826208512499 291 81.30606445312497 294.96227952000004 81.30606445312497 299.85 C 81.30606445312497 304.73772048 77.34826208512499 308.7 72.466064453125 308.7 C 67.58386682112501 308.7 63.626064453125025 304.73772048 63.626064453125025 299.85 Z" fill="none" paint-order="fill stroke markers" stroke="#000000" stroke-dasharray="" stroke-miterlimit="10"/></g><g><path d=" M 72.466064453125 308.7 L 72.466064453125 326.3" fill="none" paint-order="fill stroke markers" stroke="#000000" stroke-dasharray="" stroke-miterlimit="10"/></g><g><path d=" M 63.106064453124986 315.3 L 81.82606445312501 315.3" fill="none" paint-order="fill stroke markers" stroke="#000000" stroke-dasharray="" stroke-miterlimit="10"/></g><g><path d=" M 72.466064453125 326.3 L 59.466064453125 344" fill="none" paint-order="fill stroke markers" stroke="#000000" stroke-dasharray="" stroke-miterlimit="10"/></g><g><path d=" M 72.466064453125 326.3 L 85.466064453125 344" fill="none" paint-order="fill stroke markers" stroke="#000000" stroke-dasharray="" stroke-miterlimit="10"/></g><g><g><path fill="none" stroke="none"/><text dominant-baseline="central" fill="#000000" font-family="Arial" font-size="13px" font-style="normal" font-weight="bold" stroke="none" text-anchor="middle" text-decoration="undefined" transform="matrix(1 0 0 1 -302 -94)" x="374.966064453125" y="452.5">Trưởng Đoàn</text></g></g><g><path d=" M 74 289 L 76 226" fill="none" paint-order="fill stroke markers" stroke="#000000" stroke-dasharray="" stroke-miterlimit="10"/></g><g><path d=" M 83.76987202126452 246.5822517906368 L 76 226 L 66.94027938193955 246.04797900843602" fill="#FFFFFF" paint-order="stroke fill markers" stroke="none"/></g><g><path d=" M 83.76987202126452 246.5822517906368 L 76 226 L 66.94027938193955 246.04797900843602 L 83.76987202126452 246.5822517906368" fill="none" paint-order="fill stroke markers" stroke="#000000" stroke-dasharray="" stroke-miterlimit="10"/></g><g><path d=" M 257 202.5 C 257 192.835016 282.5197664 185 314 185 C 345.4802336 185 371 192.835016 371 202.5 C 371 212.164984 345.4802336 220 314 220 C 282.5197664 220 257 212.164984 257 202.5 Z" fill="#C0C0C0" fill-opacity="0.2" paint-order="stroke fill markers" stroke="none"/></g><g><path d=" M 250 195.5 C 250 185.835016 275.5197664 178 307 178 C 338.4802336 178 364 185.835016 364 195.5 C 364 205.164984 338.4802336 213 307 213 C 275.5197664 213 250 205.164984 250 195.5 Z" fill="#ffffff" paint-order="stroke fill markers" stroke="none"/></g><g><path d=" M 250 195.5 C 250 185.835016 275.5197664 178 307 178 C 338.4802336 178 364 185.835016 364 195.5 C 364 205.164984 338.4802336 213 307 213 C 275.5197664 213 250 205.164984 250 195.5 Z" fill="none" paint-order="fill stroke markers" stroke="#000000" stroke-dasharray="" stroke-miterlimit="10"/></g><g><g><path fill="none" stroke="none"/><text dominant-baseline="central" fill="#000000" font-family="Arial" font-size="13px" font-style="normal" font-weight="bold" stroke="none" text-anchor="middle" text-decoration="undefined" transform="matrix(1 0 0 1 -302 -94)" x="609" y="290.5">Quán lý đội</text></g></g><g><path d=" M 209 354.5 C 209 344.835016 256.010096 337 314 337 C 371.989904 337 419 344.835016 419 354.5 C 419 364.164984 371.989904 372 314 372 C 256.010096 372 209 364.164984 209 354.5 Z" fill="#C0C0C0" fill-opacity="0.2" paint-order="stroke fill markers" stroke="none"/></g><g><path d=" M 202 347.5 C 202 337.835016 249.01009599999998 330 307 330 C 364.989904 330 412 337.835016 412 347.5 C 412 357.164984 364.989904 365 307 365 C 249.01009599999998 365 202 357.164984 202 347.5 Z" fill="#ffffff" paint-order="stroke fill markers" stroke="none"/></g><g><path d=" M 202 347.5 C 202 337.835016 249.01009599999998 330 307 330 C 364.989904 330 412 337.835016 412 347.5 C 412 357.164984 364.989904 365 307 365 C 249.01009599999998 365 202 357.164984 202 347.5 Z" fill="none" paint-order="fill stroke markers" stroke="#000000" stroke-dasharray="" stroke-miterlimit="10"/></g><g><g><path fill="none" stroke="none"/><text dominant-baseline="central" fill="#000000" font-family="Arial" font-size="13px" font-style="normal" font-weight="bold" stroke="none" text-anchor="middle" text-decoration="undefined" transform="matrix(1 0 0 1 -302 -94)" x="609" y="442.5">Quản lý vận động viên</text></g></g><g><path d=" M 120 333 L 201 339" fill="none" paint-order="fill stroke markers" stroke="#000000" stroke-dasharray="" stroke-miterlimit="10"/></g><g><path d=" M 120 302 L 274 214" fill="none" paint-order="fill stroke markers" stroke="#000000" stroke-dasharray="" stroke-miterlimit="10"/></g><g><path d=" M 265 114.5 C 265 104.835016 287.83347519999995 97 316 97 C 344.16652480000005 97 367 104.835016 367 114.5 C 367 124.164984 344.16652480000005 132 316 132 C 287.83347519999995 132 265 124.164984 265 114.5 Z" fill="#C0C0C0" fill-opacity="0.2" paint-order="stroke fill markers" stroke="none"/></g><g><path d=" M 258 107.5 C 258 97.835016 280.83347519999995 90 309 90 C 337.16652480000005 90 360 97.835016 360 107.5 C 360 117.164984 337.16652480000005 125 309 125 C 280.83347519999995 125 258 117.164984 258 107.5 Z" fill="#ffffff" paint-order="stroke fill markers" stroke="none"/></g><g><path d=" M 258 107.5 C 258 97.835016 280.83347519999995 90 309 90 C 337.16652480000005 90 360 97.835016 360 107.5 C 360 117.164984 337.16652480000005 125 309 125 C 280.83347519999995 125 258 117.164984 258 107.5 Z" fill="none" paint-order="fill stroke markers" stroke="#000000" stroke-dasharray="" stroke-miterlimit="10"/></g><g><g><path fill="none" stroke="none"/><text dominant-baseline="central" fill="#000000" font-family="Arial" font-size="13px" font-style="normal" font-weight="bold" stroke="none" text-anchor="middle" text-decoration="undefined" transform="matrix(1 0 0 1 -302 -94)" x="611" y="202.5">Tạo đội</text></g></g><g><path d=" M 425 138.5 C 425 128.835016 467.7568016 121 520.5 121 C 573.2431984 121 616 128.835016 616 138.5 C 616 148.164984 573.2431984 156 520.5 156 C 467.7568016 156 425 148.164984 425 138.5 Z" fill="#C0C0C0" fill-opacity="0.2" paint-order="stroke fill markers" stroke="none"/></g><g><path d=" M 418 131.5 C 418 121.835016 460.7568016 114 513.5 114 C 566.2431984 114 609 121.835016 609 131.5 C 609 141.164984 566.2431984 149 513.5 149 C 460.7568016 149 418 141.164984 418 131.5 Z" fill="#ffffff" paint-order="stroke fill markers" stroke="none"/></g><g><path d=" M 418 131.5 C 418 121.835016 460.7568016 114 513.5 114 C 566.2431984 114 609 121.835016 609 131.5 C 609 141.164984 566.2431984 149 513.5 149 C 460.7568016 149 418 141.164984 418 131.5 Z" fill="none" paint-order="fill stroke markers" stroke="#000000" stroke-dasharray="" stroke-miterlimit="10"/></g><g><g><path fill="none" stroke="none"/><text dominant-baseline="central" fill="#000000" font-family="Arial" font-size="13px" font-style="normal" font-weight="bold" stroke="none" text-anchor="middle" text-decoration="undefined" transform="matrix(1 0 0 1 -302 -94)" x="815.5" y="226.5">Thêm vận động viên</text></g></g><g><path d=" M 593 186.5 C 593 176.835016 648.0689696 169 716 169 C 783.9310304 169 839 176.835016 839 186.5 C 839 196.164984 783.9310304 204 716 204 C 648.0689696 204 593 196.164984 593 186.5 Z" fill="#C0C0C0" fill-opacity="0.2" paint-order="stroke fill markers" stroke="none"/></g><g><path d=" M 586 179.5 C 586 169.835016 641.0689696 162 709 162 C 776.9310304 162 832 169.835016 832 179.5 C 832 189.164984 776.9310304 197 709 197 C 641.0689696 197 586 189.164984 586 179.5 Z" fill="#ffffff" paint-order="stroke fill markers" stroke="none"/></g><g><path d=" M 586 179.5 C 586 169.835016 641.0689696 162 709 162 C 776.9310304 162 832 169.835016 832 179.5 C 832 189.164984 776.9310304 197 709 197 C 641.0689696 197 586 189.164984 586 179.5 Z" fill="none" paint-order="fill stroke markers" stroke="#000000" stroke-dasharray="" stroke-miterlimit="10"/></g><g><g><path fill="none" stroke="none"/><text dominant-baseline="central" fill="#000000" font-family="Arial" font-size="13px" font-style="normal" font-weight="bold" stroke="none" text-anchor="middle" text-decoration="undefined" transform="matrix(1 0 0 1 -302 -94)" x="1011" y="274.5">Lập lịch tập luyện đội</text></g></g><g><path d=" M 417 282.5 C 417 272.835016 487.51514399999996 265 574.5 265 C 661.484856 265 732 272.835016 732 282.5 C 732 292.164984 661.484856 300 574.5 300 C 487.51514399999996 300 417 292.164984 417 282.5 Z" fill="#C0C0C0" fill-opacity="0.2" paint-order="stroke fill markers" stroke="none"/></g><g><path d=" M 410 275.5 C 410 265.835016 480.51514399999996 258 567.5 258 C 654.484856 258 725 265.835016 725 275.5 C 725 285.164984 654.484856 293 567.5 293 C 480.51514399999996 293 410 285.164984 410 275.5 Z" fill="#ffffff" paint-order="stroke fill markers" stroke="none"/></g><g><path d=" M 410 275.5 C 410 265.835016 480.51514399999996 258 567.5 258 C 654.484856 258 725 265.835016 725 275.5 C 725 285.164984 654.484856 293 567.5 293 C 480.51514399999996 293 410 285.164984 410 275.5 Z" fill="none" paint-order="fill stroke markers" stroke="#000000" stroke-dasharray="" stroke-miterlimit="10"/></g><g><g><path fill="none" stroke="none"/><text dominant-baseline="central" fill="#000000" font-family="Arial" font-size="13px" font-style="normal" font-weight="bold" stroke="none" text-anchor="middle" text-decoration="undefined" transform="matrix(1 0 0 1 -302 -94)" x="869.5" y="370.5">Thiết lập vai trò của vận động viên</text></g></g><g><path d=" M 465 370.5 C 465 360.835016 551.185176 353 657.5 353 C 763.814824 353 850 360.835016 850 370.5 C 850 380.164984 763.814824 388 657.5 388 C 551.185176 388 465 380.164984 465 370.5 Z" fill="#C0C0C0" fill-opacity="0.2" paint-order="stroke fill markers" stroke="none"/></g><g><path d=" M 458 363.5 C 458 353.835016 544.185176 346 650.5 346 C 756.814824 346 843 353.835016 843 363.5 C 843 373.164984 756.814824 381 650.5 381 C 544.185176 381 458 373.164984 458 363.5 Z" fill="#ffffff" paint-order="stroke fill markers" stroke="none"/></g><g><path d=" M 458 363.5 C 458 353.835016 544.185176 346 650.5 346 C 756.814824 346 843 353.835016 843 363.5 C 843 373.164984 756.814824 381 650.5 381 C 544.185176 381 458 373.164984 458 363.5 Z" fill="none" paint-order="fill stroke markers" stroke="#000000" stroke-dasharray="" stroke-miterlimit="10"/></g><g><g><path fill="none" stroke="none"/><text dominant-baseline="central" fill="#000000" font-family="Arial" font-size="13px" font-style="normal" font-weight="bold" stroke="none" text-anchor="middle" text-decoration="undefined" transform="matrix(1 0 0 1 -302 -94)" x="952.5" y="458.5">Xử lý yêu cầu chỉnh sửa thông tin</text></g></g><g><path d=" M 249 442.5 C 249 432.835016 303.3973968 425 370.5 425 C 437.6026032 425 492 432.835016 492 442.5 C 492 452.164984 437.6026032 460 370.5 460 C 303.3973968 460 249 452.164984 249 442.5 Z" fill="#C0C0C0" fill-opacity="0.2" paint-order="stroke fill markers" stroke="none"/></g><g><path d=" M 242 435.5 C 242 425.835016 296.3973968 418 363.5 418 C 430.6026032 418 485 425.835016 485 435.5 C 485 445.164984 430.6026032 453 363.5 453 C 296.3973968 453 242 445.164984 242 435.5 Z" fill="#ffffff" paint-order="stroke fill markers" stroke="none"/></g><g><path d=" M 242 435.5 C 242 425.835016 296.3973968 418 363.5 418 C 430.6026032 418 485 425.835016 485 435.5 C 485 445.164984 430.6026032 453 363.5 453 C 296.3973968 453 242 445.164984 242 435.5 Z" fill="none" paint-order="fill stroke markers" stroke="#000000" stroke-dasharray="" stroke-miterlimit="10"/></g><g><g><path fill="none" stroke="none"/><text dominant-baseline="central" fill="#000000" font-family="Arial" font-size="13px" font-style="normal" font-weight="bold" stroke="none" text-anchor="middle" text-decoration="undefined" transform="matrix(1 0 0 1 -302 -94)" x="665.5" y="530.5">Lập lịch tập luyện cá nhân</text></g></g><g><path d=" M 352 417 L 319 366" fill="none" paint-order="fill stroke markers" stroke="#000000" stroke-dasharray="" stroke-miterlimit="10"/></g><g><path d=" M 337.1101431797084 378.4909052518406 L 319 366 L 322.973401243896 387.6382088573663" fill="#FFFFFF" paint-order="stroke fill markers" stroke="none"/></g><g><path d=" M 337.1101431797084 378.4909052518406 L 319 366 L 322.973401243896 387.6382088573663 L 337.1101431797084 378.4909052518406" fill="none" paint-order="fill stroke markers" stroke="#000000" stroke-dasharray="" stroke-miterlimit="10"/></g><g><path d=" M 457 354 L 413 352" fill="none" paint-order="fill stroke markers" stroke="#000000" stroke-dasharray="" stroke-miterlimit="10"/></g><g><path d=" M 433.6866736440978 344.51257497248974 L 413 352 L 432.922096224513 361.3332782033562" fill="#FFFFFF" paint-order="stroke fill markers" stroke="none"/></g><g><path d=" M 433.6866736440978 344.51257497248974 L 413 352 L 432.922096224513 361.3332782033562 L 433.6866736440978 344.51257497248974" fill="none" paint-order="fill stroke markers" stroke="#000000" stroke-dasharray="" stroke-miterlimit="10"/></g><g><path d=" M 509 257 L 365 213" fill="none" paint-order="fill stroke markers" stroke="#000000" stroke-dasharray="" stroke-miterlimit="10"/></g><g><path d=" M 386.8983783608278 210.88788609065904 L 365 213 L 381.97798190386345 226.99100176799664" fill="#FFFFFF" paint-order="stroke fill markers" stroke="none"/></g><g><path d=" M 386.8983783608278 210.88788609065904 L 365 213 L 381.97798190386345 226.99100176799664 L 386.8983783608278 210.88788609065904" fill="none" paint-order="fill stroke markers" stroke="#000000" stroke-dasharray="" stroke-miterlimit="10"/></g><g><path d=" M 309 126 L 307 177" fill="none" paint-order="fill stroke markers" stroke="#000000" stroke-dasharray="" stroke-miterlimit="10"/></g><g><path d=" M 299.3838910689075 156.36035647716434 L 307 177 L 316.2090296248391 157.02016583229891" fill="#FFFFFF" paint-order="stroke fill markers" stroke="none"/></g><g><path d=" M 299.3838910689075 156.36035647716434 L 307 177 L 316.2090296248391 157.02016583229891 L 299.3838910689075 156.36035647716434" fill="none" paint-order="fill stroke markers" stroke="#000000" stroke-dasharray="" stroke-miterlimit="10"/></g><g><path d=" M 452 150 L 365 177" fill="none" paint-order="fill stroke markers" stroke="#000000" stroke-dasharray="" stroke-miterlimit="10"/></g><g><path d=" M 381.9166170654306 162.93486341831039 L 365 177 L 386.90740809692977 179.01630118647432" fill="#FFFFFF" paint-order="stroke fill markers" stroke="none"/></g><g><path d=" M 381.9166170654306 162.93486341831039 L 365 177 L 386.90740809692977 179.01630118647432 L 381.9166170654306 162.93486341831039" fill="none" paint-order="fill stroke markers" stroke="#000000" stroke-dasharray="" stroke-miterlimit="10"/></g><g><path d=" M 585 184 L 365 193" fill="none" paint-order="fill stroke markers" stroke="#000000" stroke-dasharray="" stroke-miterlimit="10"/></g><g><path d=" M 384.9642359990098 183.75720383347982 L 365 193 L 385.6524905025799 200.58120280963698" fill="#FFFFFF" paint-order="stroke fill markers" stroke="none"/></g><g><path d=" M 384.9642359990098 183.75720383347982 L 365 193 L 385.6524905025799 200.58120280963698 L 384.9642359990098 183.75720383347982" fill="none" paint-order="fill stroke markers" stroke="#000000" stroke-dasharray="" stroke-miterlimit="10"/></g></g></svg>
