<?xml version="1.0" encoding="utf-8"?>
<svg height="324" version="1.1" width="603" xmlns="http://www.w3.org/2000/svg" xmlns:xlink="http://www.w3.org/1999/xlink"><defs/><g><g><path d=" M 273 10 L 593 10 L 593 314 L 273 314 L 273 10" fill="none" paint-order="fill stroke markers" stroke="#000000" stroke-dasharray="" stroke-miterlimit="10"/></g><g><path d=" M 273 10 L 273 33 L 468.93701171875 33 L 480.43701171875 21.5 L 480.43701171875 10 L 273 10" fill="#ffffff" paint-order="stroke fill markers" stroke="none"/></g><g><path d=" M 273 10 L 273 33 L 468.93701171875 33 L 480.43701171875 21.5 L 480.43701171875 10 L 273 10 L 273 10" fill="none" paint-order="fill stroke markers" stroke="#000000" stroke-dasharray="" stroke-miterlimit="10"/></g><g><g><path fill="none" stroke="none"/><text dominant-baseline="central" fill="#000000" font-family="Arial" font-size="13px" font-style="normal" font-weight="normal" stroke="none" text-anchor="middle" text-decoration="undefined" transform="matrix(1 0 0 1 -335 -270)" x="715.83349609375" y="291.5">UseCaseNguoiDaDangNhap</text></g></g><g><g><path fill="none" stroke="none"/><text dominant-baseline="central" fill="#000000" font-family="Arial" font-size="13px" font-style="normal" font-weight="bold" stroke="none" text-anchor="middle" text-decoration="undefined" transform="matrix(1 0 0 1 -335 -270)" x="619.864990234375" y="291.5">uc</text></g></g><g><path d=" M 70.01424804687503 113.85000000000002 C 70.01424804687503 108.96227952000004 73.97205041487501 105 78.854248046875 105 C 83.73644567887499 105 87.69424804687497 108.96227952000004 87.69424804687497 113.85000000000002 C 87.69424804687497 118.73772048000001 83.73644567887499 122.69999999999999 78.854248046875 122.69999999999999 C 73.97205041487501 122.69999999999999 70.01424804687503 118.73772048000001 70.01424804687503 113.85000000000002 Z" fill="#ffffff" paint-order="stroke fill markers" stroke="none"/></g><g><path d=" M 70.01424804687503 113.85000000000002 C 70.01424804687503 108.96227952000004 73.97205041487501 105 78.854248046875 105 C 83.73644567887499 105 87.69424804687497 108.96227952000004 87.69424804687497 113.85000000000002 C 87.69424804687497 118.73772048000001 83.73644567887499 122.69999999999999 78.854248046875 122.69999999999999 C 73.97205041487501 122.69999999999999 70.01424804687503 118.73772048000001 70.01424804687503 113.85000000000002 Z" fill="none" paint-order="fill stroke markers" stroke="#000000" stroke-dasharray="" stroke-miterlimit="10"/></g><g><path d=" M 78.854248046875 122.69999999999999 L 78.854248046875 140.3" fill="none" paint-order="fill stroke markers" stroke="#000000" stroke-dasharray="" stroke-miterlimit="10"/></g><g><path d=" M 69.49424804687499 129.3 L 88.21424804687501 129.3" fill="none" paint-order="fill stroke markers" stroke="#000000" stroke-dasharray="" stroke-miterlimit="10"/></g><g><path d=" M 78.854248046875 140.3 L 65.854248046875 158" fill="none" paint-order="fill stroke markers" stroke="#000000" stroke-dasharray="" stroke-miterlimit="10"/></g><g><path d=" M 78.854248046875 140.3 L 91.854248046875 158" fill="none" paint-order="fill stroke markers" stroke="#000000" stroke-dasharray="" stroke-miterlimit="10"/></g><g><g><path fill="none" stroke="none"/><text dominant-baseline="central" fill="#000000" font-family="Arial" font-size="13px" font-style="normal" font-weight="bold" stroke="none" text-anchor="middle" text-decoration="undefined" transform="matrix(1 0 0 1 -335 -270)" x="414.354248046875" y="442.5">Người đã đăng nhập</text></g></g><g><path d=" M 344 114.5 C 344 104.835016 391.23395359999995 97 449.5 97 C 507.76604640000005 97 555 104.835016 555 114.5 C 555 124.164984 507.76604640000005 132 449.5 132 C 391.23395359999995 132 344 124.164984 344 114.5 Z" fill="#C0C0C0" fill-opacity="0.2" paint-order="stroke fill markers" stroke="none"/></g><g><path d=" M 337 107.5 C 337 97.835016 384.23395359999995 90 442.5 90 C 500.76604640000005 90 548 97.835016 548 107.5 C 548 117.164984 500.76604640000005 125 442.5 125 C 384.23395359999995 125 337 117.164984 337 107.5 Z" fill="#ffffff" paint-order="stroke fill markers" stroke="none"/></g><g><path d=" M 337 107.5 C 337 97.835016 384.23395359999995 90 442.5 90 C 500.76604640000005 90 548 97.835016 548 107.5 C 548 117.164984 500.76604640000005 125 442.5 125 C 384.23395359999995 125 337 117.164984 337 107.5 Z" fill="none" paint-order="fill stroke markers" stroke="#000000" stroke-dasharray="" stroke-miterlimit="10"/></g><g><g><path fill="none" stroke="none"/><text dominant-baseline="central" fill="#000000" font-family="Arial" font-size="13px" font-style="normal" font-weight="bold" stroke="none" text-anchor="middle" text-decoration="undefined" transform="matrix(1 0 0 1 -335 -270)" x="777.5" y="378.5">Xem thông tin cá nhân</text></g></g><g><path d=" M 149 137 L 336 118" fill="none" paint-order="fill stroke markers" stroke="#000000" stroke-dasharray="" stroke-miterlimit="10"/></g><g><path d=" M 392 218.5 C 392 208.835016 415.05733280000004 201 443.5 201 C 471.94266719999996 201 495 208.835016 495 218.5 C 495 228.164984 471.94266719999996 236 443.5 236 C 415.05733280000004 236 392 228.164984 392 218.5 Z" fill="#C0C0C0" fill-opacity="0.2" paint-order="stroke fill markers" stroke="none"/></g><g><path d=" M 385 211.5 C 385 201.835016 408.05733280000004 194 436.5 194 C 464.94266719999996 194 488 201.835016 488 211.5 C 488 221.164984 464.94266719999996 229 436.5 229 C 408.05733280000004 229 385 221.164984 385 211.5 Z" fill="#ffffff" paint-order="stroke fill markers" stroke="none"/></g><g><path d=" M 385 211.5 C 385 201.835016 408.05733280000004 194 436.5 194 C 464.94266719999996 194 488 201.835016 488 211.5 C 488 221.164984 464.94266719999996 229 436.5 229 C 408.05733280000004 229 385 221.164984 385 211.5 Z" fill="none" paint-order="fill stroke markers" stroke="#000000" stroke-dasharray="" stroke-miterlimit="10"/></g><g><g><path fill="none" stroke="none"/><text dominant-baseline="central" fill="#000000" font-family="Arial" font-size="13px" font-style="normal" font-weight="bold" stroke="none" text-anchor="middle" text-decoration="undefined" transform="matrix(1 0 0 1 -335 -270)" x="771.5" y="482.5">Đăng xuất</text></g></g><g><path d=" M 149 157 L 384 201" fill="none" paint-order="fill stroke markers" stroke="#000000" stroke-dasharray="" stroke-miterlimit="10"/></g></g></svg>