<?xml version="1.0" encoding="utf-8"?>
<svg height="997" version="1.1" width="1115.4228515625" xmlns="http://www.w3.org/2000/svg" xmlns:xlink="http://www.w3.org/1999/xlink"><defs/><g><g><path d=" M 210 58 L 930 58 L 930 874 L 210 874 L 210 58" fill="none" paint-order="fill stroke markers" stroke="#000000" stroke-dasharray="" stroke-miterlimit="10"/></g><g><path d=" M 210 58 L 210 81 L 347.544921875 81 L 359.044921875 69.5 L 359.044921875 58 L 210 58" fill="#ffffff" paint-order="stroke fill markers" stroke="none"/></g><g><path d=" M 210 58 L 210 81 L 347.544921875 81 L 359.044921875 69.5 L 359.044921875 58 L 210 58 L 210 58" fill="none" paint-order="fill stroke markers" stroke="#000000" stroke-dasharray="" stroke-miterlimit="10"/></g><g><g><path fill="none" stroke="none"/><text dominant-baseline="central" fill="#000000" font-family="Roboto" font-size="13px" font-style="normal" font-weight="normal" stroke="none" text-anchor="middle" text-decoration="undefined" transform="matrix(1 0 0 1 -254 -438)" x="542.758056640625" y="507.5">UseCaseTongQuat</text></g></g><g><g><path fill="none" stroke="none"/><text dominant-baseline="central" fill="#000000" font-family="Roboto" font-size="13px" font-style="normal" font-weight="bold" stroke="none" text-anchor="middle" text-decoration="undefined" transform="matrix(1 0 0 1 -254 -438)" x="475.985595703125" y="507.5">uc</text></g></g><g><path d=" M 76.37142578125003 483.85 C 76.37142578125003 478.96227952000004 80.32922814925001 475 85.21142578125 475 C 90.09362341324999 475 94.05142578124997 478.96227952000004 94.05142578124997 483.85 C 94.05142578124997 488.73772048 90.09362341324999 492.70000000000005 85.21142578125 492.70000000000005 C 80.32922814925001 492.70000000000005 76.37142578125003 488.73772048 76.37142578125003 483.85 Z" fill="#ffffff" paint-order="stroke fill markers" stroke="none"/></g><g><path d=" M 76.37142578125003 483.85 C 76.37142578125003 478.96227952000004 80.32922814925001 475 85.21142578125 475 C 90.09362341324999 475 94.05142578124997 478.96227952000004 94.05142578124997 483.85 C 94.05142578124997 488.73772048 90.09362341324999 492.70000000000005 85.21142578125 492.70000000000005 C 80.32922814925001 492.70000000000005 76.37142578125003 488.73772048 76.37142578125003 483.85 Z" fill="none" paint-order="fill stroke markers" stroke="#000000" stroke-dasharray="" stroke-miterlimit="10"/></g><g><path d=" M 85.21142578125 492.70000000000005 L 85.21142578125 510.29999999999995" fill="none" paint-order="fill stroke markers" stroke="#000000" stroke-dasharray="" stroke-miterlimit="10"/></g><g><path d=" M 75.85142578124999 499.29999999999995 L 94.57142578125001 499.29999999999995" fill="none" paint-order="fill stroke markers" stroke="#000000" stroke-dasharray="" stroke-miterlimit="10"/></g><g><path d=" M 85.21142578125 510.29999999999995 L 72.21142578125 528" fill="none" paint-order="fill stroke markers" stroke="#000000" stroke-dasharray="" stroke-miterlimit="10"/></g><g><path d=" M 85.21142578125 510.29999999999995 L 98.21142578125 528" fill="none" paint-order="fill stroke markers" stroke="#000000" stroke-dasharray="" stroke-miterlimit="10"/></g><g><g><path fill="none" stroke="none"/><text dominant-baseline="central" fill="#000000" font-family="Roboto" font-size="13px" font-style="normal" font-weight="bold" stroke="none" text-anchor="middle" text-decoration="undefined" transform="matrix(1 0 0 1 -254 -438)" x="339.71142578125" y="980.5">Người đã đăng nhập</text></g></g><g><path d=" M 1020.3714257812501 651.8499999999999 C 1020.3714257812501 646.9622795199998 1024.32922814925 643 1029.21142578125 643 C 1034.09362341325 643 1038.05142578125 646.9622795199998 1038.05142578125 651.8499999999999 C 1038.05142578125 656.73772048 1034.09362341325 660.7 1029.21142578125 660.7 C 1024.32922814925 660.7 1020.3714257812501 656.73772048 1020.3714257812501 651.8499999999999 Z" fill="#ffffff" paint-order="stroke fill markers" stroke="none"/></g><g><path d=" M 1020.3714257812501 651.8499999999999 C 1020.3714257812501 646.9622795199998 1024.32922814925 643 1029.21142578125 643 C 1034.09362341325 643 1038.05142578125 646.9622795199998 1038.05142578125 651.8499999999999 C 1038.05142578125 656.73772048 1034.09362341325 660.7 1029.21142578125 660.7 C 1024.32922814925 660.7 1020.3714257812501 656.73772048 1020.3714257812501 651.8499999999999 Z" fill="none" paint-order="fill stroke markers" stroke="#000000" stroke-dasharray="" stroke-miterlimit="10"/></g><g><path d=" M 1029.21142578125 660.7 L 1029.21142578125 678.3" fill="none" paint-order="fill stroke markers" stroke="#000000" stroke-dasharray="" stroke-miterlimit="10"/></g><g><path d=" M 1019.8514257812501 667.3 L 1038.57142578125 667.3" fill="none" paint-order="fill stroke markers" stroke="#000000" stroke-dasharray="" stroke-miterlimit="10"/></g><g><path d=" M 1029.21142578125 678.3 L 1016.21142578125 696" fill="none" paint-order="fill stroke markers" stroke="#000000" stroke-dasharray="" stroke-miterlimit="10"/></g><g><path d=" M 1029.21142578125 678.3 L 1042.21142578125 696" fill="none" paint-order="fill stroke markers" stroke="#000000" stroke-dasharray="" stroke-miterlimit="10"/></g><g><g><path fill="none" stroke="none"/><text dominant-baseline="central" fill="#000000" font-family="Roboto" font-size="13px" font-style="normal" font-weight="bold" stroke="none" text-anchor="middle" text-decoration="undefined" transform="matrix(1 0 0 1 -254 -438)" x="1283.71142578125" y="1148.5">Trưởng Ban Tổ Chức</text></g></g><g><path d=" M 473 210.5 C 473 200.835016 515.532944 193 568 193 C 620.467056 193 663 200.835016 663 210.5 C 663 220.164984 620.467056 228 568 228 C 515.532944 228 473 220.164984 473 210.5 Z" fill="#C0C0C0" fill-opacity="0.2" paint-order="stroke fill markers" stroke="none"/></g><g><path d=" M 466 203.5 C 466 193.835016 508.53294400000004 186 561 186 C 613.467056 186 656 193.835016 656 203.5 C 656 213.164984 613.467056 221 561 221 C 508.53294400000004 221 466 213.164984 466 203.5 Z" fill="#ffffff" paint-order="stroke fill markers" stroke="none"/></g><g><path d=" M 466 203.5 C 466 193.835016 508.53294400000004 186 561 186 C 613.467056 186 656 193.835016 656 203.5 C 656 213.164984 613.467056 221 561 221 C 508.53294400000004 221 466 213.164984 466 203.5 Z" fill="none" paint-order="fill stroke markers" stroke="#000000" stroke-dasharray="" stroke-miterlimit="10"/></g><g><g><path fill="none" stroke="none"/><text dominant-baseline="central" fill="#000000" font-family="Roboto" font-size="13px" font-style="normal" font-weight="bold" stroke="none" text-anchor="middle" text-decoration="undefined" transform="matrix(1 0 0 1 -254 -438)" x="815" y="642.5">Quản lý hệ thống</text></g></g><g><path d=" M 729 674.5 C 729 664.835016 771.532944 657 824 657 C 876.467056 657 919 664.835016 919 674.5 C 919 684.164984 876.467056 692 824 692 C 771.532944 692 729 684.164984 729 674.5 Z" fill="#C0C0C0" fill-opacity="0.2" paint-order="stroke fill markers" stroke="none"/></g><g><path d=" M 722 667.5 C 722 657.835016 764.532944 650 817 650 C 869.467056 650 912 657.835016 912 667.5 C 912 677.164984 869.467056 685 817 685 C 764.532944 685 722 677.164984 722 667.5 Z" fill="#ffffff" paint-order="stroke fill markers" stroke="none"/></g><g><path d=" M 722 667.5 C 722 657.835016 764.532944 650 817 650 C 869.467056 650 912 657.835016 912 667.5 C 912 677.164984 869.467056 685 817 685 C 764.532944 685 722 677.164984 722 667.5 Z" fill="none" paint-order="fill stroke markers" stroke="#000000" stroke-dasharray="" stroke-miterlimit="10"/></g><g><g><path fill="none" stroke="none"/><text dominant-baseline="central" fill="#000000" font-family="Roboto" font-size="13px" font-style="normal" font-weight="bold" stroke="none" text-anchor="middle" text-decoration="undefined" transform="matrix(1 0 0 1 -254 -438)" x="1071" y="1106.5">Quản lý giải đấu</text></g></g><g><path d=" M 1024.868251953125 387.85 C 1024.868251953125 382.96227952000004 1028.826054321125 379 1033.708251953125 379 C 1038.590449585125 379 1042.548251953125 382.96227952000004 1042.548251953125 387.85 C 1042.548251953125 392.73772048 1038.590449585125 396.70000000000005 1033.708251953125 396.70000000000005 C 1028.826054321125 396.70000000000005 1024.868251953125 392.73772048 1024.868251953125 387.85 Z" fill="#ffffff" paint-order="stroke fill markers" stroke="none"/></g><g><path d=" M 1024.868251953125 387.85 C 1024.868251953125 382.96227952000004 1028.826054321125 379 1033.708251953125 379 C 1038.590449585125 379 1042.548251953125 382.96227952000004 1042.548251953125 387.85 C 1042.548251953125 392.73772048 1038.590449585125 396.70000000000005 1033.708251953125 396.70000000000005 C 1028.826054321125 396.70000000000005 1024.868251953125 392.73772048 1024.868251953125 387.85 Z" fill="none" paint-order="fill stroke markers" stroke="#000000" stroke-dasharray="" stroke-miterlimit="10"/></g><g><path d=" M 1033.708251953125 396.70000000000005 L 1033.708251953125 414.29999999999995" fill="none" paint-order="fill stroke markers" stroke="#000000" stroke-dasharray="" stroke-miterlimit="10"/></g><g><path d=" M 1024.348251953125 403.29999999999995 L 1043.068251953125 403.29999999999995" fill="none" paint-order="fill stroke markers" stroke="#000000" stroke-dasharray="" stroke-miterlimit="10"/></g><g><path d=" M 1033.708251953125 414.29999999999995 L 1020.708251953125 432" fill="none" paint-order="fill stroke markers" stroke="#000000" stroke-dasharray="" stroke-miterlimit="10"/></g><g><path d=" M 1033.708251953125 414.29999999999995 L 1046.708251953125 432" fill="none" paint-order="fill stroke markers" stroke="#000000" stroke-dasharray="" stroke-miterlimit="10"/></g><g><g><path fill="none" stroke="none"/><text dominant-baseline="central" fill="#000000" font-family="Roboto" font-size="13px" font-style="normal" font-weight="bold" stroke="none" text-anchor="middle" text-decoration="undefined" transform="matrix(1 0 0 1 -254 -438)" x="1288.208251953125" y="884.5">Quản Trị Viên</text></g></g><g><path d=" M 633 618.5 C 633 608.835016 665.6832096 601 706 601 C 746.3167904 601 779 608.835016 779 618.5 C 779 628.164984 746.3167904 636 706 636 C 665.6832096 636 633 628.164984 633 618.5 Z" fill="#C0C0C0" fill-opacity="0.2" paint-order="stroke fill markers" stroke="none"/></g><g><path d=" M 626 611.5 C 626 601.835016 658.6832096 594 699 594 C 739.3167904 594 772 601.835016 772 611.5 C 772 621.164984 739.3167904 629 699 629 C 658.6832096 629 626 621.164984 626 611.5 Z" fill="#ffffff" paint-order="stroke fill markers" stroke="none"/></g><g><path d=" M 626 611.5 C 626 601.835016 658.6832096 594 699 594 C 739.3167904 594 772 601.835016 772 611.5 C 772 621.164984 739.3167904 629 699 629 C 658.6832096 629 626 621.164984 626 611.5 Z" fill="none" paint-order="fill stroke markers" stroke="#000000" stroke-dasharray="" stroke-miterlimit="10"/></g><g><g><path fill="none" stroke="none"/><text dominant-baseline="central" fill="#000000" font-family="Roboto" font-size="13px" font-style="normal" font-weight="bold" stroke="none" text-anchor="middle" text-decoration="undefined" transform="matrix(1 0 0 1 -254 -438)" x="953" y="1050.5">Quản lý đoàn</text></g></g><g><path d=" M 593 810.5 C 593 800.835016 623.220776 793 660.5 793 C 697.779224 793 728 800.835016 728 810.5 C 728 820.164984 697.779224 828 660.5 828 C 623.220776 828 593 820.164984 593 810.5 Z" fill="#C0C0C0" fill-opacity="0.2" paint-order="stroke fill markers" stroke="none"/></g><g><path d=" M 586 803.5 C 586 793.835016 616.220776 786 653.5 786 C 690.779224 786 721 793.835016 721 803.5 C 721 813.164984 690.779224 821 653.5 821 C 616.220776 821 586 813.164984 586 803.5 Z" fill="#ffffff" paint-order="stroke fill markers" stroke="none"/></g><g><path d=" M 586 803.5 C 586 793.835016 616.220776 786 653.5 786 C 690.779224 786 721 793.835016 721 803.5 C 721 813.164984 690.779224 821 653.5 821 C 616.220776 821 586 813.164984 586 803.5 Z" fill="none" paint-order="fill stroke markers" stroke="#000000" stroke-dasharray="" stroke-miterlimit="10"/></g><g><g><path fill="none" stroke="none"/><text dominant-baseline="central" fill="#000000" font-family="Roboto" font-size="13px" font-style="normal" font-weight="bold" stroke="none" text-anchor="middle" text-decoration="undefined" transform="matrix(1 0 0 1 -254 -438)" x="907.5" y="1242.5">Quán lý đội</text></g></g><g><path d=" M 465 386.5 C 465 376.835016 512.4578112 369 571 369 C 629.5421888 369 677 376.835016 677 386.5 C 677 396.164984 629.5421888 404 571 404 C 512.4578112 404 465 396.164984 465 386.5 Z" fill="#C0C0C0" fill-opacity="0.2" paint-order="stroke fill markers" stroke="none"/></g><g><path d=" M 458 379.5 C 458 369.835016 505.45781120000004 362 564 362 C 622.5421888 362 670 369.835016 670 379.5 C 670 389.164984 622.5421888 397 564 397 C 505.45781120000004 397 458 389.164984 458 379.5 Z" fill="#ffffff" paint-order="stroke fill markers" stroke="none"/></g><g><path d=" M 458 379.5 C 458 369.835016 505.45781120000004 362 564 362 C 622.5421888 362 670 369.835016 670 379.5 C 670 389.164984 622.5421888 397 564 397 C 505.45781120000004 397 458 389.164984 458 379.5 Z" fill="none" paint-order="fill stroke markers" stroke="#000000" stroke-dasharray="" stroke-miterlimit="10"/></g><g><g><path fill="none" stroke="none"/><text dominant-baseline="central" fill="#000000" font-family="Roboto" font-size="13px" font-style="normal" font-weight="bold" stroke="none" text-anchor="middle" text-decoration="undefined" transform="matrix(1 0 0 1 -254 -438)" x="818" y="818.5">Quản lý người dùng</text></g></g><g><path d=" M 721 770.5 C 721 760.835016 763.532944 753 816 753 C 868.467056 753 911 760.835016 911 770.5 C 911 780.164984 868.467056 788 816 788 C 763.532944 788 721 780.164984 721 770.5 Z" fill="#C0C0C0" fill-opacity="0.2" paint-order="stroke fill markers" stroke="none"/></g><g><path d=" M 714 763.5 C 714 753.835016 756.532944 746 809 746 C 861.467056 746 904 753.835016 904 763.5 C 904 773.164984 861.467056 781 809 781 C 756.532944 781 714 773.164984 714 763.5 Z" fill="#ffffff" paint-order="stroke fill markers" stroke="none"/></g><g><path d=" M 714 763.5 C 714 753.835016 756.532944 746 809 746 C 861.467056 746 904 753.835016 904 763.5 C 904 773.164984 861.467056 781 809 781 C 756.532944 781 714 773.164984 714 763.5 Z" fill="none" paint-order="fill stroke markers" stroke="#000000" stroke-dasharray="" stroke-miterlimit="10"/></g><g><g><path fill="none" stroke="none"/><text dominant-baseline="central" fill="#000000" font-family="Roboto" font-size="13px" font-style="normal" font-weight="bold" stroke="none" text-anchor="middle" text-decoration="undefined" transform="matrix(1 0 0 1 -254 -438)" x="1063" y="1202.5">Quản lý trận đấu</text></g></g><g><path d=" M 505 546.5 C 505 536.835016 554.9202448 529 616.5 529 C 678.0797552 529 728 536.835016 728 546.5 C 728 556.164984 678.0797552 564 616.5 564 C 554.9202448 564 505 556.164984 505 546.5 Z" fill="#C0C0C0" fill-opacity="0.2" paint-order="stroke fill markers" stroke="none"/></g><g><path d=" M 498 539.5 C 498 529.835016 547.9202448 522 609.5 522 C 671.0797552 522 721 529.835016 721 539.5 C 721 549.164984 671.0797552 557 609.5 557 C 547.9202448 557 498 549.164984 498 539.5 Z" fill="#ffffff" paint-order="stroke fill markers" stroke="none"/></g><g><path d=" M 498 539.5 C 498 529.835016 547.9202448 522 609.5 522 C 671.0797552 522 721 529.835016 721 539.5 C 721 549.164984 671.0797552 557 609.5 557 C 547.9202448 557 498 549.164984 498 539.5 Z" fill="none" paint-order="fill stroke markers" stroke="#000000" stroke-dasharray="" stroke-miterlimit="10"/></g><g><g><path fill="none" stroke="none"/><text dominant-baseline="central" fill="#000000" font-family="Roboto" font-size="13px" font-style="normal" font-weight="bold" stroke="none" text-anchor="middle" text-decoration="undefined" transform="matrix(1 0 0 1 -254 -438)" x="863.5" y="978.5">Quản lý nhà tài trợ</text></g></g><g><path d=" M 537.066982421875 907.8499999999999 C 537.066982421875 902.9622795199998 541.024784789875 899 545.906982421875 899 C 550.789180053875 899 554.746982421875 902.9622795199998 554.746982421875 907.8499999999999 C 554.746982421875 912.73772048 550.789180053875 916.7 545.906982421875 916.7 C 541.024784789875 916.7 537.066982421875 912.73772048 537.066982421875 907.8499999999999 Z" fill="#ffffff" paint-order="stroke fill markers" stroke="none"/></g><g><path d=" M 537.066982421875 907.8499999999999 C 537.066982421875 902.9622795199998 541.024784789875 899 545.906982421875 899 C 550.789180053875 899 554.746982421875 902.9622795199998 554.746982421875 907.8499999999999 C 554.746982421875 912.73772048 550.789180053875 916.7 545.906982421875 916.7 C 541.024784789875 916.7 537.066982421875 912.73772048 537.066982421875 907.8499999999999 Z" fill="none" paint-order="fill stroke markers" stroke="#000000" stroke-dasharray="" stroke-miterlimit="10"/></g><g><path d=" M 545.906982421875 916.7 L 545.906982421875 934.3" fill="none" paint-order="fill stroke markers" stroke="#000000" stroke-dasharray="" stroke-miterlimit="10"/></g><g><path d=" M 536.546982421875 923.3 L 555.266982421875 923.3" fill="none" paint-order="fill stroke markers" stroke="#000000" stroke-dasharray="" stroke-miterlimit="10"/></g><g><path d=" M 545.906982421875 934.3 L 532.906982421875 952" fill="none" paint-order="fill stroke markers" stroke="#000000" stroke-dasharray="" stroke-miterlimit="10"/></g><g><path d=" M 545.906982421875 934.3 L 558.906982421875 952" fill="none" paint-order="fill stroke markers" stroke="#000000" stroke-dasharray="" stroke-miterlimit="10"/></g><g><g><path fill="none" stroke="none"/><text dominant-baseline="central" fill="#000000" font-family="Roboto" font-size="13px" font-style="normal" font-weight="bold" stroke="none" text-anchor="middle" text-decoration="undefined" transform="matrix(1 0 0 1 -254 -438)" x="800.406982421875" y="1404.5">Trưởng Đoàn</text></g></g><g><path d=" M 289 402.5 C 289 392.835016 314.2959088 385 345.5 385 C 376.7040912 385 402 392.835016 402 402.5 C 402 412.164984 376.7040912 420 345.5 420 C 314.2959088 420 289 412.164984 289 402.5 Z" fill="#C0C0C0" fill-opacity="0.2" paint-order="stroke fill markers" stroke="none"/></g><g><path d=" M 282 395.5 C 282 385.835016 307.2959088 378 338.5 378 C 369.7040912 378 395 385.835016 395 395.5 C 395 405.164984 369.7040912 413 338.5 413 C 307.2959088 413 282 405.164984 282 395.5 Z" fill="#ffffff" paint-order="stroke fill markers" stroke="none"/></g><g><path d=" M 282 395.5 C 282 385.835016 307.2959088 378 338.5 378 C 369.7040912 378 395 385.835016 395 395.5 C 395 405.164984 369.7040912 413 338.5 413 C 307.2959088 413 282 405.164984 282 395.5 Z" fill="none" paint-order="fill stroke markers" stroke="#000000" stroke-dasharray="" stroke-miterlimit="10"/></g><g><g><path fill="none" stroke="none"/><text dominant-baseline="central" fill="#000000" font-family="Roboto" font-size="13px" font-style="normal" font-weight="bold" stroke="none" text-anchor="middle" text-decoration="undefined" transform="matrix(1 0 0 1 -254 -438)" x="592.5" y="834.5">Đăng nhập</text></g></g><g><path d=" M 497 306.5 C 497 296.835016 544.4578112 289 603 289 C 661.5421888 289 709 296.835016 709 306.5 C 709 316.164984 661.5421888 324 603 324 C 544.4578112 324 497 316.164984 497 306.5 Z" fill="#C0C0C0" fill-opacity="0.2" paint-order="stroke fill markers" stroke="none"/></g><g><path d=" M 490 299.5 C 490 289.835016 537.4578112 282 596 282 C 654.5421888 282 702 289.835016 702 299.5 C 702 309.164984 654.5421888 317 596 317 C 537.4578112 317 490 309.164984 490 299.5 Z" fill="#ffffff" paint-order="stroke fill markers" stroke="none"/></g><g><path d=" M 490 299.5 C 490 289.835016 537.4578112 282 596 282 C 654.5421888 282 702 289.835016 702 299.5 C 702 309.164984 654.5421888 317 596 317 C 537.4578112 317 490 309.164984 490 299.5 Z" fill="none" paint-order="fill stroke markers" stroke="#000000" stroke-dasharray="" stroke-miterlimit="10"/></g><g><g><path fill="none" stroke="none"/><text dominant-baseline="central" fill="#000000" font-family="Roboto" font-size="13px" font-style="normal" font-weight="bold" stroke="none" text-anchor="middle" text-decoration="undefined" transform="matrix(1 0 0 1 -254 -438)" x="850" y="738.5">Thống kê thông tin</text></g></g><g><path d=" M 281 242.5 C 281 232.835016 325.77152 225 381 225 C 436.22848 225 481 232.835016 481 242.5 C 481 252.164984 436.22848 260 381 260 C 325.77152 260 281 252.164984 281 242.5 Z" fill="#C0C0C0" fill-opacity="0.2" paint-order="stroke fill markers" stroke="none"/></g><g><path d=" M 274 235.5 C 274 225.835016 318.77152 218 374 218 C 429.22848 218 474 225.835016 474 235.5 C 474 245.164984 429.22848 253 374 253 C 318.77152 253 274 245.164984 274 235.5 Z" fill="#ffffff" paint-order="stroke fill markers" stroke="none"/></g><g><path d=" M 274 235.5 C 274 225.835016 318.77152 218 374 218 C 429.22848 218 474 225.835016 474 235.5 C 474 245.164984 429.22848 253 374 253 C 318.77152 253 274 245.164984 274 235.5 Z" fill="none" paint-order="fill stroke markers" stroke="#000000" stroke-dasharray="" stroke-miterlimit="10"/></g><g><g><path fill="none" stroke="none"/><text dominant-baseline="central" fill="#000000" font-family="Roboto" font-size="13px" font-style="normal" font-weight="bold" stroke="none" text-anchor="middle" text-decoration="undefined" transform="matrix(1 0 0 1 -254 -438)" x="628" y="674.5">Xem kết quả</text></g></g><g><path d=" M 297 338.5 C 297 328.835016 332.1456432 321 375.5 321 C 418.8543568 321 454 328.835016 454 338.5 C 454 348.164984 418.8543568 356 375.5 356 C 332.1456432 356 297 348.164984 297 338.5 Z" fill="#C0C0C0" fill-opacity="0.2" paint-order="stroke fill markers" stroke="none"/></g><g><path d=" M 290 331.5 C 290 321.835016 325.1456432 314 368.5 314 C 411.8543568 314 447 321.835016 447 331.5 C 447 341.164984 411.8543568 349 368.5 349 C 325.1456432 349 290 341.164984 290 331.5 Z" fill="#ffffff" paint-order="stroke fill markers" stroke="none"/></g><g><path d=" M 290 331.5 C 290 321.835016 325.1456432 314 368.5 314 C 411.8543568 314 447 321.835016 447 331.5 C 447 341.164984 411.8543568 349 368.5 349 C 325.1456432 349 290 341.164984 290 331.5 Z" fill="none" paint-order="fill stroke markers" stroke="#000000" stroke-dasharray="" stroke-miterlimit="10"/></g><g><g><path fill="none" stroke="none"/><text dominant-baseline="central" fill="#000000" font-family="Roboto" font-size="13px" font-style="normal" font-weight="bold" stroke="none" text-anchor="middle" text-decoration="undefined" transform="matrix(1 0 0 1 -254 -438)" x="622.5" y="770.5">Xem thông tin</text></g></g><g><path d=" M 133.63998046875003 363.85 C 133.63998046875003 358.96227952000004 137.59778283675 355 142.47998046875 355 C 147.36217810075 355 151.31998046874997 358.96227952000004 151.31998046874997 363.85 C 151.31998046874997 368.73772048 147.36217810075 372.70000000000005 142.47998046875 372.70000000000005 C 137.59778283675 372.70000000000005 133.63998046875003 368.73772048 133.63998046875003 363.85 Z" fill="#ffffff" paint-order="stroke fill markers" stroke="none"/></g><g><path d=" M 133.63998046875003 363.85 C 133.63998046875003 358.96227952000004 137.59778283675 355 142.47998046875 355 C 147.36217810075 355 151.31998046874997 358.96227952000004 151.31998046874997 363.85 C 151.31998046874997 368.73772048 147.36217810075 372.70000000000005 142.47998046875 372.70000000000005 C 137.59778283675 372.70000000000005 133.63998046875003 368.73772048 133.63998046875003 363.85 Z" fill="none" paint-order="fill stroke markers" stroke="#000000" stroke-dasharray="" stroke-miterlimit="10"/></g><g><path d=" M 142.47998046875 372.70000000000005 L 142.47998046875 390.29999999999995" fill="none" paint-order="fill stroke markers" stroke="#000000" stroke-dasharray="" stroke-miterlimit="10"/></g><g><path d=" M 133.11998046875 379.29999999999995 L 151.83998046875 379.29999999999995" fill="none" paint-order="fill stroke markers" stroke="#000000" stroke-dasharray="" stroke-miterlimit="10"/></g><g><path d=" M 142.47998046875 390.29999999999995 L 129.47998046875 408" fill="none" paint-order="fill stroke markers" stroke="#000000" stroke-dasharray="" stroke-miterlimit="10"/></g><g><path d=" M 142.47998046875 390.29999999999995 L 155.47998046875 408" fill="none" paint-order="fill stroke markers" stroke="#000000" stroke-dasharray="" stroke-miterlimit="10"/></g><g><g><path fill="none" stroke="none"/><text dominant-baseline="central" fill="#000000" font-family="Roboto" font-size="13px" font-style="normal" font-weight="bold" stroke="none" text-anchor="middle" text-decoration="undefined" transform="matrix(1 0 0 1 -254 -438)" x="396.97998046875" y="860.5">Khách</text></g></g><g><path d=" M 497 938 L 161 938 L 82 834 L 85 555" fill="none" paint-order="fill stroke markers" stroke="#000000" stroke-dasharray="" stroke-miterlimit="10"/></g><g><path d=" M 93.20000933447602 575.4146968362135 L 85 555 L 76.36291163744687 575.2336527749551" fill="#FFFFFF" paint-order="stroke fill markers" stroke="none"/></g><g><path d=" M 93.20000933447602 575.4146968362135 L 85 555 L 76.36291163744687 575.2336527749551 L 93.20000933447602 575.4146968362135" fill="none" paint-order="fill stroke markers" stroke="#000000" stroke-dasharray="" stroke-miterlimit="10"/></g><g><path d=" M 1028 723 L 1026 858 L 930 986 L 146 986 L 50 858 L 50 586 L 65 555" fill="none" paint-order="fill stroke markers" stroke="#000000" stroke-dasharray="" stroke-miterlimit="10"/></g><g><path d=" M 63.72554451813369 576.9630545058 L 65 555 L 48.56859910983104 569.6290486630729" fill="#FFFFFF" paint-order="stroke fill markers" stroke="none"/></g><g><path d=" M 63.72554451813369 576.9630545058 L 65 555 L 48.56859910983104 569.6290486630729 L 63.72554451813369 576.9630545058" fill="none" paint-order="fill stroke markers" stroke="#000000" stroke-dasharray="" stroke-miterlimit="10"/></g><g><path d=" M 1032 377 L 1026 90 L 962 10 L 114 10 L 50 90 L 50 442 L 65 473" fill="none" paint-order="fill stroke markers" stroke="#000000" stroke-dasharray="" stroke-miterlimit="10"/></g><g><path d=" M 48.56859910983104 458.3709513369271 L 65 473 L 63.72554451813369 451.03694549420004" fill="#FFFFFF" paint-order="stroke fill markers" stroke="none"/></g><g><path d=" M 48.56859910983104 458.3709513369271 L 65 473 L 63.72554451813369 451.03694549420004 L 48.56859910983104 458.3709513369271" fill="none" paint-order="fill stroke markers" stroke="#000000" stroke-dasharray="" stroke-miterlimit="10"/></g><g><path d=" M 172 394 L 281 395" fill="none" paint-order="fill stroke markers" stroke="#000000" stroke-dasharray="" stroke-miterlimit="10"/></g><g><path d=" M 305 154.5 C 305 144.835016 347.53294400000004 137 400 137 C 452.46705599999996 137 495 144.835016 495 154.5 C 495 164.164984 452.46705599999996 172 400 172 C 347.53294400000004 172 305 164.164984 305 154.5 Z" fill="#C0C0C0" fill-opacity="0.2" paint-order="stroke fill markers" stroke="none"/></g><g><path d=" M 298 147.5 C 298 137.835016 340.53294400000004 130 393 130 C 445.46705599999996 130 488 137.835016 488 147.5 C 488 157.164984 445.46705599999996 165 393 165 C 340.53294400000004 165 298 157.164984 298 147.5 Z" fill="#ffffff" paint-order="stroke fill markers" stroke="none"/></g><g><path d=" M 298 147.5 C 298 137.835016 340.53294400000004 130 393 130 C 445.46705599999996 130 488 137.835016 488 147.5 C 488 157.164984 445.46705599999996 165 393 165 C 340.53294400000004 165 298 157.164984 298 147.5 Z" fill="none" paint-order="fill stroke markers" stroke="#000000" stroke-dasharray="" stroke-miterlimit="10"/></g><g><g><path fill="none" stroke="none"/><text dominant-baseline="central" fill="#000000" font-family="Roboto" font-size="13px" font-style="normal" font-weight="bold" stroke="none" text-anchor="middle" text-decoration="undefined" transform="matrix(1 0 0 1 -254 -438)" x="647" y="586.5">Xem lịch thi đấu</text></g></g><g><path d=" M 273 610.5 C 273 600.835016 337.69484639999996 593 417.5 593 C 497.30515360000004 593 562 600.835016 562 610.5 C 562 620.164984 497.30515360000004 628 417.5 628 C 337.69484639999996 628 273 620.164984 273 610.5 Z" fill="#C0C0C0" fill-opacity="0.2" paint-order="stroke fill markers" stroke="none"/></g><g><path d=" M 266 603.5 C 266 593.835016 330.69484639999996 586 410.5 586 C 490.30515360000004 586 555 593.835016 555 603.5 C 555 613.164984 490.30515360000004 621 410.5 621 C 330.69484639999996 621 266 613.164984 266 603.5 Z" fill="#ffffff" paint-order="stroke fill markers" stroke="none"/></g><g><path d=" M 266 603.5 C 266 593.835016 330.69484639999996 586 410.5 586 C 490.30515360000004 586 555 593.835016 555 603.5 C 555 613.164984 490.30515360000004 621 410.5 621 C 330.69484639999996 621 266 613.164984 266 603.5 Z" fill="none" paint-order="fill stroke markers" stroke="#000000" stroke-dasharray="" stroke-miterlimit="10"/></g><g><g><path fill="none" stroke="none"/><text dominant-baseline="central" fill="#000000" font-family="Roboto" font-size="13px" font-style="normal" font-weight="bold" stroke="none" text-anchor="middle" text-decoration="undefined" transform="matrix(1 0 0 1 -254 -438)" x="664.5" y="1042.5">Quản lý thông tin cá nhân</text></g></g><g><path d=" M 187 170 L 348 313" fill="none" paint-order="fill stroke markers" stroke="#000000" stroke-dasharray="" stroke-miterlimit="10"/></g><g><path d=" M 133.16634765625003 99.85000000000002 C 133.16634765625003 94.96227952000004 137.12415002425 91 142.00634765625 91 C 146.88854528825 91 150.84634765624997 94.96227952000004 150.84634765624997 99.85000000000002 C 150.84634765624997 104.73772048000001 146.88854528825 108.70000000000005 142.00634765625 108.70000000000005 C 137.12415002425 108.70000000000005 133.16634765625003 104.73772048000001 133.16634765625003 99.85000000000002 Z" fill="#ffffff" paint-order="stroke fill markers" stroke="none"/></g><g><path d=" M 133.16634765625003 99.85000000000002 C 133.16634765625003 94.96227952000004 137.12415002425 91 142.00634765625 91 C 146.88854528825 91 150.84634765624997 94.96227952000004 150.84634765624997 99.85000000000002 C 150.84634765624997 104.73772048000001 146.88854528825 108.70000000000005 142.00634765625 108.70000000000005 C 137.12415002425 108.70000000000005 133.16634765625003 104.73772048000001 133.16634765625003 99.85000000000002 Z" fill="none" paint-order="fill stroke markers" stroke="#000000" stroke-dasharray="" stroke-miterlimit="10"/></g><g><path d=" M 142.00634765625 108.70000000000005 L 142.00634765625 126.29999999999995" fill="none" paint-order="fill stroke markers" stroke="#000000" stroke-dasharray="" stroke-miterlimit="10"/></g><g><path d=" M 132.64634765625 115.29999999999995 L 151.36634765625 115.29999999999995" fill="none" paint-order="fill stroke markers" stroke="#000000" stroke-dasharray="" stroke-miterlimit="10"/></g><g><path d=" M 142.00634765625 126.29999999999995 L 129.00634765625 144" fill="none" paint-order="fill stroke markers" stroke="#000000" stroke-dasharray="" stroke-miterlimit="10"/></g><g><path d=" M 142.00634765625 126.29999999999995 L 155.00634765625 144" fill="none" paint-order="fill stroke markers" stroke="#000000" stroke-dasharray="" stroke-miterlimit="10"/></g><g><g><path fill="none" stroke="none"/><text dominant-baseline="central" fill="#000000" font-family="Roboto" font-size="13px" font-style="normal" font-weight="bold" stroke="none" text-anchor="middle" text-decoration="undefined" transform="matrix(1 0 0 1 -254 -438)" x="396.50634765625" y="596.5">Người Dùng</text></g></g><g><path d=" M 85 473 L 82 218 L 114 171" fill="none" paint-order="fill stroke markers" stroke="#000000" stroke-dasharray="" stroke-miterlimit="10"/></g><g><path d=" M 109.52024499389415 192.5390760035167 L 114 171 L 95.60190815454905 183.06276155970727" fill="#FFFFFF" paint-order="stroke fill markers" stroke="none"/></g><g><path d=" M 109.52024499389415 192.5390760035167 L 114 171 L 95.60190815454905 183.06276155970727 L 109.52024499389415 192.5390760035167" fill="none" paint-order="fill stroke markers" stroke="#000000" stroke-dasharray="" stroke-miterlimit="10"/></g><g><path d=" M 146 354 L 146 170" fill="none" paint-order="fill stroke markers" stroke="#000000" stroke-dasharray="" stroke-miterlimit="10"/></g><g><path d=" M 154.419035512032 190.3253497152483 L 146 170 L 137.580964487968 190.3253497152483" fill="#FFFFFF" paint-order="stroke fill markers" stroke="none"/></g><g><path d=" M 154.419035512032 190.3253497152483 L 146 170 L 137.580964487968 190.3253497152483 L 154.419035512032 190.3253497152483" fill="none" paint-order="fill stroke markers" stroke="#000000" stroke-dasharray="" stroke-miterlimit="10"/></g><g><path d=" M 187 133 L 297 140" fill="none" paint-order="fill stroke markers" stroke="#000000" stroke-dasharray="" stroke-miterlimit="10"/></g><g><path d=" M 187 150 L 334 217" fill="none" paint-order="fill stroke markers" stroke="#000000" stroke-dasharray="" stroke-miterlimit="10"/></g><g><path d=" M 313 522.5 C 313 512.835016 338.2959088 505 369.5 505 C 400.7040912 505 426 512.835016 426 522.5 C 426 532.164984 400.7040912 540 369.5 540 C 338.2959088 540 313 532.164984 313 522.5 Z" fill="#C0C0C0" fill-opacity="0.2" paint-order="stroke fill markers" stroke="none"/></g><g><path d=" M 306 515.5 C 306 505.835016 331.2959088 498 362.5 498 C 393.7040912 498 419 505.835016 419 515.5 C 419 525.164984 393.7040912 533 362.5 533 C 331.2959088 533 306 525.164984 306 515.5 Z" fill="#ffffff" paint-order="stroke fill markers" stroke="none"/></g><g><path d=" M 306 515.5 C 306 505.835016 331.2959088 498 362.5 498 C 393.7040912 498 419 505.835016 419 515.5 C 419 525.164984 393.7040912 533 362.5 533 C 331.2959088 533 306 525.164984 306 515.5 Z" fill="none" paint-order="fill stroke markers" stroke="#000000" stroke-dasharray="" stroke-miterlimit="10"/></g><g><g><path fill="none" stroke="none"/><text dominant-baseline="central" fill="#000000" font-family="Roboto" font-size="13px" font-style="normal" font-weight="bold" stroke="none" text-anchor="middle" text-decoration="undefined" transform="matrix(1 0 0 1 -254 -438)" x="616.5" y="954.5">Đăng xuất</text></g></g><g><path d=" M 161 514 L 305 515" fill="none" paint-order="fill stroke markers" stroke="#000000" stroke-dasharray="" stroke-miterlimit="10"/></g><g><path d=" M 161 535 L 344 585" fill="none" paint-order="fill stroke markers" stroke="#000000" stroke-dasharray="" stroke-miterlimit="10"/></g><g><path d=" M 977 413 L 671 388" fill="none" paint-order="fill stroke markers" stroke="#000000" stroke-dasharray="" stroke-miterlimit="10"/></g><g><path d=" M 977 434 L 672 521" fill="none" paint-order="fill stroke markers" stroke="#000000" stroke-dasharray="" stroke-miterlimit="10"/></g><g><path d=" M 457 466.5 C 457 456.835016 510.94968159999996 449 577.5 449 C 644.0503184 449 698 456.835016 698 466.5 C 698 476.164984 644.0503184 484 577.5 484 C 510.94968159999996 484 457 476.164984 457 466.5 Z" fill="#C0C0C0" fill-opacity="0.2" paint-order="stroke fill markers" stroke="none"/></g><g><path d=" M 450 459.5 C 450 449.835016 503.94968159999996 442 570.5 442 C 637.0503184 442 691 449.835016 691 459.5 C 691 469.164984 637.0503184 477 570.5 477 C 503.94968159999996 477 450 469.164984 450 459.5 Z" fill="#ffffff" paint-order="stroke fill markers" stroke="none"/></g><g><path d=" M 450 459.5 C 450 449.835016 503.94968159999996 442 570.5 442 C 637.0503184 442 691 449.835016 691 459.5 C 691 469.164984 637.0503184 477 570.5 477 C 503.94968159999996 477 450 469.164984 450 459.5 Z" fill="none" paint-order="fill stroke markers" stroke="#000000" stroke-dasharray="" stroke-miterlimit="10"/></g><g><g><path fill="none" stroke="none"/><text dominant-baseline="central" fill="#000000" font-family="Roboto" font-size="13px" font-style="normal" font-weight="bold" stroke="none" text-anchor="middle" text-decoration="undefined" transform="matrix(1 0 0 1 -254 -438)" x="824.5" y="898.5">Quản lý môn thể thao</text></g></g><g><path d=" M 977 423 L 692 448" fill="none" paint-order="fill stroke markers" stroke="#000000" stroke-dasharray="" stroke-miterlimit="10"/></g><g><path d=" M 489 114.5 C 489 104.835016 551.2324128 97 628 97 C 704.7675872 97 767 104.835016 767 114.5 C 767 124.164984 704.7675872 132 628 132 C 551.2324128 132 489 124.164984 489 114.5 Z" fill="#C0C0C0" fill-opacity="0.2" paint-order="stroke fill markers" stroke="none"/></g><g><path d=" M 482 107.5 C 482 97.835016 544.2324128 90 621 90 C 697.7675872 90 760 97.835016 760 107.5 C 760 117.164984 697.7675872 125 621 125 C 544.2324128 125 482 117.164984 482 107.5 Z" fill="#ffffff" paint-order="stroke fill markers" stroke="none"/></g><g><path d=" M 482 107.5 C 482 97.835016 544.2324128 90 621 90 C 697.7675872 90 760 97.835016 760 107.5 C 760 117.164984 697.7675872 125 621 125 C 544.2324128 125 482 117.164984 482 107.5 Z" fill="none" paint-order="fill stroke markers" stroke="#000000" stroke-dasharray="" stroke-miterlimit="10"/></g><g><g><path fill="none" stroke="none"/><text dominant-baseline="central" fill="#000000" font-family="Roboto" font-size="13px" font-style="normal" font-weight="bold" stroke="none" text-anchor="middle" text-decoration="undefined" transform="matrix(1 0 0 1 -254 -438)" x="875" y="546.5">Quản lý hạng mục thi đấu</text></g></g><g><path d=" M 646 126 L 979 377" fill="none" paint-order="fill stroke markers" stroke="#000000" stroke-dasharray="" stroke-miterlimit="10"/></g><g><path d=" M 977 450 L 730 593" fill="none" paint-order="fill stroke markers" stroke="#000000" stroke-dasharray="" stroke-miterlimit="10"/></g><g><path d=" M 953 677 L 913 674" fill="none" paint-order="fill stroke markers" stroke="#000000" stroke-dasharray="" stroke-miterlimit="10"/></g><g><path d=" M 953 710 L 858 745" fill="none" paint-order="fill stroke markers" stroke="#000000" stroke-dasharray="" stroke-miterlimit="10"/></g><g><path d=" M 578 897 L 638 822" fill="none" paint-order="fill stroke markers" stroke="#000000" stroke-dasharray="" stroke-miterlimit="10"/></g><g><path d=" M 729 170.5 C 729 160.835016 771.532944 153 824 153 C 876.467056 153 919 160.835016 919 170.5 C 919 180.164984 876.467056 188 824 188 C 771.532944 188 729 180.164984 729 170.5 Z" fill="#C0C0C0" fill-opacity="0.2" paint-order="stroke fill markers" stroke="none"/></g><g><path d=" M 722 163.5 C 722 153.835016 764.532944 146 817 146 C 869.467056 146 912 153.835016 912 163.5 C 912 173.164984 869.467056 181 817 181 C 764.532944 181 722 173.164984 722 163.5 Z" fill="#ffffff" paint-order="stroke fill markers" stroke="none"/></g><g><path d=" M 722 163.5 C 722 153.835016 764.532944 146 817 146 C 869.467056 146 912 153.835016 912 163.5 C 912 173.164984 869.467056 181 817 181 C 764.532944 181 722 173.164984 722 163.5 Z" fill="none" paint-order="fill stroke markers" stroke="#000000" stroke-dasharray="" stroke-miterlimit="10"/></g><g><g><path fill="none" stroke="none"/><text dominant-baseline="central" fill="#000000" font-family="Roboto" font-size="13px" font-style="normal" font-weight="bold" stroke="none" text-anchor="middle" text-decoration="undefined" transform="matrix(1 0 0 1 -254 -438)" x="1071" y="602.5">Quản lý địa điểm</text></g></g><g><path d=" M 998 377 L 833 182" fill="none" paint-order="fill stroke markers" stroke="#000000" stroke-dasharray="" stroke-miterlimit="10"/></g><g><path d=" M 305 818.5 C 305 808.835016 359.845112 801 427.5 801 C 495.154888 801 550 808.835016 550 818.5 C 550 828.164984 495.154888 836 427.5 836 C 359.845112 836 305 828.164984 305 818.5 Z" fill="#C0C0C0" fill-opacity="0.2" paint-order="stroke fill markers" stroke="none"/></g><g><path d=" M 298 811.5 C 298 801.835016 352.845112 794 420.5 794 C 488.154888 794 543 801.835016 543 811.5 C 543 821.164984 488.154888 829 420.5 829 C 352.845112 829 298 821.164984 298 811.5 Z" fill="#ffffff" paint-order="stroke fill markers" stroke="none"/></g><g><path d=" M 298 811.5 C 298 801.835016 352.845112 794 420.5 794 C 488.154888 794 543 801.835016 543 811.5 C 543 821.164984 488.154888 829 420.5 829 C 352.845112 829 298 821.164984 298 811.5 Z" fill="none" paint-order="fill stroke markers" stroke="#000000" stroke-dasharray="" stroke-miterlimit="10"/></g><g><g><path fill="none" stroke="none"/><text dominant-baseline="central" fill="#000000" font-family="Roboto" font-size="13px" font-style="normal" font-weight="bold" stroke="none" text-anchor="middle" text-decoration="undefined" transform="matrix(1 0 0 1 -254 -438)" x="674.5" y="1250.5">Quản lý vận động viên</text></g></g><g><path d=" M 505 897 L 439 830" fill="none" paint-order="fill stroke markers" stroke="#000000" stroke-dasharray="" stroke-miterlimit="10"/></g><g><path d=" M 136.86825195312503 667.8499999999999 C 136.86825195312503 662.9622795199998 140.826054321125 659 145.708251953125 659 C 150.590449585125 659 154.54825195312497 662.9622795199998 154.54825195312497 667.8499999999999 C 154.54825195312497 672.73772048 150.590449585125 676.7 145.708251953125 676.7 C 140.826054321125 676.7 136.86825195312503 672.73772048 136.86825195312503 667.8499999999999 Z" fill="#ffffff" paint-order="stroke fill markers" stroke="none"/></g><g><path d=" M 136.86825195312503 667.8499999999999 C 136.86825195312503 662.9622795199998 140.826054321125 659 145.708251953125 659 C 150.590449585125 659 154.54825195312497 662.9622795199998 154.54825195312497 667.8499999999999 C 154.54825195312497 672.73772048 150.590449585125 676.7 145.708251953125 676.7 C 140.826054321125 676.7 136.86825195312503 672.73772048 136.86825195312503 667.8499999999999 Z" fill="none" paint-order="fill stroke markers" stroke="#000000" stroke-dasharray="" stroke-miterlimit="10"/></g><g><path d=" M 145.708251953125 676.7 L 145.708251953125 694.3" fill="none" paint-order="fill stroke markers" stroke="#000000" stroke-dasharray="" stroke-miterlimit="10"/></g><g><path d=" M 136.348251953125 683.3 L 155.068251953125 683.3" fill="none" paint-order="fill stroke markers" stroke="#000000" stroke-dasharray="" stroke-miterlimit="10"/></g><g><path d=" M 145.708251953125 694.3 L 132.708251953125 712" fill="none" paint-order="fill stroke markers" stroke="#000000" stroke-dasharray="" stroke-miterlimit="10"/></g><g><path d=" M 145.708251953125 694.3 L 158.708251953125 712" fill="none" paint-order="fill stroke markers" stroke="#000000" stroke-dasharray="" stroke-miterlimit="10"/></g><g><g><path fill="none" stroke="none"/><text dominant-baseline="central" fill="#000000" font-family="Roboto" font-size="13px" font-style="normal" font-weight="bold" stroke="none" text-anchor="middle" text-decoration="undefined" transform="matrix(1 0 0 1 -254 -438)" x="400.208251953125" y="1164.5">Vận Động Viên</text></g></g><g><path d=" M 132 657 L 98 555" fill="none" paint-order="fill stroke markers" stroke="#000000" stroke-dasharray="" stroke-miterlimit="10"/></g><g><path d=" M 112.41443830992284 571.6199870099056 L 98 555 L 96.44044155800503 576.9446525938781" fill="#FFFFFF" paint-order="stroke fill markers" stroke="none"/></g><g><path d=" M 112.41443830992284 571.6199870099056 L 98 555 L 96.44044155800503 576.9446525938781 L 112.41443830992284 571.6199870099056" fill="none" paint-order="fill stroke markers" stroke="#000000" stroke-dasharray="" stroke-miterlimit="10"/></g><g><path d=" M 249 706.5 C 249 696.835016 348.3927744 689 471 689 C 593.6072256 689 693 696.835016 693 706.5 C 693 716.164984 593.6072256 724 471 724 C 348.3927744 724 249 716.164984 249 706.5 Z" fill="#C0C0C0" fill-opacity="0.2" paint-order="stroke fill markers" stroke="none"/></g><g><path d=" M 242 699.5 C 242 689.835016 341.3927744 682 464 682 C 586.6072256 682 686 689.835016 686 699.5 C 686 709.164984 586.6072256 717 464 717 C 341.3927744 717 242 709.164984 242 699.5 Z" fill="#ffffff" paint-order="stroke fill markers" stroke="none"/></g><g><path d=" M 242 699.5 C 242 689.835016 341.3927744 682 464 682 C 586.6072256 682 686 689.835016 686 699.5 C 686 709.164984 586.6072256 717 464 717 C 341.3927744 717 242 709.164984 242 699.5 Z" fill="none" paint-order="fill stroke markers" stroke="#000000" stroke-dasharray="" stroke-miterlimit="10"/></g><g><g><path fill="none" stroke="none"/><text dominant-baseline="central" fill="#000000" font-family="Roboto" font-size="13px" font-style="normal" font-weight="bold" stroke="none" text-anchor="middle" text-decoration="undefined" transform="matrix(1 0 0 1 -254 -438)" x="718" y="1138.5">Gửi yêu cầu chỉnh sửa thông tin cá nhận</text></g></g><g><path d=" M 202 698 L 241 698" fill="none" paint-order="fill stroke markers" stroke="#000000" stroke-dasharray="" stroke-miterlimit="10"/></g><g><path d=" M 977 403 L 666 318" fill="none" paint-order="fill stroke markers" stroke="#000000" stroke-dasharray="" stroke-miterlimit="10"/></g><g><path d=" M 603 222 L 977 392" fill="none" paint-order="fill stroke markers" stroke="#000000" stroke-dasharray="" stroke-miterlimit="10"/></g></g></svg>