<?xml version="1.0" encoding="utf-8"?>
<svg height="436" version="1.1" width="540" xmlns="http://www.w3.org/2000/svg" xmlns:xlink="http://www.w3.org/1999/xlink"><defs/><g><g><path d=" M 138 10 L 530 10 L 530 426 L 138 426 L 138 10" fill="none" paint-order="fill stroke markers" stroke="#000000" stroke-dasharray="" stroke-miterlimit="10"/></g><g><path d=" M 138 10 L 138 33 L 258.05712890625 33 L 269.55712890625 21.5 L 269.55712890625 10 L 138 10" fill="#ffffff" paint-order="stroke fill markers" stroke="none"/></g><g><path d=" M 138 10 L 138 33 L 258.05712890625 33 L 269.55712890625 21.5 L 269.55712890625 10 L 138 10 L 138 10" fill="none" paint-order="fill stroke markers" stroke="#000000" stroke-dasharray="" stroke-miterlimit="10"/></g><g><g><path fill="none" stroke="none"/><text dominant-baseline="central" fill="#000000" font-family="Arial" font-size="13px" font-style="normal" font-weight="normal" stroke="none" text-anchor="middle" text-decoration="undefined" transform="matrix(1 0 0 1 -350 -374)" x="557.8935546875" y="395.5">UseCaseKhach</text></g></g><g><g><path fill="none" stroke="none"/><text dominant-baseline="central" fill="#000000" font-family="Arial" font-size="13px" font-style="normal" font-weight="bold" stroke="none" text-anchor="middle" text-decoration="undefined" transform="matrix(1 0 0 1 -350 -374)" x="499.864990234375" y="395.5">uc</text></g></g><g><path d=" M 44.024990234375025 259.85 C 44.024990234375025 254.96227952000004 47.982792602375014 251 52.864990234375 251 C 57.747187866374986 251 61.704990234374975 254.96227952000004 61.704990234374975 259.85 C 61.704990234374975 264.73772048 57.747187866374986 268.70000000000005 52.864990234375 268.70000000000005 C 47.982792602375014 268.70000000000005 44.024990234375025 264.73772048 44.024990234375025 259.85 Z" fill="#ffffff" paint-order="stroke fill markers" stroke="none"/></g><g><path d=" M 44.024990234375025 259.85 C 44.024990234375025 254.96227952000004 47.982792602375014 251 52.864990234375 251 C 57.747187866374986 251 61.704990234374975 254.96227952000004 61.704990234374975 259.85 C 61.704990234374975 264.73772048 57.747187866374986 268.70000000000005 52.864990234375 268.70000000000005 C 47.982792602375014 268.70000000000005 44.024990234375025 264.73772048 44.024990234375025 259.85 Z" fill="none" paint-order="fill stroke markers" stroke="#000000" stroke-dasharray="" stroke-miterlimit="10"/></g><g><path d=" M 52.864990234375 268.70000000000005 L 52.864990234375 286.29999999999995" fill="none" paint-order="fill stroke markers" stroke="#000000" stroke-dasharray="" stroke-miterlimit="10"/></g><g><path d=" M 43.504990234374986 275.29999999999995 L 62.224990234375014 275.29999999999995" fill="none" paint-order="fill stroke markers" stroke="#000000" stroke-dasharray="" stroke-miterlimit="10"/></g><g><path d=" M 52.864990234375 286.29999999999995 L 39.864990234375 304" fill="none" paint-order="fill stroke markers" stroke="#000000" stroke-dasharray="" stroke-miterlimit="10"/></g><g><path d=" M 52.864990234375 286.29999999999995 L 65.864990234375 304" fill="none" paint-order="fill stroke markers" stroke="#000000" stroke-dasharray="" stroke-miterlimit="10"/></g><g><g><path fill="none" stroke="none"/><text dominant-baseline="central" fill="#000000" font-family="Arial" font-size="13px" font-style="normal" font-weight="bold" stroke="none" text-anchor="middle" text-decoration="undefined" transform="matrix(1 0 0 1 -350 -374)" x="403.364990234375" y="692.5">Khách</text></g></g><g><path d=" M 44.369716796875025 43.85000000000002 C 44.369716796875025 38.96227952000004 48.327519164875014 35 53.209716796875 35 C 58.091914428874986 35 62.049716796874975 38.96227952000004 62.049716796874975 43.85000000000002 C 62.049716796874975 48.73772048000001 58.091914428874986 52.69999999999999 53.209716796875 52.69999999999999 C 48.327519164875014 52.69999999999999 44.369716796875025 48.73772048000001 44.369716796875025 43.85000000000002 Z" fill="#ffffff" paint-order="stroke fill markers" stroke="none"/></g><g><path d=" M 44.369716796875025 43.85000000000002 C 44.369716796875025 38.96227952000004 48.327519164875014 35 53.209716796875 35 C 58.091914428874986 35 62.049716796874975 38.96227952000004 62.049716796874975 43.85000000000002 C 62.049716796874975 48.73772048000001 58.091914428874986 52.69999999999999 53.209716796875 52.69999999999999 C 48.327519164875014 52.69999999999999 44.369716796875025 48.73772048000001 44.369716796875025 43.85000000000002 Z" fill="none" paint-order="fill stroke markers" stroke="#000000" stroke-dasharray="" stroke-miterlimit="10"/></g><g><path d=" M 53.209716796875 52.69999999999999 L 53.209716796875 70.30000000000001" fill="none" paint-order="fill stroke markers" stroke="#000000" stroke-dasharray="" stroke-miterlimit="10"/></g><g><path d=" M 43.849716796874986 59.30000000000001 L 62.569716796875014 59.30000000000001" fill="none" paint-order="fill stroke markers" stroke="#000000" stroke-dasharray="" stroke-miterlimit="10"/></g><g><path d=" M 53.209716796875 70.30000000000001 L 40.209716796875 88" fill="none" paint-order="fill stroke markers" stroke="#000000" stroke-dasharray="" stroke-miterlimit="10"/></g><g><path d=" M 53.209716796875 70.30000000000001 L 66.209716796875 88" fill="none" paint-order="fill stroke markers" stroke="#000000" stroke-dasharray="" stroke-miterlimit="10"/></g><g><g><path fill="none" stroke="none"/><text dominant-baseline="central" fill="#000000" font-family="Arial" font-size="13px" font-style="normal" font-weight="bold" stroke="none" text-anchor="middle" text-decoration="undefined" transform="matrix(1 0 0 1 -350 -374)" x="403.709716796875" y="476.5">Người Dùng</text></g></g><g><path d=" M 52 249 L 53 115" fill="none" paint-order="fill stroke markers" stroke="#000000" stroke-dasharray="" stroke-miterlimit="10"/></g><g><path d=" M 61.26712359589857 135.38761063612253 L 53 115 L 44.42952142257394 135.2619568885604" fill="#FFFFFF" paint-order="stroke fill markers" stroke="none"/></g><g><path d=" M 61.26712359589857 135.38761063612253 L 53 115 L 44.42952142257394 135.2619568885604 L 61.26712359589857 135.38761063612253" fill="none" paint-order="fill stroke markers" stroke="#000000" stroke-dasharray="" stroke-miterlimit="10"/></g><g><path d=" M 281 226.5 C 281 216.835016 305.4004784 209 335.5 209 C 365.5995216 209 390 216.835016 390 226.5 C 390 236.164984 365.5995216 244 335.5 244 C 305.4004784 244 281 236.164984 281 226.5 Z" fill="#C0C0C0" fill-opacity="0.2" paint-order="stroke fill markers" stroke="none"/></g><g><path d=" M 274 219.5 C 274 209.835016 298.4004784 202 328.5 202 C 358.5995216 202 383 209.835016 383 219.5 C 383 229.164984 358.5995216 237 328.5 237 C 298.4004784 237 274 229.164984 274 219.5 Z" fill="#ffffff" paint-order="stroke fill markers" stroke="none"/></g><g><path d=" M 274 219.5 C 274 209.835016 298.4004784 202 328.5 202 C 358.5995216 202 383 209.835016 383 219.5 C 383 229.164984 358.5995216 237 328.5 237 C 298.4004784 237 274 229.164984 274 219.5 Z" fill="none" paint-order="fill stroke markers" stroke="#000000" stroke-dasharray="" stroke-miterlimit="10"/></g><g><g><path fill="none" stroke="none"/><text dominant-baseline="central" fill="#000000" font-family="Arial" font-size="13px" font-style="normal" font-weight="bold" stroke="none" text-anchor="middle" text-decoration="undefined" transform="matrix(1 0 0 1 -350 -374)" x="678.5" y="594.5">Đăng nhập</text></g></g><g><path d=" M 79 283 L 273 233" fill="none" paint-order="fill stroke markers" stroke="#000000" stroke-dasharray="" stroke-miterlimit="10"/></g></g></svg>