<?xml version="1.0" encoding="utf-8"?>
<svg height="628" version="1.1" width="1356" xmlns="http://www.w3.org/2000/svg" xmlns:xlink="http://www.w3.org/1999/xlink"><defs/><g><g><path d=" M 226 10 L 1346 10 L 1346 618 L 226 618 L 226 10" fill="none" paint-order="fill stroke markers" stroke="#000000" stroke-dasharray="" stroke-miterlimit="10"/></g><g><path d=" M 226 10 L 226 33 L 335.919921875 33 L 347.419921875 21.5 L 347.419921875 10 L 226 10" fill="#ffffff" paint-order="stroke fill markers" stroke="none"/></g><g><path d=" M 226 10 L 226 33 L 335.919921875 33 L 347.419921875 21.5 L 347.419921875 10 L 226 10 L 226 10" fill="none" paint-order="fill stroke markers" stroke="#000000" stroke-dasharray="" stroke-miterlimit="10"/></g><g><g><path fill="none" stroke="none"/><text dominant-baseline="central" fill="#000000" font-family="Arial" font-size="13px" font-style="normal" font-weight="normal" stroke="none" text-anchor="middle" text-decoration="undefined" transform="matrix(1 0 0 1 -166 -126)" x="456.824951171875" y="147.5">UseCaseQTV</text></g></g><g><g><path fill="none" stroke="none"/><text dominant-baseline="central" fill="#000000" font-family="Arial" font-size="13px" font-style="normal" font-weight="bold" stroke="none" text-anchor="middle" text-decoration="undefined" transform="matrix(1 0 0 1 -166 -126)" x="403.864990234375" y="147.5">uc</text></g></g><g><path d=" M 249 114.5 C 249 104.835016 291.532944 97 344 97 C 396.46705599999996 97 439 104.835016 439 114.5 C 439 124.164984 396.46705599999996 132 344 132 C 291.532944 132 249 124.164984 249 114.5 Z" fill="#C0C0C0" fill-opacity="0.2" paint-order="stroke fill markers" stroke="none"/></g><g><path d=" M 242 107.5 C 242 97.835016 284.532944 90 337 90 C 389.46705599999996 90 432 97.835016 432 107.5 C 432 117.164984 389.46705599999996 125 337 125 C 284.532944 125 242 117.164984 242 107.5 Z" fill="#ffffff" paint-order="stroke fill markers" stroke="none"/></g><g><path d=" M 242 107.5 C 242 97.835016 284.532944 90 337 90 C 389.46705599999996 90 432 97.835016 432 107.5 C 432 117.164984 389.46705599999996 125 337 125 C 284.532944 125 242 117.164984 242 107.5 Z" fill="none" paint-order="fill stroke markers" stroke="#000000" stroke-dasharray="" stroke-miterlimit="10"/></g><g><g><path fill="none" stroke="none"/><text dominant-baseline="central" fill="#000000" font-family="Roboto" font-size="13px" font-style="normal" font-weight="bold" stroke="none" text-anchor="middle" text-decoration="undefined" transform="matrix(1 0 0 1 -166 -126)" x="503" y="234.5">Quản lý địa điểm</text></g></g><g><path d=" M 56.868251953125 331.85 C 56.868251953125 326.96227952000004 60.826054321124985 323 65.708251953125 323 C 70.59044958512501 323 74.548251953125 326.96227952000004 74.548251953125 331.85 C 74.548251953125 336.73772048 70.59044958512501 340.7 65.708251953125 340.7 C 60.826054321124985 340.7 56.868251953125 336.73772048 56.868251953125 331.85 Z" fill="#ffffff" paint-order="stroke fill markers" stroke="none"/></g><g><path d=" M 56.868251953125 331.85 C 56.868251953125 326.96227952000004 60.826054321124985 323 65.708251953125 323 C 70.59044958512501 323 74.548251953125 326.96227952000004 74.548251953125 331.85 C 74.548251953125 336.73772048 70.59044958512501 340.7 65.708251953125 340.7 C 60.826054321124985 340.7 56.868251953125 336.73772048 56.868251953125 331.85 Z" fill="none" paint-order="fill stroke markers" stroke="#000000" stroke-dasharray="" stroke-miterlimit="10"/></g><g><path d=" M 65.708251953125 340.7 L 65.708251953125 358.3" fill="none" paint-order="fill stroke markers" stroke="#000000" stroke-dasharray="" stroke-miterlimit="10"/></g><g><path d=" M 56.348251953124986 347.3 L 75.06825195312501 347.3" fill="none" paint-order="fill stroke markers" stroke="#000000" stroke-dasharray="" stroke-miterlimit="10"/></g><g><path d=" M 65.708251953125 358.3 L 52.708251953125 376" fill="none" paint-order="fill stroke markers" stroke="#000000" stroke-dasharray="" stroke-miterlimit="10"/></g><g><path d=" M 65.708251953125 358.3 L 78.708251953125 376" fill="none" paint-order="fill stroke markers" stroke="#000000" stroke-dasharray="" stroke-miterlimit="10"/></g><g><g><path fill="none" stroke="none"/><text dominant-baseline="central" fill="#000000" font-family="Roboto" font-size="13px" font-style="normal" font-weight="bold" stroke="none" text-anchor="middle" text-decoration="undefined" transform="matrix(1 0 0 1 -166 -126)" x="232.208251953125" y="516.5">Quản Trị Viên</text></g></g><g><path d=" M 321 170.5 C 321 160.835016 383.2324128 153 460 153 C 536.7675872 153 599 160.835016 599 170.5 C 599 180.164984 536.7675872 188 460 188 C 383.2324128 188 321 180.164984 321 170.5 Z" fill="#C0C0C0" fill-opacity="0.2" paint-order="stroke fill markers" stroke="none"/></g><g><path d=" M 314 163.5 C 314 153.835016 376.2324128 146 453 146 C 529.7675872 146 592 153.835016 592 163.5 C 592 173.164984 529.7675872 181 453 181 C 376.2324128 181 314 173.164984 314 163.5 Z" fill="#ffffff" paint-order="stroke fill markers" stroke="none"/></g><g><path d=" M 314 163.5 C 314 153.835016 376.2324128 146 453 146 C 529.7675872 146 592 153.835016 592 163.5 C 592 173.164984 529.7675872 181 453 181 C 376.2324128 181 314 173.164984 314 163.5 Z" fill="none" paint-order="fill stroke markers" stroke="#000000" stroke-dasharray="" stroke-miterlimit="10"/></g><g><g><path fill="none" stroke="none"/><text dominant-baseline="central" fill="#000000" font-family="Roboto" font-size="13px" font-style="normal" font-weight="bold" stroke="none" text-anchor="middle" text-decoration="undefined" transform="matrix(1 0 0 1 -166 -126)" x="619" y="290.5">Quản lý hệ thống</text></g></g><g><path d=" M 401 242.5 C 401 232.835016 450.9202448 225 512.5 225 C 574.0797552 225 624 232.835016 624 242.5 C 624 252.164984 574.0797552 260 512.5 260 C 450.9202448 260 401 252.164984 401 242.5 Z" fill="#C0C0C0" fill-opacity="0.2" paint-order="stroke fill markers" stroke="none"/></g><g><path d=" M 394 235.5 C 394 225.835016 443.9202448 218 505.5 218 C 567.0797552 218 617 225.835016 617 235.5 C 617 245.164984 567.0797552 253 505.5 253 C 443.9202448 253 394 245.164984 394 235.5 Z" fill="#ffffff" paint-order="stroke fill markers" stroke="none"/></g><g><path d=" M 394 235.5 C 394 225.835016 443.9202448 218 505.5 218 C 567.0797552 218 617 225.835016 617 235.5 C 617 245.164984 567.0797552 253 505.5 253 C 443.9202448 253 394 245.164984 394 235.5 Z" fill="none" paint-order="fill stroke markers" stroke="#000000" stroke-dasharray="" stroke-miterlimit="10"/></g><g><g><path fill="none" stroke="none"/><text dominant-baseline="central" fill="#000000" font-family="Roboto" font-size="13px" font-style="normal" font-weight="bold" stroke="none" text-anchor="middle" text-decoration="undefined" transform="matrix(1 0 0 1 -166 -126)" x="671.5" y="362.5">Quản lý hạng mục thi đấu</text></g></g><g><path d=" M 401 314.5 C 401 304.835016 448.45781120000004 297 507 297 C 565.5421888 297 613 304.835016 613 314.5 C 613 324.164984 565.5421888 332 507 332 C 448.45781120000004 332 401 324.164984 401 314.5 Z" fill="#C0C0C0" fill-opacity="0.2" paint-order="stroke fill markers" stroke="none"/></g><g><path d=" M 394 307.5 C 394 297.835016 441.45781120000004 290 500 290 C 558.5421888 290 606 297.835016 606 307.5 C 606 317.164984 558.5421888 325 500 325 C 441.45781120000004 325 394 317.164984 394 307.5 Z" fill="#ffffff" paint-order="stroke fill markers" stroke="none"/></g><g><path d=" M 394 307.5 C 394 297.835016 441.45781120000004 290 500 290 C 558.5421888 290 606 297.835016 606 307.5 C 606 317.164984 558.5421888 325 500 325 C 441.45781120000004 325 394 317.164984 394 307.5 Z" fill="none" paint-order="fill stroke markers" stroke="#000000" stroke-dasharray="" stroke-miterlimit="10"/></g><g><g><path fill="none" stroke="none"/><text dominant-baseline="central" fill="#000000" font-family="Roboto" font-size="13px" font-style="normal" font-weight="bold" stroke="none" text-anchor="middle" text-decoration="undefined" transform="matrix(1 0 0 1 -166 -126)" x="666" y="434.5">Thống kê thông tin</text></g></g><g><path d=" M 465 378.5 C 465 368.835016 512.4578112 361 571 361 C 629.5421888 361 677 368.835016 677 378.5 C 677 388.164984 629.5421888 396 571 396 C 512.4578112 396 465 388.164984 465 378.5 Z" fill="#C0C0C0" fill-opacity="0.2" paint-order="stroke fill markers" stroke="none"/></g><g><path d=" M 458 371.5 C 458 361.835016 505.45781120000004 354 564 354 C 622.5421888 354 670 361.835016 670 371.5 C 670 381.164984 622.5421888 389 564 389 C 505.45781120000004 389 458 381.164984 458 371.5 Z" fill="#ffffff" paint-order="stroke fill markers" stroke="none"/></g><g><path d=" M 458 371.5 C 458 361.835016 505.45781120000004 354 564 354 C 622.5421888 354 670 361.835016 670 371.5 C 670 381.164984 622.5421888 389 564 389 C 505.45781120000004 389 458 381.164984 458 371.5 Z" fill="none" paint-order="fill stroke markers" stroke="#000000" stroke-dasharray="" stroke-miterlimit="10"/></g><g><g><path fill="none" stroke="none"/><text dominant-baseline="central" fill="#000000" font-family="Roboto" font-size="13px" font-style="normal" font-weight="bold" stroke="none" text-anchor="middle" text-decoration="undefined" transform="matrix(1 0 0 1 -166 -126)" x="730" y="498.5">Quản lý người dùng</text></g></g><g><path d=" M 425 442.5 C 425 432.835016 478.94968159999996 425 545.5 425 C 612.0503184 425 666 432.835016 666 442.5 C 666 452.164984 612.0503184 460 545.5 460 C 478.94968159999996 460 425 452.164984 425 442.5 Z" fill="#C0C0C0" fill-opacity="0.2" paint-order="stroke fill markers" stroke="none"/></g><g><path d=" M 418 435.5 C 418 425.835016 471.94968159999996 418 538.5 418 C 605.0503184 418 659 425.835016 659 435.5 C 659 445.164984 605.0503184 453 538.5 453 C 471.94968159999996 453 418 445.164984 418 435.5 Z" fill="#ffffff" paint-order="stroke fill markers" stroke="none"/></g><g><path d=" M 418 435.5 C 418 425.835016 471.94968159999996 418 538.5 418 C 605.0503184 418 659 425.835016 659 435.5 C 659 445.164984 605.0503184 453 538.5 453 C 471.94968159999996 453 418 445.164984 418 435.5 Z" fill="none" paint-order="fill stroke markers" stroke="#000000" stroke-dasharray="" stroke-miterlimit="10"/></g><g><g><path fill="none" stroke="none"/><text dominant-baseline="central" fill="#000000" font-family="Roboto" font-size="13px" font-style="normal" font-weight="bold" stroke="none" text-anchor="middle" text-decoration="undefined" transform="matrix(1 0 0 1 -166 -126)" x="704.5" y="562.5">Quản lý môn thể thao</text></g></g><g><path d=" M 401 522.5 C 401 512.835016 450.9202448 505 512.5 505 C 574.0797552 505 624 512.835016 624 522.5 C 624 532.164984 574.0797552 540 512.5 540 C 450.9202448 540 401 532.164984 401 522.5 Z" fill="#C0C0C0" fill-opacity="0.2" paint-order="stroke fill markers" stroke="none"/></g><g><path d=" M 394 515.5 C 394 505.835016 443.9202448 498 505.5 498 C 567.0797552 498 617 505.835016 617 515.5 C 617 525.164984 567.0797552 533 505.5 533 C 443.9202448 533 394 525.164984 394 515.5 Z" fill="#ffffff" paint-order="stroke fill markers" stroke="none"/></g><g><path d=" M 394 515.5 C 394 505.835016 443.9202448 498 505.5 498 C 567.0797552 498 617 505.835016 617 515.5 C 617 525.164984 567.0797552 533 505.5 533 C 443.9202448 533 394 525.164984 394 515.5 Z" fill="none" paint-order="fill stroke markers" stroke="#000000" stroke-dasharray="" stroke-miterlimit="10"/></g><g><g><path fill="none" stroke="none"/><text dominant-baseline="central" fill="#000000" font-family="Roboto" font-size="13px" font-style="normal" font-weight="bold" stroke="none" text-anchor="middle" text-decoration="undefined" transform="matrix(1 0 0 1 -166 -126)" x="671.5" y="642.5">Quản lý nhà tài trợ</text></g></g><g><path d=" M 313 602.5 C 313 592.835016 345.6832096 585 386 585 C 426.31679039999995 585 459 592.835016 459 602.5 C 459 612.164984 426.31679039999995 620 386 620 C 345.6832096 620 313 612.164984 313 602.5 Z" fill="#C0C0C0" fill-opacity="0.2" paint-order="stroke fill markers" stroke="none"/></g><g><path d=" M 306 595.5 C 306 585.835016 338.6832096 578 379 578 C 419.31679039999995 578 452 585.835016 452 595.5 C 452 605.164984 419.31679039999995 613 379 613 C 338.6832096 613 306 605.164984 306 595.5 Z" fill="#ffffff" paint-order="stroke fill markers" stroke="none"/></g><g><path d=" M 306 595.5 C 306 585.835016 338.6832096 578 379 578 C 419.31679039999995 578 452 585.835016 452 595.5 C 452 605.164984 419.31679039999995 613 379 613 C 338.6832096 613 306 605.164984 306 595.5 Z" fill="none" paint-order="fill stroke markers" stroke="#000000" stroke-dasharray="" stroke-miterlimit="10"/></g><g><g><path fill="none" stroke="none"/><text dominant-baseline="central" fill="#000000" font-family="Roboto" font-size="13px" font-style="normal" font-weight="bold" stroke="none" text-anchor="middle" text-decoration="undefined" transform="matrix(1 0 0 1 -166 -126)" x="545" y="722.5">Quản lý đoàn</text></g></g><g><path d=" M 109 321 L 317 126" fill="none" paint-order="fill stroke markers" stroke="#000000" stroke-dasharray="" stroke-miterlimit="10"/></g><g><path d=" M 122 333 L 416 182" fill="none" paint-order="fill stroke markers" stroke="#000000" stroke-dasharray="" stroke-miterlimit="10"/></g><g><path d=" M 122 345 L 439 254" fill="none" paint-order="fill stroke markers" stroke="#000000" stroke-dasharray="" stroke-miterlimit="10"/></g><g><path d=" M 122 363 L 457 369" fill="none" paint-order="fill stroke markers" stroke="#000000" stroke-dasharray="" stroke-miterlimit="10"/></g><g><path d=" M 122 371 L 421 417" fill="none" paint-order="fill stroke markers" stroke="#000000" stroke-dasharray="" stroke-miterlimit="10"/></g><g><path d=" M 122 382 L 453 497" fill="none" paint-order="fill stroke markers" stroke="#000000" stroke-dasharray="" stroke-miterlimit="10"/></g><g><path d=" M 120 403 L 355 577" fill="none" paint-order="fill stroke markers" stroke="#000000" stroke-dasharray="" stroke-miterlimit="10"/></g><g><path d=" M 122 355 L 393 321" fill="none" paint-order="fill stroke markers" stroke="#000000" stroke-dasharray="" stroke-miterlimit="10"/></g><g><path d=" M 545 90.5 C 545 80.835016 581.936504 73 627.5 73 C 673.063496 73 710 80.835016 710 90.5 C 710 100.164984 673.063496 108 627.5 108 C 581.936504 108 545 100.164984 545 90.5 Z" fill="#C0C0C0" fill-opacity="0.2" paint-order="stroke fill markers" stroke="none"/></g><g><path d=" M 538 83.5 C 538 73.835016 574.936504 66 620.5 66 C 666.063496 66 703 73.835016 703 83.5 C 703 93.164984 666.063496 101 620.5 101 C 574.936504 101 538 93.164984 538 83.5 Z" fill="#ffffff" paint-order="stroke fill markers" stroke="none"/></g><g><path d=" M 538 83.5 C 538 73.835016 574.936504 66 620.5 66 C 666.063496 66 703 73.835016 703 83.5 C 703 93.164984 666.063496 101 620.5 101 C 574.936504 101 538 93.164984 538 83.5 Z" fill="none" paint-order="fill stroke markers" stroke="#000000" stroke-dasharray="" stroke-miterlimit="10"/></g><g><g><path fill="none" stroke="none"/><text dominant-baseline="central" fill="#000000" font-family="Arial" font-size="13px" font-style="normal" font-weight="bold" stroke="none" text-anchor="middle" text-decoration="undefined" transform="matrix(1 0 0 1 -166 -126)" x="786.5" y="210.5">Sao lưu hệ thống</text></g></g><g><path d=" M 649 162.5 C 649 152.835016 687.9512224 145 736 145 C 784.0487776 145 823 152.835016 823 162.5 C 823 172.164984 784.0487776 180 736 180 C 687.9512224 180 649 172.164984 649 162.5 Z" fill="#C0C0C0" fill-opacity="0.2" paint-order="stroke fill markers" stroke="none"/></g><g><path d=" M 642 155.5 C 642 145.835016 680.9512224 138 729 138 C 777.0487776 138 816 145.835016 816 155.5 C 816 165.164984 777.0487776 173 729 173 C 680.9512224 173 642 165.164984 642 155.5 Z" fill="#ffffff" paint-order="stroke fill markers" stroke="none"/></g><g><path d=" M 642 155.5 C 642 145.835016 680.9512224 138 729 138 C 777.0487776 138 816 145.835016 816 155.5 C 816 165.164984 777.0487776 173 729 173 C 680.9512224 173 642 165.164984 642 155.5 Z" fill="none" paint-order="fill stroke markers" stroke="#000000" stroke-dasharray="" stroke-miterlimit="10"/></g><g><g><path fill="none" stroke="none"/><text dominant-baseline="central" fill="#000000" font-family="Arial" font-size="13px" font-style="normal" font-weight="bold" stroke="none" text-anchor="middle" text-decoration="undefined" transform="matrix(1 0 0 1 -166 -126)" x="895" y="282.5">Phục hồi hệ thống</text></g></g><g><path d=" M 649 234.5 C 649 224.835016 739.2146127999999 217 850.5 217 C 961.7853872000001 217 1052 224.835016 1052 234.5 C 1052 244.164984 961.7853872000001 252 850.5 252 C 739.2146127999999 252 649 244.164984 649 234.5 Z" fill="#C0C0C0" fill-opacity="0.2" paint-order="stroke fill markers" stroke="none"/></g><g><path d=" M 642 227.5 C 642 217.835016 732.2146127999999 210 843.5 210 C 954.7853872000001 210 1045 217.835016 1045 227.5 C 1045 237.164984 954.7853872000001 245 843.5 245 C 732.2146127999999 245 642 237.164984 642 227.5 Z" fill="#ffffff" paint-order="stroke fill markers" stroke="none"/></g><g><path d=" M 642 227.5 C 642 217.835016 732.2146127999999 210 843.5 210 C 954.7853872000001 210 1045 217.835016 1045 227.5 C 1045 237.164984 954.7853872000001 245 843.5 245 C 732.2146127999999 245 642 237.164984 642 227.5 Z" fill="none" paint-order="fill stroke markers" stroke="#000000" stroke-dasharray="" stroke-miterlimit="10"/></g><g><g><path fill="none" stroke="none"/><text dominant-baseline="central" fill="#000000" font-family="Arial" font-size="13px" font-style="normal" font-weight="bold" stroke="none" text-anchor="middle" text-decoration="undefined" transform="matrix(1 0 0 1 -166 -126)" x="1009.5" y="354.5">Thống kê số lượng truy cập của người dùng</text></g></g><g><path d=" M 721 290.5 C 721 280.835016 859.1201392 273 1029.5 273 C 1199.8798608 273 1338 280.835016 1338 290.5 C 1338 300.164984 1199.8798608 308 1029.5 308 C 859.1201392 308 721 300.164984 721 290.5 Z" fill="#C0C0C0" fill-opacity="0.2" paint-order="stroke fill markers" stroke="none"/></g><g><path d=" M 714 283.5 C 714 273.835016 852.1201392 266 1022.5 266 C 1192.8798608 266 1331 273.835016 1331 283.5 C 1331 293.164984 1192.8798608 301 1022.5 301 C 852.1201392 301 714 293.164984 714 283.5 Z" fill="#ffffff" paint-order="stroke fill markers" stroke="none"/></g><g><path d=" M 714 283.5 C 714 273.835016 852.1201392 266 1022.5 266 C 1192.8798608 266 1331 273.835016 1331 283.5 C 1331 293.164984 1192.8798608 301 1022.5 301 C 852.1201392 301 714 293.164984 714 283.5 Z" fill="none" paint-order="fill stroke markers" stroke="#000000" stroke-dasharray="" stroke-miterlimit="10"/></g><g><g><path fill="none" stroke="none"/><text dominant-baseline="central" fill="#000000" font-family="Arial" font-size="13px" font-style="normal" font-weight="bold" stroke="none" text-anchor="middle" text-decoration="undefined" transform="matrix(1 0 0 1 -166 -126)" x="1188.5" y="410.5">Thống kê tỷ lệ các bộ môn thể thao được sử dụng để tổ chức thi đấu</text></g></g><g><path d=" M 713 346.5 C 713 336.835016 766.9496816 329 833.5 329 C 900.0503183999999 329 954 336.835016 954 346.5 C 954 356.164984 900.0503183999999 364 833.5 364 C 766.9496816 364 713 356.164984 713 346.5 Z" fill="#C0C0C0" fill-opacity="0.2" paint-order="stroke fill markers" stroke="none"/></g><g><path d=" M 706 339.5 C 706 329.835016 759.9496816 322 826.5 322 C 893.0503183999999 322 947 329.835016 947 339.5 C 947 349.164984 893.0503183999999 357 826.5 357 C 759.9496816 357 706 349.164984 706 339.5 Z" fill="#ffffff" paint-order="stroke fill markers" stroke="none"/></g><g><path d=" M 706 339.5 C 706 329.835016 759.9496816 322 826.5 322 C 893.0503183999999 322 947 329.835016 947 339.5 C 947 349.164984 893.0503183999999 357 826.5 357 C 759.9496816 357 706 349.164984 706 339.5 Z" fill="none" paint-order="fill stroke markers" stroke="#000000" stroke-dasharray="" stroke-miterlimit="10"/></g><g><g><path fill="none" stroke="none"/><text dominant-baseline="central" fill="#000000" font-family="Arial" font-size="13px" font-style="normal" font-weight="bold" stroke="none" text-anchor="middle" text-decoration="undefined" transform="matrix(1 0 0 1 -166 -126)" x="992.5" y="466.5">Tạo tài khoản người dùng</text></g></g><g><path d=" M 689 458.5 C 689 448.835016 759.0674288 441 845.5 441 C 931.9325712 441 1002 448.835016 1002 458.5 C 1002 468.164984 931.9325712 476 845.5 476 C 759.0674288 476 689 468.164984 689 458.5 Z" fill="#C0C0C0" fill-opacity="0.2" paint-order="stroke fill markers" stroke="none"/></g><g><path d=" M 682 451.5 C 682 441.835016 752.0674288 434 838.5 434 C 924.9325712 434 995 441.835016 995 451.5 C 995 461.164984 924.9325712 469 838.5 469 C 752.0674288 469 682 461.164984 682 451.5 Z" fill="#ffffff" paint-order="stroke fill markers" stroke="none"/></g><g><path d=" M 682 451.5 C 682 441.835016 752.0674288 434 838.5 434 C 924.9325712 434 995 441.835016 995 451.5 C 995 461.164984 924.9325712 469 838.5 469 C 752.0674288 469 682 461.164984 682 451.5 Z" fill="none" paint-order="fill stroke markers" stroke="#000000" stroke-dasharray="" stroke-miterlimit="10"/></g><g><g><path fill="none" stroke="none"/><text dominant-baseline="central" fill="#000000" font-family="Arial" font-size="13px" font-style="normal" font-weight="bold" stroke="none" text-anchor="middle" text-decoration="undefined" transform="matrix(1 0 0 1 -166 -126)" x="1004.5" y="578.5">Vô hiệu hóa tài khoản người dùng</text></g></g><g><path d=" M 705 354 L 671 358" fill="none" paint-order="fill stroke markers" stroke="#000000" stroke-dasharray="" stroke-miterlimit="10"/></g><g><path d=" M 690.2024427402326 347.2637905754364 L 671 358 L 692.1698239653127 363.98653098861706" fill="#FFFFFF" paint-order="stroke fill markers" stroke="none"/></g><g><path d=" M 690.2024427402326 347.2637905754364 L 671 358 L 692.1698239653127 363.98653098861706 L 690.2024427402326 347.2637905754364" fill="none" paint-order="fill stroke markers" stroke="#000000" stroke-dasharray="" stroke-miterlimit="10"/></g><g><path d=" M 776 433 L 629 390" fill="none" paint-order="fill stroke markers" stroke="#000000" stroke-dasharray="" stroke-miterlimit="10"/></g><g><path d=" M 650.8715324300448 387.6259593176404 L 629 390 L 646.1442091615354 403.786808630917" fill="#FFFFFF" paint-order="stroke fill markers" stroke="none"/></g><g><path d=" M 650.8715324300448 387.6259593176404 L 629 390 L 646.1442091615354 403.786808630917 L 650.8715324300448 387.6259593176404" fill="none" paint-order="fill stroke markers" stroke="#000000" stroke-dasharray="" stroke-miterlimit="10"/></g><g><path d=" M 762 246 L 577 289" fill="none" paint-order="fill stroke markers" stroke="#000000" stroke-dasharray="" stroke-miterlimit="10"/></g><g><path d=" M 594.8915555255879 276.1979595034696 L 577 289 L 598.7036498862403 292.59883058999736" fill="#FFFFFF" paint-order="stroke fill markers" stroke="none"/></g><g><path d=" M 594.8915555255879 276.1979595034696 L 577 289 L 598.7036498862403 292.59883058999736 L 594.8915555255879 276.1979595034696" fill="none" paint-order="fill stroke markers" stroke="#000000" stroke-dasharray="" stroke-miterlimit="10"/></g><g><path d=" M 713 297 L 607 302" fill="none" paint-order="fill stroke markers" stroke="#000000" stroke-dasharray="" stroke-miterlimit="10"/></g><g><path d=" M 626.9060922642469 292.63263693629375 L 607 302 L 627.6994587711572 309.45200688279095" fill="#FFFFFF" paint-order="stroke fill markers" stroke="none"/></g><g><path d=" M 626.9060922642469 292.63263693629375 L 607 302 L 627.6994587711572 309.45200688279095 L 626.9060922642469 292.63263693629375" fill="none" paint-order="fill stroke markers" stroke="#000000" stroke-dasharray="" stroke-miterlimit="10"/></g><g><path d=" M 580 102 L 491 145" fill="none" paint-order="fill stroke markers" stroke="#000000" stroke-dasharray="" stroke-miterlimit="10"/></g><g><path d=" M 505.63870030846056 128.57719715520287 L 491 145 L 512.9637995135158 143.73844899822427" fill="#FFFFFF" paint-order="stroke fill markers" stroke="none"/></g><g><path d=" M 505.63870030846056 128.57719715520287 L 491 145 L 512.9637995135158 143.73844899822427 L 505.63870030846056 128.57719715520287" fill="none" paint-order="fill stroke markers" stroke="#000000" stroke-dasharray="" stroke-miterlimit="10"/></g><g><path d=" M 641 158 L 593 159" fill="none" paint-order="fill stroke markers" stroke="#000000" stroke-dasharray="" stroke-miterlimit="10"/></g><g><path d=" M 613.1455817453179 150.15943801884112 L 593 159 L 613.4962987894397 166.99385613668477" fill="#FFFFFF" paint-order="stroke fill markers" stroke="none"/></g><g><path d=" M 613.1455817453179 150.15943801884112 L 593 159 L 613.4962987894397 166.99385613668477 L 613.1455817453179 150.15943801884112" fill="none" paint-order="fill stroke markers" stroke="#000000" stroke-dasharray="" stroke-miterlimit="10"/></g><g><path d=" M 993 346.5 C 993 336.835016 1062.395856 329 1148 329 C 1233.604144 329 1303 336.835016 1303 346.5 C 1303 356.164984 1233.604144 364 1148 364 C 1062.395856 364 993 356.164984 993 346.5 Z" fill="#C0C0C0" fill-opacity="0.2" paint-order="stroke fill markers" stroke="none"/></g><g><path d=" M 986 339.5 C 986 329.835016 1055.395856 322 1141 322 C 1226.604144 322 1296 329.835016 1296 339.5 C 1296 349.164984 1226.604144 357 1141 357 C 1055.395856 357 986 349.164984 986 339.5 Z" fill="#ffffff" paint-order="stroke fill markers" stroke="none"/></g><g><path d=" M 986 339.5 C 986 329.835016 1055.395856 322 1141 322 C 1226.604144 322 1296 329.835016 1296 339.5 C 1296 349.164984 1226.604144 357 1141 357 C 1055.395856 357 986 349.164984 986 339.5 Z" fill="none" paint-order="fill stroke markers" stroke="#000000" stroke-dasharray="" stroke-miterlimit="10"/></g><g><g><path fill="none" stroke="none"/><text dominant-baseline="central" fill="#000000" font-family="Arial" font-size="13px" font-style="normal" font-weight="bold" stroke="none" text-anchor="middle" text-decoration="undefined" transform="matrix(1 0 0 1 -166 -126)" x="1307" y="466.5">Tạo taì khoản trưởng ban tổ chức</text></g></g><g><path d=" M 1025 410.5 C 1025 400.835016 1080.5166848 393 1149 393 C 1217.4833152 393 1273 400.835016 1273 410.5 C 1273 420.164984 1217.4833152 428 1149 428 C 1080.5166848 428 1025 420.164984 1025 410.5 Z" fill="#C0C0C0" fill-opacity="0.2" paint-order="stroke fill markers" stroke="none"/></g><g><path d=" M 1018 403.5 C 1018 393.835016 1073.5166848 386 1142 386 C 1210.4833152 386 1266 393.835016 1266 403.5 C 1266 413.164984 1210.4833152 421 1142 421 C 1073.5166848 421 1018 413.164984 1018 403.5 Z" fill="#ffffff" paint-order="stroke fill markers" stroke="none"/></g><g><path d=" M 1018 403.5 C 1018 393.835016 1073.5166848 386 1142 386 C 1210.4833152 386 1266 393.835016 1266 403.5 C 1266 413.164984 1210.4833152 421 1142 421 C 1073.5166848 421 1018 413.164984 1018 403.5 Z" fill="none" paint-order="fill stroke markers" stroke="#000000" stroke-dasharray="" stroke-miterlimit="10"/></g><g><g><path fill="none" stroke="none"/><text dominant-baseline="central" fill="#000000" font-family="Arial" font-size="13px" font-style="normal" font-weight="bold" stroke="none" text-anchor="middle" text-decoration="undefined" transform="matrix(1 0 0 1 -166 -126)" x="1308" y="530.5">Tạo tài khoản trưởng đoàn</text></g></g><g><path d=" M 985 339 L 948 339" fill="none" paint-order="fill stroke markers" stroke="#000000" stroke-dasharray="" stroke-miterlimit="10"/></g><g><path d=" M 968.3253497152482 330.580964487968 L 948 339 L 968.3253497152482 347.419035512032" fill="#FFFFFF" paint-order="stroke fill markers" stroke="none"/></g><g><path d=" M 968.3253497152482 330.580964487968 L 948 339 L 968.3253497152482 347.419035512032 L 968.3253497152482 330.580964487968" fill="none" paint-order="fill stroke markers" stroke="#000000" stroke-dasharray="" stroke-miterlimit="10"/></g><g><path d=" M 1053 385 L 920 358" fill="none" paint-order="fill stroke markers" stroke="#000000" stroke-dasharray="" stroke-miterlimit="10"/></g><g><path d=" M 941.5940030236377 353.79297808240455 L 920 358 L 938.2440796975093 370.2944522444448" fill="#FFFFFF" paint-order="stroke fill markers" stroke="none"/></g><g><path d=" M 941.5940030236377 353.79297808240455 L 920 358 L 938.2440796975093 370.2944522444448 L 941.5940030236377 353.79297808240455" fill="none" paint-order="fill stroke markers" stroke="#000000" stroke-dasharray="" stroke-miterlimit="10"/></g></g></svg>