<?xml version="1.0" encoding="utf-8"?>
<svg height="804" version="1.1" width="804" xmlns="http://www.w3.org/2000/svg" xmlns:xlink="http://www.w3.org/1999/xlink"><defs/><g><g><path d=" M 146 10 L 794 10 L 794 794 L 146 794 L 146 10" fill="none" paint-order="fill stroke markers" stroke="#000000" stroke-dasharray="" stroke-miterlimit="10"/></g><g><path d=" M 146 10 L 146 33 L 294.24072265625 33 L 305.74072265625 21.5 L 305.74072265625 10 L 146 10" fill="#ffffff" paint-order="stroke fill markers" stroke="none"/></g><g><path d=" M 146 10 L 146 33 L 294.24072265625 33 L 305.74072265625 21.5 L 305.74072265625 10 L 146 10 L 146 10" fill="none" paint-order="fill stroke markers" stroke="#000000" stroke-dasharray="" stroke-miterlimit="10"/></g><g><g><path fill="none" stroke="none"/><text dominant-baseline="central" fill="#000000" font-family="Arial" font-size="13px" font-style="normal" font-weight="normal" stroke="none" text-anchor="middle" text-decoration="undefined" transform="matrix(1 0 0 1 -358 -294)" x="587.9853515625" y="315.5">UseCaseNguoiDung</text></g></g><g><g><path fill="none" stroke="none"/><text dominant-baseline="central" fill="#000000" font-family="Arial" font-size="13px" font-style="normal" font-weight="bold" stroke="none" text-anchor="middle" text-decoration="undefined" transform="matrix(1 0 0 1 -358 -294)" x="515.864990234375" y="315.5">uc</text></g></g><g><path d=" M 44.369716796875025 387.85 C 44.369716796875025 382.96227952000004 48.327519164875014 379 53.209716796875 379 C 58.091914428874986 379 62.049716796874975 382.96227952000004 62.049716796874975 387.85 C 62.049716796874975 392.73772048 58.091914428874986 396.70000000000005 53.209716796875 396.70000000000005 C 48.327519164875014 396.70000000000005 44.369716796875025 392.73772048 44.369716796875025 387.85 Z" fill="#ffffff" paint-order="stroke fill markers" stroke="none"/></g><g><path d=" M 44.369716796875025 387.85 C 44.369716796875025 382.96227952000004 48.327519164875014 379 53.209716796875 379 C 58.091914428874986 379 62.049716796874975 382.96227952000004 62.049716796874975 387.85 C 62.049716796874975 392.73772048 58.091914428874986 396.70000000000005 53.209716796875 396.70000000000005 C 48.327519164875014 396.70000000000005 44.369716796875025 392.73772048 44.369716796875025 387.85 Z" fill="none" paint-order="fill stroke markers" stroke="#000000" stroke-dasharray="" stroke-miterlimit="10"/></g><g><path d=" M 53.209716796875 396.70000000000005 L 53.209716796875 414.29999999999995" fill="none" paint-order="fill stroke markers" stroke="#000000" stroke-dasharray="" stroke-miterlimit="10"/></g><g><path d=" M 43.849716796874986 403.29999999999995 L 62.569716796875014 403.29999999999995" fill="none" paint-order="fill stroke markers" stroke="#000000" stroke-dasharray="" stroke-miterlimit="10"/></g><g><path d=" M 53.209716796875 414.29999999999995 L 40.209716796875 432" fill="none" paint-order="fill stroke markers" stroke="#000000" stroke-dasharray="" stroke-miterlimit="10"/></g><g><path d=" M 53.209716796875 414.29999999999995 L 66.209716796875 432" fill="none" paint-order="fill stroke markers" stroke="#000000" stroke-dasharray="" stroke-miterlimit="10"/></g><g><g><path fill="none" stroke="none"/><text dominant-baseline="central" fill="#000000" font-family="Arial" font-size="13px" font-style="normal" font-weight="bold" stroke="none" text-anchor="middle" text-decoration="undefined" transform="matrix(1 0 0 1 -358 -294)" x="411.709716796875" y="740.5">Người Dùng</text></g></g><g><path d=" M 321 402.5 C 321 392.835016 365.9953776 385 421.5 385 C 477.0046224 385 522 392.835016 522 402.5 C 522 412.164984 477.0046224 420 421.5 420 C 365.9953776 420 321 412.164984 321 402.5 Z" fill="#C0C0C0" fill-opacity="0.2" paint-order="stroke fill markers" stroke="none"/></g><g><path d=" M 314 395.5 C 314 385.835016 358.9953776 378 414.5 378 C 470.0046224 378 515 385.835016 515 395.5 C 515 405.164984 470.0046224 413 414.5 413 C 358.9953776 413 314 405.164984 314 395.5 Z" fill="#ffffff" paint-order="stroke fill markers" stroke="none"/></g><g><path d=" M 314 395.5 C 314 385.835016 358.9953776 378 414.5 378 C 470.0046224 378 515 385.835016 515 395.5 C 515 405.164984 470.0046224 413 414.5 413 C 358.9953776 413 314 405.164984 314 395.5 Z" fill="none" paint-order="fill stroke markers" stroke="#000000" stroke-dasharray="" stroke-miterlimit="10"/></g><g><g><path fill="none" stroke="none"/><text dominant-baseline="central" fill="#000000" font-family="Arial" font-size="13px" font-style="normal" font-weight="bold" stroke="none" text-anchor="middle" text-decoration="undefined" transform="matrix(1 0 0 1 -358 -294)" x="772.5" y="690.5">Xem thông tin chi tiết</text></g></g><g><path d=" M 97 415 L 313 401" fill="none" paint-order="fill stroke markers" stroke="#000000" stroke-dasharray="" stroke-miterlimit="10"/></g><g><path d=" M 97 415 L 313 401" fill="none" paint-order="fill stroke markers" stroke="#000000" stroke-dasharray="" stroke-miterlimit="10"/></g><g><path d=" M 257 554.5 C 257 544.835016 291.69792800000005 537 334.5 537 C 377.30207199999995 537 412 544.835016 412 554.5 C 412 564.164984 377.30207199999995 572 334.5 572 C 291.69792800000005 572 257 564.164984 257 554.5 Z" fill="#C0C0C0" fill-opacity="0.2" paint-order="stroke fill markers" stroke="none"/></g><g><path d=" M 250 547.5 C 250 537.835016 284.69792800000005 530 327.5 530 C 370.30207199999995 530 405 537.835016 405 547.5 C 405 557.164984 370.30207199999995 565 327.5 565 C 284.69792800000005 565 250 557.164984 250 547.5 Z" fill="#ffffff" paint-order="stroke fill markers" stroke="none"/></g><g><path d=" M 250 547.5 C 250 537.835016 284.69792800000005 530 327.5 530 C 370.30207199999995 530 405 537.835016 405 547.5 C 405 557.164984 370.30207199999995 565 327.5 565 C 284.69792800000005 565 250 557.164984 250 547.5 Z" fill="none" paint-order="fill stroke markers" stroke="#000000" stroke-dasharray="" stroke-miterlimit="10"/></g><g><g><path fill="none" stroke="none"/><text dominant-baseline="central" fill="#000000" font-family="Arial" font-size="13px" font-style="normal" font-weight="bold" stroke="none" text-anchor="middle" text-decoration="undefined" transform="matrix(1 0 0 1 -358 -294)" x="685.5" y="842.5">Xem lịch thi đấu</text></g></g><g><path d=" M 97 439 L 289 529" fill="none" paint-order="fill stroke markers" stroke="#000000" stroke-dasharray="" stroke-miterlimit="10"/></g><g><path d=" M 249 234.5 C 249 224.835016 279.89234880000004 217 318 217 C 356.10765119999996 217 387 224.835016 387 234.5 C 387 244.164984 356.10765119999996 252 318 252 C 279.89234880000004 252 249 244.164984 249 234.5 Z" fill="#C0C0C0" fill-opacity="0.2" paint-order="stroke fill markers" stroke="none"/></g><g><path d=" M 242 227.5 C 242 217.835016 272.89234880000004 210 311 210 C 349.10765119999996 210 380 217.835016 380 227.5 C 380 237.164984 349.10765119999996 245 311 245 C 272.89234880000004 245 242 237.164984 242 227.5 Z" fill="#ffffff" paint-order="stroke fill markers" stroke="none"/></g><g><path d=" M 242 227.5 C 242 217.835016 272.89234880000004 210 311 210 C 349.10765119999996 210 380 217.835016 380 227.5 C 380 237.164984 349.10765119999996 245 311 245 C 272.89234880000004 245 242 237.164984 242 227.5 Z" fill="none" paint-order="fill stroke markers" stroke="#000000" stroke-dasharray="" stroke-miterlimit="10"/></g><g><g><path fill="none" stroke="none"/><text dominant-baseline="central" fill="#000000" font-family="Arial" font-size="13px" font-style="normal" font-weight="bold" stroke="none" text-anchor="middle" text-decoration="undefined" transform="matrix(1 0 0 1 -358 -294)" x="669" y="522.5">Xem diễn biến</text></g></g><g><path d=" M 97 385 L 285 246" fill="none" paint-order="fill stroke markers" stroke="#000000" stroke-dasharray="" stroke-miterlimit="10"/></g><g><path d=" M 449 674.5 C 449 664.835016 478.54920319999997 657 515 657 C 551.4507968 657 581 664.835016 581 674.5 C 581 684.164984 551.4507968 692 515 692 C 478.54920319999997 692 449 684.164984 449 674.5 Z" fill="#C0C0C0" fill-opacity="0.2" paint-order="stroke fill markers" stroke="none"/></g><g><path d=" M 442 667.5 C 442 657.835016 471.54920319999997 650 508 650 C 544.4507968 650 574 657.835016 574 667.5 C 574 677.164984 544.4507968 685 508 685 C 471.54920319999997 685 442 677.164984 442 667.5 Z" fill="#ffffff" paint-order="stroke fill markers" stroke="none"/></g><g><path d=" M 442 667.5 C 442 657.835016 471.54920319999997 650 508 650 C 544.4507968 650 574 657.835016 574 667.5 C 574 677.164984 544.4507968 685 508 685 C 471.54920319999997 685 442 677.164984 442 667.5 Z" fill="none" paint-order="fill stroke markers" stroke="#000000" stroke-dasharray="" stroke-miterlimit="10"/></g><g><g><path fill="none" stroke="none"/><text dominant-baseline="central" fill="#000000" font-family="Arial" font-size="13px" font-style="normal" font-weight="bold" stroke="none" text-anchor="middle" text-decoration="undefined" transform="matrix(1 0 0 1 -358 -294)" x="866" y="962.5">In lịch thi đấu</text></g></g><g><path d=" M 393 82.5 C 393 72.835016 424.1162064 65 462.5 65 C 500.8837936 65 532 72.835016 532 82.5 C 532 92.164984 500.8837936 100 462.5 100 C 424.1162064 100 393 92.164984 393 82.5 Z" fill="#C0C0C0" fill-opacity="0.2" paint-order="stroke fill markers" stroke="none"/></g><g><path d=" M 386 75.5 C 386 65.835016 417.1162064 58 455.5 58 C 493.8837936 58 525 65.835016 525 75.5 C 525 85.164984 493.8837936 93 455.5 93 C 417.1162064 93 386 85.164984 386 75.5 Z" fill="#ffffff" paint-order="stroke fill markers" stroke="none"/></g><g><path d=" M 386 75.5 C 386 65.835016 417.1162064 58 455.5 58 C 493.8837936 58 525 65.835016 525 75.5 C 525 85.164984 493.8837936 93 455.5 93 C 417.1162064 93 386 85.164984 386 75.5 Z" fill="none" paint-order="fill stroke markers" stroke="#000000" stroke-dasharray="" stroke-miterlimit="10"/></g><g><g><path fill="none" stroke="none"/><text dominant-baseline="central" fill="#000000" font-family="Arial" font-size="13px" font-style="normal" font-weight="bold" stroke="none" text-anchor="middle" text-decoration="undefined" transform="matrix(1 0 0 1 -358 -294)" x="813.5" y="370.5">Theo trận đấu</text></g></g><g><path d=" M 521 186.5 C 521 176.835016 550.5492032 169 587 169 C 623.4507968 169 653 176.835016 653 186.5 C 653 196.164984 623.4507968 204 587 204 C 550.5492032 204 521 196.164984 521 186.5 Z" fill="#C0C0C0" fill-opacity="0.2" paint-order="stroke fill markers" stroke="none"/></g><g><path d=" M 514 179.5 C 514 169.835016 543.5492032 162 580 162 C 616.4507968 162 646 169.835016 646 179.5 C 646 189.164984 616.4507968 197 580 197 C 543.5492032 197 514 189.164984 514 179.5 Z" fill="#ffffff" paint-order="stroke fill markers" stroke="none"/></g><g><path d=" M 514 179.5 C 514 169.835016 543.5492032 162 580 162 C 616.4507968 162 646 169.835016 646 179.5 C 646 189.164984 616.4507968 197 580 197 C 543.5492032 197 514 189.164984 514 179.5 Z" fill="none" paint-order="fill stroke markers" stroke="#000000" stroke-dasharray="" stroke-miterlimit="10"/></g><g><g><path fill="none" stroke="none"/><text dominant-baseline="central" fill="#000000" font-family="Arial" font-size="13px" font-style="normal" font-weight="bold" stroke="none" text-anchor="middle" text-decoration="undefined" transform="matrix(1 0 0 1 -358 -294)" x="938" y="474.5">Theo giải đấu</text></g></g><g><path d=" M 449 274.5 C 449 264.835016 488.62279520000004 257 537.5 257 C 586.3772048 257 626 264.835016 626 274.5 C 626 284.164984 586.3772048 292 537.5 292 C 488.62279520000004 292 449 284.164984 449 274.5 Z" fill="#C0C0C0" fill-opacity="0.2" paint-order="stroke fill markers" stroke="none"/></g><g><path d=" M 442 267.5 C 442 257.835016 481.62279520000004 250 530.5 250 C 579.3772048 250 619 257.835016 619 267.5 C 619 277.164984 579.3772048 285 530.5 285 C 481.62279520000004 285 442 277.164984 442 267.5 Z" fill="#ffffff" paint-order="stroke fill markers" stroke="none"/></g><g><path d=" M 442 267.5 C 442 257.835016 481.62279520000004 250 530.5 250 C 579.3772048 250 619 257.835016 619 267.5 C 619 277.164984 579.3772048 285 530.5 285 C 481.62279520000004 285 442 277.164984 442 267.5 Z" fill="none" paint-order="fill stroke markers" stroke="#000000" stroke-dasharray="" stroke-miterlimit="10"/></g><g><g><path fill="none" stroke="none"/><text dominant-baseline="central" fill="#000000" font-family="Arial" font-size="13px" font-style="normal" font-weight="bold" stroke="none" text-anchor="middle" text-decoration="undefined" transform="matrix(1 0 0 1 -358 -294)" x="888.5" y="562.5">Của vận động viên</text></g></g><g><path d=" M 585 338.5 C 585 328.835016 607.8334752 321 636 321 C 664.1665248 321 687 328.835016 687 338.5 C 687 348.164984 664.1665248 356 636 356 C 607.8334752 356 585 348.164984 585 338.5 Z" fill="#C0C0C0" fill-opacity="0.2" paint-order="stroke fill markers" stroke="none"/></g><g><path d=" M 578 331.5 C 578 321.835016 600.8334752 314 629 314 C 657.1665248 314 680 321.835016 680 331.5 C 680 341.164984 657.1665248 349 629 349 C 600.8334752 349 578 341.164984 578 331.5 Z" fill="#ffffff" paint-order="stroke fill markers" stroke="none"/></g><g><path d=" M 578 331.5 C 578 321.835016 600.8334752 314 629 314 C 657.1665248 314 680 321.835016 680 331.5 C 680 341.164984 657.1665248 349 629 349 C 600.8334752 349 578 341.164984 578 331.5 Z" fill="none" paint-order="fill stroke markers" stroke="#000000" stroke-dasharray="" stroke-miterlimit="10"/></g><g><g><path fill="none" stroke="none"/><text dominant-baseline="central" fill="#000000" font-family="Arial" font-size="13px" font-style="normal" font-weight="bold" stroke="none" text-anchor="middle" text-decoration="undefined" transform="matrix(1 0 0 1 -358 -294)" x="987" y="626.5">Của đội</text></g></g><g><path d=" M 609 426.5 C 609 416.835016 631.8334752 409 660 409 C 688.1665247999999 409 711 416.835016 711 426.5 C 711 436.164984 688.1665247999999 444 660 444 C 631.8334752 444 609 436.164984 609 426.5 Z" fill="#C0C0C0" fill-opacity="0.2" paint-order="stroke fill markers" stroke="none"/></g><g><path d=" M 602 419.5 C 602 409.835016 624.8334752 402 653 402 C 681.1665247999999 402 704 409.835016 704 419.5 C 704 429.164984 681.1665247999999 437 653 437 C 624.8334752 437 602 429.164984 602 419.5 Z" fill="#ffffff" paint-order="stroke fill markers" stroke="none"/></g><g><path d=" M 602 419.5 C 602 409.835016 624.8334752 402 653 402 C 681.1665247999999 402 704 409.835016 704 419.5 C 704 429.164984 681.1665247999999 437 653 437 C 624.8334752 437 602 429.164984 602 419.5 Z" fill="none" paint-order="fill stroke markers" stroke="#000000" stroke-dasharray="" stroke-miterlimit="10"/></g><g><g><path fill="none" stroke="none"/><text dominant-baseline="central" fill="#000000" font-family="Arial" font-size="13px" font-style="normal" font-weight="bold" stroke="none" text-anchor="middle" text-decoration="undefined" transform="matrix(1 0 0 1 -358 -294)" x="1011" y="714.5">Của đoàn</text></g></g><g><path d=" M 577 538.5 C 577 528.835016 604.5344848 521 638.5 521 C 672.4655152 521 700 528.835016 700 538.5 C 700 548.164984 672.4655152 556 638.5 556 C 604.5344848 556 577 548.164984 577 538.5 Z" fill="#C0C0C0" fill-opacity="0.2" paint-order="stroke fill markers" stroke="none"/></g><g><path d=" M 570 531.5 C 570 521.835016 597.5344848 514 631.5 514 C 665.4655152 514 693 521.835016 693 531.5 C 693 541.164984 665.4655152 549 631.5 549 C 597.5344848 549 570 541.164984 570 531.5 Z" fill="#ffffff" paint-order="stroke fill markers" stroke="none"/></g><g><path d=" M 570 531.5 C 570 521.835016 597.5344848 514 631.5 514 C 665.4655152 514 693 521.835016 693 531.5 C 693 541.164984 665.4655152 549 631.5 549 C 597.5344848 549 570 541.164984 570 531.5 Z" fill="none" paint-order="fill stroke markers" stroke="#000000" stroke-dasharray="" stroke-miterlimit="10"/></g><g><g><path fill="none" stroke="none"/><text dominant-baseline="central" fill="#000000" font-family="Arial" font-size="13px" font-style="normal" font-weight="bold" stroke="none" text-anchor="middle" text-decoration="undefined" transform="matrix(1 0 0 1 -358 -294)" x="989.5" y="826.5">Của giải đầu</text></g></g><g><path d=" M 513 191 L 381 215" fill="none" paint-order="fill stroke markers" stroke="#000000" stroke-dasharray="" stroke-miterlimit="10"/></g><g><path d=" M 399.4914571402994 203.0808551972691 L 381 215 L 402.50354285388164 219.6473266219707" fill="#FFFFFF" paint-order="stroke fill markers" stroke="none"/></g><g><path d=" M 399.4914571402994 203.0808551972691 L 381 215 L 402.50354285388164 219.6473266219707 L 399.4914571402994 203.0808551972691" fill="none" paint-order="fill stroke markers" stroke="#000000" stroke-dasharray="" stroke-miterlimit="10"/></g><g><path d=" M 437 94 L 328 209" fill="none" paint-order="fill stroke markers" stroke="#000000" stroke-dasharray="" stroke-miterlimit="10"/></g><g><path d=" M 335.8717831063559 188.45650879897744 L 328 209 L 348.09263315202315 200.03974927704473" fill="#FFFFFF" paint-order="stroke fill markers" stroke="none"/></g><g><path d=" M 335.8717831063559 188.45650879897744 L 328 209 L 348.09263315202315 200.03974927704473 L 335.8717831063559 188.45650879897744" fill="none" paint-order="fill stroke markers" stroke="#000000" stroke-dasharray="" stroke-miterlimit="10"/></g><g><path d=" M 513 286 L 430 377" fill="none" paint-order="fill stroke markers" stroke="#000000" stroke-dasharray="" stroke-miterlimit="10"/></g><g><path d=" M 437.476638467179 356.30942540113733 L 430 377 L 449.9172273661243 367.65633615512047" fill="#FFFFFF" paint-order="stroke fill markers" stroke="none"/></g><g><path d=" M 437.476638467179 356.30942540113733 L 430 377 L 449.9172273661243 367.65633615512047 L 437.476638467179 356.30942540113733" fill="none" paint-order="fill stroke markers" stroke="#000000" stroke-dasharray="" stroke-miterlimit="10"/></g><g><path d=" M 577 346 L 474 377" fill="none" paint-order="fill stroke markers" stroke="#000000" stroke-dasharray="" stroke-miterlimit="10"/></g><g><path d=" M 491.0365739104037 363.08040412241246 L 474 377 L 495.8893175766507 379.20403630381384" fill="#FFFFFF" paint-order="stroke fill markers" stroke="none"/></g><g><path d=" M 491.0365739104037 363.08040412241246 L 474 377 L 495.8893175766507 379.20403630381384 L 491.0365739104037 363.08040412241246" fill="none" paint-order="fill stroke markers" stroke="#000000" stroke-dasharray="" stroke-miterlimit="10"/></g><g><path d=" M 601 414 L 516 405" fill="none" paint-order="fill stroke markers" stroke="#000000" stroke-dasharray="" stroke-miterlimit="10"/></g><g><path d=" M 537.0988363500169 398.76789725091055 L 516 405 L 535.3258923731746 415.5123681433097" fill="#FFFFFF" paint-order="stroke fill markers" stroke="none"/></g><g><path d=" M 537.0988363500169 398.76789725091055 L 516 405 L 535.3258923731746 415.5123681433097 L 537.0988363500169 398.76789725091055" fill="none" paint-order="fill stroke markers" stroke="#000000" stroke-dasharray="" stroke-miterlimit="10"/></g><g><path d=" M 602 513 L 444 414" fill="none" paint-order="fill stroke markers" stroke="#000000" stroke-dasharray="" stroke-miterlimit="10"/></g><g><path d=" M 465.6937971074402 417.65775437409604 L 444 414 L 456.75340812251795 431.92625396619417" fill="#FFFFFF" paint-order="stroke fill markers" stroke="none"/></g><g><path d=" M 465.6937971074402 417.65775437409604 L 444 414 L 456.75340812251795 431.92625396619417 L 465.6937971074402 417.65775437409604" fill="none" paint-order="fill stroke markers" stroke="#000000" stroke-dasharray="" stroke-miterlimit="10"/></g><g><path d=" M 481 649 L 356 566" fill="none" paint-order="fill stroke markers" stroke="#000000" stroke-dasharray="3" stroke-miterlimit="10"/></g><g><path d=" M 366.7948043450277 568.1147574689714 L 356 566 L 362.1377200070765 575.1284387008258" fill="none" paint-order="fill stroke markers" stroke="#000000" stroke-dasharray="" stroke-miterlimit="10"/></g><g><rect fill="#ffffff" height="13" stroke="none" transform="matrix(1 0 0 1 -358 -294)" width="53.49169921875" x="733" y="920"/></g><g><g><path fill="none" stroke="none"/><text dominant-baseline="central" fill="#000000" font-family="Arial" font-size="13px" font-style="normal" font-weight="normal" stroke="none" text-anchor="middle" text-decoration="undefined" transform="matrix(1 0 0 1 -358 -294)" x="759.745849609375" y="926.5">«extend»</text></g></g><g><path d=" M 406 543 L 569 534" fill="none" paint-order="fill stroke markers" stroke="#000000" stroke-dasharray="3" stroke-miterlimit="10"/></g><g><path d=" M 559.0848549827462 538.763391573955 L 569 534 L 558.6207072384614 530.3571602052422" fill="none" paint-order="fill stroke markers" stroke="#000000" stroke-dasharray="" stroke-miterlimit="10"/></g><g><rect fill="#ffffff" height="13" stroke="none" transform="matrix(1 0 0 1 -358 -294)" width="53.49169921875" x="817" y="796"/></g><g><g><path fill="none" stroke="none"/><text dominant-baseline="central" fill="#000000" font-family="Arial" font-size="13px" font-style="normal" font-weight="normal" stroke="none" text-anchor="middle" text-decoration="undefined" transform="matrix(1 0 0 1 -358 -294)" x="843.745849609375" y="802.5">«extend»</text></g></g></g></svg>