<?xml version="1.0" encoding="utf-8"?>
<svg height="444" version="1.1" width="724" xmlns="http://www.w3.org/2000/svg" xmlns:xlink="http://www.w3.org/1999/xlink"><defs/><g><g><path d=" M 210 10 L 714 10 L 714 434 L 210 434 L 210 10" fill="none" paint-order="fill stroke markers" stroke="#000000" stroke-dasharray="" stroke-miterlimit="10"/></g><g><path d=" M 210 10 L 210 33 L 341.87646484375 33 L 353.37646484375 21.5 L 353.37646484375 10 L 210 10" fill="#ffffff" paint-order="stroke fill markers" stroke="none"/></g><g><path d=" M 210 10 L 210 33 L 341.87646484375 33 L 353.37646484375 21.5 L 353.37646484375 10 L 210 10 L 210 10" fill="none" paint-order="fill stroke markers" stroke="#000000" stroke-dasharray="" stroke-miterlimit="10"/></g><g><g><path fill="none" stroke="none"/><text dominant-baseline="central" fill="#000000" font-family="Arial" font-size="13px" font-style="normal" font-weight="normal" stroke="none" text-anchor="middle" text-decoration="undefined" transform="matrix(1 0 0 1 -398 -382)" x="683.80322265625" y="403.5">UseVanDongVien</text></g></g><g><g><path fill="none" stroke="none"/><text dominant-baseline="central" fill="#000000" font-family="Arial" font-size="13px" font-style="normal" font-weight="bold" stroke="none" text-anchor="middle" text-decoration="undefined" transform="matrix(1 0 0 1 -398 -382)" x="619.864990234375" y="403.5">uc</text></g></g><g><path d=" M 62.907558593750025 270.85 C 62.907558593750025 265.96227952000004 66.86536096175001 262 71.74755859375 262 C 76.62975622574999 262 80.58755859374997 265.96227952000004 80.58755859374997 270.85 C 80.58755859374997 275.73772048 76.62975622574999 279.70000000000005 71.74755859375 279.70000000000005 C 66.86536096175001 279.70000000000005 62.907558593750025 275.73772048 62.907558593750025 270.85 Z" fill="#ffffff" paint-order="stroke fill markers" stroke="none"/></g><g><path d=" M 62.907558593750025 270.85 C 62.907558593750025 265.96227952000004 66.86536096175001 262 71.74755859375 262 C 76.62975622574999 262 80.58755859374997 265.96227952000004 80.58755859374997 270.85 C 80.58755859374997 275.73772048 76.62975622574999 279.70000000000005 71.74755859375 279.70000000000005 C 66.86536096175001 279.70000000000005 62.907558593750025 275.73772048 62.907558593750025 270.85 Z" fill="none" paint-order="fill stroke markers" stroke="#000000" stroke-dasharray="" stroke-miterlimit="10"/></g><g><path d=" M 71.74755859375 279.70000000000005 L 71.74755859375 297.29999999999995" fill="none" paint-order="fill stroke markers" stroke="#000000" stroke-dasharray="" stroke-miterlimit="10"/></g><g><path d=" M 62.387558593749986 286.29999999999995 L 81.10755859375001 286.29999999999995" fill="none" paint-order="fill stroke markers" stroke="#000000" stroke-dasharray="" stroke-miterlimit="10"/></g><g><path d=" M 71.74755859375 297.29999999999995 L 58.74755859375 315" fill="none" paint-order="fill stroke markers" stroke="#000000" stroke-dasharray="" stroke-miterlimit="10"/></g><g><path d=" M 71.74755859375 297.29999999999995 L 84.74755859375 315" fill="none" paint-order="fill stroke markers" stroke="#000000" stroke-dasharray="" stroke-miterlimit="10"/></g><g><g><path fill="none" stroke="none"/><text dominant-baseline="central" fill="#000000" font-family="Arial" font-size="13px" font-style="normal" font-weight="bold" stroke="none" text-anchor="middle" text-decoration="undefined" transform="matrix(1 0 0 1 -398 -382)" x="470.24755859375" y="711.5">Vận Động Viên</text></g></g><g><path d=" M 70.01424804687503 115.85000000000002 C 70.01424804687503 110.96227952000004 73.97205041487501 107 78.854248046875 107 C 83.73644567887499 107 87.69424804687497 110.96227952000004 87.69424804687497 115.85000000000002 C 87.69424804687497 120.73772048000001 83.73644567887499 124.69999999999999 78.854248046875 124.69999999999999 C 73.97205041487501 124.69999999999999 70.01424804687503 120.73772048000001 70.01424804687503 115.85000000000002 Z" fill="#ffffff" paint-order="stroke fill markers" stroke="none"/></g><g><path d=" M 70.01424804687503 115.85000000000002 C 70.01424804687503 110.96227952000004 73.97205041487501 107 78.854248046875 107 C 83.73644567887499 107 87.69424804687497 110.96227952000004 87.69424804687497 115.85000000000002 C 87.69424804687497 120.73772048000001 83.73644567887499 124.69999999999999 78.854248046875 124.69999999999999 C 73.97205041487501 124.69999999999999 70.01424804687503 120.73772048000001 70.01424804687503 115.85000000000002 Z" fill="none" paint-order="fill stroke markers" stroke="#000000" stroke-dasharray="" stroke-miterlimit="10"/></g><g><path d=" M 78.854248046875 124.69999999999999 L 78.854248046875 142.29999999999995" fill="none" paint-order="fill stroke markers" stroke="#000000" stroke-dasharray="" stroke-miterlimit="10"/></g><g><path d=" M 69.49424804687499 131.29999999999995 L 88.21424804687501 131.29999999999995" fill="none" paint-order="fill stroke markers" stroke="#000000" stroke-dasharray="" stroke-miterlimit="10"/></g><g><path d=" M 78.854248046875 142.29999999999995 L 65.854248046875 160" fill="none" paint-order="fill stroke markers" stroke="#000000" stroke-dasharray="" stroke-miterlimit="10"/></g><g><path d=" M 78.854248046875 142.29999999999995 L 91.854248046875 160" fill="none" paint-order="fill stroke markers" stroke="#000000" stroke-dasharray="" stroke-miterlimit="10"/></g><g><g><path fill="none" stroke="none"/><text dominant-baseline="central" fill="#000000" font-family="Arial" font-size="13px" font-style="normal" font-weight="bold" stroke="none" text-anchor="middle" text-decoration="undefined" transform="matrix(1 0 0 1 -398 -382)" x="477.354248046875" y="556.5">Người đã đăng nhập</text></g></g><g><path d=" M 73 260 L 76 187" fill="none" paint-order="fill stroke markers" stroke="#000000" stroke-dasharray="" stroke-miterlimit="10"/></g><g><path d=" M 83.5773512778963 207.65390393149346 L 76 187 L 66.75348094409844 206.96251199996755" fill="#FFFFFF" paint-order="stroke fill markers" stroke="none"/></g><g><path d=" M 83.5773512778963 207.65390393149346 L 76 187 L 66.75348094409844 206.96251199996755 L 83.5773512778963 207.65390393149346" fill="none" paint-order="fill stroke markers" stroke="#000000" stroke-dasharray="" stroke-miterlimit="10"/></g><g><path d=" M 289 146.5 C 289 136.835016 336.23395359999995 129 394.5 129 C 452.76604640000005 129 500 136.835016 500 146.5 C 500 156.164984 452.76604640000005 164 394.5 164 C 336.23395359999995 164 289 156.164984 289 146.5 Z" fill="#C0C0C0" fill-opacity="0.2" paint-order="stroke fill markers" stroke="none"/></g><g><path d=" M 282 139.5 C 282 129.835016 329.23395359999995 122 387.5 122 C 445.76604640000005 122 493 129.835016 493 139.5 C 493 149.164984 445.76604640000005 157 387.5 157 C 329.23395359999995 157 282 149.164984 282 139.5 Z" fill="#ffffff" paint-order="stroke fill markers" stroke="none"/></g><g><path d=" M 282 139.5 C 282 129.835016 329.23395359999995 122 387.5 122 C 445.76604640000005 122 493 129.835016 493 139.5 C 493 149.164984 445.76604640000005 157 387.5 157 C 329.23395359999995 157 282 149.164984 282 139.5 Z" fill="none" paint-order="fill stroke markers" stroke="#000000" stroke-dasharray="" stroke-miterlimit="10"/></g><g><g><path fill="none" stroke="none"/><text dominant-baseline="central" fill="#000000" font-family="Arial" font-size="13px" font-style="normal" font-weight="bold" stroke="none" text-anchor="middle" text-decoration="undefined" transform="matrix(1 0 0 1 -398 -382)" x="785.5" y="522.5">Xem thông tin cá nhân</text></g></g><g><path d=" M 149 144 L 281 141" fill="none" paint-order="fill stroke markers" stroke="#000000" stroke-dasharray="" stroke-miterlimit="10"/></g><g><path d=" M 321 306.5 C 321 296.835016 404.0511696 289 506.5 289 C 608.9488304 289 692 296.835016 692 306.5 C 692 316.164984 608.9488304 324 506.5 324 C 404.0511696 324 321 316.164984 321 306.5 Z" fill="#C0C0C0" fill-opacity="0.2" paint-order="stroke fill markers" stroke="none"/></g><g><path d=" M 314 299.5 C 314 289.835016 397.0511696 282 499.5 282 C 601.9488304 282 685 289.835016 685 299.5 C 685 309.164984 601.9488304 317 499.5 317 C 397.0511696 317 314 309.164984 314 299.5 Z" fill="#ffffff" paint-order="stroke fill markers" stroke="none"/></g><g><path d=" M 314 299.5 C 314 289.835016 397.0511696 282 499.5 282 C 601.9488304 282 685 289.835016 685 299.5 C 685 309.164984 601.9488304 317 499.5 317 C 397.0511696 317 314 309.164984 314 299.5 Z" fill="none" paint-order="fill stroke markers" stroke="#000000" stroke-dasharray="" stroke-miterlimit="10"/></g><g><g><path fill="none" stroke="none"/><text dominant-baseline="central" fill="#000000" font-family="Arial" font-size="13px" font-style="normal" font-weight="bold" stroke="none" text-anchor="middle" text-decoration="undefined" transform="matrix(1 0 0 1 -398 -382)" x="897.5" y="682.5">Gửi yêu cầu chỉnh sửa thông tin cá nhận</text></g></g><g><path d=" M 123 301 L 313 300" fill="none" paint-order="fill stroke markers" stroke="#000000" stroke-dasharray="" stroke-miterlimit="10"/></g><g><path d=" M 486 281 L 400 158" fill="none" paint-order="fill stroke markers" stroke="#000000" stroke-dasharray="3" stroke-miterlimit="10"/></g><g><path d=" M 409.27325443388213 163.91665042101408 L 400 158 L 402.37347745925695 168.74088472847552" fill="none" paint-order="fill stroke markers" stroke="#000000" stroke-dasharray="" stroke-miterlimit="10"/></g><g><rect fill="#ffffff" height="13" stroke="none" transform="matrix(1 0 0 1 -398 -382)" width="53.49169921875" x="790" y="612"/></g><g><g><path fill="none" stroke="none"/><text dominant-baseline="central" fill="#000000" font-family="Arial" font-size="13px" font-style="normal" font-weight="normal" stroke="none" text-anchor="middle" text-decoration="undefined" transform="matrix(1 0 0 1 -398 -382)" x="816.745849609375" y="618.5">«extend»</text></g></g></g></svg>