<?xml version="1.0" encoding="utf-8"?>
<svg height="1140" version="1.1" width="1558" xmlns="http://www.w3.org/2000/svg" xmlns:xlink="http://www.w3.org/1999/xlink"><defs/><g><g><rect fill="#ffffff" height="21" stroke="none" transform="matrix(1 0 0 1 -198 -910)" width="384" x="208" y="920"/></g><g><path d=" M 10 10 L 394 10 L 394 31 L 10 31 L 10 10 Z Z" fill="none" paint-order="fill stroke markers" stroke="#000000" stroke-dasharray="" stroke-miterlimit="10" stroke-width="2"/></g><g><path d=" M 10 1130 L 10 10 L 394 10 L 394 1130" fill="none" paint-order="fill stroke markers" stroke="#000000" stroke-dasharray="" stroke-miterlimit="10" stroke-width="2"/></g><g><g><path fill="none" stroke="none"/><text dominant-baseline="text-before-edge" fill="#000000" font-family="Arial" font-size="13px" font-style="normal" font-weight="normal" stroke="none" text-anchor="middle" text-decoration="undefined" transform="matrix(1 0 0 1 -198 -910)" x="400" y="924">Người Dùng</text></g></g><g><rect fill="#ffffff" height="21" stroke="none" transform="matrix(1 0 0 1 -198 -910)" width="384" x="592" y="920"/></g><g><path d=" M 394 10 L 778 10 L 778 31 L 394 31 L 394 10 Z Z" fill="none" paint-order="fill stroke markers" stroke="#000000" stroke-dasharray="" stroke-miterlimit="10" stroke-width="2"/></g><g><path d=" M 394 1130 L 394 10 L 778 10 L 778 1130" fill="none" paint-order="fill stroke markers" stroke="#000000" stroke-dasharray="" stroke-miterlimit="10" stroke-width="2"/></g><g><g><path fill="none" stroke="none"/><text dominant-baseline="text-before-edge" fill="#000000" font-family="Arial" font-size="13px" font-style="normal" font-weight="normal" stroke="none" text-anchor="middle" text-decoration="undefined" transform="matrix(1 0 0 1 -198 -910)" x="784" y="924">Giao Diện</text></g></g><g><rect fill="#ffffff" height="21" stroke="none" transform="matrix(1 0 0 1 -198 -910)" width="384" x="976" y="920"/></g><g><path d=" M 778 10 L 1162 10 L 1162 31 L 778 31 L 778 10 Z Z" fill="none" paint-order="fill stroke markers" stroke="#000000" stroke-dasharray="" stroke-miterlimit="10" stroke-width="2"/></g><g><path d=" M 778 1130 L 778 10 L 1162 10 L 1162 1130" fill="none" paint-order="fill stroke markers" stroke="#000000" stroke-dasharray="" stroke-miterlimit="10" stroke-width="2"/></g><g><g><path fill="none" stroke="none"/><text dominant-baseline="text-before-edge" fill="#000000" font-family="Arial" font-size="13px" font-style="normal" font-weight="normal" stroke="none" text-anchor="middle" text-decoration="undefined" transform="matrix(1 0 0 1 -198 -910)" x="1168" y="924">Trận Đấu Loại</text></g></g><g><path d=" M 114 113 L 303.36083984375 113 Q 313.36083984375 113 313.36083984375 123 L 313.36083984375 144 Q 313.36083984375 154 303.36083984375 154 L 114 154 Q 104 154 104 144 L 104 123 Q 104 113 114 113 Z" fill="#C0C0C0" fill-opacity="0.2" paint-order="stroke fill markers" stroke="none"/></g><g><path d=" M 107 106 L 296.36083984375 106 Q 306.36083984375 106 306.36083984375 116 L 306.36083984375 137 Q 306.36083984375 147 296.36083984375 147 L 107 147 Q 97 147 97 137 L 97 116 Q 97 106 107 106 Z" fill="#ffffff" paint-order="stroke fill markers" stroke="none"/></g><g><path d=" M 107 106 L 296.36083984375 106 Q 306.36083984375 106 306.36083984375 116 L 306.36083984375 137 Q 306.36083984375 147 296.36083984375 147 L 107 147 Q 97 147 97 137 L 97 116 Q 97 106 107 106 Z" fill="none" paint-order="fill stroke markers" stroke="#000000" stroke-dasharray="" stroke-miterlimit="10"/></g><g><g><path fill="none" stroke="none"/><text dominant-baseline="central" fill="#000000" font-family="Arial" font-size="13px" font-style="normal" font-weight="bold" stroke="none" text-anchor="middle" text-decoration="undefined" transform="matrix(1 0 0 1 -198 -910)" x="400.180419921875" y="1029.5">Chọn chức năng xem thông báo</text></g></g><g><path d=" M 199 59 C 199 53.477152000000046 203.477152 49 209 49 C 214.522848 49 219 53.477152000000046 219 59 C 219 64.52284799999995 214.522848 69 209 69 C 203.477152 69 199 64.52284799999995 199 59 Z" fill="#C0C0C0" fill-opacity="0.2" paint-order="stroke fill markers" stroke="none"/></g><g><path d=" M 192 52 C 192 46.477152000000046 196.477152 42 202 42 C 207.522848 42 212 46.477152000000046 212 52 C 212 57.522847999999954 207.522848 62 202 62 C 196.477152 62 192 57.522847999999954 192 52 Z" fill="#000000" paint-order="stroke fill markers" stroke="none"/></g><g><path d=" M 909 113 L 1044.20263671875 113 Q 1054.20263671875 113 1054.20263671875 123 L 1054.20263671875 144 Q 1054.20263671875 154 1044.20263671875 154 L 909 154 Q 899 154 899 144 L 899 123 Q 899 113 909 113 Z" fill="#C0C0C0" fill-opacity="0.2" paint-order="stroke fill markers" stroke="none"/></g><g><path d=" M 902 106 L 1037.20263671875 106 Q 1047.20263671875 106 1047.20263671875 116 L 1047.20263671875 137 Q 1047.20263671875 147 1037.20263671875 147 L 902 147 Q 892 147 892 137 L 892 116 Q 892 106 902 106 Z" fill="#ffffff" paint-order="stroke fill markers" stroke="none"/></g><g><path d=" M 902 106 L 1037.20263671875 106 Q 1047.20263671875 106 1047.20263671875 116 L 1047.20263671875 137 Q 1047.20263671875 147 1037.20263671875 147 L 902 147 Q 892 147 892 137 L 892 116 Q 892 106 902 106 Z" fill="none" paint-order="fill stroke markers" stroke="#000000" stroke-dasharray="" stroke-miterlimit="10"/></g><g><g><path fill="none" stroke="none"/><text dominant-baseline="central" fill="#000000" font-family="Arial" font-size="13px" font-style="normal" font-weight="bold" stroke="none" text-anchor="middle" text-decoration="undefined" transform="matrix(1 0 0 1 -198 -910)" x="1168.101318359375" y="1029.5">Lấy danh sách trận đấu</text></g></g><g><path d=" M 515 225 L 668.22998046875 225 Q 678.22998046875 225 678.22998046875 235 L 678.22998046875 256 Q 678.22998046875 266 668.22998046875 266 L 515 266 Q 505 266 505 256 L 505 235 Q 505 225 515 225 Z" fill="#C0C0C0" fill-opacity="0.2" paint-order="stroke fill markers" stroke="none"/></g><g><path d=" M 508 218 L 661.22998046875 218 Q 671.22998046875 218 671.22998046875 228 L 671.22998046875 249 Q 671.22998046875 259 661.22998046875 259 L 508 259 Q 498 259 498 249 L 498 228 Q 498 218 508 218 Z" fill="#ffffff" paint-order="stroke fill markers" stroke="none"/></g><g><path d=" M 508 218 L 661.22998046875 218 Q 671.22998046875 218 671.22998046875 228 L 671.22998046875 249 Q 671.22998046875 259 661.22998046875 259 L 508 259 Q 498 259 498 249 L 498 228 Q 498 218 508 218 Z" fill="none" paint-order="fill stroke markers" stroke="#000000" stroke-dasharray="" stroke-miterlimit="10"/></g><g><g><path fill="none" stroke="none"/><text dominant-baseline="central" fill="#000000" font-family="Arial" font-size="13px" font-style="normal" font-weight="bold" stroke="none" text-anchor="middle" text-decoration="undefined" transform="matrix(1 0 0 1 -198 -910)" x="783.114990234375" y="1141.5">Hiển thị giao diện trận đấu</text></g></g><g><rect fill="#ffffff" height="21" stroke="none" transform="matrix(1 0 0 1 -198 -910)" width="384" x="1362" y="920"/></g><g><path d=" M 1164 10 L 1548 10 L 1548 31 L 1164 31 L 1164 10 Z Z" fill="none" paint-order="fill stroke markers" stroke="#000000" stroke-dasharray="" stroke-miterlimit="10" stroke-width="2"/></g><g><path d=" M 1164 1130 L 1164 10 L 1548 10 L 1548 1130" fill="none" paint-order="fill stroke markers" stroke="#000000" stroke-dasharray="" stroke-miterlimit="10" stroke-width="2"/></g><g><g><path fill="none" stroke="none"/><text dominant-baseline="text-before-edge" fill="#000000" font-family="Arial" font-size="13px" font-style="normal" font-weight="normal" stroke="none" text-anchor="middle" text-decoration="undefined" transform="matrix(1 0 0 1 -198 -910)" x="1554" y="924">Diễn Biến Trận Đấu</text></g></g><g><path d=" M 118 225 L 300.17529296875 225 Q 310.17529296875 225 310.17529296875 235 L 310.17529296875 256 Q 310.17529296875 266 300.17529296875 266 L 118 266 Q 108 266 108 256 L 108 235 Q 108 225 118 225 Z" fill="#C0C0C0" fill-opacity="0.2" paint-order="stroke fill markers" stroke="none"/></g><g><path d=" M 111 218 L 293.17529296875 218 Q 303.17529296875 218 303.17529296875 228 L 303.17529296875 249 Q 303.17529296875 259 293.17529296875 259 L 111 259 Q 101 259 101 249 L 101 228 Q 101 218 111 218 Z" fill="#ffffff" paint-order="stroke fill markers" stroke="none"/></g><g><path d=" M 111 218 L 293.17529296875 218 Q 303.17529296875 218 303.17529296875 228 L 303.17529296875 249 Q 303.17529296875 259 293.17529296875 259 L 111 259 Q 101 259 101 249 L 101 228 Q 101 218 111 218 Z" fill="none" paint-order="fill stroke markers" stroke="#000000" stroke-dasharray="" stroke-miterlimit="10"/></g><g><g><path fill="none" stroke="none"/><text dominant-baseline="central" fill="#000000" font-family="Arial" font-size="13px" font-style="normal" font-weight="bold" stroke="none" text-anchor="middle" text-decoration="undefined" transform="matrix(1 0 0 1 -198 -910)" x="400.587646484375" y="1141.5">Chọn chức năng cần thực hiện</text></g></g><g><path d=" M 249 358.5 L 273 337 L 297 358.5 L 273 380 L 249 358.5" fill="#C0C0C0" fill-opacity="0.2" paint-order="stroke fill markers" stroke="none"/></g><g><path d=" M 242 351.5 L 266 330 L 290 351.5 L 266 373 L 242 351.5" fill="#ffffff" paint-order="stroke fill markers" stroke="none"/></g><g><path d=" M 242 351.5 L 266 330 L 290 351.5 L 266 373 L 242 351.5 L 242 351.5" fill="none" paint-order="fill stroke markers" stroke="#000000" stroke-dasharray="" stroke-miterlimit="10"/></g><g><path d=" M 515 429 L 669.68994140625 429 Q 679.68994140625 429 679.68994140625 439 L 679.68994140625 460 Q 679.68994140625 470 669.68994140625 470 L 515 470 Q 505 470 505 460 L 505 439 Q 505 429 515 429 Z" fill="#C0C0C0" fill-opacity="0.2" paint-order="stroke fill markers" stroke="none"/></g><g><path d=" M 508 422 L 662.68994140625 422 Q 672.68994140625 422 672.68994140625 432 L 672.68994140625 453 Q 672.68994140625 463 662.68994140625 463 L 508 463 Q 498 463 498 453 L 498 432 Q 498 422 508 422 Z" fill="#ffffff" paint-order="stroke fill markers" stroke="none"/></g><g><path d=" M 508 422 L 662.68994140625 422 Q 672.68994140625 422 672.68994140625 432 L 672.68994140625 453 Q 672.68994140625 463 662.68994140625 463 L 508 463 Q 498 463 498 453 L 498 432 Q 498 422 508 422 Z" fill="none" paint-order="fill stroke markers" stroke="#000000" stroke-dasharray="" stroke-miterlimit="10"/></g><g><g><path fill="none" stroke="none"/><text dominant-baseline="central" fill="#000000" font-family="Arial" font-size="13px" font-style="normal" font-weight="bold" stroke="none" text-anchor="middle" text-decoration="undefined" transform="matrix(1 0 0 1 -198 -910)" x="783.844970703125" y="1345.5">Hiển thị giao diện tìm kiếm</text></g></g><g><path d=" M 121 429 L 297 429 L 297 470 L 121 470 L 131.25 449.5" fill="#C0C0C0" fill-opacity="0.2" paint-order="stroke fill markers" stroke="none"/></g><g><path d=" M 114 422 L 290 422 L 290 463 L 114 463 L 124.25 442.5" fill="#ffffff" paint-order="stroke fill markers" stroke="none"/></g><g><path d=" M 114 422 L 290 422 L 290 463 L 114 463 L 124.25 442.5 L 114 422" fill="none" paint-order="fill stroke markers" stroke="#000000" stroke-dasharray="" stroke-miterlimit="10"/></g><g><g><path fill="none" stroke="none"/><text dominant-baseline="central" fill="#000000" font-family="Arial" font-size="13px" font-style="normal" font-weight="bold" stroke="none" text-anchor="middle" text-decoration="undefined" transform="matrix(1 0 0 1 -198 -910)" x="400.5" y="1345.5">Nhập từ khóa tìm kiếm</text></g></g><g><path d=" M 158 525 L 260.67724609375 525 Q 270.67724609375 525 270.67724609375 535 L 270.67724609375 556 Q 270.67724609375 566 260.67724609375 566 L 158 566 Q 148 566 148 556 L 148 535 Q 148 525 158 525 Z" fill="#C0C0C0" fill-opacity="0.2" paint-order="stroke fill markers" stroke="none"/></g><g><path d=" M 151 518 L 253.67724609375 518 Q 263.67724609375 518 263.67724609375 528 L 263.67724609375 549 Q 263.67724609375 559 253.67724609375 559 L 151 559 Q 141 559 141 549 L 141 528 Q 141 518 151 518 Z" fill="#ffffff" paint-order="stroke fill markers" stroke="none"/></g><g><path d=" M 151 518 L 253.67724609375 518 Q 263.67724609375 518 263.67724609375 528 L 263.67724609375 549 Q 263.67724609375 559 253.67724609375 559 L 151 559 Q 141 559 141 549 L 141 528 Q 141 518 151 518 Z" fill="none" paint-order="fill stroke markers" stroke="#000000" stroke-dasharray="" stroke-miterlimit="10"/></g><g><g><path fill="none" stroke="none"/><text dominant-baseline="central" fill="#000000" font-family="Arial" font-size="13px" font-style="normal" font-weight="bold" stroke="none" text-anchor="middle" text-decoration="undefined" transform="matrix(1 0 0 1 -198 -910)" x="400.838623046875" y="1441.5">Nhấn nút tìm kiếm</text></g></g><g><path d=" M 868 525 L 1085.5634765625 525 Q 1095.5634765625 525 1095.5634765625 535 L 1095.5634765625 556 Q 1095.5634765625 566 1085.5634765625 566 L 868 566 Q 858 566 858 556 L 858 535 Q 858 525 868 525 Z" fill="#C0C0C0" fill-opacity="0.2" paint-order="stroke fill markers" stroke="none"/></g><g><path d=" M 861 518 L 1078.5634765625 518 Q 1088.5634765625 518 1088.5634765625 528 L 1088.5634765625 549 Q 1088.5634765625 559 1078.5634765625 559 L 861 559 Q 851 559 851 549 L 851 528 Q 851 518 861 518 Z" fill="#ffffff" paint-order="stroke fill markers" stroke="none"/></g><g><path d=" M 861 518 L 1078.5634765625 518 Q 1088.5634765625 518 1088.5634765625 528 L 1088.5634765625 549 Q 1088.5634765625 559 1078.5634765625 559 L 861 559 Q 851 559 851 549 L 851 528 Q 851 518 861 518 Z" fill="none" paint-order="fill stroke markers" stroke="#000000" stroke-dasharray="" stroke-miterlimit="10"/></g><g><g><path fill="none" stroke="none"/><text dominant-baseline="central" fill="#000000" font-family="Arial" font-size="13px" font-style="normal" font-weight="bold" stroke="none" text-anchor="middle" text-decoration="undefined" transform="matrix(1 0 0 1 -198 -910)" x="1168.28173828125" y="1441.5">Lấy danh sách trận đấu theo từ khóa</text></g></g><g><path d=" M 841 654.5 L 865 633 L 889 654.5 L 865 676 L 841 654.5" fill="#C0C0C0" fill-opacity="0.2" paint-order="stroke fill markers" stroke="none"/></g><g><path d=" M 834 647.5 L 858 626 L 882 647.5 L 858 669 L 834 647.5" fill="#ffffff" paint-order="stroke fill markers" stroke="none"/></g><g><path d=" M 834 647.5 L 858 626 L 882 647.5 L 858 669 L 834 647.5 L 834 647.5" fill="none" paint-order="fill stroke markers" stroke="#000000" stroke-dasharray="" stroke-miterlimit="10"/></g><g><path d=" M 507 633 L 507 674 L 669.2373046875 674 L 679.4873046875 653.5 L 669.2373046875 633" fill="#C0C0C0" fill-opacity="0.2" paint-order="stroke fill markers" stroke="none"/></g><g><path d=" M 500 626 L 500 667 L 662.2373046875 667 L 672.4873046875 646.5 L 662.2373046875 626" fill="#ffffff" paint-order="stroke fill markers" stroke="none"/></g><g><path d=" M 500 626 L 500 667 L 662.2373046875 667 L 672.4873046875 646.5 L 662.2373046875 626 L 500 626" fill="none" paint-order="fill stroke markers" stroke="#000000" stroke-dasharray="" stroke-miterlimit="10"/></g><g><g><path fill="none" stroke="none"/><text dominant-baseline="central" fill="#000000" font-family="Arial" font-size="13px" font-style="normal" font-weight="bold" stroke="none" text-anchor="middle" text-decoration="undefined" transform="matrix(1 0 0 1 -198 -910)" x="784.74365234375" y="1549.5">Thông báo không tìm thấy</text></g></g><g><path d=" M 482 765 L 703.0166015625 765 Q 713.0166015625 765 713.0166015625 775 L 713.0166015625 796 Q 713.0166015625 806 703.0166015625 806 L 482 806 Q 472 806 472 796 L 472 775 Q 472 765 482 765 Z" fill="#C0C0C0" fill-opacity="0.2" paint-order="stroke fill markers" stroke="none"/></g><g><path d=" M 475 758 L 696.0166015625 758 Q 706.0166015625 758 706.0166015625 768 L 706.0166015625 789 Q 706.0166015625 799 696.0166015625 799 L 475 799 Q 465 799 465 789 L 465 768 Q 465 758 475 758 Z" fill="#ffffff" paint-order="stroke fill markers" stroke="none"/></g><g><path d=" M 475 758 L 696.0166015625 758 Q 706.0166015625 758 706.0166015625 768 L 706.0166015625 789 Q 706.0166015625 799 696.0166015625 799 L 475 799 Q 465 799 465 789 L 465 768 Q 465 758 475 758 Z" fill="none" paint-order="fill stroke markers" stroke="#000000" stroke-dasharray="" stroke-miterlimit="10"/></g><g><g><path fill="none" stroke="none"/><text dominant-baseline="central" fill="#000000" font-family="Arial" font-size="13px" font-style="normal" font-weight="bold" stroke="none" text-anchor="middle" text-decoration="undefined" transform="matrix(1 0 0 1 -198 -910)" x="784.00830078125" y="1681.5">Hiển thị danh sách trận đấu tìm được</text></g></g><g><path d=" M 189 789.5 L 213 768 L 237 789.5 L 213 811 L 189 789.5" fill="#C0C0C0" fill-opacity="0.2" paint-order="stroke fill markers" stroke="none"/></g><g><path d=" M 182 782.5 L 206 761 L 230 782.5 L 206 804 L 182 782.5" fill="#ffffff" paint-order="stroke fill markers" stroke="none"/></g><g><path d=" M 182 782.5 L 206 761 L 230 782.5 L 206 804 L 182 782.5 L 182 782.5" fill="none" paint-order="fill stroke markers" stroke="#000000" stroke-dasharray="" stroke-miterlimit="10"/></g><g><path d=" M 202 63 L 201 105" fill="none" paint-order="fill stroke markers" stroke="#000000" stroke-dasharray="" stroke-miterlimit="10"/></g><g><path d=" M 197.03357480386518 94.74000627858538 L 201 105 L 205.45022498208755 94.94040271140022" fill="none" paint-order="fill stroke markers" stroke="#000000" stroke-dasharray="" stroke-miterlimit="10"/></g><g><path d=" M 149 913 L 269 913 Q 279 913 279 923 L 279 944 Q 279 954 269 954 L 149 954 Q 139 954 139 944 L 139 923 Q 139 913 149 913 Z" fill="#C0C0C0" fill-opacity="0.2" paint-order="stroke fill markers" stroke="none"/></g><g><path d=" M 142 906 L 262 906 Q 272 906 272 916 L 272 937 Q 272 947 262 947 L 142 947 Q 132 947 132 937 L 132 916 Q 132 906 142 906 Z" fill="#ffffff" paint-order="stroke fill markers" stroke="none"/></g><g><path d=" M 142 906 L 262 906 Q 272 906 272 916 L 272 937 Q 272 947 262 947 L 142 947 Q 132 947 132 937 L 132 916 Q 132 906 142 906 Z" fill="none" paint-order="fill stroke markers" stroke="#000000" stroke-dasharray="" stroke-miterlimit="10"/></g><g><g><path fill="none" stroke="none"/><text dominant-baseline="central" fill="#000000" font-family="Arial" font-size="13px" font-style="normal" font-weight="bold" stroke="none" text-anchor="middle" text-decoration="undefined" transform="matrix(1 0 0 1 -198 -910)" x="400.5" y="1829.5">Chọn trận đấu cụ thể</text></g></g><g><path d=" M 1247 913 L 1479.6708984375 913 Q 1489.6708984375 913 1489.6708984375 923 L 1489.6708984375 944 Q 1489.6708984375 954 1479.6708984375 954 L 1247 954 Q 1237 954 1237 944 L 1237 923 Q 1237 913 1247 913 Z" fill="#C0C0C0" fill-opacity="0.2" paint-order="stroke fill markers" stroke="none"/></g><g><path d=" M 1240 906 L 1472.6708984375 906 Q 1482.6708984375 906 1482.6708984375 916 L 1482.6708984375 937 Q 1482.6708984375 947 1472.6708984375 947 L 1240 947 Q 1230 947 1230 937 L 1230 916 Q 1230 906 1240 906 Z" fill="#ffffff" paint-order="stroke fill markers" stroke="none"/></g><g><path d=" M 1240 906 L 1472.6708984375 906 Q 1482.6708984375 906 1482.6708984375 916 L 1482.6708984375 937 Q 1482.6708984375 947 1472.6708984375 947 L 1240 947 Q 1230 947 1230 937 L 1230 916 Q 1230 906 1240 906 Z" fill="none" paint-order="fill stroke markers" stroke="#000000" stroke-dasharray="" stroke-miterlimit="10"/></g><g><g><path fill="none" stroke="none"/><text dominant-baseline="central" fill="#000000" font-family="Arial" font-size="13px" font-style="normal" font-weight="bold" stroke="none" text-anchor="middle" text-decoration="undefined" transform="matrix(1 0 0 1 -198 -910)" x="1554.83544921875" y="1829.5">Lấy chi tiết diễn biến trận đấu</text></g></g><g><path d=" M 435 1017 L 753.60546875 1017 Q 763.60546875 1017 763.60546875 1027 L 763.60546875 1048 Q 763.60546875 1058 753.60546875 1058 L 435 1058 Q 425 1058 425 1048 L 425 1027 Q 425 1017 435 1017 Z" fill="#C0C0C0" fill-opacity="0.2" paint-order="stroke fill markers" stroke="none"/></g><g><path d=" M 428 1010 L 746.60546875 1010 Q 756.60546875 1010 756.60546875 1020 L 756.60546875 1041 Q 756.60546875 1051 746.60546875 1051 L 428 1051 Q 418 1051 418 1041 L 418 1020 Q 418 1010 428 1010 Z" fill="#ffffff" paint-order="stroke fill markers" stroke="none"/></g><g><path d=" M 428 1010 L 746.60546875 1010 Q 756.60546875 1010 756.60546875 1020 L 756.60546875 1041 Q 756.60546875 1051 746.60546875 1051 L 428 1051 Q 418 1051 418 1041 L 418 1020 Q 418 1010 428 1010 Z" fill="none" paint-order="fill stroke markers" stroke="#000000" stroke-dasharray="" stroke-miterlimit="10"/></g><g><g><path fill="none" stroke="none"/><text dominant-baseline="central" fill="#000000" font-family="Arial" font-size="13px" font-style="normal" font-weight="bold" stroke="none" text-anchor="middle" text-decoration="undefined" transform="matrix(1 0 0 1 -198 -910)" x="785.802734375" y="1933.5">Hiển thị giao diện chi tiết diễn biến trận đấu</text></g></g><g><path d=" M 307 126 L 891 126" fill="none" paint-order="fill stroke markers" stroke="#000000" stroke-dasharray="" stroke-miterlimit="10"/></g><g><path d=" M 880.8373251423759 130.20951775601588 L 891 126 L 880.8373251423759 121.79048224398412" fill="none" paint-order="fill stroke markers" stroke="#000000" stroke-dasharray="" stroke-miterlimit="10"/></g><g><path d=" M 892 147 L 892 238 L 671 238" fill="none" paint-order="fill stroke markers" stroke="#000000" stroke-dasharray="" stroke-miterlimit="10"/></g><g><path d=" M 681.1626748576241 233.79048224398412 L 671 238 L 681.1626748576241 242.20951775601588" fill="none" paint-order="fill stroke markers" stroke="#000000" stroke-dasharray="" stroke-miterlimit="10"/></g><g><path d=" M 497 238 L 304 238" fill="none" paint-order="fill stroke markers" stroke="#000000" stroke-dasharray="" stroke-miterlimit="10"/></g><g><path d=" M 314.1626748576241 233.79048224398412 L 304 238 L 314.1626748576241 242.20951775601588" fill="none" paint-order="fill stroke markers" stroke="#000000" stroke-dasharray="" stroke-miterlimit="10"/></g><g><path d=" M 266 259 L 266 330" fill="none" paint-order="fill stroke markers" stroke="#000000" stroke-dasharray="" stroke-miterlimit="10"/></g><g><path d=" M 261.790482243984 319.8373251423759 L 266 330 L 270.209517756016 319.8373251423759" fill="none" paint-order="fill stroke markers" stroke="#000000" stroke-dasharray="" stroke-miterlimit="10"/></g><g><path d=" M 290 351 L 578 351 L 578 422" fill="none" paint-order="fill stroke markers" stroke="#000000" stroke-dasharray="" stroke-miterlimit="10"/></g><g><path d=" M 573.790482243984 411.8373251423759 L 578 422 L 582.209517756016 411.8373251423759" fill="none" paint-order="fill stroke markers" stroke="#000000" stroke-dasharray="" stroke-miterlimit="10"/></g><g><path d=" M 242 354 L 66 354 L 66 779 L 182 779" fill="none" paint-order="fill stroke markers" stroke="#000000" stroke-dasharray="" stroke-miterlimit="10"/></g><g><path d=" M 171.83732514237585 783.2095177560159 L 182 779 L 171.83732514237585 774.7904822439841" fill="none" paint-order="fill stroke markers" stroke="#000000" stroke-dasharray="" stroke-miterlimit="10"/></g><g><path d=" M 497 442 L 291 442" fill="none" paint-order="fill stroke markers" stroke="#000000" stroke-dasharray="" stroke-miterlimit="10"/></g><g><path d=" M 301.16267485762415 437.7904822439841 L 291 442 L 301.16267485762415 446.2095177560159" fill="none" paint-order="fill stroke markers" stroke="#000000" stroke-dasharray="" stroke-miterlimit="10"/></g><g><path d=" M 202 464 L 202 517" fill="none" paint-order="fill stroke markers" stroke="#000000" stroke-dasharray="" stroke-miterlimit="10"/></g><g><path d=" M 197.790482243984 506.8373251423759 L 202 517 L 206.209517756016 506.8373251423759" fill="none" paint-order="fill stroke markers" stroke="#000000" stroke-dasharray="" stroke-miterlimit="10"/></g><g><path d=" M 265 538 L 850 538" fill="none" paint-order="fill stroke markers" stroke="#000000" stroke-dasharray="" stroke-miterlimit="10"/></g><g><path d=" M 839.8373251423759 542.2095177560159 L 850 538 L 839.8373251423759 533.7904822439841" fill="none" paint-order="fill stroke markers" stroke="#000000" stroke-dasharray="" stroke-miterlimit="10"/></g><g><path d=" M 962 559 L 962 594 L 858 594 L 858 626" fill="none" paint-order="fill stroke markers" stroke="#000000" stroke-dasharray="" stroke-miterlimit="10"/></g><g><path d=" M 853.7904822439841 615.8373251423759 L 858 626 L 862.2095177560159 615.8373251423759" fill="none" paint-order="fill stroke markers" stroke="#000000" stroke-dasharray="" stroke-miterlimit="10"/></g><g><path d=" M 833 647 L 673 646" fill="none" paint-order="fill stroke markers" stroke="#000000" stroke-dasharray="" stroke-miterlimit="10"/></g><g><path d=" M 683.1887853458288 641.8540799360546 L 673 646 L 683.1361674015628 650.2729510186166" fill="none" paint-order="fill stroke markers" stroke="#000000" stroke-dasharray="" stroke-miterlimit="10"/></g><g><path d=" M 500 650 L 418 650 L 418 250 L 498 250" fill="none" paint-order="fill stroke markers" stroke="#000000" stroke-dasharray="" stroke-miterlimit="10"/></g><g><path d=" M 487.8373251423759 254.20951775601588 L 498 250 L 487.8373251423758 245.79048224398412" fill="none" paint-order="fill stroke markers" stroke="#000000" stroke-dasharray="" stroke-miterlimit="10"/></g><g><path d=" M 858 669 L 858 778 L 706 778" fill="none" paint-order="fill stroke markers" stroke="#000000" stroke-dasharray="" stroke-miterlimit="10"/></g><g><path d=" M 716.1626748576241 773.7904822439841 L 706 778 L 716.1626748576241 782.2095177560159" fill="none" paint-order="fill stroke markers" stroke="#000000" stroke-dasharray="" stroke-miterlimit="10"/></g><g><path d=" M 464 779 L 231 782" fill="none" paint-order="fill stroke markers" stroke="#000000" stroke-dasharray="" stroke-miterlimit="10"/></g><g><path d=" M 241.10763727368908 777.6599920802457 L 231 782 L 241.2160278884611 786.0783298275378" fill="none" paint-order="fill stroke markers" stroke="#000000" stroke-dasharray="" stroke-miterlimit="10"/></g><g><path d=" M 205 805 L 203 905" fill="none" paint-order="fill stroke markers" stroke="#000000" stroke-dasharray="" stroke-miterlimit="10"/></g><g><path d=" M 198.9945367536925 894.7551835456911 L 203 905 L 207.4118889635959 894.9235305898892" fill="none" paint-order="fill stroke markers" stroke="#000000" stroke-dasharray="" stroke-miterlimit="10"/></g><g><path d=" M 273 926 L 1229 926" fill="none" paint-order="fill stroke markers" stroke="#000000" stroke-dasharray="" stroke-miterlimit="10"/></g><g><path d=" M 1218.837325142376 930.2095177560159 L 1229 926 L 1218.837325142376 921.7904822439841" fill="none" paint-order="fill stroke markers" stroke="#000000" stroke-dasharray="" stroke-miterlimit="10"/></g><g><path d=" M 1354 947 L 1354 1030 L 757 1030" fill="none" paint-order="fill stroke markers" stroke="#000000" stroke-dasharray="" stroke-miterlimit="10"/></g><g><path d=" M 767.1626748576241 1025.7904822439841 L 757 1030 L 767.1626748576241 1034.2095177560159" fill="none" paint-order="fill stroke markers" stroke="#000000" stroke-dasharray="" stroke-miterlimit="10"/></g><g><g><path fill="none" stroke="none"/><text dominant-baseline="text-before-edge" fill="#000000" font-family="Arial" font-size="13px" font-style="normal" font-weight="normal" stroke="none" text-anchor="start" text-decoration="undefined" transform="matrix(1 0 0 1 -198 -910)" x="245" y="1245">[Không chọn chức năng khác]</text></g></g><g><g><path fill="none" stroke="none"/><text dominant-baseline="text-before-edge" fill="#000000" font-family="Arial" font-size="13px" font-style="normal" font-weight="normal" stroke="none" text-anchor="start" text-decoration="undefined" transform="matrix(1 0 0 1 -198 -910)" x="925" y="1533">[Không tìm thấy]</text></g></g><g><g><path fill="none" stroke="none"/><text dominant-baseline="text-before-edge" fill="#000000" font-family="Arial" font-size="13px" font-style="normal" font-weight="normal" stroke="none" text-anchor="start" text-decoration="undefined" transform="matrix(1 0 0 1 -198 -910)" x="1069" y="1661">[Tìm thấy theo từ khóa]</text></g></g><g><path d=" M 196 1038 C 196 1030.8202976 201.8202976 1025 209 1025 C 216.1797024 1025 222 1030.8202976 222 1038 C 222 1045.1797024 216.1797024 1051 209 1051 C 201.8202976 1051 196 1045.1797024 196 1038 Z" fill="#C0C0C0" fill-opacity="0.2" paint-order="stroke fill markers" stroke="none"/></g><g><path d=" M 189 1031 C 189 1023.8202976 194.8202976 1018 202 1018 C 209.1797024 1018 215 1023.8202976 215 1031 C 215 1038.1797024 209.1797024 1044 202 1044 C 194.8202976 1044 189 1038.1797024 189 1031 Z" fill="none" paint-order="fill stroke markers" stroke="#000000" stroke-dasharray="" stroke-miterlimit="10"/></g><g><path d=" M 194 1031 C 194 1026.5817216 197.58172159999998 1023 202 1023 C 206.41827840000002 1023 210 1026.5817216 210 1031 C 210 1035.4182784 206.41827840000002 1039 202 1039 C 197.58172159999998 1039 194 1035.4182784 194 1031 Z" fill="#000000" paint-order="stroke fill markers" stroke="none"/></g><g><path d=" M 417 1030 L 216 1031" fill="none" paint-order="fill stroke markers" stroke="#000000" stroke-dasharray="" stroke-miterlimit="10"/></g><g><path d=" M 226.1416064721679 1026.739974394011 L 216 1031 L 226.18349170261848 1035.1589057145723" fill="none" paint-order="fill stroke markers" stroke="#000000" stroke-dasharray="" stroke-miterlimit="10"/></g><g><g><path fill="none" stroke="none"/><text dominant-baseline="text-before-edge" fill="#000000" font-family="Arial" font-size="13px" font-style="normal" font-weight="normal" stroke="none" text-anchor="start" text-decoration="undefined" transform="matrix(1 0 0 1 -198 -910)" x="621" y="1245">[Chọn biểu tượng tìm kiếm]</text></g></g></g></svg>