<?xml version="1.0" encoding="utf-8"?>
<svg height="535" version="1.1" width="894" xmlns="http://www.w3.org/2000/svg" xmlns:xlink="http://www.w3.org/1999/xlink"><defs/><g><g><path d=" M 72.19466796875003 195.85000000000002 C 72.19466796875003 190.96227952000004 76.15247033675001 187 81.03466796875 187 C 85.91686560074999 187 89.87466796874997 190.96227952000004 89.87466796874997 195.85000000000002 C 89.87466796874997 200.73772048 85.91686560074999 204.7 81.03466796875 204.7 C 76.15247033675001 204.7 72.19466796875003 200.73772048 72.19466796875003 195.85000000000002 Z" fill="#ffffff" paint-order="stroke fill markers" stroke="none"/></g><g><path d=" M 72.19466796875003 195.85000000000002 C 72.19466796875003 190.96227952000004 76.15247033675001 187 81.03466796875 187 C 85.91686560074999 187 89.87466796874997 190.96227952000004 89.87466796874997 195.85000000000002 C 89.87466796874997 200.73772048 85.91686560074999 204.7 81.03466796875 204.7 C 76.15247033675001 204.7 72.19466796875003 200.73772048 72.19466796875003 195.85000000000002 Z" fill="none" paint-order="fill stroke markers" stroke="#000000" stroke-dasharray="" stroke-miterlimit="10"/></g><g><path d=" M 81.03466796875 204.7 L 81.03466796875 222.3" fill="none" paint-order="fill stroke markers" stroke="#000000" stroke-dasharray="" stroke-miterlimit="10"/></g><g><path d=" M 71.67466796874999 211.3 L 90.39466796875001 211.3" fill="none" paint-order="fill stroke markers" stroke="#000000" stroke-dasharray="" stroke-miterlimit="10"/></g><g><path d=" M 81.03466796875 222.3 L 68.03466796875 240" fill="none" paint-order="fill stroke markers" stroke="#000000" stroke-dasharray="" stroke-miterlimit="10"/></g><g><path d=" M 81.03466796875 222.3 L 94.03466796875 240" fill="none" paint-order="fill stroke markers" stroke="#000000" stroke-dasharray="" stroke-miterlimit="10"/></g><g><g><path fill="none" stroke="none"/><text dominant-baseline="central" fill="#000000" font-family="Arial" font-size="13px" font-style="normal" font-weight="bold" stroke="none" text-anchor="middle" text-decoration="undefined" transform="matrix(1 0 0 1 -262 -142)" x="343.53466796875" y="396.5">Trưởng Ban Tổ Chức</text></g></g><g><path d=" M 289 250.5 C 289 240.835016 323.9217856 233 367 233 C 410.0782144 233 445 240.835016 445 250.5 C 445 260.164984 410.0782144 268 367 268 C 323.9217856 268 289 260.164984 289 250.5 Z" fill="#C0C0C0" fill-opacity="0.2" paint-order="stroke fill markers" stroke="none"/></g><g><path d=" M 282 243.5 C 282 233.835016 316.9217856 226 360 226 C 403.0782144 226 438 233.835016 438 243.5 C 438 253.164984 403.0782144 261 360 261 C 316.9217856 261 282 253.164984 282 243.5 Z" fill="#ffffff" paint-order="stroke fill markers" stroke="none"/></g><g><path d=" M 282 243.5 C 282 233.835016 316.9217856 226 360 226 C 403.0782144 226 438 233.835016 438 243.5 C 438 253.164984 403.0782144 261 360 261 C 316.9217856 261 282 253.164984 282 243.5 Z" fill="none" paint-order="fill stroke markers" stroke="#000000" stroke-dasharray="" stroke-miterlimit="10"/></g><g><g><path fill="none" stroke="none"/><text dominant-baseline="central" fill="#000000" font-family="Arial" font-size="13px" font-style="normal" font-weight="bold" stroke="none" text-anchor="middle" text-decoration="undefined" transform="matrix(1 0 0 1 -262 -142)" x="622" y="386.5">Quản lý giải đấu</text></g></g><g><path d=" M 153 230 L 281 238" fill="none" paint-order="fill stroke markers" stroke="#000000" stroke-dasharray="" stroke-miterlimit="10"/></g><g><path d=" M 225 138.5 C 225 128.835016 260.59335839999994 121 304.5 121 C 348.40664160000006 121 384 128.835016 384 138.5 C 384 148.164984 348.40664160000006 156 304.5 156 C 260.59335839999994 156 225 148.164984 225 138.5 Z" fill="#C0C0C0" fill-opacity="0.2" paint-order="stroke fill markers" stroke="none"/></g><g><path d=" M 218 131.5 C 218 121.835016 253.59335839999994 114 297.5 114 C 341.40664160000006 114 377 121.835016 377 131.5 C 377 141.164984 341.40664160000006 149 297.5 149 C 253.59335839999994 149 218 141.164984 218 131.5 Z" fill="#ffffff" paint-order="stroke fill markers" stroke="none"/></g><g><path d=" M 218 131.5 C 218 121.835016 253.59335839999994 114 297.5 114 C 341.40664160000006 114 377 121.835016 377 131.5 C 377 141.164984 341.40664160000006 149 297.5 149 C 253.59335839999994 149 218 141.164984 218 131.5 Z" fill="none" paint-order="fill stroke markers" stroke="#000000" stroke-dasharray="" stroke-miterlimit="10"/></g><g><g><path fill="none" stroke="none"/><text dominant-baseline="central" fill="#000000" font-family="Arial" font-size="13px" font-style="normal" font-weight="bold" stroke="none" text-anchor="middle" text-decoration="undefined" transform="matrix(1 0 0 1 -262 -142)" x="559.5" y="274.5">Quản lý trận đấu</text></g></g><g><path d=" M 153 194 L 254 150" fill="none" paint-order="fill stroke markers" stroke="#000000" stroke-dasharray="" stroke-miterlimit="10"/></g><g><path d=" M 70.01424804687503 35.849999999999994 C 70.01424804687503 30.96227952000001 73.97205041487501 27 78.854248046875 27 C 83.73644567887499 27 87.69424804687497 30.96227952000001 87.69424804687497 35.849999999999994 C 87.69424804687497 40.73772047999998 83.73644567887499 44.69999999999999 78.854248046875 44.69999999999999 C 73.97205041487501 44.69999999999999 70.01424804687503 40.73772047999998 70.01424804687503 35.849999999999994 Z" fill="#ffffff" paint-order="stroke fill markers" stroke="none"/></g><g><path d=" M 70.01424804687503 35.849999999999994 C 70.01424804687503 30.96227952000001 73.97205041487501 27 78.854248046875 27 C 83.73644567887499 27 87.69424804687497 30.96227952000001 87.69424804687497 35.849999999999994 C 87.69424804687497 40.73772047999998 83.73644567887499 44.69999999999999 78.854248046875 44.69999999999999 C 73.97205041487501 44.69999999999999 70.01424804687503 40.73772047999998 70.01424804687503 35.849999999999994 Z" fill="none" paint-order="fill stroke markers" stroke="#000000" stroke-dasharray="" stroke-miterlimit="10"/></g><g><path d=" M 78.854248046875 44.69999999999999 L 78.854248046875 62.30000000000001" fill="none" paint-order="fill stroke markers" stroke="#000000" stroke-dasharray="" stroke-miterlimit="10"/></g><g><path d=" M 69.49424804687499 51.30000000000001 L 88.21424804687501 51.30000000000001" fill="none" paint-order="fill stroke markers" stroke="#000000" stroke-dasharray="" stroke-miterlimit="10"/></g><g><path d=" M 78.854248046875 62.30000000000001 L 65.854248046875 80" fill="none" paint-order="fill stroke markers" stroke="#000000" stroke-dasharray="" stroke-miterlimit="10"/></g><g><path d=" M 78.854248046875 62.30000000000001 L 91.854248046875 80" fill="none" paint-order="fill stroke markers" stroke="#000000" stroke-dasharray="" stroke-miterlimit="10"/></g><g><g><path fill="none" stroke="none"/><text dominant-baseline="central" fill="#000000" font-family="Arial" font-size="13px" font-style="normal" font-weight="bold" stroke="none" text-anchor="middle" text-decoration="undefined" transform="matrix(1 0 0 1 -262 -142)" x="341.354248046875" y="236.5">Người đã đăng nhập</text></g></g><g><path d=" M 80 185 L 79 107" fill="none" paint-order="fill stroke markers" stroke="#000000" stroke-dasharray="" stroke-miterlimit="10"/></g><g><path d=" M 87.67890369155907 127.21575204420162 L 79 107 L 70.8422162963256 127.43160701080717" fill="#FFFFFF" paint-order="stroke fill markers" stroke="none"/></g><g><path d=" M 87.67890369155907 127.21575204420162 L 79 107 L 70.8422162963256 127.43160701080717 L 87.67890369155907 127.21575204420162" fill="none" paint-order="fill stroke markers" stroke="#000000" stroke-dasharray="" stroke-miterlimit="10"/></g><g><path d=" M 321 34.5 C 321 24.835015999999996 348.75834239999995 17 383 17 C 417.24165760000005 17 445 24.835015999999996 445 34.5 C 445 44.164984000000004 417.24165760000005 52 383 52 C 348.75834239999995 52 321 44.164984000000004 321 34.5 Z" fill="#C0C0C0" fill-opacity="0.2" paint-order="stroke fill markers" stroke="none"/></g><g><path d=" M 314 27.5 C 314 17.835015999999996 341.75834239999995 10 376 10 C 410.24165760000005 10 438 17.835015999999996 438 27.5 C 438 37.164984000000004 410.24165760000005 45 376 45 C 341.75834239999995 45 314 37.164984000000004 314 27.5 Z" fill="#ffffff" paint-order="stroke fill markers" stroke="none"/></g><g><path d=" M 314 27.5 C 314 17.835015999999996 341.75834239999995 10 376 10 C 410.24165760000005 10 438 17.835015999999996 438 27.5 C 438 37.164984000000004 410.24165760000005 45 376 45 C 341.75834239999995 45 314 37.164984000000004 314 27.5 Z" fill="none" paint-order="fill stroke markers" stroke="#000000" stroke-dasharray="" stroke-miterlimit="10"/></g><g><g><path fill="none" stroke="none"/><text dominant-baseline="central" fill="#000000" font-family="Arial" font-size="13px" font-style="normal" font-weight="bold" stroke="none" text-anchor="middle" text-decoration="undefined" transform="matrix(1 0 0 1 -262 -142)" x="638" y="170.5">Tạo trận đấu</text></g></g><g><path d=" M 449 114.5 C 449 104.835016 506.3075456 97 577 97 C 647.6924544 97 705 104.835016 705 114.5 C 705 124.164984 647.6924544 132 577 132 C 506.3075456 132 449 124.164984 449 114.5 Z" fill="#C0C0C0" fill-opacity="0.2" paint-order="stroke fill markers" stroke="none"/></g><g><path d=" M 442 107.5 C 442 97.835016 499.3075456 90 570 90 C 640.6924544 90 698 97.835016 698 107.5 C 698 117.164984 640.6924544 125 570 125 C 499.3075456 125 442 117.164984 442 107.5 Z" fill="#ffffff" paint-order="stroke fill markers" stroke="none"/></g><g><path d=" M 442 107.5 C 442 97.835016 499.3075456 90 570 90 C 640.6924544 90 698 97.835016 698 107.5 C 698 117.164984 640.6924544 125 570 125 C 499.3075456 125 442 117.164984 442 107.5 Z" fill="none" paint-order="fill stroke markers" stroke="#000000" stroke-dasharray="" stroke-miterlimit="10"/></g><g><g><path fill="none" stroke="none"/><text dominant-baseline="central" fill="#000000" font-family="Arial" font-size="13px" font-style="normal" font-weight="bold" stroke="none" text-anchor="middle" text-decoration="undefined" transform="matrix(1 0 0 1 -262 -142)" x="832" y="250.5">Cập nhật diễn biến trận đấu</text></g></g><g><path d=" M 657 202.5 C 657 192.835016 693.0410736 185 737.5 185 C 781.9589264000001 185 818 192.835016 818 202.5 C 818 212.164984 781.9589264000001 220 737.5 220 C 693.0410736 220 657 212.164984 657 202.5 Z" fill="#C0C0C0" fill-opacity="0.2" paint-order="stroke fill markers" stroke="none"/></g><g><path d=" M 650 195.5 C 650 185.835016 686.0410736 178 730.5 178 C 774.9589264000001 178 811 185.835016 811 195.5 C 811 205.164984 774.9589264000001 213 730.5 213 C 686.0410736 213 650 205.164984 650 195.5 Z" fill="#ffffff" paint-order="stroke fill markers" stroke="none"/></g><g><path d=" M 650 195.5 C 650 185.835016 686.0410736 178 730.5 178 C 774.9589264000001 178 811 185.835016 811 195.5 C 811 205.164984 774.9589264000001 213 730.5 213 C 686.0410736 213 650 205.164984 650 195.5 Z" fill="none" paint-order="fill stroke markers" stroke="#000000" stroke-dasharray="" stroke-miterlimit="10"/></g><g><g><path fill="none" stroke="none"/><text dominant-baseline="central" fill="#000000" font-family="Arial" font-size="13px" font-style="normal" font-weight="bold" stroke="none" text-anchor="middle" text-decoration="undefined" transform="matrix(1 0 0 1 -262 -142)" x="992.5" y="338.5">Tổ chức giải đấu</text></g></g><g><path d=" M 625 306.5 C 625 296.835016 684.5461216 289 758 289 C 831.4538784000001 289 891 296.835016 891 306.5 C 891 316.164984 831.4538784000001 324 758 324 C 684.5461216 324 625 316.164984 625 306.5 Z" fill="#C0C0C0" fill-opacity="0.2" paint-order="stroke fill markers" stroke="none"/></g><g><path d=" M 618 299.5 C 618 289.835016 677.5461216 282 751 282 C 824.4538784000001 282 884 289.835016 884 299.5 C 884 309.164984 824.4538784000001 317 751 317 C 677.5461216 317 618 309.164984 618 299.5 Z" fill="#ffffff" paint-order="stroke fill markers" stroke="none"/></g><g><path d=" M 618 299.5 C 618 289.835016 677.5461216 282 751 282 C 824.4538784000001 282 884 289.835016 884 299.5 C 884 309.164984 824.4538784000001 317 751 317 C 677.5461216 317 618 309.164984 618 299.5 Z" fill="none" paint-order="fill stroke markers" stroke="#000000" stroke-dasharray="" stroke-miterlimit="10"/></g><g><g><path fill="none" stroke="none"/><text dominant-baseline="central" fill="#000000" font-family="Arial" font-size="13px" font-style="normal" font-weight="bold" stroke="none" text-anchor="middle" text-decoration="undefined" transform="matrix(1 0 0 1 -262 -142)" x="1013" y="442.5">Tạo hợp đồng với nhà tài trợ</text></g></g><g><path d=" M 569 354.5 C 569 344.835016 616.2339536 337 674.5 337 C 732.7660464 337 780 344.835016 780 354.5 C 780 364.164984 732.7660464 372 674.5 372 C 616.2339536 372 569 364.164984 569 354.5 Z" fill="#C0C0C0" fill-opacity="0.2" paint-order="stroke fill markers" stroke="none"/></g><g><path d=" M 562 347.5 C 562 337.835016 609.2339536 330 667.5 330 C 725.7660464 330 773 337.835016 773 347.5 C 773 357.164984 725.7660464 365 667.5 365 C 609.2339536 365 562 357.164984 562 347.5 Z" fill="#ffffff" paint-order="stroke fill markers" stroke="none"/></g><g><path d=" M 562 347.5 C 562 337.835016 609.2339536 330 667.5 330 C 725.7660464 330 773 337.835016 773 347.5 C 773 357.164984 725.7660464 365 667.5 365 C 609.2339536 365 562 357.164984 562 347.5 Z" fill="none" paint-order="fill stroke markers" stroke="#000000" stroke-dasharray="" stroke-miterlimit="10"/></g><g><g><path fill="none" stroke="none"/><text dominant-baseline="central" fill="#000000" font-family="Arial" font-size="13px" font-style="normal" font-weight="bold" stroke="none" text-anchor="middle" text-decoration="undefined" transform="matrix(1 0 0 1 -262 -142)" x="929.5" y="490.5">Lập lịch trình giải đấu</text></g></g><g><path d=" M 209 354.5 C 209 344.835016 246.38421920000002 337 292.5 337 C 338.61578080000004 337 376 344.835016 376 354.5 C 376 364.164984 338.61578080000004 372 292.5 372 C 246.38421920000002 372 209 364.164984 209 354.5 Z" fill="#C0C0C0" fill-opacity="0.2" paint-order="stroke fill markers" stroke="none"/></g><g><path d=" M 202 347.5 C 202 337.835016 239.38421920000002 330 285.5 330 C 331.61578080000004 330 369 337.835016 369 347.5 C 369 357.164984 331.61578080000004 365 285.5 365 C 239.38421920000002 365 202 357.164984 202 347.5 Z" fill="#ffffff" paint-order="stroke fill markers" stroke="none"/></g><g><path d=" M 202 347.5 C 202 337.835016 239.38421920000002 330 285.5 330 C 331.61578080000004 330 369 337.835016 369 347.5 C 369 357.164984 331.61578080000004 365 285.5 365 C 239.38421920000002 365 202 357.164984 202 347.5 Z" fill="none" paint-order="fill stroke markers" stroke="#000000" stroke-dasharray="" stroke-miterlimit="10"/></g><g><g><path fill="none" stroke="none"/><text dominant-baseline="central" fill="#000000" font-family="Arial" font-size="13px" font-style="normal" font-weight="bold" stroke="none" text-anchor="middle" text-decoration="undefined" transform="matrix(1 0 0 1 -262 -142)" x="547.5" y="490.5">Cấu hình giải đấu</text></g></g><g><path d=" M 409 426.5 C 409 416.835016 470.78469759999996 409 547 409 C 623.2153024 409 685 416.835016 685 426.5 C 685 436.164984 623.2153024 444 547 444 C 470.78469759999996 444 409 436.164984 409 426.5 Z" fill="#C0C0C0" fill-opacity="0.2" paint-order="stroke fill markers" stroke="none"/></g><g><path d=" M 402 419.5 C 402 409.835016 463.78469759999996 402 540 402 C 616.2153024 402 678 409.835016 678 419.5 C 678 429.164984 616.2153024 437 540 437 C 463.78469759999996 437 402 429.164984 402 419.5 Z" fill="#ffffff" paint-order="stroke fill markers" stroke="none"/></g><g><path d=" M 402 419.5 C 402 409.835016 463.78469759999996 402 540 402 C 616.2153024 402 678 409.835016 678 419.5 C 678 429.164984 616.2153024 437 540 437 C 463.78469759999996 437 402 429.164984 402 419.5 Z" fill="none" paint-order="fill stroke markers" stroke="#000000" stroke-dasharray="" stroke-miterlimit="10"/></g><g><g><path fill="none" stroke="none"/><text dominant-baseline="central" fill="#000000" font-family="Arial" font-size="13px" font-style="normal" font-weight="bold" stroke="none" text-anchor="middle" text-decoration="undefined" transform="matrix(1 0 0 1 -262 -142)" x="802" y="562.5">Lạp danh sách các đội thi đấu</text></g></g><g><path d=" M 633 514.5 C 633 504.835016 683.1441024 497 745 497 C 806.8558975999999 497 857 504.835016 857 514.5 C 857 524.164984 806.8558975999999 532 745 532 C 683.1441024 532 633 524.164984 633 514.5 Z" fill="#C0C0C0" fill-opacity="0.2" paint-order="stroke fill markers" stroke="none"/></g><g><path d=" M 626 507.5 C 626 497.835016 676.1441024 490 738 490 C 799.8558975999999 490 850 497.835016 850 507.5 C 850 517.164984 799.8558975999999 525 738 525 C 676.1441024 525 626 517.164984 626 507.5 Z" fill="#ffffff" paint-order="stroke fill markers" stroke="none"/></g><g><path d=" M 626 507.5 C 626 497.835016 676.1441024 490 738 490 C 799.8558975999999 490 850 497.835016 850 507.5 C 850 517.164984 799.8558975999999 525 738 525 C 676.1441024 525 626 517.164984 626 507.5 Z" fill="none" paint-order="fill stroke markers" stroke="#000000" stroke-dasharray="" stroke-miterlimit="10"/></g><g><g><path fill="none" stroke="none"/><text dominant-baseline="central" fill="#000000" font-family="Arial" font-size="13px" font-style="normal" font-weight="bold" stroke="none" text-anchor="middle" text-decoration="undefined" transform="matrix(1 0 0 1 -262 -142)" x="1000" y="650.5">In dánh sách đội thi đấu</text></g></g><g><path d=" M 522 401 L 379 262" fill="none" paint-order="fill stroke markers" stroke="#000000" stroke-dasharray="" stroke-miterlimit="10"/></g><g><path d=" M 399.4427122546671 270.1299148625853 L 379 262 L 387.706462531317 282.20389839092377" fill="#FFFFFF" paint-order="stroke fill markers" stroke="none"/></g><g><path d=" M 399.4427122546671 270.1299148625853 L 379 262 L 387.706462531317 282.20389839092377 L 399.4427122546671 270.1299148625853" fill="none" paint-order="fill stroke markers" stroke="#000000" stroke-dasharray="" stroke-miterlimit="10"/></g><g><path d=" M 614 329 L 416 262" fill="none" paint-order="fill stroke markers" stroke="#000000" stroke-dasharray="" stroke-miterlimit="10"/></g><g><path d=" M 437.9515046864259 260.5400541099683 L 416 262 L 432.55439546002685 276.48972018201323" fill="#FFFFFF" paint-order="stroke fill markers" stroke="none"/></g><g><path d=" M 437.9515046864259 260.5400541099683 L 416 262 L 432.55439546002685 276.48972018201323 L 437.9515046864259 260.5400541099683" fill="none" paint-order="fill stroke markers" stroke="#000000" stroke-dasharray="" stroke-miterlimit="10"/></g><g><path d=" M 625 281 L 439 254" fill="none" paint-order="fill stroke markers" stroke="#000000" stroke-dasharray="" stroke-miterlimit="10"/></g><g><path d=" M 460.32397176511074 248.5881400460877 L 439 254 L 457.90508790918364 265.25156216469696" fill="#FFFFFF" paint-order="stroke fill markers" stroke="none"/></g><g><path d=" M 460.32397176511074 248.5881400460877 L 439 254 L 457.90508790918364 265.25156216469696 L 460.32397176511074 248.5881400460877" fill="none" paint-order="fill stroke markers" stroke="#000000" stroke-dasharray="" stroke-miterlimit="10"/></g><g><path d=" M 298 329 L 346 262" fill="none" paint-order="fill stroke markers" stroke="#000000" stroke-dasharray="" stroke-miterlimit="10"/></g><g><path d=" M 341.00675666746724 283.4258610333895 L 346 262 L 327.3188721499813 273.6196154089219" fill="#FFFFFF" paint-order="stroke fill markers" stroke="none"/></g><g><path d=" M 341.00675666746724 283.4258610333895 L 346 262 L 327.3188721499813 273.6196154089219 L 341.00675666746724 283.4258610333895" fill="none" paint-order="fill stroke markers" stroke="#000000" stroke-dasharray="" stroke-miterlimit="10"/></g><g><path d=" M 698 489 L 583 438" fill="none" paint-order="fill stroke markers" stroke="#000000" stroke-dasharray="3" stroke-miterlimit="10"/></g><g><path d=" M 593.9966397441367 438.2718719140961 L 583 438 L 590.5835560592731 445.968041007416" fill="none" paint-order="fill stroke markers" stroke="#000000" stroke-dasharray="" stroke-miterlimit="10"/></g><g><rect fill="#ffffff" height="13" stroke="none" transform="matrix(1 0 0 1 -262 -142)" width="53.49169921875" x="832" y="608"/></g><g><g><path fill="none" stroke="none"/><text dominant-baseline="central" fill="#000000" font-family="Arial" font-size="13px" font-style="normal" font-weight="normal" stroke="none" text-anchor="middle" text-decoration="undefined" transform="matrix(1 0 0 1 -262 -142)" x="858.745849609375" y="614.5">«extend»</text></g></g><g><path d=" M 649 206 L 439 233" fill="none" paint-order="fill stroke markers" stroke="#000000" stroke-dasharray="" stroke-miterlimit="10"/></g><g><path d=" M 458.0857989142214 222.05777537216926 L 439 233 L 460.23301907221435 238.75837660100325" fill="#FFFFFF" paint-order="stroke fill markers" stroke="none"/></g><g><path d=" M 458.0857989142214 222.05777537216926 L 439 233 L 460.23301907221435 238.75837660100325 L 458.0857989142214 222.05777537216926" fill="none" paint-order="fill stroke markers" stroke="#000000" stroke-dasharray="" stroke-miterlimit="10"/></g><g><path d=" M 362 46 L 311 113" fill="none" paint-order="fill stroke markers" stroke="#000000" stroke-dasharray="" stroke-miterlimit="10"/></g><g><path d=" M 316.61170379818736 91.72774622938582 L 311 113 L 330.009828702031 101.9263189173862" fill="#FFFFFF" paint-order="stroke fill markers" stroke="none"/></g><g><path d=" M 316.61170379818736 91.72774622938582 L 311 113 L 330.009828702031 101.9263189173862 L 316.61170379818736 91.72774622938582" fill="none" paint-order="fill stroke markers" stroke="#000000" stroke-dasharray="" stroke-miterlimit="10"/></g><g><path d=" M 441 118 L 378 124" fill="none" paint-order="fill stroke markers" stroke="#000000" stroke-dasharray="" stroke-miterlimit="10"/></g><g><path d=" M 397.4355925027198 113.69186030031508 L 378 124 L 399.0319947381171 130.45408377198618" fill="#FFFFFF" paint-order="stroke fill markers" stroke="none"/></g><g><path d=" M 397.4355925027198 113.69186030031508 L 378 124 L 399.0319947381171 130.45408377198618 L 397.4355925027198 113.69186030031508" fill="none" paint-order="fill stroke markers" stroke="#000000" stroke-dasharray="" stroke-miterlimit="10"/></g></g></svg>