<?xml version="1.0" encoding="utf-8"?>
<svg height="1284" version="1.1" width="1316" xmlns="http://www.w3.org/2000/svg" xmlns:xlink="http://www.w3.org/1999/xlink"><defs/><g><g><path d=" M 10 10 L 1306 10 L 1306 1274 L 10 1274 L 10 10" fill="none" paint-order="fill stroke markers" stroke="#000000" stroke-dasharray="" stroke-miterlimit="10"/></g><g><path d=" M 10 10 L 10 33 L 187.3701171875 33 L 198.8701171875 21.5 L 198.8701171875 10 L 10 10" fill="#ffffff" paint-order="stroke fill markers" stroke="none"/></g><g><path d=" M 10 10 L 10 33 L 187.3701171875 33 L 198.8701171875 21.5 L 198.8701171875 10 L 10 10 L 10 10" fill="none" paint-order="fill stroke markers" stroke="#000000" stroke-dasharray="" stroke-miterlimit="10"/></g><g><g><path fill="none" stroke="none"/><text dominant-baseline="central" fill="#000000" font-family="Arial" font-size="13px" font-style="normal" font-weight="normal" stroke="none" text-anchor="middle" text-decoration="undefined" transform="matrix(1 0 0 1 -598 2)" x="706.550048828125" y="19.5">SDXemDienBienTranDau</text></g></g><g><g><path fill="none" stroke="none"/><text dominant-baseline="central" fill="#000000" font-family="Arial" font-size="13px" font-style="normal" font-weight="bold" stroke="none" text-anchor="middle" text-decoration="undefined" transform="matrix(1 0 0 1 -598 2)" x="619.864990234375" y="19.5">sd</text></g></g><g><path d=" M 117.11924893465903 49.3 C 117.11924893465903 45.82060576 119.99765065684096 43 123.54833984375 43 C 127.09902903065904 43 129.97743075284086 45.82060576 129.97743075284086 49.3 C 129.97743075284086 52.779394239999995 127.09902903065904 55.6 123.54833984375 55.6 C 119.99765065684096 55.6 117.11924893465903 52.779394239999995 117.11924893465903 49.3 Z" fill="#ffffff" paint-order="stroke fill markers" stroke="none"/></g><g><path d=" M 117.11924893465903 49.3 C 117.11924893465903 45.82060576 119.99765065684096 43 123.54833984375 43 C 127.09902903065904 43 129.97743075284086 45.82060576 129.97743075284086 49.3 C 129.97743075284086 52.779394239999995 127.09902903065904 55.6 123.54833984375 55.6 C 119.99765065684096 55.6 117.11924893465903 52.779394239999995 117.11924893465903 49.3 Z" fill="none" paint-order="fill stroke markers" stroke="#000000" stroke-dasharray="" stroke-miterlimit="10"/></g><g><path d=" M 123.54833984375 55.6 L 123.54833984375 68.4" fill="none" paint-order="fill stroke markers" stroke="#000000" stroke-dasharray="" stroke-miterlimit="10"/></g><g><path d=" M 116.74106711647721 60.4 L 130.35561257102268 60.4" fill="none" paint-order="fill stroke markers" stroke="#000000" stroke-dasharray="" stroke-miterlimit="10"/></g><g><path d=" M 123.54833984375 68.4 L 114.0937943892045 81" fill="none" paint-order="fill stroke markers" stroke="#000000" stroke-dasharray="" stroke-miterlimit="10"/></g><g><path d=" M 123.54833984375 68.4 L 133.00288529829538 81" fill="none" paint-order="fill stroke markers" stroke="#000000" stroke-dasharray="" stroke-miterlimit="10"/></g><g><g><path fill="none" stroke="none"/><text dominant-baseline="central" fill="#000000" font-family="Arial" font-size="13px" font-style="normal" font-weight="bold" stroke="none" text-anchor="middle" text-decoration="undefined" transform="matrix(1 0 0 1 -598 2)" x="722.04833984375" y="93.5">Actor: Người Dùng</text></g></g><g><path d=" M 124.5 108 L 124.5 1218" fill="none" paint-order="fill stroke markers" stroke="#000000" stroke-dasharray="3" stroke-miterlimit="10"/></g><g><rect fill="#C0C0C0" fill-opacity="0.2" height="40" stroke="none" transform="matrix(1 0 0 1 -598 2)" width="104.50634765625" x="990" y="47"/></g><g><rect fill="#ffffff" height="40" stroke="none" transform="matrix(1 0 0 1 -598 2)" width="104.50634765625" x="983" y="40"/></g><g><path d=" M 385 42 L 489.50634765625 42 L 489.50634765625 82 L 385 82 L 385 42 Z Z" fill="none" paint-order="fill stroke markers" stroke="#000000" stroke-dasharray="" stroke-miterlimit="10"/></g><g><g><path fill="none" stroke="none"/><text dominant-baseline="central" fill="#000000" font-family="Arial" font-size="13px" font-style="normal" font-weight="bold" stroke="none" text-anchor="middle" text-decoration="undefined" transform="matrix(1 0 0 1 -598 2)" x="1035.753173828125" y="53.5">: GiaoDien</text></g></g><g><path d=" M 437.5 83 L 437.5 1218" fill="none" paint-order="fill stroke markers" stroke="#000000" stroke-dasharray="3" stroke-miterlimit="10"/></g><g><rect fill="#C0C0C0" fill-opacity="0.2" height="40" stroke="none" transform="matrix(1 0 0 1 -598 2)" width="176.74267578125" x="1359" y="47"/></g><g><rect fill="#ffffff" height="40" stroke="none" transform="matrix(1 0 0 1 -598 2)" width="176.74267578125" x="1352" y="40"/></g><g><path d=" M 754 42 L 930.74267578125 42 L 930.74267578125 82 L 754 82 L 754 42 Z Z" fill="none" paint-order="fill stroke markers" stroke="#000000" stroke-dasharray="" stroke-miterlimit="10"/></g><g><g><path fill="none" stroke="none"/><text dominant-baseline="central" fill="#000000" font-family="Arial" font-size="13px" font-style="normal" font-weight="bold" stroke="none" text-anchor="middle" text-decoration="undefined" transform="matrix(1 0 0 1 -598 2)" x="1440.871337890625" y="53.5">trandauloai: TranDauLoai</text></g></g><g><path d=" M 842.5 83 L 842.5 1218" fill="none" paint-order="fill stroke markers" stroke="#000000" stroke-dasharray="3" stroke-miterlimit="10"/></g><g><g><path fill="none" stroke="none"/><text dominant-baseline="text-before-edge" fill="#000000" font-family="Arial" font-size="13px" font-style="normal" font-weight="normal" stroke="none" text-anchor="start" text-decoration="undefined" transform="matrix(1 0 0 1 -598 2)" x="837" y="349">[CN == "timKiem"]</text></g></g><g><g><path fill="none" stroke="none"/><text dominant-baseline="text-before-edge" fill="#000000" font-family="Arial" font-size="13px" font-style="normal" font-weight="normal" stroke="none" text-anchor="start" text-decoration="undefined" transform="matrix(1 0 0 1 -598 2)" x="861" y="637">[dsTimKiem.length &gt; 0]</text></g></g><g><g><path fill="none" stroke="none"/><text dominant-baseline="text-before-edge" fill="#000000" font-family="Arial" font-size="13px" font-style="normal" font-weight="normal" stroke="none" text-anchor="start" text-decoration="undefined" transform="matrix(1 0 0 1 -598 2)" x="733" y="725">[else]</text></g></g><g><path d=" M 706 730 L 823 730 L 833 740 L 833 780 L 706 780 L 706 730" fill="#ffffff" paint-order="stroke fill markers" stroke="none"/></g><g><path d=" M 706 730 L 823 730 L 833 740 L 833 780 L 706 780 L 706 730 L 706 730" fill="none" paint-order="fill stroke markers" stroke="#000000" stroke-dasharray="" stroke-miterlimit="10"/></g><g><path d=" M 823 730 L 823 740 L 833 740 L 823 730" fill="none" paint-order="fill stroke markers" stroke="#000000" stroke-dasharray="" stroke-miterlimit="10"/></g><g><g><path fill="none" stroke="none"/><text dominant-baseline="text-before-edge" fill="#000000" font-family="Arial" font-size="13px" font-style="normal" font-weight="normal" stroke="none" text-anchor="start" text-decoration="undefined" transform="matrix(1 0 0 1 -598 2)" x="1309" y="733">Hiển thị lại giao diện</text><text dominant-baseline="text-before-edge" fill="#000000" font-family="Arial" font-size="13px" font-style="normal" font-weight="normal" stroke="none" text-anchor="start" text-decoration="undefined" transform="matrix(1 0 0 1 -598 2)" x="1309" y="746">trận đấu loại và đặt</text><text dominant-baseline="text-before-edge" fill="#000000" font-family="Arial" font-size="13px" font-style="normal" font-weight="normal" stroke="none" text-anchor="start" text-decoration="undefined" transform="matrix(1 0 0 1 -598 2)" x="1309" y="759">CN = Null</text></g></g><g><path d=" M 468 812 L 705 767" fill="none" paint-order="fill stroke markers" stroke="#000000" stroke-dasharray="3" stroke-miterlimit="10"/></g><g><rect fill="#C0C0C0" fill-opacity="0.2" height="40" stroke="none" transform="matrix(1 0 0 1 -598 2)" width="237.41357421875" x="1647" y="47"/></g><g><rect fill="#ffffff" height="40" stroke="none" transform="matrix(1 0 0 1 -598 2)" width="237.41357421875" x="1640" y="40"/></g><g><path d=" M 1042 42 L 1279.41357421875 42 L 1279.41357421875 82 L 1042 82 L 1042 42 Z Z" fill="none" paint-order="fill stroke markers" stroke="#000000" stroke-dasharray="" stroke-miterlimit="10"/></g><g><g><path fill="none" stroke="none"/><text dominant-baseline="central" fill="#000000" font-family="Arial" font-size="13px" font-style="normal" font-weight="bold" stroke="none" text-anchor="middle" text-decoration="undefined" transform="matrix(1 0 0 1 -598 2)" x="1759.206787109375" y="53.5">dienbientrandau: DienBienTranDau</text></g></g><g><path d=" M 1161.5 83 L 1161.5 1218" fill="none" paint-order="fill stroke markers" stroke="#000000" stroke-dasharray="3" stroke-miterlimit="10"/></g><g><path d=" M 125 130 L 430 130" fill="none" paint-order="fill stroke markers" stroke="#000000" stroke-dasharray="" stroke-miterlimit="10"/></g><g><path d=" M 419.8373251423759 134.209517756016 L 430 130 L 419.8373251423758 125.79048224398402" fill="#000000" paint-order="stroke fill markers" stroke="none"/></g><g><path d=" M 419.8373251423759 134.209517756016 L 430 130 L 419.8373251423758 125.79048224398402 L 419.8373251423759 134.209517756016" fill="none" paint-order="fill stroke markers" stroke="#000000" stroke-dasharray="" stroke-miterlimit="10"/></g><g><rect fill="#ffffff" height="13" stroke="none" transform="matrix(1 0 0 1 -598 2)" width="252.255859375" x="750" y="112"/></g><g><g><path fill="none" stroke="none"/><text dominant-baseline="central" fill="#000000" font-family="Arial" font-size="13px" font-style="normal" font-weight="normal" stroke="none" text-anchor="middle" text-decoration="undefined" transform="matrix(1 0 0 1 -598 2)" x="876.1279296875" y="118.5">1 : Chọn chức năng Xem diễn biển trận đấu</text></g></g><g><rect fill="#ffffff" height="48" stroke="none" transform="matrix(1 0 0 1 -598 2)" width="14" x="1028" y="128"/></g><g><path d=" M 430 130 L 444 130 L 444 178 L 430 178 L 430 130 Z Z" fill="none" paint-order="fill stroke markers" stroke="#000000" stroke-dasharray="" stroke-miterlimit="10"/></g><g><path d=" M 444 146 L 835 146" fill="none" paint-order="fill stroke markers" stroke="#000000" stroke-dasharray="" stroke-miterlimit="10"/></g><g><path d=" M 824.8373251423759 150.209517756016 L 835 146 L 824.8373251423759 141.790482243984" fill="#000000" paint-order="stroke fill markers" stroke="none"/></g><g><path d=" M 824.8373251423759 150.209517756016 L 835 146 L 824.8373251423759 141.790482243984 L 824.8373251423759 150.209517756016" fill="none" paint-order="fill stroke markers" stroke="#000000" stroke-dasharray="" stroke-miterlimit="10"/></g><g><rect fill="#ffffff" height="13" stroke="none" transform="matrix(1 0 0 1 -598 2)" width="239.2939453125" x="1118" y="128"/></g><g><g><path fill="none" stroke="none"/><text dominant-baseline="central" fill="#000000" font-family="Arial" font-size="13px" font-style="normal" font-weight="normal" stroke="none" text-anchor="middle" text-decoration="undefined" transform="matrix(1 0 0 1 -598 2)" x="1237.64697265625" y="134.5">2 : dsTranDauLoai = layDSTranDauLoai()</text></g></g><g><rect fill="#ffffff" height="32" stroke="none" transform="matrix(1 0 0 1 -598 2)" width="14" x="1433" y="144"/></g><g><path d=" M 835 146 L 849 146 L 849 178 L 835 178 L 835 146 Z Z" fill="none" paint-order="fill stroke markers" stroke="#000000" stroke-dasharray="" stroke-miterlimit="10"/></g><g><path d=" M 835 170 L 444 170" fill="none" paint-order="fill stroke markers" stroke="#000000" stroke-dasharray="3" stroke-miterlimit="10"/></g><g><path d=" M 454.1626748576241 165.790482243984 L 444 170 L 454.1626748576241 174.209517756016" fill="none" paint-order="fill stroke markers" stroke="#000000" stroke-dasharray="" stroke-miterlimit="10"/></g><g><rect fill="#ffffff" height="13" stroke="none" transform="matrix(1 0 0 1 -598 2)" width="146.4404296875" x="1163" y="172"/></g><g><g><path fill="none" stroke="none"/><text dominant-baseline="central" fill="#000000" font-family="Arial" font-size="13px" font-style="normal" font-weight="normal" stroke="none" text-anchor="middle" text-decoration="undefined" transform="matrix(1 0 0 1 -598 2)" x="1236.22021484375" y="178.5">3 : Trả về dsTranDauLoai</text></g></g><g><path d=" M 438 218 L 468 218 L 468 238 L 444 238" fill="none" paint-order="fill stroke markers" stroke="#000000" stroke-dasharray="" stroke-miterlimit="10"/></g><g><path d=" M 454.1626748576241 233.790482243984 L 444 238 L 454.1626748576241 242.209517756016" fill="#000000" paint-order="stroke fill markers" stroke="none"/></g><g><path d=" M 454.1626748576241 233.790482243984 L 444 238 L 454.1626748576241 242.209517756016 L 454.1626748576241 233.790482243984" fill="none" paint-order="fill stroke markers" stroke="#000000" stroke-dasharray="" stroke-miterlimit="10"/></g><g><rect fill="#ffffff" height="13" stroke="none" transform="matrix(1 0 0 1 -598 2)" width="290.748046875" x="1071" y="219"/></g><g><g><path fill="none" stroke="none"/><text dominant-baseline="central" fill="#000000" font-family="Arial" font-size="13px" font-style="normal" font-weight="normal" stroke="none" text-anchor="middle" text-decoration="undefined" transform="matrix(1 0 0 1 -598 2)" x="1216.3740234375" y="225.5">4 : Hiển thị giao diện trận đấu loại(dsTranDauLoai)</text></g></g><g><rect fill="#ffffff" height="28" stroke="none" transform="matrix(1 0 0 1 -598 2)" width="14" x="1028" y="236"/></g><g><path d=" M 430 238 L 444 238 L 444 266 L 430 266 L 430 238 Z Z" fill="none" paint-order="fill stroke markers" stroke="#000000" stroke-dasharray="" stroke-miterlimit="10"/></g><g><path d=" M 125 298 L 430 298" fill="none" paint-order="fill stroke markers" stroke="#000000" stroke-dasharray="" stroke-miterlimit="10"/></g><g><path d=" M 419.8373251423759 302.209517756016 L 430 298 L 419.8373251423758 293.790482243984" fill="#000000" paint-order="stroke fill markers" stroke="none"/></g><g><path d=" M 419.8373251423759 302.209517756016 L 430 298 L 419.8373251423758 293.790482243984 L 419.8373251423759 302.209517756016" fill="none" paint-order="fill stroke markers" stroke="#000000" stroke-dasharray="" stroke-miterlimit="10"/></g><g><rect fill="#ffffff" height="13" stroke="none" transform="matrix(1 0 0 1 -598 2)" width="231.30859375" x="760" y="280"/></g><g><g><path fill="none" stroke="none"/><text dominant-baseline="central" fill="#000000" font-family="Arial" font-size="13px" font-style="normal" font-weight="normal" stroke="none" text-anchor="middle" text-decoration="undefined" transform="matrix(1 0 0 1 -598 2)" x="875.654296875" y="286.5">5 : Chọn chức năng cần thực hiện [CN]</text></g></g><g><rect fill="#ffffff" height="28" stroke="none" transform="matrix(1 0 0 1 -598 2)" width="14" x="1028" y="296"/></g><g><path d=" M 430 298 L 444 298 L 444 326 L 430 326 L 430 298 Z Z" fill="none" paint-order="fill stroke markers" stroke="#000000" stroke-dasharray="" stroke-miterlimit="10"/></g><g><path d=" M 438 370 L 468 370 L 468 390 L 444 390" fill="none" paint-order="fill stroke markers" stroke="#000000" stroke-dasharray="" stroke-miterlimit="10"/></g><g><path d=" M 454.1626748576241 385.790482243984 L 444 390 L 454.1626748576241 394.209517756016" fill="#000000" paint-order="stroke fill markers" stroke="none"/></g><g><path d=" M 454.1626748576241 385.790482243984 L 444 390 L 454.1626748576241 394.209517756016 L 454.1626748576241 385.790482243984" fill="none" paint-order="fill stroke markers" stroke="#000000" stroke-dasharray="" stroke-miterlimit="10"/></g><g><rect fill="#ffffff" height="13" stroke="none" transform="matrix(1 0 0 1 -598 2)" width="171.2470703125" x="990" y="371"/></g><g><g><path fill="none" stroke="none"/><text dominant-baseline="central" fill="#000000" font-family="Arial" font-size="13px" font-style="normal" font-weight="normal" stroke="none" text-anchor="middle" text-decoration="undefined" transform="matrix(1 0 0 1 -598 2)" x="1075.62353515625" y="377.5">6 : Hiển thị giao diện tìm kiếm</text></g></g><g><rect fill="#ffffff" height="28" stroke="none" transform="matrix(1 0 0 1 -598 2)" width="14" x="1028" y="388"/></g><g><path d=" M 430 390 L 444 390 L 444 418 L 430 418 L 430 390 Z Z" fill="none" paint-order="fill stroke markers" stroke="#000000" stroke-dasharray="" stroke-miterlimit="10"/></g><g><path d=" M 125 448 L 430 448" fill="none" paint-order="fill stroke markers" stroke="#000000" stroke-dasharray="" stroke-miterlimit="10"/></g><g><path d=" M 419.8373251423759 452.209517756016 L 430 448 L 419.8373251423758 443.790482243984" fill="#000000" paint-order="stroke fill markers" stroke="none"/></g><g><path d=" M 419.8373251423759 452.209517756016 L 430 448 L 419.8373251423758 443.790482243984 L 419.8373251423759 452.209517756016" fill="none" paint-order="fill stroke markers" stroke="#000000" stroke-dasharray="" stroke-miterlimit="10"/></g><g><rect fill="#ffffff" height="13" stroke="none" transform="matrix(1 0 0 1 -598 2)" width="195.14599609375" x="778" y="430"/></g><g><g><path fill="none" stroke="none"/><text dominant-baseline="central" fill="#000000" font-family="Arial" font-size="13px" font-style="normal" font-weight="normal" stroke="none" text-anchor="middle" text-decoration="undefined" transform="matrix(1 0 0 1 -598 2)" x="875.572998046875" y="436.5">7 : Nhập từ khóa cần tìm [tuKhoa]</text></g></g><g><rect fill="#ffffff" height="28" stroke="none" transform="matrix(1 0 0 1 -598 2)" width="14" x="1028" y="446"/></g><g><path d=" M 430 448 L 444 448 L 444 476 L 430 476 L 430 448 Z Z" fill="none" paint-order="fill stroke markers" stroke="#000000" stroke-dasharray="" stroke-miterlimit="10"/></g><g><path d=" M 125 510 L 430 510" fill="none" paint-order="fill stroke markers" stroke="#000000" stroke-dasharray="" stroke-miterlimit="10"/></g><g><path d=" M 419.8373251423759 514.209517756016 L 430 510 L 419.8373251423758 505.790482243984" fill="#000000" paint-order="stroke fill markers" stroke="none"/></g><g><path d=" M 419.8373251423759 514.209517756016 L 430 510 L 419.8373251423758 505.790482243984 L 419.8373251423759 514.209517756016" fill="none" paint-order="fill stroke markers" stroke="#000000" stroke-dasharray="" stroke-miterlimit="10"/></g><g><rect fill="#ffffff" height="13" stroke="none" transform="matrix(1 0 0 1 -598 2)" width="101.8671875" x="825" y="492"/></g><g><g><path fill="none" stroke="none"/><text dominant-baseline="central" fill="#000000" font-family="Arial" font-size="13px" font-style="normal" font-weight="normal" stroke="none" text-anchor="middle" text-decoration="undefined" transform="matrix(1 0 0 1 -598 2)" x="875.93359375" y="498.5">8 : Nhấn tìm kiếm</text></g></g><g><rect fill="#ffffff" height="36" stroke="none" transform="matrix(1 0 0 1 -598 2)" width="14" x="1028" y="508"/></g><g><path d=" M 430 510 L 444 510 L 444 546 L 430 546 L 430 510 Z Z" fill="none" paint-order="fill stroke markers" stroke="#000000" stroke-dasharray="" stroke-miterlimit="10"/></g><g><path d=" M 444 514 L 835 514" fill="none" paint-order="fill stroke markers" stroke="#000000" stroke-dasharray="" stroke-miterlimit="10"/></g><g><path d=" M 824.8373251423759 518.209517756016 L 835 514 L 824.8373251423759 509.790482243984" fill="#000000" paint-order="stroke fill markers" stroke="none"/></g><g><path d=" M 824.8373251423759 518.209517756016 L 835 514 L 824.8373251423759 509.790482243984 L 824.8373251423759 518.209517756016" fill="none" paint-order="fill stroke markers" stroke="#000000" stroke-dasharray="" stroke-miterlimit="10"/></g><g><rect fill="#ffffff" height="13" stroke="none" transform="matrix(1 0 0 1 -598 2)" width="256.61669921875" x="1109" y="496"/></g><g><g><path fill="none" stroke="none"/><text dominant-baseline="central" fill="#000000" font-family="Arial" font-size="13px" font-style="normal" font-weight="normal" stroke="none" text-anchor="middle" text-decoration="undefined" transform="matrix(1 0 0 1 -598 2)" x="1237.308349609375" y="502.5">9 : dsTimKiem = layDSTranDauLoai(tuKhoa)</text></g></g><g><rect fill="#ffffff" height="28" stroke="none" transform="matrix(1 0 0 1 -598 2)" width="14" x="1433" y="512"/></g><g><path d=" M 835 514 L 849 514 L 849 542 L 835 542 L 835 514 Z Z" fill="none" paint-order="fill stroke markers" stroke="#000000" stroke-dasharray="" stroke-miterlimit="10"/></g><g><path d=" M 835 538 L 444 538" fill="none" paint-order="fill stroke markers" stroke="#000000" stroke-dasharray="3" stroke-miterlimit="10"/></g><g><path d=" M 454.1626748576241 533.790482243984 L 444 538 L 454.1626748576241 542.209517756016" fill="none" paint-order="fill stroke markers" stroke="#000000" stroke-dasharray="" stroke-miterlimit="10"/></g><g><rect fill="#ffffff" height="13" stroke="none" transform="matrix(1 0 0 1 -598 2)" width="129.79052734375" x="1172" y="540"/></g><g><g><path fill="none" stroke="none"/><text dominant-baseline="central" fill="#000000" font-family="Arial" font-size="13px" font-style="normal" font-weight="normal" stroke="none" text-anchor="middle" text-decoration="undefined" transform="matrix(1 0 0 1 -598 2)" x="1236.895263671875" y="546.5">10 : Trả về dsTimKiem</text></g></g><g><path d=" M 438 658 L 468 658 L 468 678 L 444 678" fill="none" paint-order="fill stroke markers" stroke="#000000" stroke-dasharray="" stroke-miterlimit="10"/></g><g><path d=" M 454.1626748576241 673.790482243984 L 444 678 L 454.1626748576241 682.209517756016" fill="#000000" paint-order="stroke fill markers" stroke="none"/></g><g><path d=" M 454.1626748576241 673.790482243984 L 444 678 L 454.1626748576241 682.209517756016 L 454.1626748576241 673.790482243984" fill="none" paint-order="fill stroke markers" stroke="#000000" stroke-dasharray="" stroke-miterlimit="10"/></g><g><rect fill="#ffffff" height="13" stroke="none" transform="matrix(1 0 0 1 -598 2)" width="329.51318359375" x="1039" y="659"/></g><g><g><path fill="none" stroke="none"/><text dominant-baseline="central" fill="#000000" font-family="Arial" font-size="13px" font-style="normal" font-weight="normal" stroke="none" text-anchor="middle" text-decoration="undefined" transform="matrix(1 0 0 1 -598 2)" x="1203.756591796875" y="665.5">11 : Hiển thị giao diện trận đấu loại(dsTimKiem)</text></g></g><g><rect fill="#ffffff" height="28" stroke="none" transform="matrix(1 0 0 1 -598 2)" width="14" x="1028" y="676"/></g><g><path d=" M 430 678 L 444 678 L 444 706 L 430 706 L 430 678 Z Z" fill="none" paint-order="fill stroke markers" stroke="#000000" stroke-dasharray="" stroke-miterlimit="10"/></g><g><path d=" M 437 773 L 125 773" fill="none" paint-order="fill stroke markers" stroke="#000000" stroke-dasharray="3" stroke-miterlimit="10"/></g><g><path d=" M 135.1626748576241 768.790482243984 L 125 773 L 135.1626748576241 777.209517756016" fill="none" paint-order="fill stroke markers" stroke="#000000" stroke-dasharray="" stroke-miterlimit="10"/></g><g><rect fill="#ffffff" height="13" stroke="none" transform="matrix(1 0 0 1 -598 2)" width="219.69873046875" x="769" y="775"/></g><g><g><path fill="none" stroke="none"/><text dominant-baseline="central" fill="#000000" font-family="Arial" font-size="13px" font-style="normal" font-weight="normal" stroke="none" text-anchor="middle" text-decoration="undefined" transform="matrix(1 0 0 1 -598 2)" x="878.849365234375" y="781.5">12 : Hiển thị thông báo không tìm thấy</text></g></g><g><path d=" M 438 802 L 468 802 L 468 822 L 444 822" fill="none" paint-order="fill stroke markers" stroke="#000000" stroke-dasharray="" stroke-miterlimit="10"/></g><g><path d=" M 454.1626748576241 817.790482243984 L 444 822 L 454.1626748576241 826.209517756016" fill="#000000" paint-order="stroke fill markers" stroke="none"/></g><g><path d=" M 454.1626748576241 817.790482243984 L 444 822 L 454.1626748576241 826.209517756016 L 454.1626748576241 817.790482243984" fill="none" paint-order="fill stroke markers" stroke="#000000" stroke-dasharray="" stroke-miterlimit="10"/></g><g><rect fill="#ffffff" height="13" stroke="none" transform="matrix(1 0 0 1 -598 2)" width="297.97802734375" x="1070" y="808"/></g><g><g><path fill="none" stroke="none"/><text dominant-baseline="central" fill="#000000" font-family="Arial" font-size="13px" font-style="normal" font-weight="normal" stroke="none" text-anchor="middle" text-decoration="undefined" transform="matrix(1 0 0 1 -598 2)" x="1218.989013671875" y="814.5">13 : Hiển thị giao diễn trận đấu loại(dsTranDauLoai)</text></g></g><g><rect fill="#ffffff" height="28" stroke="none" transform="matrix(1 0 0 1 -598 2)" width="14" x="1028" y="820"/></g><g><path d=" M 430 822 L 444 822 L 444 850 L 430 850 L 430 822 Z Z" fill="none" paint-order="fill stroke markers" stroke="#000000" stroke-dasharray="" stroke-miterlimit="10"/></g><g><path d=" M 125 921 L 430 921" fill="none" paint-order="fill stroke markers" stroke="#000000" stroke-dasharray="" stroke-miterlimit="10"/></g><g><path d=" M 419.8373251423759 925.209517756016 L 430 921 L 419.8373251423758 916.790482243984" fill="#000000" paint-order="stroke fill markers" stroke="none"/></g><g><path d=" M 419.8373251423759 925.209517756016 L 430 921 L 419.8373251423758 916.790482243984 L 419.8373251423759 925.209517756016" fill="none" paint-order="fill stroke markers" stroke="#000000" stroke-dasharray="" stroke-miterlimit="10"/></g><g><rect fill="#ffffff" height="13" stroke="none" transform="matrix(1 0 0 1 -598 2)" width="266.1826171875" x="742" y="903"/></g><g><g><path fill="none" stroke="none"/><text dominant-baseline="central" fill="#000000" font-family="Arial" font-size="13px" font-style="normal" font-weight="normal" stroke="none" text-anchor="middle" text-decoration="undefined" transform="matrix(1 0 0 1 -598 2)" x="875.09130859375" y="909.5">14 : Chọn vào trận đấu loại cụ thể [idTranDau]</text></g></g><g><rect fill="#ffffff" height="81" stroke="none" transform="matrix(1 0 0 1 -598 2)" width="14" x="1028" y="919"/></g><g><path d=" M 430 921 L 444 921 L 444 1002 L 430 1002 L 430 921 Z Z" fill="none" paint-order="fill stroke markers" stroke="#000000" stroke-dasharray="" stroke-miterlimit="10"/></g><g><path d=" M 444 938 L 1154 938" fill="none" paint-order="fill stroke markers" stroke="#000000" stroke-dasharray="" stroke-miterlimit="10"/></g><g><path d=" M 1143.837325142376 942.209517756016 L 1154 938 L 1143.837325142376 933.790482243984" fill="#000000" paint-order="stroke fill markers" stroke="none"/></g><g><path d=" M 1143.837325142376 942.209517756016 L 1154 938 L 1143.837325142376 933.790482243984 L 1143.837325142376 942.209517756016" fill="none" paint-order="fill stroke markers" stroke="#000000" stroke-dasharray="" stroke-miterlimit="10"/></g><g><rect fill="#ffffff" height="13" stroke="none" transform="matrix(1 0 0 1 -598 2)" width="275.716796875" x="1260" y="920"/></g><g><g><path fill="none" stroke="none"/><text dominant-baseline="central" fill="#000000" font-family="Arial" font-size="13px" font-style="normal" font-weight="normal" stroke="none" text-anchor="middle" text-decoration="undefined" transform="matrix(1 0 0 1 -598 2)" x="1397.8583984375" y="926.5">15 : dienbientrandau = layDienBien(idTranDau)</text></g></g><g><rect fill="#ffffff" height="40" stroke="none" transform="matrix(1 0 0 1 -598 2)" width="14" x="1752" y="936"/></g><g><path d=" M 1154 938 L 1168 938 L 1168 978 L 1154 978 L 1154 938 Z Z" fill="none" paint-order="fill stroke markers" stroke="#000000" stroke-dasharray="" stroke-miterlimit="10"/></g><g><path d=" M 1154 970 L 444 970" fill="none" paint-order="fill stroke markers" stroke="#000000" stroke-dasharray="3" stroke-miterlimit="10"/></g><g><path d=" M 454.1626748576241 965.790482243984 L 444 970 L 454.1626748576241 974.209517756016" fill="none" paint-order="fill stroke markers" stroke="#000000" stroke-dasharray="" stroke-miterlimit="10"/></g><g><rect fill="#ffffff" height="13" stroke="none" transform="matrix(1 0 0 1 -598 2)" width="158.513671875" x="1317" y="972"/></g><g><g><path fill="none" stroke="none"/><text dominant-baseline="central" fill="#000000" font-family="Arial" font-size="13px" font-style="normal" font-weight="normal" stroke="none" text-anchor="middle" text-decoration="undefined" transform="matrix(1 0 0 1 -598 2)" x="1396.2568359375" y="978.5">16 : Trả về dienbientrandau</text></g></g><g><path d=" M 438 1034 L 468 1034 L 468 1054 L 444 1054" fill="none" paint-order="fill stroke markers" stroke="#000000" stroke-dasharray="" stroke-miterlimit="10"/></g><g><path d=" M 454.1626748576241 1049.7904822439841 L 444 1054 L 454.1626748576241 1058.2095177560159" fill="#000000" paint-order="stroke fill markers" stroke="none"/></g><g><path d=" M 454.1626748576241 1049.7904822439841 L 444 1054 L 454.1626748576241 1058.2095177560159 L 454.1626748576241 1049.7904822439841" fill="none" paint-order="fill stroke markers" stroke="#000000" stroke-dasharray="" stroke-miterlimit="10"/></g><g><rect fill="#ffffff" height="13" stroke="none" transform="matrix(1 0 0 1 -598 2)" width="333.88037109375" x="1071" y="1035"/></g><g><g><path fill="none" stroke="none"/><text dominant-baseline="central" fill="#000000" font-family="Arial" font-size="13px" font-style="normal" font-weight="normal" stroke="none" text-anchor="middle" text-decoration="undefined" transform="matrix(1 0 0 1 -598 2)" x="1237.940185546875" y="1041.5">17 : Hiển thị giao diện diễn biến trân đấu loại(dienBienTD)</text></g></g><g><rect fill="#ffffff" height="28" stroke="none" transform="matrix(1 0 0 1 -598 2)" width="14" x="1028" y="1052"/></g><g><path d=" M 430 1054 L 444 1054 L 444 1082 L 430 1082 L 430 1054 Z Z" fill="none" paint-order="fill stroke markers" stroke="#000000" stroke-dasharray="" stroke-miterlimit="10"/></g><g><path d=" M 74 346 L 1258 346 L 1258 882 L 74 882 L 74 346" fill="none" paint-order="fill stroke markers" stroke="#000000" stroke-dasharray="" stroke-miterlimit="10"/></g><g><path d=" M 74 346 L 74 369 L 225.14794921875 369 L 236.64794921875 357.5 L 236.64794921875 346 L 74 346" fill="#ffffff" paint-order="stroke fill markers" stroke="none"/></g><g><path d=" M 74 346 L 74 369 L 225.14794921875 369 L 236.64794921875 357.5 L 236.64794921875 346 L 74 346 L 74 346" fill="none" paint-order="fill stroke markers" stroke="#000000" stroke-dasharray="" stroke-miterlimit="10"/></g><g><g><path fill="none" stroke="none"/><text dominant-baseline="central" fill="#000000" font-family="Arial" font-size="13px" font-style="normal" font-weight="normal" stroke="none" text-anchor="middle" text-decoration="undefined" transform="matrix(1 0 0 1 -598 2)" x="759.60986328125" y="355.5">Chức năng tìm kiếm</text></g></g><g><g><path fill="none" stroke="none"/><text dominant-baseline="central" fill="#000000" font-family="Arial" font-size="13px" font-style="normal" font-weight="bold" stroke="none" text-anchor="middle" text-decoration="undefined" transform="matrix(1 0 0 1 -598 2)" x="686.035888671875" y="355.5">opt</text></g></g><g><path d=" M 106 626 L 1218 626 L 1218 858 L 106 858 L 106 626" fill="none" paint-order="fill stroke markers" stroke="#000000" stroke-dasharray="" stroke-miterlimit="10"/></g><g><path d=" M 106 626 L 106 649 L 237.60986328125 649 L 249.10986328125 637.5 L 249.10986328125 626 L 106 626" fill="#ffffff" paint-order="stroke fill markers" stroke="none"/></g><g><path d=" M 106 626 L 106 649 L 237.60986328125 649 L 249.10986328125 637.5 L 249.10986328125 626 L 106 626 L 106 626" fill="none" paint-order="fill stroke markers" stroke="#000000" stroke-dasharray="" stroke-miterlimit="10"/></g><g><g><path fill="none" stroke="none"/><text dominant-baseline="central" fill="#000000" font-family="Arial" font-size="13px" font-style="normal" font-weight="normal" stroke="none" text-anchor="middle" text-decoration="undefined" transform="matrix(1 0 0 1 -598 2)" x="779.669921875" y="635.5">Tìm thấy trận đấu</text></g></g><g><g><path fill="none" stroke="none"/><text dominant-baseline="central" fill="#000000" font-family="Arial" font-size="13px" font-style="normal" font-weight="bold" stroke="none" text-anchor="middle" text-decoration="undefined" transform="matrix(1 0 0 1 -598 2)" x="715.864990234375" y="635.5">alt</text></g></g><g><path d=" M 106 722 L 1217 722" fill="none" paint-order="fill stroke markers" stroke="#000000" stroke-dasharray="10,3" stroke-miterlimit="10"/></g></g></svg>