<?xml version="1.0" encoding="utf-8"?>
<svg height="1268" version="1.1" width="1236" xmlns="http://www.w3.org/2000/svg"
    xmlns:xlink="http://www.w3.org/1999/xlink">
    <defs />
    <g>
        <g>
            <path d=" M 10 10 L 1226 10 L 1226 1258 L 10 1258 L 10 10" fill="none" paint-order="fill stroke markers"
                stroke="#000000" stroke-dasharray="" stroke-miterlimit="10" />
        </g>
        <g>
            <path d=" M 10 10 L 10 33 L 133.681640625 33 L 145.181640625 21.5 L 145.181640625 10 L 10 10" fill="#ffffff"
                paint-order="stroke fill markers" stroke="none" />
        </g>
        <g>
            <path d=" M 10 10 L 10 33 L 133.681640625 33 L 145.181640625 21.5 L 145.181640625 10 L 10 10 L 10 10"
                fill="none" paint-order="fill stroke markers" stroke="#000000" stroke-dasharray=""
                stroke-miterlimit="10" />
        </g>
        <g>
            <g>
                <path fill="none" stroke="none" /><text dominant-baseline="central" fill="#000000" font-family="Arial"
                    font-size="13px" font-style="normal" font-weight="normal" stroke="none" text-anchor="middle"
                    text-decoration="undefined" transform="matrix(1 0 0 1 -30 10)" x="111.705810546875"
                    y="11.5">SQTaoTaiKhoan</text>
            </g>
        </g>
        <g>
            <g>
                <path fill="none" stroke="none" /><text dominant-baseline="central" fill="#000000" font-family="Arial"
                    font-size="13px" font-style="normal" font-weight="bold" stroke="none" text-anchor="middle"
                    text-decoration="undefined" transform="matrix(1 0 0 1 -30 10)" x="51.864990234375"
                    y="11.5">sd</text>
            </g>
        </g>
        <g>
            <path
                d=" M 160.6898055752841 57.3 C 160.6898055752841 53.82060576 163.5682072974659 51 167.118896484375 51 C 170.6695856712841 51 173.54798739346592 53.82060576 173.54798739346592 57.3 C 173.54798739346592 60.779394239999995 170.6695856712841 63.6 167.118896484375 63.6 C 163.5682072974659 63.6 160.6898055752841 60.779394239999995 160.6898055752841 57.3 Z"
                fill="#ffffff" paint-order="stroke fill markers" stroke="none" />
        </g>
        <g>
            <path
                d=" M 160.6898055752841 57.3 C 160.6898055752841 53.82060576 163.5682072974659 51 167.118896484375 51 C 170.6695856712841 51 173.54798739346592 53.82060576 173.54798739346592 57.3 C 173.54798739346592 60.779394239999995 170.6695856712841 63.6 167.118896484375 63.6 C 163.5682072974659 63.6 160.6898055752841 60.779394239999995 160.6898055752841 57.3 Z"
                fill="none" paint-order="fill stroke markers" stroke="#000000" stroke-dasharray=""
                stroke-miterlimit="10" />
        </g>
        <g>
            <path d=" M 167.118896484375 63.6 L 167.118896484375 76.4" fill="none" paint-order="fill stroke markers"
                stroke="#000000" stroke-dasharray="" stroke-miterlimit="10" />
        </g>
        <g>
            <path d=" M 160.3116237571023 68.4 L 173.92616921164773 68.4" fill="none" paint-order="fill stroke markers"
                stroke="#000000" stroke-dasharray="" stroke-miterlimit="10" />
        </g>
        <g>
            <path d=" M 167.118896484375 76.4 L 157.66435102982956 89" fill="none" paint-order="fill stroke markers"
                stroke="#000000" stroke-dasharray="" stroke-miterlimit="10" />
        </g>
        <g>
            <path d=" M 167.118896484375 76.4 L 176.57344193892047 89" fill="none" paint-order="fill stroke markers"
                stroke="#000000" stroke-dasharray="" stroke-miterlimit="10" />
        </g>
        <g>
            <g>
                <path fill="none" stroke="none" /><text dominant-baseline="central" fill="#000000" font-family="Arial"
                    font-size="13px" font-style="normal" font-weight="bold" stroke="none" text-anchor="middle"
                    text-decoration="undefined" transform="matrix(1 0 0 1 -30 10)" x="197.618896484375" y="93.5">Actor:
                    Quản Trị Viên</text>
            </g>
        </g>
        <g>
            <path d=" M 167.5 116 L 167.5 1258" fill="none" paint-order="fill stroke markers" stroke="#000000"
                stroke-dasharray="3" stroke-miterlimit="10" />
        </g>
        <g>
            <rect fill="#C0C0C0" fill-opacity="0.2" height="40" stroke="none" transform="matrix(1 0 0 1 -30 10)"
                width="126.18994140625" x="591" y="47" />
        </g>
        <g>
            <rect fill="#ffffff" height="40" stroke="none" transform="matrix(1 0 0 1 -30 10)" width="126.18994140625"
                x="584" y="40" />
        </g>
        <g>
            <path d=" M 554 50 L 680.18994140625 50 L 680.18994140625 90 L 554 90 L 554 50 Z Z" fill="none"
                paint-order="fill stroke markers" stroke="#000000" stroke-dasharray="" stroke-miterlimit="10" />
        </g>
        <g>
            <g>
                <path fill="none" stroke="none" /><text dominant-baseline="central" fill="#000000" font-family="Arial"
                    font-size="13px" font-style="normal" font-weight="bold" stroke="none" text-anchor="middle"
                    text-decoration="undefined" transform="matrix(1 0 0 1 -30 10)" x="647.594970703125" y="53.5">GD:
                    Giao Diện</text>
            </g>
        </g>
        <g>
            <path d=" M 617.5 91 L 617.5 1258" fill="none" paint-order="fill stroke markers" stroke="#000000"
                stroke-dasharray="3" stroke-miterlimit="10" />
        </g>
        <g>
            <rect fill="#C0C0C0" fill-opacity="0.2" height="40" stroke="none" transform="matrix(1 0 0 1 -30 10)"
                width="105.947265625" x="1039" y="47" />
        </g>
        <g>
            <rect fill="#ffffff" height="40" stroke="none" transform="matrix(1 0 0 1 -30 10)" width="105.947265625"
                x="1032" y="40" />
        </g>
        <g>
            <path d=" M 1002 50 L 1107.947265625 50 L 1107.947265625 90 L 1002 90 L 1002 50 Z Z" fill="none"
                paint-order="fill stroke markers" stroke="#000000" stroke-dasharray="" stroke-miterlimit="10" />
        </g>
        <g>
            <g>
                <path fill="none" stroke="none" /><text dominant-baseline="central" fill="#000000" font-family="Arial"
                    font-size="13px" font-style="normal" font-weight="bold" stroke="none" text-anchor="middle"
                    text-decoration="undefined" transform="matrix(1 0 0 1 -30 10)" x="1085.4736328125" y="53.5">TK: Tài
                    khoản</text>
            </g>
        </g>
        <g>
            <path d=" M 1055.5 91 L 1055.5 1258" fill="none" paint-order="fill stroke markers" stroke="#000000"
                stroke-dasharray="3" stroke-miterlimit="10" />
        </g>
        <g>
            <path d=" M 290 370 L 535 370 L 545 380 L 545 433 L 290 433 L 290 370" fill="#ffffff"
                paint-order="stroke fill markers" stroke="none" />
        </g>
        <g>
            <path d=" M 290 370 L 535 370 L 545 380 L 545 433 L 290 433 L 290 370 L 290 370" fill="none"
                paint-order="fill stroke markers" stroke="#000000" stroke-dasharray="" stroke-miterlimit="10" />
        </g>
        <g>
            <path d=" M 535 370 L 535 380 L 545 380 L 535 370" fill="none" paint-order="fill stroke markers"
                stroke="#000000" stroke-dasharray="" stroke-miterlimit="10" />
        </g>
        <g>
            <g>
                <path fill="none" stroke="none" /><text dominant-baseline="text-before-edge" fill="#000000"
                    font-family="Arial" font-size="13px" font-style="normal" font-weight="normal" stroke="none"
                    text-anchor="start" text-decoration="undefined" transform="matrix(1 0 0 1 -30 10)" x="325"
                    y="365">Chọn vai trò tài khoản bao gồm: trưởng</text><text dominant-baseline="text-before-edge"
                    fill="#000000" font-family="Arial" font-size="13px" font-style="normal" font-weight="normal"
                    stroke="none" text-anchor="start" text-decoration="undefined" transform="matrix(1 0 0 1 -30 10)"
                    x="325" y="378">ban tổ chức hoặc trưởng đoàn. Nhập dữ</text><text
                    dominant-baseline="text-before-edge" fill="#000000" font-family="Arial" font-size="13px"
                    font-style="normal" font-weight="normal" stroke="none" text-anchor="start"
                    text-decoration="undefined" transform="matrix(1 0 0 1 -30 10)" x="325" y="391">liệu tài khoản bao
                    gồm: Họ và tên, email,</text><text dominant-baseline="text-before-edge" fill="#000000"
                    font-family="Arial" font-size="13px" font-style="normal" font-weight="normal" stroke="none"
                    text-anchor="start" text-decoration="undefined" transform="matrix(1 0 0 1 -30 10)" x="325"
                    y="404">mật khẩu, giới tính, số điện thoại</text>
            </g>
        </g>
        <g>
            <path d=" M 406 435 L 389 482" fill="none" paint-order="fill stroke markers" stroke="#000000"
                stroke-dasharray="3" stroke-miterlimit="10" />
        </g>
        <g>
            <path d=" M 882 930 L 999 930 L 1009 940 L 1009 1006 L 882 1006 L 882 930" fill="#ffffff"
                paint-order="stroke fill markers" stroke="none" />
        </g>
        <g>
            <path d=" M 882 930 L 999 930 L 1009 940 L 1009 1006 L 882 1006 L 882 930 L 882 930" fill="none"
                paint-order="fill stroke markers" stroke="#000000" stroke-dasharray="" stroke-miterlimit="10" />
        </g>
        <g>
            <path d=" M 999 930 L 999 940 L 1009 940 L 999 930" fill="none" paint-order="fill stroke markers"
                stroke="#000000" stroke-dasharray="" stroke-miterlimit="10" />
        </g>
        <g>
            <g>
                <path fill="none" stroke="none" /><text dominant-baseline="text-before-edge" fill="#000000"
                    font-family="Arial" font-size="13px" font-style="normal" font-weight="normal" stroke="none"
                    text-anchor="start" text-decoration="undefined" transform="matrix(1 0 0 1 -30 10)" x="917"
                    y="925">Trả về true nếu tài</text><text dominant-baseline="text-before-edge" fill="#000000"
                    font-family="Arial" font-size="13px" font-style="normal" font-weight="normal" stroke="none"
                    text-anchor="start" text-decoration="undefined" transform="matrix(1 0 0 1 -30 10)" x="917"
                    y="938">khoản hợp lệ và trả</text><text dominant-baseline="text-before-edge" fill="#000000"
                    font-family="Arial" font-size="13px" font-style="normal" font-weight="normal" stroke="none"
                    text-anchor="start" text-decoration="undefined" transform="matrix(1 0 0 1 -30 10)" x="917"
                    y="951">về false nếu tài</text><text dominant-baseline="text-before-edge" fill="#000000"
                    font-family="Arial" font-size="13px" font-style="normal" font-weight="normal" stroke="none"
                    text-anchor="start" text-decoration="undefined" transform="matrix(1 0 0 1 -30 10)" x="917"
                    y="964">khoản không hợp lệ</text>
            </g>
        </g>
        <g>
            <path d=" M 909 929 L 833 850" fill="none" paint-order="fill stroke markers" stroke="#000000"
                stroke-dasharray="3" stroke-miterlimit="10" />
        </g>
        <g>
            <rect fill="#ffffff" height="30" stroke="none" transform="matrix(1 0 0 1 -30 10)" width="1088" x="88"
                y="144" />
        </g>
        <g>
            <path d=" M 58 154 L 1146 154 L 1146 184 L 58 184 L 58 154 Z Z" fill="none"
                paint-order="fill stroke markers" stroke="#000000" stroke-dasharray="" stroke-miterlimit="10" />
        </g>
        <g>
            <path d=" M 58 154 L 58 177 L 83.1708984375 177 L 94.6708984375 165.5 L 94.6708984375 154 L 58 154 L 58 154"
                fill="none" paint-order="fill stroke markers" stroke="#000000" stroke-dasharray=""
                stroke-miterlimit="10" />
        </g>
        <g>
            <g>
                <path fill="none" stroke="none" /><text dominant-baseline="central" fill="#000000" font-family="Arial"
                    font-size="13px" font-style="normal" font-weight="normal" stroke="none" text-anchor="middle"
                    text-decoration="undefined" transform="matrix(1 0 0 1 -30 10)" x="650.33544921875" y="155.5">(Đăng
                    nhập vào hệ thống)</text>
            </g>
        </g>
        <g>
            <g>
                <path fill="none" stroke="none" /><text dominant-baseline="central" fill="#000000" font-family="Arial"
                    font-size="13px" font-style="normal" font-weight="bold" stroke="none" text-anchor="middle"
                    text-decoration="undefined" transform="matrix(1 0 0 1 -30 10)" x="100.58544921875"
                    y="155.5">ref</text>
            </g>
        </g>
        <g>
            <path d=" M 168 232 L 610 232" fill="none" paint-order="fill stroke markers" stroke="#000000"
                stroke-dasharray="" stroke-miterlimit="10" />
        </g>
        <g>
            <path d=" M 599.8373251423759 236.209517756016 L 610 232 L 599.8373251423758 227.790482243984"
                fill="#000000" paint-order="stroke fill markers" stroke="none" />
        </g>
        <g>
            <path
                d=" M 599.8373251423759 236.209517756016 L 610 232 L 599.8373251423758 227.790482243984 L 599.8373251423759 236.209517756016"
                fill="none" paint-order="fill stroke markers" stroke="#000000" stroke-dasharray=""
                stroke-miterlimit="10" />
        </g>
        <g>
            <rect fill="#ffffff" height="13" stroke="none" transform="matrix(1 0 0 1 -30 10)" width="226.09716796875"
                x="306" y="206" />
        </g>
        <g>
            <g>
                <path fill="none" stroke="none" /><text dominant-baseline="central" fill="#000000" font-family="Arial"
                    font-size="13px" font-style="normal" font-weight="normal" stroke="none" text-anchor="middle"
                    text-decoration="undefined" transform="matrix(1 0 0 1 -30 10)" x="419.048583984375" y="212.5">1 :
                    Chọn danh mục quản lý người dùng</text>
            </g>
        </g>
        <g>
            <rect fill="#ffffff" height="28" stroke="none" transform="matrix(1 0 0 1 -30 10)" width="14" x="640"
                y="222" />
        </g>
        <g>
            <path d=" M 610 232 L 624 232 L 624 260 L 610 260 L 610 232 Z Z" fill="none"
                paint-order="fill stroke markers" stroke="#000000" stroke-dasharray="" stroke-miterlimit="10" />
        </g>
        <g>
            <path d=" M 624 250 L 654 250 L 654 270 L 624 270" fill="none" paint-order="fill stroke markers"
                stroke="#000000" stroke-dasharray="" stroke-miterlimit="10" />
        </g>
        <g>
            <path d=" M 634.1626748576241 265.790482243984 L 624 270 L 634.1626748576241 274.209517756016"
                fill="#000000" paint-order="stroke fill markers" stroke="none" />
        </g>
        <g>
            <path
                d=" M 634.1626748576241 265.790482243984 L 624 270 L 634.1626748576241 274.209517756016 L 634.1626748576241 265.790482243984"
                fill="none" paint-order="fill stroke markers" stroke="#000000" stroke-dasharray=""
                stroke-miterlimit="10" />
        </g>
        <g>
            <rect fill="#ffffff" height="13" stroke="none" transform="matrix(1 0 0 1 -30 10)" width="238.38623046875"
                x="672" y="243" />
        </g>
        <g>
            <g>
                <path fill="none" stroke="none" /><text dominant-baseline="central" fill="#000000" font-family="Arial"
                    font-size="13px" font-style="normal" font-weight="normal" stroke="none" text-anchor="middle"
                    text-decoration="undefined" transform="matrix(1 0 0 1 -30 10)" x="791.193115234375" y="249.5">2 :
                    Hiển thị giao diện quản lý người dùng</text>
            </g>
        </g>
        <g>
            <rect fill="#ffffff" height="28" stroke="none" transform="matrix(1 0 0 1 -30 10)" width="14" x="640"
                y="260" />
        </g>
        <g>
            <path d=" M 610 270 L 624 270 L 624 298 L 610 298 L 610 270 Z Z" fill="none"
                paint-order="fill stroke markers" stroke="#000000" stroke-dasharray="" stroke-miterlimit="10" />
        </g>
        <g>
            <path d=" M 168 330 L 610 330" fill="none" paint-order="fill stroke markers" stroke="#000000"
                stroke-dasharray="" stroke-miterlimit="10" />
        </g>
        <g>
            <path d=" M 599.8373251423759 334.209517756016 L 610 330 L 599.8373251423758 325.790482243984"
                fill="#000000" paint-order="stroke fill markers" stroke="none" />
        </g>
        <g>
            <path
                d=" M 599.8373251423759 334.209517756016 L 610 330 L 599.8373251423758 325.790482243984 L 599.8373251423759 334.209517756016"
                fill="none" paint-order="fill stroke markers" stroke="#000000" stroke-dasharray=""
                stroke-miterlimit="10" />
        </g>
        <g>
            <rect fill="#ffffff" height="13" stroke="none" transform="matrix(1 0 0 1 -30 10)" width="262.99609375"
                x="288" y="304" />
        </g>
        <g>
            <g>
                <path fill="none" stroke="none" /><text dominant-baseline="central" fill="#000000" font-family="Arial"
                    font-size="13px" font-style="normal" font-weight="normal" stroke="none" text-anchor="middle"
                    text-decoration="undefined" transform="matrix(1 0 0 1 -30 10)" x="419.498046875" y="310.5">3 : Chọn
                    chức năng tạo tài khoản người dùng</text>
            </g>
        </g>
        <g>
            <rect fill="#ffffff" height="28" stroke="none" transform="matrix(1 0 0 1 -30 10)" width="14" x="640"
                y="320" />
        </g>
        <g>
            <path d=" M 610 330 L 624 330 L 624 358 L 610 358 L 610 330 Z Z" fill="none"
                paint-order="fill stroke markers" stroke="#000000" stroke-dasharray="" stroke-miterlimit="10" />
        </g>
        <g>
            <path d=" M 624 346 L 654 346 L 654 366 L 624 366" fill="none" paint-order="fill stroke markers"
                stroke="#000000" stroke-dasharray="" stroke-miterlimit="10" />
        </g>
        <g>
            <path d=" M 634.1626748576241 361.790482243984 L 624 366 L 634.1626748576241 370.209517756016"
                fill="#000000" paint-order="stroke fill markers" stroke="none" />
        </g>
        <g>
            <path
                d=" M 634.1626748576241 361.790482243984 L 624 366 L 634.1626748576241 370.209517756016 L 634.1626748576241 361.790482243984"
                fill="none" paint-order="fill stroke markers" stroke="#000000" stroke-dasharray=""
                stroke-miterlimit="10" />
        </g>
        <g>
            <rect fill="#ffffff" height="13" stroke="none" transform="matrix(1 0 0 1 -30 10)" width="265.8271484375"
                x="664" y="339" />
        </g>
        <g>
            <g>
                <path fill="none" stroke="none" /><text dominant-baseline="central" fill="#000000" font-family="Arial"
                    font-size="13px" font-style="normal" font-weight="normal" stroke="none" text-anchor="middle"
                    text-decoration="undefined" transform="matrix(1 0 0 1 -30 10)" x="796.91357421875" y="345.5">4 :
                    Hiển thị giao diện tạo tài khoản nguời dùng</text>
            </g>
        </g>
        <g>
            <rect fill="#ffffff" height="28" stroke="none" transform="matrix(1 0 0 1 -30 10)" width="14" x="640"
                y="356" />
        </g>
        <g>
            <path d=" M 610 366 L 624 366 L 624 394 L 610 394 L 610 366 Z Z" fill="none"
                paint-order="fill stroke markers" stroke="#000000" stroke-dasharray="" stroke-miterlimit="10" />
        </g>
        <g>
            <path d=" M 168 482 L 610 482" fill="none" paint-order="fill stroke markers" stroke="#000000"
                stroke-dasharray="" stroke-miterlimit="10" />
        </g>
        <g>
            <path d=" M 599.8373251423759 486.209517756016 L 610 482 L 599.8373251423758 477.790482243984"
                fill="#000000" paint-order="stroke fill markers" stroke="none" />
        </g>
        <g>
            <path
                d=" M 599.8373251423759 486.209517756016 L 610 482 L 599.8373251423758 477.790482243984 L 599.8373251423759 486.209517756016"
                fill="none" paint-order="fill stroke markers" stroke="#000000" stroke-dasharray=""
                stroke-miterlimit="10" />
        </g>
        <g>
            <rect fill="#ffffff" height="13" stroke="none" transform="matrix(1 0 0 1 -30 10)" width="357.04296875"
                x="232" y="455" />
        </g>
        <g>
            <g>
                <path fill="none" stroke="none" /><text dominant-baseline="central" fill="#000000" font-family="Arial"
                    font-size="13px" font-style="normal" font-weight="normal" stroke="none" text-anchor="middle"
                    text-decoration="undefined" transform="matrix(1 0 0 1 -30 10)" x="410.521484375" y="461.5">5 : Chọn
                    vai trò và nhập thông tin tài khoản</text>
            </g>
        </g>
        <g>
            <rect fill="#ffffff" height="28" stroke="none" transform="matrix(1 0 0 1 -30 10)" width="14" x="640"
                y="472" />
        </g>
        <g>
            <path d=" M 610 482 L 624 482 L 624 510 L 610 510 L 610 482 Z Z" fill="none"
                paint-order="fill stroke markers" stroke="#000000" stroke-dasharray="" stroke-miterlimit="10" />
        </g>
        <g>
            <path d=" M 168 618 L 610 618" fill="none" paint-order="fill stroke markers" stroke="#000000"
                stroke-dasharray="" stroke-miterlimit="10" />
        </g>
        <g>
            <path d=" M 599.8373251423759 622.209517756016 L 610 618 L 599.8373251423758 613.790482243984"
                fill="#000000" paint-order="stroke fill markers" stroke="none" />
        </g>
        <g>
            <path
                d=" M 599.8373251423759 622.209517756016 L 610 618 L 599.8373251423758 613.790482243984 L 599.8373251423759 622.209517756016"
                fill="none" paint-order="fill stroke markers" stroke="#000000" stroke-dasharray=""
                stroke-miterlimit="10" />
        </g>
        <g>
            <rect fill="#ffffff" height="13" stroke="none" transform="matrix(1 0 0 1 -30 10)" width="127.92431640625"
                x="356" y="592" />
        </g>
        <g>
            <g>
                <path fill="none" stroke="none" /><text dominant-baseline="central" fill="#000000" font-family="Arial"
                    font-size="13px" font-style="normal" font-weight="normal" stroke="none" text-anchor="middle"
                    text-decoration="undefined" transform="matrix(1 0 0 1 -30 10)" x="419.962158203125" y="598.5">6 :
                    Nhấn vào nút thoát</text>
            </g>
        </g>
        <g>
            <rect fill="#ffffff" height="28" stroke="none" transform="matrix(1 0 0 1 -30 10)" width="14" x="640"
                y="608" />
        </g>
        <g>
            <path d=" M 610 618 L 624 618 L 624 646 L 610 646 L 610 618 Z Z" fill="none"
                paint-order="fill stroke markers" stroke="#000000" stroke-dasharray="" stroke-miterlimit="10" />
        </g>
        <g>
            <path d=" M 618 674 L 648 674 L 648 694 L 624 694" fill="none" paint-order="fill stroke markers"
                stroke="#000000" stroke-dasharray="" stroke-miterlimit="10" />
        </g>
        <g>
            <path d=" M 634.1626748576241 689.790482243984 L 624 694 L 634.1626748576241 698.209517756016"
                fill="#000000" paint-order="stroke fill markers" stroke="none" />
        </g>
        <g>
            <path
                d=" M 634.1626748576241 689.790482243984 L 624 694 L 634.1626748576241 698.209517756016 L 634.1626748576241 689.790482243984"
                fill="none" paint-order="fill stroke markers" stroke="#000000" stroke-dasharray=""
                stroke-miterlimit="10" />
        </g>
        <g>
            <rect fill="#ffffff" height="13" stroke="none" transform="matrix(1 0 0 1 -30 10)" width="228.3505859375"
                x="664" y="667" />
        </g>
        <g>
            <g>
                <path fill="none" stroke="none" /><text dominant-baseline="central" fill="#000000" font-family="Arial"
                    font-size="13px" font-style="normal" font-weight="normal" stroke="none" text-anchor="middle"
                    text-decoration="undefined" transform="matrix(1 0 0 1 -30 10)" x="778.17529296875" y="673.5">7 : Trở
                    về giao diện quản lý người dùng</text>
            </g>
        </g>
        <g>
            <rect fill="#ffffff" height="28" stroke="none" transform="matrix(1 0 0 1 -30 10)" width="14" x="640"
                y="684" />
        </g>
        <g>
            <path d=" M 610 694 L 624 694 L 624 722 L 610 722 L 610 694 Z Z" fill="none"
                paint-order="fill stroke markers" stroke="#000000" stroke-dasharray="" stroke-miterlimit="10" />
        </g>
        <g>
            <path d=" M 168 778 L 610 778" fill="none" paint-order="fill stroke markers" stroke="#000000"
                stroke-dasharray="" stroke-miterlimit="10" />
        </g>
        <g>
            <path d=" M 599.8373251423759 782.209517756016 L 610 778 L 599.8373251423758 773.790482243984"
                fill="#000000" paint-order="stroke fill markers" stroke="none" />
        </g>
        <g>
            <path
                d=" M 599.8373251423759 782.209517756016 L 610 778 L 599.8373251423758 773.790482243984 L 599.8373251423759 782.209517756016"
                fill="none" paint-order="fill stroke markers" stroke="#000000" stroke-dasharray=""
                stroke-miterlimit="10" />
        </g>
        <g>
            <rect fill="#ffffff" height="13" stroke="none" transform="matrix(1 0 0 1 -30 10)" width="146.72607421875"
                x="346" y="752" />
        </g>
        <g>
            <g>
                <path fill="none" stroke="none" /><text dominant-baseline="central" fill="#000000" font-family="Arial"
                    font-size="13px" font-style="normal" font-weight="normal" stroke="none" text-anchor="middle"
                    text-decoration="undefined" transform="matrix(1 0 0 1 -30 10)" x="419.363037109375" y="758.5">8 :
                    nhấn nút tạo tài khoản</text>
            </g>
        </g>
        <g>
            <rect fill="#ffffff" height="28" stroke="none" transform="matrix(1 0 0 1 -30 10)" width="14" x="640"
                y="768" />
        </g>
        <g>
            <path d=" M 610 778 L 624 778 L 624 806 L 610 806 L 610 778 Z Z" fill="none"
                paint-order="fill stroke markers" stroke="#000000" stroke-dasharray="" stroke-miterlimit="10" />
        </g>
        <g>
            <path d=" M 624 802 L 1048 802" fill="none" paint-order="fill stroke markers" stroke="#000000"
                stroke-dasharray="" stroke-miterlimit="10" />
        </g>
        <g>
            <path d=" M 1037.837325142376 806.209517756016 L 1048 802 L 1037.837325142376 797.790482243984"
                fill="#000000" paint-order="stroke fill markers" stroke="none" />
        </g>
        <g>
            <path
                d=" M 1037.837325142376 806.209517756016 L 1048 802 L 1037.837325142376 797.790482243984 L 1037.837325142376 806.209517756016"
                fill="none" paint-order="fill stroke markers" stroke="#000000" stroke-dasharray=""
                stroke-miterlimit="10" />
        </g>
        <g>
            <rect fill="#ffffff" height="13" stroke="none" transform="matrix(1 0 0 1 -30 10)" width="279.26513671875"
                x="727" y="776" />
        </g>
        <g>
            <g>
                <path fill="none" stroke="none" /><text dominant-baseline="central" fill="#000000" font-family="Arial"
                    font-size="13px" font-style="normal" font-weight="normal" stroke="none" text-anchor="middle"
                    text-decoration="undefined" transform="matrix(1 0 0 1 -30 10)" x="866.632568359375" y="782.5">9 :
                    kiemTra = KiemTraHopLe(thongTinTaiKhoan)</text>
            </g>
        </g>
        <g>
            <rect fill="#ffffff" height="56" stroke="none" transform="matrix(1 0 0 1 -30 10)" width="14" x="1078"
                y="792" />
        </g>
        <g>
            <path d=" M 1048 802 L 1062 802 L 1062 858 L 1048 858 L 1048 802 Z Z" fill="none"
                paint-order="fill stroke markers" stroke="#000000" stroke-dasharray="" stroke-miterlimit="10" />
        </g>
        <g>
            <path d=" M 1048 850 L 618 850" fill="none" paint-order="fill stroke markers" stroke="#000000"
                stroke-dasharray="3" stroke-miterlimit="10" />
        </g>
        <g>
            <path d=" M 628.1626748576241 845.790482243984 L 618 850 L 628.1626748576241 854.209517756016" fill="none"
                paint-order="fill stroke markers" stroke="#000000" stroke-dasharray="" stroke-miterlimit="10" />
        </g>
        <g>
            <rect fill="#ffffff" height="13" stroke="none" transform="matrix(1 0 0 1 -30 10)" width="157.751953125"
                x="774" y="823" />
        </g>
        <g>
            <g>
                <path fill="none" stroke="none" /><text dominant-baseline="central" fill="#000000" font-family="Arial"
                    font-size="13px" font-style="normal" font-weight="normal" stroke="none" text-anchor="middle"
                    text-decoration="undefined" transform="matrix(1 0 0 1 -30 10)" x="852.8759765625" y="829.5">10 : Trả
                    về kết quả kiểm tra</text>
            </g>
        </g>
        <g>
            <path d=" M 617 954 L 168 954" fill="none" paint-order="fill stroke markers" stroke="#000000"
                stroke-dasharray="3" stroke-miterlimit="10" />
        </g>
        <g>
            <path d=" M 178.16267485762415 949.790482243984 L 168 954 L 178.16267485762415 958.209517756016" fill="none"
                paint-order="fill stroke markers" stroke="#000000" stroke-dasharray="" stroke-miterlimit="10" />
        </g>
        <g>
            <rect fill="#ffffff" height="13" stroke="none" transform="matrix(1 0 0 1 -30 10)" width="388.12744140625"
                x="220" y="960" />
        </g>
        <g>
            <g>
                <path fill="none" stroke="none" /><text dominant-baseline="central" fill="#000000" font-family="Arial"
                    font-size="13px" font-style="normal" font-weight="normal" stroke="none" text-anchor="middle"
                    text-decoration="undefined" transform="matrix(1 0 0 1 -30 10)" x="414.063720703125" y="966.5">11 :
                    Thông báo tạo tài khoản không thành công và yêu cầu nhập lại</text>
            </g>
        </g>
        <g>
            <path d=" M 618 1058 L 1048 1058" fill="none" paint-order="fill stroke markers" stroke="#000000"
                stroke-dasharray="" stroke-miterlimit="10" />
        </g>
        <g>
            <path d=" M 1037.837325142376 1062.2095177560159 L 1048 1058 L 1037.837325142376 1053.7904822439841"
                fill="#000000" paint-order="stroke fill markers" stroke="none" />
        </g>
        <g>
            <path
                d=" M 1037.837325142376 1062.2095177560159 L 1048 1058 L 1037.837325142376 1053.7904822439841 L 1037.837325142376 1062.2095177560159"
                fill="none" paint-order="fill stroke markers" stroke="#000000" stroke-dasharray=""
                stroke-miterlimit="10" />
        </g>
        <g>
            <rect fill="#ffffff" height="13" stroke="none" transform="matrix(1 0 0 1 -30 10)" width="210.5517578125"
                x="758" y="1032" />
        </g>
        <g>
            <g>
                <path fill="none" stroke="none" /><text dominant-baseline="central" fill="#000000" font-family="Arial"
                    font-size="13px" font-style="normal" font-weight="normal" stroke="none" text-anchor="middle"
                    text-decoration="undefined" transform="matrix(1 0 0 1 -30 10)" x="863.27587890625" y="1038.5">12 :
                    taoTaiKhoan(thongTinTaiKhoan)</text>
            </g>
        </g>
        <g>
            <rect fill="#ffffff" height="32" stroke="none" transform="matrix(1 0 0 1 -30 10)" width="14" x="1078"
                y="1048" />
        </g>
        <g>
            <path d=" M 1048 1058 L 1062 1058 L 1062 1090 L 1048 1090 L 1048 1058 Z Z" fill="none"
                paint-order="fill stroke markers" stroke="#000000" stroke-dasharray="" stroke-miterlimit="10" />
        </g>
        <g>
            <path d=" M 1055 1090 L 618 1090" fill="none" paint-order="fill stroke markers" stroke="#000000"
                stroke-dasharray="3" stroke-miterlimit="10" />
        </g>
        <g>
            <path d=" M 628.1626748576241 1085.7904822439841 L 618 1090 L 628.1626748576241 1094.2095177560159"
                fill="none" paint-order="fill stroke markers" stroke="#000000" stroke-dasharray=""
                stroke-miterlimit="10" />
        </g>
        <g>
            <rect fill="#ffffff" height="13" stroke="none" transform="matrix(1 0 0 1 -30 10)" width="172.01513671875"
                x="779" y="1084" />
        </g>
        <g>
            <g>
                <path fill="none" stroke="none" /><text dominant-baseline="central" fill="#000000" font-family="Arial"
                    font-size="13px" font-style="normal" font-weight="normal" stroke="none" text-anchor="middle"
                    text-decoration="undefined" transform="matrix(1 0 0 1 -30 10)" x="865.007568359375" y="1090.5">13 :
                    Tạo tài khoản thành công</text>
            </g>
        </g>
        <g>
            <path d=" M 617 1122 L 168 1122" fill="none" paint-order="fill stroke markers" stroke="#000000"
                stroke-dasharray="3" stroke-miterlimit="10" />
        </g>
        <g>
            <path d=" M 178.16267485762415 1117.7904822439841 L 168 1122 L 178.16267485762415 1126.2095177560159"
                fill="none" paint-order="fill stroke markers" stroke="#000000" stroke-dasharray=""
                stroke-miterlimit="10" />
        </g>
        <g>
            <rect fill="#ffffff" height="13" stroke="none" transform="matrix(1 0 0 1 -30 10)" width="233.46044921875"
                x="296" y="1095" />
        </g>
        <g>
            <g>
                <path fill="none" stroke="none" /><text dominant-baseline="central" fill="#000000" font-family="Arial"
                    font-size="13px" font-style="normal" font-weight="normal" stroke="none" text-anchor="middle"
                    text-decoration="undefined" transform="matrix(1 0 0 1 -30 10)" x="412.730224609375" y="1101.5">14 :
                    Thông báo tạo tài khoản thành công</text>
            </g>
        </g>
        <g>
            <path d=" M 618 1138 L 648 1138 L 648 1158 L 624 1158" fill="none" paint-order="fill stroke markers"
                stroke="#000000" stroke-dasharray="" stroke-miterlimit="10" />
        </g>
        <g>
            <path d=" M 634.1626748576241 1153.7904822439841 L 624 1158 L 634.1626748576241 1162.2095177560159"
                fill="#000000" paint-order="stroke fill markers" stroke="none" />
        </g>
        <g>
            <path
                d=" M 634.1626748576241 1153.7904822439841 L 624 1158 L 634.1626748576241 1162.2095177560159 L 634.1626748576241 1153.7904822439841"
                fill="none" paint-order="fill stroke markers" stroke="#000000" stroke-dasharray=""
                stroke-miterlimit="10" />
        </g>
        <g>
            <rect fill="#ffffff" height="13" stroke="none" transform="matrix(1 0 0 1 -30 10)" width="260.076171875"
                x="663" y="1131" />
        </g>
        <g>
            <g>
                <path fill="none" stroke="none" /><text dominant-baseline="central" fill="#000000" font-family="Arial"
                    font-size="13px" font-style="normal" font-weight="normal" stroke="none" text-anchor="middle"
                    text-decoration="undefined" transform="matrix(1 0 0 1 -30 10)" x="793.0380859375" y="1137.5">15 :
                    Chuyển về giao diện quản lý người dùng</text>
            </g>
        </g>
        <g>
            <rect fill="#ffffff" height="28" stroke="none" transform="matrix(1 0 0 1 -30 10)" width="14" x="640"
                y="1148" />
        </g>
        <g>
            <path d=" M 610 1158 L 624 1158 L 624 1186 L 610 1186 L 610 1158 Z Z" fill="none"
                paint-order="fill stroke markers" stroke="#000000" stroke-dasharray="" stroke-miterlimit="10" />
        </g>
        <g>
            <path d=" M 50 906 L 1130 906 L 1130 1210 L 50 1210 L 50 906" fill="none" paint-order="fill stroke markers"
                stroke="#000000" stroke-dasharray="" stroke-miterlimit="10" />
        </g>
        <g>
            <path d=" M 50 906 L 50 929 L 79.72998046875 929 L 91.22998046875 917.5 L 91.22998046875 906 L 50 906"
                fill="#ffffff" paint-order="stroke fill markers" stroke="none" />
        </g>
        <g>
            <path
                d=" M 50 906 L 50 929 L 79.72998046875 929 L 91.22998046875 917.5 L 91.22998046875 906 L 50 906 L 50 906"
                fill="none" paint-order="fill stroke markers" stroke="#000000" stroke-dasharray=""
                stroke-miterlimit="10" />
        </g>
        <g>
            <g>
                <path fill="none" stroke="none" /><text dominant-baseline="central" fill="#000000" font-family="Arial"
                    font-size="13px" font-style="normal" font-weight="bold" stroke="none" text-anchor="middle"
                    text-decoration="undefined" transform="matrix(1 0 0 1 -30 10)" x="91.864990234375"
                    y="907.5">alt</text>
            </g>
        </g>
        <g>
            <g>
                <path fill="none" stroke="none" /><text dominant-baseline="central" fill="#000000" font-family="Arial"
                    font-size="13px" font-style="normal" font-weight="normal" stroke="none" text-anchor="middle"
                    text-decoration="undefined" transform="matrix(1 0 0 1 -30 10)" x="139.212646484375"
                    y="940.5">[hopLe=false]</text>
            </g>
        </g>
        <g>
            <path d=" M 50 1018 L 1129 1018" fill="none" paint-order="fill stroke markers" stroke="#000000"
                stroke-dasharray="10,3" stroke-miterlimit="10" />
        </g>
        <g>
            <g>
                <path fill="none" stroke="none" /><text dominant-baseline="central" fill="#000000" font-family="Arial"
                    font-size="13px" font-style="normal" font-weight="normal" stroke="none" text-anchor="middle"
                    text-decoration="undefined" transform="matrix(1 0 0 1 -30 10)" x="115.535888671875"
                    y="1029.5">[else]</text>
            </g>
        </g>
        <g>
            <path d=" M 34 450 L 1202 450 L 1202 1226 L 34 1226 L 34 450" fill="none" paint-order="fill stroke markers"
                stroke="#000000" stroke-dasharray="" stroke-miterlimit="10" />
        </g>
        <g>
            <path d=" M 34 450 L 34 473 L 96.97900390625 473 L 108.47900390625 461.5 L 108.47900390625 450 L 34 450"
                fill="#ffffff" paint-order="stroke fill markers" stroke="none" />
        </g>
        <g>
            <path
                d=" M 34 450 L 34 473 L 96.97900390625 473 L 108.47900390625 461.5 L 108.47900390625 450 L 34 450 L 34 450"
                fill="none" paint-order="fill stroke markers" stroke="#000000" stroke-dasharray=""
                stroke-miterlimit="10" />
        </g>
        <g>
            <g>
                <path fill="none" stroke="none" /><text dominant-baseline="central" fill="#000000" font-family="Arial"
                    font-size="13px" font-style="normal" font-weight="normal" stroke="none" text-anchor="middle"
                    text-decoration="undefined" transform="matrix(1 0 0 1 -30 10)" x="110.778564453125"
                    y="451.5">true</text>
            </g>
        </g>
        <g>
            <g>
                <path fill="none" stroke="none" /><text dominant-baseline="central" fill="#000000" font-family="Arial"
                    font-size="13px" font-style="normal" font-weight="bold" stroke="none" text-anchor="middle"
                    text-decoration="undefined" transform="matrix(1 0 0 1 -30 10)" x="81.2890625" y="451.5">loop</text>
            </g>
        </g>
        <g>
            <path d=" M 138 1034 L 1090 1034 L 1090 1194 L 138 1194 L 138 1034" fill="none"
                paint-order="fill stroke markers" stroke="#000000" stroke-dasharray="" stroke-miterlimit="10" />
        </g>
        <g>
            <path
                d=" M 138 1034 L 138 1057 L 186.51904296875 1057 L 198.01904296875 1045.5 L 198.01904296875 1034 L 138 1034"
                fill="#ffffff" paint-order="stroke fill markers" stroke="none" />
        </g>
        <g>
            <path
                d=" M 138 1034 L 138 1057 L 186.51904296875 1057 L 198.01904296875 1045.5 L 198.01904296875 1034 L 138 1034 L 138 1034"
                fill="none" paint-order="fill stroke markers" stroke="#000000" stroke-dasharray=""
                stroke-miterlimit="10" />
        </g>
        <g>
            <g>
                <path fill="none" stroke="none" /><text dominant-baseline="central" fill="#000000" font-family="Arial"
                    font-size="13px" font-style="normal" font-weight="bold" stroke="none" text-anchor="middle"
                    text-decoration="undefined" transform="matrix(1 0 0 1 -30 10)" x="189.259521484375"
                    y="1035.5">break</text>
            </g>
        </g>
        <g>
            <path d=" M 90 530 L 1114 530 L 1114 746 L 90 746 L 90 530" fill="none" paint-order="fill stroke markers"
                stroke="#000000" stroke-dasharray="" stroke-miterlimit="10" />
        </g>
        <g>
            <path d=" M 90 530 L 90 553 L 124.07177734375 553 L 135.57177734375 541.5 L 135.57177734375 530 L 90 530"
                fill="#ffffff" paint-order="stroke fill markers" stroke="none" />
        </g>
        <g>
            <path
                d=" M 90 530 L 90 553 L 124.07177734375 553 L 135.57177734375 541.5 L 135.57177734375 530 L 90 530 L 90 530"
                fill="none" paint-order="fill stroke markers" stroke="#000000" stroke-dasharray=""
                stroke-miterlimit="10" />
        </g>
        <g>
            <g>
                <path fill="none" stroke="none" /><text dominant-baseline="central" fill="#000000" font-family="Arial"
                    font-size="13px" font-style="normal" font-weight="bold" stroke="none" text-anchor="middle"
                    text-decoration="undefined" transform="matrix(1 0 0 1 -30 10)" x="134.035888671875"
                    y="531.5">opt</text>
            </g>
        </g>
        <g>
            <g>
                <path fill="none" stroke="none" /><text dominant-baseline="central" fill="#000000" font-family="Arial"
                    font-size="13px" font-style="normal" font-weight="normal" stroke="none" text-anchor="middle"
                    text-decoration="undefined" transform="matrix(1 0 0 1 -30 10)" x="281.2607421875" y="564.5">[Người
                    dùng không nhập nữa và nhấn nút thoát ]</text>
            </g>
        </g>
        <g>
            <path d=" M 130 586 L 1082 586 L 1082 730 L 130 730 L 130 586" fill="none" paint-order="fill stroke markers"
                stroke="#000000" stroke-dasharray="" stroke-miterlimit="10" />
        </g>
        <g>
            <path d=" M 130 586 L 130 609 L 178.51904296875 609 L 190.01904296875 597.5 L 190.01904296875 586 L 130 586"
                fill="#ffffff" paint-order="stroke fill markers" stroke="none" />
        </g>
        <g>
            <path
                d=" M 130 586 L 130 609 L 178.51904296875 609 L 190.01904296875 597.5 L 190.01904296875 586 L 130 586 L 130 586"
                fill="none" paint-order="fill stroke markers" stroke="#000000" stroke-dasharray=""
                stroke-miterlimit="10" />
        </g>
        <g>
            <g>
                <path fill="none" stroke="none" /><text dominant-baseline="central" fill="#000000" font-family="Arial"
                    font-size="13px" font-style="normal" font-weight="bold" stroke="none" text-anchor="middle"
                    text-decoration="undefined" transform="matrix(1 0 0 1 -30 10)" x="181.259521484375"
                    y="587.5">break</text>
            </g>
        </g>
    </g>
</svg>