<?xml version="1.0" encoding="utf-8"?>
<svg height="1116" version="1.1" width="1260" xmlns="http://www.w3.org/2000/svg" xmlns:xlink="http://www.w3.org/1999/xlink"><defs/><g><g><path d=" M 10 10 L 1250 10 L 1250 1106 L 10 1106 L 10 10" fill="none" paint-order="fill stroke markers" stroke="#000000" stroke-dasharray="" stroke-miterlimit="10"/></g><g><path d=" M 10 10 L 10 33 L 187.3701171875 33 L 198.8701171875 21.5 L 198.8701171875 10 L 10 10" fill="#ffffff" paint-order="stroke fill markers" stroke="none"/></g><g><path d=" M 10 10 L 10 33 L 187.3701171875 33 L 198.8701171875 21.5 L 198.8701171875 10 L 10 10 L 10 10" fill="none" paint-order="fill stroke markers" stroke="#000000" stroke-dasharray="" stroke-miterlimit="10"/></g><g><g><path fill="none" stroke="none"/><text dominant-baseline="central" fill="#000000" font-family="Arial" font-size="13px" font-style="normal" font-weight="normal" stroke="none" text-anchor="middle" text-decoration="undefined" transform="matrix(1 0 0 1 -646 2)" x="754.550048828125" y="19.5">SDXemDienBienTranDau</text></g></g><g><g><path fill="none" stroke="none"/><text dominant-baseline="central" fill="#000000" font-family="Arial" font-size="13px" font-style="normal" font-weight="bold" stroke="none" text-anchor="middle" text-decoration="undefined" transform="matrix(1 0 0 1 -646 2)" x="667.864990234375" y="19.5">sd</text></g></g><g><path d=" M 85.11924893465903 49.3 C 85.11924893465903 45.82060576 87.99765065684096 43 91.54833984375 43 C 95.09902903065904 43 97.97743075284086 45.82060576 97.97743075284086 49.3 C 97.97743075284086 52.779394239999995 95.09902903065904 55.6 91.54833984375 55.6 C 87.99765065684096 55.6 85.11924893465903 52.779394239999995 85.11924893465903 49.3 Z" fill="#ffffff" paint-order="stroke fill markers" stroke="none"/></g><g><path d=" M 85.11924893465903 49.3 C 85.11924893465903 45.82060576 87.99765065684096 43 91.54833984375 43 C 95.09902903065904 43 97.97743075284086 45.82060576 97.97743075284086 49.3 C 97.97743075284086 52.779394239999995 95.09902903065904 55.6 91.54833984375 55.6 C 87.99765065684096 55.6 85.11924893465903 52.779394239999995 85.11924893465903 49.3 Z" fill="none" paint-order="fill stroke markers" stroke="#000000" stroke-dasharray="" stroke-miterlimit="10"/></g><g><path d=" M 91.54833984375 55.6 L 91.54833984375 68.4" fill="none" paint-order="fill stroke markers" stroke="#000000" stroke-dasharray="" stroke-miterlimit="10"/></g><g><path d=" M 84.74106711647721 60.4 L 98.35561257102268 60.4" fill="none" paint-order="fill stroke markers" stroke="#000000" stroke-dasharray="" stroke-miterlimit="10"/></g><g><path d=" M 91.54833984375 68.4 L 82.0937943892045 81" fill="none" paint-order="fill stroke markers" stroke="#000000" stroke-dasharray="" stroke-miterlimit="10"/></g><g><path d=" M 91.54833984375 68.4 L 101.00288529829538 81" fill="none" paint-order="fill stroke markers" stroke="#000000" stroke-dasharray="" stroke-miterlimit="10"/></g><g><g><path fill="none" stroke="none"/><text dominant-baseline="central" fill="#000000" font-family="Arial" font-size="13px" font-style="normal" font-weight="bold" stroke="none" text-anchor="middle" text-decoration="undefined" transform="matrix(1 0 0 1 -646 2)" x="738.04833984375" y="93.5">Actor: Người Dùng</text></g></g><g><path d=" M 92.5 108 L 92.5 1106" fill="none" paint-order="fill stroke markers" stroke="#000000" stroke-dasharray="3" stroke-miterlimit="10"/></g><g><rect fill="#C0C0C0" fill-opacity="0.2" height="40" stroke="none" transform="matrix(1 0 0 1 -646 2)" width="104.50634765625" x="990" y="47"/></g><g><rect fill="#ffffff" height="40" stroke="none" transform="matrix(1 0 0 1 -646 2)" width="104.50634765625" x="983" y="40"/></g><g><path d=" M 337 42 L 441.50634765625 42 L 441.50634765625 82 L 337 82 L 337 42 Z Z" fill="none" paint-order="fill stroke markers" stroke="#000000" stroke-dasharray="" stroke-miterlimit="10"/></g><g><g><path fill="none" stroke="none"/><text dominant-baseline="central" fill="#000000" font-family="Arial" font-size="13px" font-style="normal" font-weight="bold" stroke="none" text-anchor="middle" text-decoration="undefined" transform="matrix(1 0 0 1 -646 2)" x="1035.753173828125" y="53.5">: GiaoDien</text></g></g><g><path d=" M 389.5 83 L 389.5 1106" fill="none" paint-order="fill stroke markers" stroke="#000000" stroke-dasharray="3" stroke-miterlimit="10"/></g><g><rect fill="#C0C0C0" fill-opacity="0.2" height="40" stroke="none" transform="matrix(1 0 0 1 -646 2)" width="176.74267578125" x="1359" y="47"/></g><g><rect fill="#ffffff" height="40" stroke="none" transform="matrix(1 0 0 1 -646 2)" width="176.74267578125" x="1352" y="40"/></g><g><path d=" M 706 42 L 882.74267578125 42 L 882.74267578125 82 L 706 82 L 706 42 Z Z" fill="none" paint-order="fill stroke markers" stroke="#000000" stroke-dasharray="" stroke-miterlimit="10"/></g><g><g><path fill="none" stroke="none"/><text dominant-baseline="central" fill="#000000" font-family="Arial" font-size="13px" font-style="normal" font-weight="bold" stroke="none" text-anchor="middle" text-decoration="undefined" transform="matrix(1 0 0 1 -646 2)" x="1440.871337890625" y="53.5">trandauloai: TranDauLoai</text></g></g><g><path d=" M 794.5 83 L 794.5 1106" fill="none" paint-order="fill stroke markers" stroke="#000000" stroke-dasharray="3" stroke-miterlimit="10"/></g><g><g><path fill="none" stroke="none"/><text dominant-baseline="text-before-edge" fill="#000000" font-family="Arial" font-size="13px" font-style="normal" font-weight="normal" stroke="none" text-anchor="start" text-decoration="undefined" transform="matrix(1 0 0 1 -646 2)" x="853" y="349">[CN == "timKiem"]</text></g></g><g><g><path fill="none" stroke="none"/><text dominant-baseline="text-before-edge" fill="#000000" font-family="Arial" font-size="13px" font-style="normal" font-weight="normal" stroke="none" text-anchor="start" text-decoration="undefined" transform="matrix(1 0 0 1 -646 2)" x="861" y="637">[dsTimKiem.length &gt; 0]</text></g></g><g><g><path fill="none" stroke="none"/><text dominant-baseline="text-before-edge" fill="#000000" font-family="Arial" font-size="13px" font-style="normal" font-weight="normal" stroke="none" text-anchor="start" text-decoration="undefined" transform="matrix(1 0 0 1 -646 2)" x="733" y="725">[else]</text></g></g><g><path d=" M 658 730 L 775 730 L 785 740 L 785 780 L 658 780 L 658 730" fill="#ffffff" paint-order="stroke fill markers" stroke="none"/></g><g><path d=" M 658 730 L 775 730 L 785 740 L 785 780 L 658 780 L 658 730 L 658 730" fill="none" paint-order="fill stroke markers" stroke="#000000" stroke-dasharray="" stroke-miterlimit="10"/></g><g><path d=" M 775 730 L 775 740 L 785 740 L 775 730" fill="none" paint-order="fill stroke markers" stroke="#000000" stroke-dasharray="" stroke-miterlimit="10"/></g><g><g><path fill="none" stroke="none"/><text dominant-baseline="text-before-edge" fill="#000000" font-family="Arial" font-size="13px" font-style="normal" font-weight="normal" stroke="none" text-anchor="start" text-decoration="undefined" transform="matrix(1 0 0 1 -646 2)" x="1309" y="733">Hiển thị lại giao diện</text><text dominant-baseline="text-before-edge" fill="#000000" font-family="Arial" font-size="13px" font-style="normal" font-weight="normal" stroke="none" text-anchor="start" text-decoration="undefined" transform="matrix(1 0 0 1 -646 2)" x="1309" y="746">trận đấu loại và đặt</text><text dominant-baseline="text-before-edge" fill="#000000" font-family="Arial" font-size="13px" font-style="normal" font-weight="normal" stroke="none" text-anchor="start" text-decoration="undefined" transform="matrix(1 0 0 1 -646 2)" x="1309" y="759">CN = Null</text></g></g><g><path d=" M 426 812 L 657 768" fill="none" paint-order="fill stroke markers" stroke="#000000" stroke-dasharray="3" stroke-miterlimit="10"/></g><g><rect fill="#C0C0C0" fill-opacity="0.2" height="40" stroke="none" transform="matrix(1 0 0 1 -646 2)" width="237.41357421875" x="1647" y="47"/></g><g><rect fill="#ffffff" height="40" stroke="none" transform="matrix(1 0 0 1 -646 2)" width="237.41357421875" x="1640" y="40"/></g><g><path d=" M 994 42 L 1231.41357421875 42 L 1231.41357421875 82 L 994 82 L 994 42 Z Z" fill="none" paint-order="fill stroke markers" stroke="#000000" stroke-dasharray="" stroke-miterlimit="10"/></g><g><g><path fill="none" stroke="none"/><text dominant-baseline="central" fill="#000000" font-family="Arial" font-size="13px" font-style="normal" font-weight="bold" stroke="none" text-anchor="middle" text-decoration="undefined" transform="matrix(1 0 0 1 -646 2)" x="1759.206787109375" y="53.5">dienbientrandau: DienBienTranDau</text></g></g><g><path d=" M 1113.5 83 L 1113.5 1106" fill="none" paint-order="fill stroke markers" stroke="#000000" stroke-dasharray="3" stroke-miterlimit="10"/></g><g><path d=" M 93 130 L 382 130" fill="none" paint-order="fill stroke markers" stroke="#000000" stroke-dasharray="" stroke-miterlimit="10"/></g><g><path d=" M 371.8373251423759 134.209517756016 L 382 130 L 371.8373251423758 125.79048224398402" fill="#000000" paint-order="stroke fill markers" stroke="none"/></g><g><path d=" M 371.8373251423759 134.209517756016 L 382 130 L 371.8373251423758 125.79048224398402 L 371.8373251423759 134.209517756016" fill="none" paint-order="fill stroke markers" stroke="#000000" stroke-dasharray="" stroke-miterlimit="10"/></g><g><rect fill="#ffffff" height="13" stroke="none" transform="matrix(1 0 0 1 -646 2)" width="252.255859375" x="758" y="112"/></g><g><g><path fill="none" stroke="none"/><text dominant-baseline="central" fill="#000000" font-family="Arial" font-size="13px" font-style="normal" font-weight="normal" stroke="none" text-anchor="middle" text-decoration="undefined" transform="matrix(1 0 0 1 -646 2)" x="884.1279296875" y="118.5">1 : Chọn chức năng Xem diễn biển trận đấu</text></g></g><g><rect fill="#ffffff" height="120" stroke="none" transform="matrix(1 0 0 1 -646 2)" width="14" x="1028" y="128"/></g><g><path d=" M 382 130 L 396 130 L 396 250 L 382 250 L 382 130 Z Z" fill="none" paint-order="fill stroke markers" stroke="#000000" stroke-dasharray="" stroke-miterlimit="10"/></g><g><path d=" M 396 146 L 787 146" fill="none" paint-order="fill stroke markers" stroke="#000000" stroke-dasharray="" stroke-miterlimit="10"/></g><g><path d=" M 776.8373251423759 150.209517756016 L 787 146 L 776.8373251423759 141.790482243984" fill="#000000" paint-order="stroke fill markers" stroke="none"/></g><g><path d=" M 776.8373251423759 150.209517756016 L 787 146 L 776.8373251423759 141.790482243984 L 776.8373251423759 150.209517756016" fill="none" paint-order="fill stroke markers" stroke="#000000" stroke-dasharray="" stroke-miterlimit="10"/></g><g><rect fill="#ffffff" height="13" stroke="none" transform="matrix(1 0 0 1 -646 2)" width="282.6484375" x="1096" y="128"/></g><g><g><path fill="none" stroke="none"/><text dominant-baseline="central" fill="#000000" font-family="Arial" font-size="13px" font-style="normal" font-weight="normal" stroke="none" text-anchor="middle" text-decoration="undefined" transform="matrix(1 0 0 1 -646 2)" x="1237.32421875" y="134.5">2 : dsTranDauLoai = layDSTranDauLoaiDienRa()</text></g></g><g><rect fill="#ffffff" height="32" stroke="none" transform="matrix(1 0 0 1 -646 2)" width="14" x="1433" y="144"/></g><g><path d=" M 787 146 L 801 146 L 801 178 L 787 178 L 787 146 Z Z" fill="none" paint-order="fill stroke markers" stroke="#000000" stroke-dasharray="" stroke-miterlimit="10"/></g><g><path d=" M 787 170 L 396 170" fill="none" paint-order="fill stroke markers" stroke="#000000" stroke-dasharray="3" stroke-miterlimit="10"/></g><g><path d=" M 406.1626748576241 165.790482243984 L 396 170 L 406.1626748576241 174.209517756016" fill="none" paint-order="fill stroke markers" stroke="#000000" stroke-dasharray="" stroke-miterlimit="10"/></g><g><rect fill="#ffffff" height="13" stroke="none" transform="matrix(1 0 0 1 -646 2)" width="146.4404296875" x="1163" y="172"/></g><g><g><path fill="none" stroke="none"/><text dominant-baseline="central" fill="#000000" font-family="Arial" font-size="13px" font-style="normal" font-weight="normal" stroke="none" text-anchor="middle" text-decoration="undefined" transform="matrix(1 0 0 1 -646 2)" x="1236.22021484375" y="178.5">3 : Trả về dsTranDauLoai</text></g></g><g><path d=" M 396 186 L 426 186 L 426 206 L 403 206" fill="none" paint-order="fill stroke markers" stroke="#000000" stroke-dasharray="" stroke-miterlimit="10"/></g><g><path d=" M 413.1626748576241 201.790482243984 L 403 206 L 413.1626748576241 210.209517756016" fill="#000000" paint-order="stroke fill markers" stroke="none"/></g><g><path d=" M 413.1626748576241 201.790482243984 L 403 206 L 413.1626748576241 210.209517756016 L 413.1626748576241 201.790482243984" fill="none" paint-order="fill stroke markers" stroke="#000000" stroke-dasharray="" stroke-miterlimit="10"/></g><g><rect fill="#ffffff" height="13" stroke="none" transform="matrix(1 0 0 1 -646 2)" width="290.748046875" x="1077" y="187"/></g><g><g><path fill="none" stroke="none"/><text dominant-baseline="central" fill="#000000" font-family="Arial" font-size="13px" font-style="normal" font-weight="normal" stroke="none" text-anchor="middle" text-decoration="undefined" transform="matrix(1 0 0 1 -646 2)" x="1222.3740234375" y="193.5">4 : Hiển thị giao diện trận đấu loại(dsTranDauLoai)</text></g></g><g><rect fill="#ffffff" height="28" stroke="none" transform="matrix(1 0 0 1 -646 2)" width="14" x="1035" y="204"/></g><g><path d=" M 389 206 L 403 206 L 403 234 L 389 234 L 389 206 Z Z" fill="none" paint-order="fill stroke markers" stroke="#000000" stroke-dasharray="" stroke-miterlimit="10"/></g><g><path d=" M 93 274 L 382 274" fill="none" paint-order="fill stroke markers" stroke="#000000" stroke-dasharray="" stroke-miterlimit="10"/></g><g><path d=" M 371.8373251423759 278.209517756016 L 382 274 L 371.8373251423758 269.790482243984" fill="#000000" paint-order="stroke fill markers" stroke="none"/></g><g><path d=" M 371.8373251423759 278.209517756016 L 382 274 L 371.8373251423758 269.790482243984 L 371.8373251423759 278.209517756016" fill="none" paint-order="fill stroke markers" stroke="#000000" stroke-dasharray="" stroke-miterlimit="10"/></g><g><rect fill="#ffffff" height="13" stroke="none" transform="matrix(1 0 0 1 -646 2)" width="231.30859375" x="768" y="256"/></g><g><g><path fill="none" stroke="none"/><text dominant-baseline="central" fill="#000000" font-family="Arial" font-size="13px" font-style="normal" font-weight="normal" stroke="none" text-anchor="middle" text-decoration="undefined" transform="matrix(1 0 0 1 -646 2)" x="883.654296875" y="262.5">5 : Chọn chức năng cần thực hiện [CN]</text></g></g><g><rect fill="#ffffff" height="152" stroke="none" transform="matrix(1 0 0 1 -646 2)" width="14" x="1028" y="272"/></g><g><path d=" M 382 274 L 396 274 L 396 426 L 382 426 L 382 274 Z Z" fill="none" paint-order="fill stroke markers" stroke="#000000" stroke-dasharray="" stroke-miterlimit="10"/></g><g><path d=" M 396 370 L 426 370 L 426 390 L 403 390" fill="none" paint-order="fill stroke markers" stroke="#000000" stroke-dasharray="" stroke-miterlimit="10"/></g><g><path d=" M 413.1626748576241 385.790482243984 L 403 390 L 413.1626748576241 394.209517756016" fill="#000000" paint-order="stroke fill markers" stroke="none"/></g><g><path d=" M 413.1626748576241 385.790482243984 L 403 390 L 413.1626748576241 394.209517756016 L 413.1626748576241 385.790482243984" fill="none" paint-order="fill stroke markers" stroke="#000000" stroke-dasharray="" stroke-miterlimit="10"/></g><g><rect fill="#ffffff" height="13" stroke="none" transform="matrix(1 0 0 1 -646 2)" width="171.2470703125" x="1078" y="371"/></g><g><g><path fill="none" stroke="none"/><text dominant-baseline="central" fill="#000000" font-family="Arial" font-size="13px" font-style="normal" font-weight="normal" stroke="none" text-anchor="middle" text-decoration="undefined" transform="matrix(1 0 0 1 -646 2)" x="1163.62353515625" y="377.5">6 : Hiển thị giao diện tìm kiếm</text></g></g><g><rect fill="#ffffff" height="28" stroke="none" transform="matrix(1 0 0 1 -646 2)" width="14" x="1035" y="388"/></g><g><path d=" M 389 390 L 403 390 L 403 418 L 389 418 L 389 390 Z Z" fill="none" paint-order="fill stroke markers" stroke="#000000" stroke-dasharray="" stroke-miterlimit="10"/></g><g><path d=" M 93 448 L 382 448" fill="none" paint-order="fill stroke markers" stroke="#000000" stroke-dasharray="" stroke-miterlimit="10"/></g><g><path d=" M 371.8373251423759 452.209517756016 L 382 448 L 371.8373251423758 443.790482243984" fill="#000000" paint-order="stroke fill markers" stroke="none"/></g><g><path d=" M 371.8373251423759 452.209517756016 L 382 448 L 371.8373251423758 443.790482243984 L 371.8373251423759 452.209517756016" fill="none" paint-order="fill stroke markers" stroke="#000000" stroke-dasharray="" stroke-miterlimit="10"/></g><g><rect fill="#ffffff" height="13" stroke="none" transform="matrix(1 0 0 1 -646 2)" width="195.14599609375" x="786" y="430"/></g><g><g><path fill="none" stroke="none"/><text dominant-baseline="central" fill="#000000" font-family="Arial" font-size="13px" font-style="normal" font-weight="normal" stroke="none" text-anchor="middle" text-decoration="undefined" transform="matrix(1 0 0 1 -646 2)" x="883.572998046875" y="436.5">7 : Nhập từ khóa cần tìm [tuKhoa]</text></g></g><g><rect fill="#ffffff" height="28" stroke="none" transform="matrix(1 0 0 1 -646 2)" width="14" x="1028" y="446"/></g><g><path d=" M 382 448 L 396 448 L 396 476 L 382 476 L 382 448 Z Z" fill="none" paint-order="fill stroke markers" stroke="#000000" stroke-dasharray="" stroke-miterlimit="10"/></g><g><path d=" M 93 510 L 382 510" fill="none" paint-order="fill stroke markers" stroke="#000000" stroke-dasharray="" stroke-miterlimit="10"/></g><g><path d=" M 371.8373251423759 514.209517756016 L 382 510 L 371.8373251423758 505.790482243984" fill="#000000" paint-order="stroke fill markers" stroke="none"/></g><g><path d=" M 371.8373251423759 514.209517756016 L 382 510 L 371.8373251423758 505.790482243984 L 371.8373251423759 514.209517756016" fill="none" paint-order="fill stroke markers" stroke="#000000" stroke-dasharray="" stroke-miterlimit="10"/></g><g><rect fill="#ffffff" height="13" stroke="none" transform="matrix(1 0 0 1 -646 2)" width="101.8671875" x="833" y="492"/></g><g><g><path fill="none" stroke="none"/><text dominant-baseline="central" fill="#000000" font-family="Arial" font-size="13px" font-style="normal" font-weight="normal" stroke="none" text-anchor="middle" text-decoration="undefined" transform="matrix(1 0 0 1 -646 2)" x="883.93359375" y="498.5">8 : Nhấn tìm kiếm</text></g></g><g><rect fill="#ffffff" height="348" stroke="none" transform="matrix(1 0 0 1 -646 2)" width="14" x="1028" y="508"/></g><g><path d=" M 382 510 L 396 510 L 396 858 L 382 858 L 382 510 Z Z" fill="none" paint-order="fill stroke markers" stroke="#000000" stroke-dasharray="" stroke-miterlimit="10"/></g><g><path d=" M 396 514 L 787 514" fill="none" paint-order="fill stroke markers" stroke="#000000" stroke-dasharray="" stroke-miterlimit="10"/></g><g><path d=" M 776.8373251423759 518.209517756016 L 787 514 L 776.8373251423759 509.790482243984" fill="#000000" paint-order="stroke fill markers" stroke="none"/></g><g><path d=" M 776.8373251423759 518.209517756016 L 787 514 L 776.8373251423759 509.790482243984 L 776.8373251423759 518.209517756016" fill="none" paint-order="fill stroke markers" stroke="#000000" stroke-dasharray="" stroke-miterlimit="10"/></g><g><rect fill="#ffffff" height="13" stroke="none" transform="matrix(1 0 0 1 -646 2)" width="299.97119140625" x="1088" y="496"/></g><g><g><path fill="none" stroke="none"/><text dominant-baseline="central" fill="#000000" font-family="Arial" font-size="13px" font-style="normal" font-weight="normal" stroke="none" text-anchor="middle" text-decoration="undefined" transform="matrix(1 0 0 1 -646 2)" x="1237.985595703125" y="502.5">9 : dsTimKiem = layDSTranDauLoaiDienRa(tuKhoa)</text></g></g><g><rect fill="#ffffff" height="28" stroke="none" transform="matrix(1 0 0 1 -646 2)" width="14" x="1433" y="512"/></g><g><path d=" M 787 514 L 801 514 L 801 542 L 787 542 L 787 514 Z Z" fill="none" paint-order="fill stroke markers" stroke="#000000" stroke-dasharray="" stroke-miterlimit="10"/></g><g><path d=" M 787 538 L 396 538" fill="none" paint-order="fill stroke markers" stroke="#000000" stroke-dasharray="3" stroke-miterlimit="10"/></g><g><path d=" M 406.1626748576241 533.790482243984 L 396 538 L 406.1626748576241 542.209517756016" fill="none" paint-order="fill stroke markers" stroke="#000000" stroke-dasharray="" stroke-miterlimit="10"/></g><g><rect fill="#ffffff" height="13" stroke="none" transform="matrix(1 0 0 1 -646 2)" width="129.79052734375" x="1172" y="540"/></g><g><g><path fill="none" stroke="none"/><text dominant-baseline="central" fill="#000000" font-family="Arial" font-size="13px" font-style="normal" font-weight="normal" stroke="none" text-anchor="middle" text-decoration="undefined" transform="matrix(1 0 0 1 -646 2)" x="1236.895263671875" y="546.5">10 : Trả về dsTimKiem</text></g></g><g><path d=" M 396 658 L 426 658 L 426 678 L 403 678" fill="none" paint-order="fill stroke markers" stroke="#000000" stroke-dasharray="" stroke-miterlimit="10"/></g><g><path d=" M 413.1626748576241 673.790482243984 L 403 678 L 413.1626748576241 682.209517756016" fill="#000000" paint-order="stroke fill markers" stroke="none"/></g><g><path d=" M 413.1626748576241 673.790482243984 L 403 678 L 413.1626748576241 682.209517756016 L 413.1626748576241 673.790482243984" fill="none" paint-order="fill stroke markers" stroke="#000000" stroke-dasharray="" stroke-miterlimit="10"/></g><g><rect fill="#ffffff" height="13" stroke="none" transform="matrix(1 0 0 1 -646 2)" width="289.51318359375" x="1078" y="656"/></g><g><g><path fill="none" stroke="none"/><text dominant-baseline="central" fill="#000000" font-family="Arial" font-size="13px" font-style="normal" font-weight="normal" stroke="none" text-anchor="middle" text-decoration="undefined" transform="matrix(1 0 0 1 -646 2)" x="1222.756591796875" y="662.5">11 : Hiển thị giao diện trận đấu loại(dsTimKiem)</text></g></g><g><rect fill="#ffffff" height="28" stroke="none" transform="matrix(1 0 0 1 -646 2)" width="14" x="1035" y="676"/></g><g><path d=" M 389 678 L 403 678 L 403 706 L 389 706 L 389 678 Z Z" fill="none" paint-order="fill stroke markers" stroke="#000000" stroke-dasharray="" stroke-miterlimit="10"/></g><g><path d=" M 382 773 L 93 773" fill="none" paint-order="fill stroke markers" stroke="#000000" stroke-dasharray="3" stroke-miterlimit="10"/></g><g><path d=" M 103.1626748576241 768.790482243984 L 93 773 L 103.1626748576241 777.209517756016" fill="none" paint-order="fill stroke markers" stroke="#000000" stroke-dasharray="" stroke-miterlimit="10"/></g><g><rect fill="#ffffff" height="13" stroke="none" transform="matrix(1 0 0 1 -646 2)" width="219.69873046875" x="773" y="775"/></g><g><g><path fill="none" stroke="none"/><text dominant-baseline="central" fill="#000000" font-family="Arial" font-size="13px" font-style="normal" font-weight="normal" stroke="none" text-anchor="middle" text-decoration="undefined" transform="matrix(1 0 0 1 -646 2)" x="882.849365234375" y="781.5">12 : Hiển thị thông báo không tìm thấy</text></g></g><g><path d=" M 396 802 L 426 802 L 426 822 L 403 822" fill="none" paint-order="fill stroke markers" stroke="#000000" stroke-dasharray="" stroke-miterlimit="10"/></g><g><path d=" M 413.1626748576241 817.790482243984 L 403 822 L 413.1626748576241 826.209517756016" fill="#000000" paint-order="stroke fill markers" stroke="none"/></g><g><path d=" M 413.1626748576241 817.790482243984 L 403 822 L 413.1626748576241 826.209517756016 L 413.1626748576241 817.790482243984" fill="none" paint-order="fill stroke markers" stroke="#000000" stroke-dasharray="" stroke-miterlimit="10"/></g><g><rect fill="#ffffff" height="13" stroke="none" transform="matrix(1 0 0 1 -646 2)" width="297.97802734375" x="1076" y="808"/></g><g><g><path fill="none" stroke="none"/><text dominant-baseline="central" fill="#000000" font-family="Arial" font-size="13px" font-style="normal" font-weight="normal" stroke="none" text-anchor="middle" text-decoration="undefined" transform="matrix(1 0 0 1 -646 2)" x="1224.989013671875" y="814.5">13 : Hiển thị giao diễn trận đấu loại(dsTranDauLoai)</text></g></g><g><rect fill="#ffffff" height="28" stroke="none" transform="matrix(1 0 0 1 -646 2)" width="14" x="1035" y="820"/></g><g><path d=" M 389 822 L 403 822 L 403 850 L 389 850 L 389 822 Z Z" fill="none" paint-order="fill stroke markers" stroke="#000000" stroke-dasharray="" stroke-miterlimit="10"/></g><g><path d=" M 93 921 L 382 921" fill="none" paint-order="fill stroke markers" stroke="#000000" stroke-dasharray="" stroke-miterlimit="10"/></g><g><path d=" M 371.8373251423759 925.209517756016 L 382 921 L 371.8373251423758 916.790482243984" fill="#000000" paint-order="stroke fill markers" stroke="none"/></g><g><path d=" M 371.8373251423759 925.209517756016 L 382 921 L 371.8373251423758 916.790482243984 L 371.8373251423759 925.209517756016" fill="none" paint-order="fill stroke markers" stroke="#000000" stroke-dasharray="" stroke-miterlimit="10"/></g><g><rect fill="#ffffff" height="13" stroke="none" transform="matrix(1 0 0 1 -646 2)" width="266.1826171875" x="750" y="903"/></g><g><g><path fill="none" stroke="none"/><text dominant-baseline="central" fill="#000000" font-family="Arial" font-size="13px" font-style="normal" font-weight="normal" stroke="none" text-anchor="middle" text-decoration="undefined" transform="matrix(1 0 0 1 -646 2)" x="883.09130859375" y="909.5">14 : Chọn vào trận đấu loại cụ thể [idTranDau]</text></g></g><g><rect fill="#ffffff" height="145" stroke="none" transform="matrix(1 0 0 1 -646 2)" width="14" x="1028" y="919"/></g><g><path d=" M 382 921 L 396 921 L 396 1066 L 382 1066 L 382 921 Z Z" fill="none" paint-order="fill stroke markers" stroke="#000000" stroke-dasharray="" stroke-miterlimit="10"/></g><g><path d=" M 396 938 L 1106 938" fill="none" paint-order="fill stroke markers" stroke="#000000" stroke-dasharray="" stroke-miterlimit="10"/></g><g><path d=" M 1095.837325142376 942.209517756016 L 1106 938 L 1095.837325142376 933.790482243984" fill="#000000" paint-order="stroke fill markers" stroke="none"/></g><g><path d=" M 1095.837325142376 942.209517756016 L 1106 938 L 1095.837325142376 933.790482243984 L 1095.837325142376 942.209517756016" fill="none" paint-order="fill stroke markers" stroke="#000000" stroke-dasharray="" stroke-miterlimit="10"/></g><g><rect fill="#ffffff" height="13" stroke="none" transform="matrix(1 0 0 1 -646 2)" width="275.716796875" x="1260" y="920"/></g><g><g><path fill="none" stroke="none"/><text dominant-baseline="central" fill="#000000" font-family="Arial" font-size="13px" font-style="normal" font-weight="normal" stroke="none" text-anchor="middle" text-decoration="undefined" transform="matrix(1 0 0 1 -646 2)" x="1397.8583984375" y="926.5">15 : dienbientrandau = layDienBien(idTranDau)</text></g></g><g><rect fill="#ffffff" height="40" stroke="none" transform="matrix(1 0 0 1 -646 2)" width="14" x="1752" y="936"/></g><g><path d=" M 1106 938 L 1120 938 L 1120 978 L 1106 978 L 1106 938 Z Z" fill="none" paint-order="fill stroke markers" stroke="#000000" stroke-dasharray="" stroke-miterlimit="10"/></g><g><path d=" M 1106 970 L 396 970" fill="none" paint-order="fill stroke markers" stroke="#000000" stroke-dasharray="3" stroke-miterlimit="10"/></g><g><path d=" M 406.1626748576241 965.790482243984 L 396 970 L 406.1626748576241 974.209517756016" fill="none" paint-order="fill stroke markers" stroke="#000000" stroke-dasharray="" stroke-miterlimit="10"/></g><g><rect fill="#ffffff" height="13" stroke="none" transform="matrix(1 0 0 1 -646 2)" width="158.513671875" x="1317" y="972"/></g><g><g><path fill="none" stroke="none"/><text dominant-baseline="central" fill="#000000" font-family="Arial" font-size="13px" font-style="normal" font-weight="normal" stroke="none" text-anchor="middle" text-decoration="undefined" transform="matrix(1 0 0 1 -646 2)" x="1396.2568359375" y="978.5">16 : Trả về dienbientrandau</text></g></g><g><path d=" M 396 1002 L 426 1002 L 426 1022 L 403 1022" fill="none" paint-order="fill stroke markers" stroke="#000000" stroke-dasharray="" stroke-miterlimit="10"/></g><g><path d=" M 413.1626748576241 1017.790482243984 L 403 1022 L 413.1626748576241 1026.2095177560159" fill="#000000" paint-order="stroke fill markers" stroke="none"/></g><g><path d=" M 413.1626748576241 1017.790482243984 L 403 1022 L 413.1626748576241 1026.2095177560159 L 413.1626748576241 1017.790482243984" fill="none" paint-order="fill stroke markers" stroke="#000000" stroke-dasharray="" stroke-miterlimit="10"/></g><g><rect fill="#ffffff" height="13" stroke="none" transform="matrix(1 0 0 1 -646 2)" width="359.201171875" x="1078" y="1003"/></g><g><g><path fill="none" stroke="none"/><text dominant-baseline="central" fill="#000000" font-family="Arial" font-size="13px" font-style="normal" font-weight="normal" stroke="none" text-anchor="middle" text-decoration="undefined" transform="matrix(1 0 0 1 -646 2)" x="1257.6005859375" y="1009.5">17 : Hiển thị giao diện diễn biến trân đấu loại(dienbientrandau)</text></g></g><g><rect fill="#ffffff" height="28" stroke="none" transform="matrix(1 0 0 1 -646 2)" width="14" x="1035" y="1020"/></g><g><path d=" M 389 1022 L 403 1022 L 403 1050 L 389 1050 L 389 1022 Z Z" fill="none" paint-order="fill stroke markers" stroke="#000000" stroke-dasharray="" stroke-miterlimit="10"/></g><g><path d=" M 34 346 L 890 346 L 890 882 L 34 882 L 34 346" fill="none" paint-order="fill stroke markers" stroke="#000000" stroke-dasharray="" stroke-miterlimit="10"/></g><g><path d=" M 34 346 L 34 369 L 185.14794921875 369 L 196.64794921875 357.5 L 196.64794921875 346 L 34 346" fill="#ffffff" paint-order="stroke fill markers" stroke="none"/></g><g><path d=" M 34 346 L 34 369 L 185.14794921875 369 L 196.64794921875 357.5 L 196.64794921875 346 L 34 346 L 34 346" fill="none" paint-order="fill stroke markers" stroke="#000000" stroke-dasharray="" stroke-miterlimit="10"/></g><g><g><path fill="none" stroke="none"/><text dominant-baseline="central" fill="#000000" font-family="Arial" font-size="13px" font-style="normal" font-weight="normal" stroke="none" text-anchor="middle" text-decoration="undefined" transform="matrix(1 0 0 1 -646 2)" x="767.60986328125" y="355.5">Chức năng tìm kiếm</text></g></g><g><g><path fill="none" stroke="none"/><text dominant-baseline="central" fill="#000000" font-family="Arial" font-size="13px" font-style="normal" font-weight="bold" stroke="none" text-anchor="middle" text-decoration="undefined" transform="matrix(1 0 0 1 -646 2)" x="694.035888671875" y="355.5">opt</text></g></g><g><path d=" M 58 626 L 866 626 L 866 866 L 58 866 L 58 626" fill="none" paint-order="fill stroke markers" stroke="#000000" stroke-dasharray="" stroke-miterlimit="10"/></g><g><path d=" M 58 626 L 58 649 L 189.60986328125 649 L 201.10986328125 637.5 L 201.10986328125 626 L 58 626" fill="#ffffff" paint-order="stroke fill markers" stroke="none"/></g><g><path d=" M 58 626 L 58 649 L 189.60986328125 649 L 201.10986328125 637.5 L 201.10986328125 626 L 58 626 L 58 626" fill="none" paint-order="fill stroke markers" stroke="#000000" stroke-dasharray="" stroke-miterlimit="10"/></g><g><g><path fill="none" stroke="none"/><text dominant-baseline="central" fill="#000000" font-family="Arial" font-size="13px" font-style="normal" font-weight="normal" stroke="none" text-anchor="middle" text-decoration="undefined" transform="matrix(1 0 0 1 -646 2)" x="779.669921875" y="635.5">Tìm thấy trận đấu</text></g></g><g><g><path fill="none" stroke="none"/><text dominant-baseline="central" fill="#000000" font-family="Arial" font-size="13px" font-style="normal" font-weight="bold" stroke="none" text-anchor="middle" text-decoration="undefined" transform="matrix(1 0 0 1 -646 2)" x="715.864990234375" y="635.5">alt</text></g></g><g><path d=" M 58 722 L 865 722" fill="none" paint-order="fill stroke markers" stroke="#000000" stroke-dasharray="10,3" stroke-miterlimit="10"/></g></g></svg>