<?xml version="1.0" encoding="utf-8"?>
<svg height="940" version="1.1" width="1460" xmlns="http://www.w3.org/2000/svg" xmlns:xlink="http://www.w3.org/1999/xlink"><defs/><g><g><path d=" M 34 10 L 1450 10 L 1450 930 L 34 930 L 34 10" fill="none" paint-order="fill stroke markers" stroke="#000000" stroke-dasharray="" stroke-miterlimit="10"/></g><g><path d=" M 34 10 L 34 33 L 239.109375 33 L 250.609375 21.5 L 250.609375 10 L 34 10" fill="#ffffff" paint-order="stroke fill markers" stroke="none"/></g><g><path d=" M 34 10 L 34 33 L 239.109375 33 L 250.609375 21.5 L 250.609375 10 L 34 10 L 34 10" fill="none" paint-order="fill stroke markers" stroke="#000000" stroke-dasharray="" stroke-miterlimit="10"/></g><g><g><path fill="none" stroke="none"/><text dominant-baseline="central" fill="#000000" font-family="Arial" font-size="13px" font-style="normal" font-weight="normal" stroke="none" text-anchor="middle" text-decoration="undefined" transform="matrix(1 0 0 1 -30 2)" x="176.419677734375" y="19.5">SDYeuCauChinhSuaThongTin</text></g></g><g><g><path fill="none" stroke="none"/><text dominant-baseline="central" fill="#000000" font-family="Arial" font-size="13px" font-style="normal" font-weight="bold" stroke="none" text-anchor="middle" text-decoration="undefined" transform="matrix(1 0 0 1 -30 2)" x="75.864990234375" y="19.5">sd</text></g></g><g><path d=" M 136.0870223721591 49.3 C 136.0870223721591 45.82060576 138.9654240943409 43 142.51611328125 43 C 146.0668024681591 43 148.94520419034092 45.82060576 148.94520419034092 49.3 C 148.94520419034092 52.779394239999995 146.0668024681591 55.6 142.51611328125 55.6 C 138.9654240943409 55.6 136.0870223721591 52.779394239999995 136.0870223721591 49.3 Z" fill="#ffffff" paint-order="stroke fill markers" stroke="none"/></g><g><path d=" M 136.0870223721591 49.3 C 136.0870223721591 45.82060576 138.9654240943409 43 142.51611328125 43 C 146.0668024681591 43 148.94520419034092 45.82060576 148.94520419034092 49.3 C 148.94520419034092 52.779394239999995 146.0668024681591 55.6 142.51611328125 55.6 C 138.9654240943409 55.6 136.0870223721591 52.779394239999995 136.0870223721591 49.3 Z" fill="none" paint-order="fill stroke markers" stroke="#000000" stroke-dasharray="" stroke-miterlimit="10"/></g><g><path d=" M 142.51611328125 55.6 L 142.51611328125 68.4" fill="none" paint-order="fill stroke markers" stroke="#000000" stroke-dasharray="" stroke-miterlimit="10"/></g><g><path d=" M 135.7088405539773 60.4 L 149.32338600852273 60.4" fill="none" paint-order="fill stroke markers" stroke="#000000" stroke-dasharray="" stroke-miterlimit="10"/></g><g><path d=" M 142.51611328125 68.4 L 133.06156782670456 81" fill="none" paint-order="fill stroke markers" stroke="#000000" stroke-dasharray="" stroke-miterlimit="10"/></g><g><path d=" M 142.51611328125 68.4 L 151.97065873579547 81" fill="none" paint-order="fill stroke markers" stroke="#000000" stroke-dasharray="" stroke-miterlimit="10"/></g><g><g><path fill="none" stroke="none"/><text dominant-baseline="central" fill="#000000" font-family="Arial" font-size="13px" font-style="normal" font-weight="bold" stroke="none" text-anchor="middle" text-decoration="undefined" transform="matrix(1 0 0 1 -30 2)" x="173.01611328125" y="93.5">Actor: Vận Động Viên</text></g></g><g><path d=" M 143.5 108 L 143.5 930" fill="none" paint-order="fill stroke markers" stroke="#000000" stroke-dasharray="3" stroke-miterlimit="10"/></g><g><rect fill="#C0C0C0" fill-opacity="0.2" height="40" stroke="none" transform="matrix(1 0 0 1 -30 2)" width="265.0322265625" x="359" y="47"/></g><g><rect fill="#ffffff" height="40" stroke="none" transform="matrix(1 0 0 1 -30 2)" width="265.0322265625" x="352" y="40"/></g><g><path d=" M 322 42 L 587.0322265625 42 L 587.0322265625 82 L 322 82 L 322 42 Z Z" fill="none" paint-order="fill stroke markers" stroke="#000000" stroke-dasharray="" stroke-miterlimit="10"/></g><g><g><path fill="none" stroke="none"/><text dominant-baseline="central" fill="#000000" font-family="Arial" font-size="13px" font-style="normal" font-weight="bold" stroke="none" text-anchor="middle" text-decoration="undefined" transform="matrix(1 0 0 1 -30 2)" x="485.01611328125" y="53.5">GD: GiaoDien</text></g></g><g><path d=" M 455.5 83 L 455.5 930" fill="none" paint-order="fill stroke markers" stroke="#000000" stroke-dasharray="3" stroke-miterlimit="10"/></g><g><rect fill="#C0C0C0" fill-opacity="0.2" height="40" stroke="none" transform="matrix(1 0 0 1 -30 2)" width="265.0322265625" x="791" y="47"/></g><g><rect fill="#ffffff" height="40" stroke="none" transform="matrix(1 0 0 1 -30 2)" width="265.0322265625" x="784" y="40"/></g><g><path d=" M 754 42 L 1019.0322265625 42 L 1019.0322265625 82 L 754 82 L 754 42 Z Z" fill="none" paint-order="fill stroke markers" stroke="#000000" stroke-dasharray="" stroke-miterlimit="10"/></g><g><g><path fill="none" stroke="none"/><text dominant-baseline="central" fill="#000000" font-family="Arial" font-size="13px" font-style="normal" font-weight="bold" stroke="none" text-anchor="middle" text-decoration="undefined" transform="matrix(1 0 0 1 -30 2)" x="917.01611328125" y="53.5">vandongvien: VanDongVien</text></g></g><g><path d=" M 887.5 83 L 887.5 930" fill="none" paint-order="fill stroke markers" stroke="#000000" stroke-dasharray="3" stroke-miterlimit="10"/></g><g><rect fill="#C0C0C0" fill-opacity="0.2" height="40" stroke="none" transform="matrix(1 0 0 1 -30 2)" width="265.0322265625" x="1183" y="47"/></g><g><rect fill="#ffffff" height="40" stroke="none" transform="matrix(1 0 0 1 -30 2)" width="265.0322265625" x="1176" y="40"/></g><g><path d=" M 1146 42 L 1411.0322265625 42 L 1411.0322265625 82 L 1146 82 L 1146 42 Z Z" fill="none" paint-order="fill stroke markers" stroke="#000000" stroke-dasharray="" stroke-miterlimit="10"/></g><g><g><path fill="none" stroke="none"/><text dominant-baseline="central" fill="#000000" font-family="Arial" font-size="13px" font-style="normal" font-weight="bold" stroke="none" text-anchor="middle" text-decoration="undefined" transform="matrix(1 0 0 1 -30 2)" x="1309.01611328125" y="53.5">thongtinchinhsua: ThongTinChinhSua</text></g></g><g><path d=" M 1279.5 83 L 1279.5 930" fill="none" paint-order="fill stroke markers" stroke="#000000" stroke-dasharray="3" stroke-miterlimit="10"/></g><g><path d=" M 162 322 L 367 322 L 377 332 L 377 372 L 162 372 L 162 322" fill="#ffffff" paint-order="stroke fill markers" stroke="none"/></g><g><path d=" M 162 322 L 367 322 L 377 332 L 377 372 L 162 372 L 162 322 L 162 322" fill="none" paint-order="fill stroke markers" stroke="#000000" stroke-dasharray="" stroke-miterlimit="10"/></g><g><path d=" M 367 322 L 367 332 L 377 332 L 367 322" fill="none" paint-order="fill stroke markers" stroke="#000000" stroke-dasharray="" stroke-miterlimit="10"/></g><g><g><path fill="none" stroke="none"/><text dominant-baseline="text-before-edge" fill="#000000" font-family="Arial" font-size="13px" font-style="normal" font-weight="normal" stroke="none" text-anchor="start" text-decoration="undefined" transform="matrix(1 0 0 1 -30 2)" x="197" y="325">Thông tin chỉnh sửa gồm: Chiều</text><text dominant-baseline="text-before-edge" fill="#000000" font-family="Arial" font-size="13px" font-style="normal" font-weight="normal" stroke="none" text-anchor="start" text-decoration="undefined" transform="matrix(1 0 0 1 -30 2)" x="197" y="338">cao, cân nặng, họ tên, địa chỉ, số</text><text dominant-baseline="text-before-edge" fill="#000000" font-family="Arial" font-size="13px" font-style="normal" font-weight="normal" stroke="none" text-anchor="start" text-decoration="undefined" transform="matrix(1 0 0 1 -30 2)" x="197" y="351">điện thoại, ngày sinh</text></g></g><g><g><path fill="none" stroke="none"/><text dominant-baseline="text-before-edge" fill="#000000" font-family="Arial" font-size="13px" font-style="normal" font-weight="normal" stroke="none" text-anchor="start" text-decoration="undefined" transform="matrix(1 0 0 1 -30 2)" x="173" y="605">[ketQua == true]</text></g></g><g><g><path fill="none" stroke="none"/><text dominant-baseline="text-before-edge" fill="#000000" font-family="Arial" font-size="13px" font-style="normal" font-weight="normal" stroke="none" text-anchor="start" text-decoration="undefined" transform="matrix(1 0 0 1 -30 2)" x="133" y="805">[else]</text></g></g><g><path d=" M 280 374 L 296 417" fill="none" paint-order="fill stroke markers" stroke="#000000" stroke-dasharray="3" stroke-miterlimit="10"/></g><g><path d=" M 738 522 L 839 522 L 849 532 L 849 585 L 738 585 L 738 522" fill="#ffffff" paint-order="stroke fill markers" stroke="none"/></g><g><path d=" M 738 522 L 839 522 L 849 532 L 849 585 L 738 585 L 738 522 L 738 522" fill="none" paint-order="fill stroke markers" stroke="#000000" stroke-dasharray="" stroke-miterlimit="10"/></g><g><path d=" M 839 522 L 839 532 L 849 532 L 839 522" fill="none" paint-order="fill stroke markers" stroke="#000000" stroke-dasharray="" stroke-miterlimit="10"/></g><g><g><path fill="none" stroke="none"/><text dominant-baseline="text-before-edge" fill="#000000" font-family="Arial" font-size="13px" font-style="normal" font-weight="normal" stroke="none" text-anchor="start" text-decoration="undefined" transform="matrix(1 0 0 1 -30 2)" x="773" y="525">Trả về true nếu</text><text dominant-baseline="text-before-edge" fill="#000000" font-family="Arial" font-size="13px" font-style="normal" font-weight="normal" stroke="none" text-anchor="start" text-decoration="undefined" transform="matrix(1 0 0 1 -30 2)" x="773" y="538">ngày nhập hợp</text><text dominant-baseline="text-before-edge" fill="#000000" font-family="Arial" font-size="13px" font-style="normal" font-weight="normal" stroke="none" text-anchor="start" text-decoration="undefined" transform="matrix(1 0 0 1 -30 2)" x="773" y="551">lệ, ngược lại là</text><text dominant-baseline="text-before-edge" fill="#000000" font-family="Arial" font-size="13px" font-style="normal" font-weight="normal" stroke="none" text-anchor="start" text-decoration="undefined" transform="matrix(1 0 0 1 -30 2)" x="773" y="564">false</text></g></g><g><path d=" M 737 528 L 671 498" fill="none" paint-order="fill stroke markers" stroke="#000000" stroke-dasharray="3" stroke-miterlimit="10"/></g><g><rect fill="#ffffff" height="30" stroke="none" transform="matrix(1 0 0 1 -30 2)" width="1368" x="88" y="128"/></g><g><path d=" M 58 130 L 1426 130 L 1426 160 L 58 160 L 58 130 Z Z" fill="none" paint-order="fill stroke markers" stroke="#000000" stroke-dasharray="" stroke-miterlimit="10"/></g><g><path d=" M 58 130 L 58 153 L 83.1708984375 153 L 94.6708984375 141.5 L 94.6708984375 130 L 58 130 L 58 130" fill="none" paint-order="fill stroke markers" stroke="#000000" stroke-dasharray="" stroke-miterlimit="10"/></g><g><g><path fill="none" stroke="none"/><text dominant-baseline="central" fill="#000000" font-family="Arial" font-size="13px" font-style="normal" font-weight="normal" stroke="none" text-anchor="middle" text-decoration="undefined" transform="matrix(1 0 0 1 -30 2)" x="790.33544921875" y="139.5">Đăng nhập vào hệ thống</text></g></g><g><g><path fill="none" stroke="none"/><text dominant-baseline="central" fill="#000000" font-family="Arial" font-size="13px" font-style="normal" font-weight="bold" stroke="none" text-anchor="middle" text-decoration="undefined" transform="matrix(1 0 0 1 -30 2)" x="100.58544921875" y="139.5">ref</text></g></g><g><rect fill="#ffffff" height="30" stroke="none" transform="matrix(1 0 0 1 -30 2)" width="1368" x="88" y="168"/></g><g><path d=" M 58 170 L 1426 170 L 1426 200 L 58 200 L 58 170 Z Z" fill="none" paint-order="fill stroke markers" stroke="#000000" stroke-dasharray="" stroke-miterlimit="10"/></g><g><path d=" M 58 170 L 58 193 L 83.1708984375 193 L 94.6708984375 181.5 L 94.6708984375 170 L 58 170 L 58 170" fill="none" paint-order="fill stroke markers" stroke="#000000" stroke-dasharray="" stroke-miterlimit="10"/></g><g><g><path fill="none" stroke="none"/><text dominant-baseline="central" fill="#000000" font-family="Arial" font-size="13px" font-style="normal" font-weight="normal" stroke="none" text-anchor="middle" text-decoration="undefined" transform="matrix(1 0 0 1 -30 2)" x="790.33544921875" y="179.5">Xem thông tin cá nhân</text></g></g><g><g><path fill="none" stroke="none"/><text dominant-baseline="central" fill="#000000" font-family="Arial" font-size="13px" font-style="normal" font-weight="bold" stroke="none" text-anchor="middle" text-decoration="undefined" transform="matrix(1 0 0 1 -30 2)" x="100.58544921875" y="179.5">ref</text></g></g><g><path d=" M 144 235 L 448 235" fill="none" paint-order="fill stroke markers" stroke="#000000" stroke-dasharray="" stroke-miterlimit="10"/></g><g><path d=" M 437.83732514237585 239.209517756016 L 448 235 L 437.83732514237585 230.790482243984" fill="#000000" paint-order="stroke fill markers" stroke="none"/></g><g><path d=" M 437.83732514237585 239.209517756016 L 448 235 L 437.83732514237585 230.790482243984 L 437.83732514237585 239.209517756016" fill="none" paint-order="fill stroke markers" stroke="#000000" stroke-dasharray="" stroke-miterlimit="10"/></g><g><rect fill="#ffffff" height="13" stroke="none" transform="matrix(1 0 0 1 -30 2)" width="277.5830078125" x="188" y="217"/></g><g><g><path fill="none" stroke="none"/><text dominant-baseline="central" fill="#000000" font-family="Arial" font-size="13px" font-style="normal" font-weight="normal" stroke="none" text-anchor="middle" text-decoration="undefined" transform="matrix(1 0 0 1 -30 2)" x="326.79150390625" y="223.5">1 : Chọn chức năng yêu cầu chỉnh sửa thông tin</text></g></g><g><rect fill="#ffffff" height="66" stroke="none" transform="matrix(1 0 0 1 -30 2)" width="14" x="478" y="233"/></g><g><path d=" M 448 235 L 462 235 L 462 301 L 448 301 L 448 235 Z Z" fill="none" paint-order="fill stroke markers" stroke="#000000" stroke-dasharray="" stroke-miterlimit="10"/></g><g><path d=" M 462 250 L 492 250 L 492 270 L 469 270" fill="none" paint-order="fill stroke markers" stroke="#000000" stroke-dasharray="" stroke-miterlimit="10"/></g><g><path d=" M 479.16267485762415 265.790482243984 L 469 270 L 479.16267485762415 274.209517756016" fill="#000000" paint-order="stroke fill markers" stroke="none"/></g><g><path d=" M 479.16267485762415 265.790482243984 L 469 270 L 479.16267485762415 274.209517756016 L 479.16267485762415 265.790482243984" fill="none" paint-order="fill stroke markers" stroke="#000000" stroke-dasharray="" stroke-miterlimit="10"/></g><g><rect fill="#ffffff" height="13" stroke="none" transform="matrix(1 0 0 1 -30 2)" width="280.4140625" x="528" y="251"/></g><g><g><path fill="none" stroke="none"/><text dominant-baseline="central" fill="#000000" font-family="Arial" font-size="13px" font-style="normal" font-weight="normal" stroke="none" text-anchor="middle" text-decoration="undefined" transform="matrix(1 0 0 1 -30 2)" x="668.20703125" y="257.5">2 : Hiển thị giao diện yêu cầu chỉnh sủa thông tin</text></g></g><g><rect fill="#ffffff" height="28" stroke="none" transform="matrix(1 0 0 1 -30 2)" width="14" x="485" y="268"/></g><g><path d=" M 455 270 L 469 270 L 469 298 L 455 298 L 455 270 Z Z" fill="none" paint-order="fill stroke markers" stroke="#000000" stroke-dasharray="" stroke-miterlimit="10"/></g><g><path d=" M 144 417 L 448 417" fill="none" paint-order="fill stroke markers" stroke="#000000" stroke-dasharray="" stroke-miterlimit="10"/></g><g><path d=" M 437.83732514237585 421.209517756016 L 448 417 L 437.83732514237585 412.790482243984" fill="#000000" paint-order="stroke fill markers" stroke="none"/></g><g><path d=" M 437.83732514237585 421.209517756016 L 448 417 L 437.83732514237585 412.790482243984 L 437.83732514237585 421.209517756016" fill="none" paint-order="fill stroke markers" stroke="#000000" stroke-dasharray="" stroke-miterlimit="10"/></g><g><rect fill="#ffffff" height="13" stroke="none" transform="matrix(1 0 0 1 -30 2)" width="297.0703125" x="178" y="399"/></g><g><g><path fill="none" stroke="none"/><text dominant-baseline="central" fill="#000000" font-family="Arial" font-size="13px" font-style="normal" font-weight="normal" stroke="none" text-anchor="middle" text-decoration="undefined" transform="matrix(1 0 0 1 -30 2)" x="326.53515625" y="405.5">3 : Nhập thông tin cần chỉnh sửa [thongtinchinhsua]</text></g></g><g><rect fill="#ffffff" height="28" stroke="none" transform="matrix(1 0 0 1 -30 2)" width="14" x="478" y="415"/></g><g><path d=" M 448 417 L 462 417 L 462 445 L 448 445 L 448 417 Z Z" fill="none" paint-order="fill stroke markers" stroke="#000000" stroke-dasharray="" stroke-miterlimit="10"/></g><g><path d=" M 144 459 L 448 459" fill="none" paint-order="fill stroke markers" stroke="#000000" stroke-dasharray="" stroke-miterlimit="10"/></g><g><path d=" M 437.83732514237585 463.209517756016 L 448 459 L 437.83732514237585 454.790482243984" fill="#000000" paint-order="stroke fill markers" stroke="none"/></g><g><path d=" M 437.83732514237585 463.209517756016 L 448 459 L 437.83732514237585 454.790482243984 L 437.83732514237585 463.209517756016" fill="none" paint-order="fill stroke markers" stroke="#000000" stroke-dasharray="" stroke-miterlimit="10"/></g><g><rect fill="#ffffff" height="13" stroke="none" transform="matrix(1 0 0 1 -30 2)" width="142.4033203125" x="255" y="441"/></g><g><g><path fill="none" stroke="none"/><text dominant-baseline="central" fill="#000000" font-family="Arial" font-size="13px" font-style="normal" font-weight="normal" stroke="none" text-anchor="middle" text-decoration="undefined" transform="matrix(1 0 0 1 -30 2)" x="326.20166015625" y="447.5">4 : Nhấn nút gửi yêu cầu</text></g></g><g><rect fill="#ffffff" height="399" stroke="none" transform="matrix(1 0 0 1 -30 2)" width="14" x="478" y="457"/></g><g><path d=" M 448 459 L 462 459 L 462 858 L 448 858 L 448 459 Z Z" fill="none" paint-order="fill stroke markers" stroke="#000000" stroke-dasharray="" stroke-miterlimit="10"/></g><g><path d=" M 462 466 L 880 466" fill="none" paint-order="fill stroke markers" stroke="#000000" stroke-dasharray="" stroke-miterlimit="10"/></g><g><path d=" M 869.8373251423759 470.209517756016 L 880 466 L 869.8373251423758 461.790482243984" fill="#000000" paint-order="stroke fill markers" stroke="none"/></g><g><path d=" M 869.8373251423759 470.209517756016 L 880 466 L 869.8373251423758 461.790482243984 L 869.8373251423759 470.209517756016" fill="none" paint-order="fill stroke markers" stroke="#000000" stroke-dasharray="" stroke-miterlimit="10"/></g><g><rect fill="#ffffff" height="13" stroke="none" transform="matrix(1 0 0 1 -30 2)" width="282.65478515625" x="560" y="448"/></g><g><g><path fill="none" stroke="none"/><text dominant-baseline="central" fill="#000000" font-family="Arial" font-size="13px" font-style="normal" font-weight="normal" stroke="none" text-anchor="middle" text-decoration="undefined" transform="matrix(1 0 0 1 -30 2)" x="701.327392578125" y="454.5">5 : ketQua = kiemTraThongTin(thongtinchinhsua)</text></g></g><g><rect fill="#ffffff" height="40" stroke="none" transform="matrix(1 0 0 1 -30 2)" width="14" x="910" y="464"/></g><g><path d=" M 880 466 L 894 466 L 894 506 L 880 506 L 880 466 Z Z" fill="none" paint-order="fill stroke markers" stroke="#000000" stroke-dasharray="" stroke-miterlimit="10"/></g><g><path d=" M 880 498 L 462 498" fill="none" paint-order="fill stroke markers" stroke="#000000" stroke-dasharray="3" stroke-miterlimit="10"/></g><g><path d=" M 472.16267485762415 493.790482243984 L 462 498 L 472.16267485762415 502.209517756016" fill="none" paint-order="fill stroke markers" stroke="#000000" stroke-dasharray="" stroke-miterlimit="10"/></g><g><rect fill="#ffffff" height="13" stroke="none" transform="matrix(1 0 0 1 -30 2)" width="99.9501953125" x="651" y="500"/></g><g><g><path fill="none" stroke="none"/><text dominant-baseline="central" fill="#000000" font-family="Arial" font-size="13px" font-style="normal" font-weight="normal" stroke="none" text-anchor="middle" text-decoration="undefined" transform="matrix(1 0 0 1 -30 2)" x="700.97509765625" y="506.5">6 : Trả về ketQua</text></g></g><g><path d=" M 462 666 L 1272 666" fill="none" paint-order="fill stroke markers" stroke="#000000" stroke-dasharray="" stroke-miterlimit="10"/></g><g><path d=" M 1261.837325142376 670.209517756016 L 1272 666 L 1261.837325142376 661.790482243984" fill="#000000" paint-order="stroke fill markers" stroke="none"/></g><g><path d=" M 1261.837325142376 670.209517756016 L 1272 666 L 1261.837325142376 661.790482243984 L 1261.837325142376 670.209517756016" fill="none" paint-order="fill stroke markers" stroke="#000000" stroke-dasharray="" stroke-miterlimit="10"/></g><g><rect fill="#ffffff" height="13" stroke="none" transform="matrix(1 0 0 1 -30 2)" width="334.85791015625" x="730" y="648"/></g><g><g><path fill="none" stroke="none"/><text dominant-baseline="central" fill="#000000" font-family="Arial" font-size="13px" font-style="normal" font-weight="normal" stroke="none" text-anchor="middle" text-decoration="undefined" transform="matrix(1 0 0 1 -30 2)" x="897.428955078125" y="654.5">7 : luuThongTinChinhSua(thongtinchinhsua)</text></g></g><g><rect fill="#ffffff" height="40" stroke="none" transform="matrix(1 0 0 1 -30 2)" width="14" x="1302" y="664"/></g><g><path d=" M 1272 666 L 1286 666 L 1286 706 L 1272 706 L 1272 666 Z Z" fill="none" paint-order="fill stroke markers" stroke="#000000" stroke-dasharray="" stroke-miterlimit="10"/></g><g><path d=" M 1272 698 L 462 698" fill="none" paint-order="fill stroke markers" stroke="#000000" stroke-dasharray="3" stroke-miterlimit="10"/></g><g><path d=" M 472.16267485762415 693.790482243984 L 462 698 L 472.16267485762415 702.209517756016" fill="none" paint-order="fill stroke markers" stroke="#000000" stroke-dasharray="" stroke-miterlimit="10"/></g><g><rect fill="#ffffff" height="13" stroke="none" transform="matrix(1 0 0 1 -30 2)" width="223.39306640625" x="785" y="700"/></g><g><g><path fill="none" stroke="none"/><text dominant-baseline="central" fill="#000000" font-family="Arial" font-size="13px" font-style="normal" font-weight="normal" stroke="none" text-anchor="middle" text-decoration="undefined" transform="matrix(1 0 0 1 -30 2)" x="896.696533203125" y="706.5">8 : Lưu thông tin chỉnh sửa thành công</text></g></g><g><path d=" M 448 722 L 144 722" fill="none" paint-order="fill stroke markers" stroke="#000000" stroke-dasharray="3" stroke-miterlimit="10"/></g><g><path d=" M 154.16267485762415 717.790482243984 L 144 722 L 154.16267485762415 726.209517756016" fill="none" paint-order="fill stroke markers" stroke="#000000" stroke-dasharray="" stroke-miterlimit="10"/></g><g><rect fill="#ffffff" height="13" stroke="none" transform="matrix(1 0 0 1 -30 2)" width="263.1103515625" x="194" y="724"/></g><g><g><path fill="none" stroke="none"/><text dominant-baseline="central" fill="#000000" font-family="Arial" font-size="13px" font-style="normal" font-weight="normal" stroke="none" text-anchor="middle" text-decoration="undefined" transform="matrix(1 0 0 1 -30 2)" x="325.55517578125" y="730.5">9 : Hiển thị thông báo gửi yêu cầu thành công</text></g></g><g><path d=" M 448 842 L 144 842" fill="none" paint-order="fill stroke markers" stroke="#000000" stroke-dasharray="3" stroke-miterlimit="10"/></g><g><path d=" M 154.16267485762415 837.790482243984 L 144 842 L 154.16267485762415 846.209517756016" fill="none" paint-order="fill stroke markers" stroke="#000000" stroke-dasharray="" stroke-miterlimit="10"/></g><g><rect fill="#ffffff" height="13" stroke="none" transform="matrix(1 0 0 1 -30 2)" width="264.38623046875" x="193" y="844"/></g><g><g><path fill="none" stroke="none"/><text dominant-baseline="central" fill="#000000" font-family="Arial" font-size="13px" font-style="normal" font-weight="normal" stroke="none" text-anchor="middle" text-decoration="undefined" transform="matrix(1 0 0 1 -30 2)" x="325.193115234375" y="850.5">10 : HIển thị thông báo thông tin không hợp lệ</text></g></g><g><path d=" M 66 314 L 1426 314 L 1426 906 L 66 906 L 66 314" fill="none" paint-order="fill stroke markers" stroke="#000000" stroke-dasharray="" stroke-miterlimit="10"/></g><g><path d=" M 66 314 L 66 337 L 128.97900390625 337 L 140.47900390625 325.5 L 140.47900390625 314 L 66 314" fill="#ffffff" paint-order="stroke fill markers" stroke="none"/></g><g><path d=" M 66 314 L 66 337 L 128.97900390625 337 L 140.47900390625 325.5 L 140.47900390625 314 L 66 314 L 66 314" fill="none" paint-order="fill stroke markers" stroke="#000000" stroke-dasharray="" stroke-miterlimit="10"/></g><g><g><path fill="none" stroke="none"/><text dominant-baseline="central" fill="#000000" font-family="Arial" font-size="13px" font-style="normal" font-weight="normal" stroke="none" text-anchor="middle" text-decoration="undefined" transform="matrix(1 0 0 1 -30 2)" x="142.778564453125" y="323.5">true</text></g></g><g><g><path fill="none" stroke="none"/><text dominant-baseline="central" fill="#000000" font-family="Arial" font-size="13px" font-style="normal" font-weight="bold" stroke="none" text-anchor="middle" text-decoration="undefined" transform="matrix(1 0 0 1 -30 2)" x="113.2890625" y="323.5">loop</text></g></g><g><path d=" M 98 602 L 1402 602 L 1402 882 L 98 882 L 98 602" fill="none" paint-order="fill stroke markers" stroke="#000000" stroke-dasharray="" stroke-miterlimit="10"/></g><g><path d=" M 98 602 L 98 625 L 127.72998046875 625 L 139.22998046875 613.5 L 139.22998046875 602 L 98 602" fill="#ffffff" paint-order="stroke fill markers" stroke="none"/></g><g><path d=" M 98 602 L 98 625 L 127.72998046875 625 L 139.22998046875 613.5 L 139.22998046875 602 L 98 602 L 98 602" fill="none" paint-order="fill stroke markers" stroke="#000000" stroke-dasharray="" stroke-miterlimit="10"/></g><g><g><path fill="none" stroke="none"/><text dominant-baseline="central" fill="#000000" font-family="Arial" font-size="13px" font-style="normal" font-weight="bold" stroke="none" text-anchor="middle" text-decoration="undefined" transform="matrix(1 0 0 1 -30 2)" x="139.864990234375" y="611.5">alt</text></g></g><g><path d=" M 98 802 L 1401 802" fill="none" paint-order="fill stroke markers" stroke="#000000" stroke-dasharray="10,3" stroke-miterlimit="10"/></g><g><path d=" M 122 634 L 1338 634 L 1338 762 L 122 762 L 122 634" fill="none" paint-order="fill stroke markers" stroke="#000000" stroke-dasharray="" stroke-miterlimit="10"/></g><g><path d=" M 122 634 L 122 657 L 170.51904296875 657 L 182.01904296875 645.5 L 182.01904296875 634 L 122 634" fill="#ffffff" paint-order="stroke fill markers" stroke="none"/></g><g><path d=" M 122 634 L 122 657 L 170.51904296875 657 L 182.01904296875 645.5 L 182.01904296875 634 L 122 634 L 122 634" fill="none" paint-order="fill stroke markers" stroke="#000000" stroke-dasharray="" stroke-miterlimit="10"/></g><g><g><path fill="none" stroke="none"/><text dominant-baseline="central" fill="#000000" font-family="Arial" font-size="13px" font-style="normal" font-weight="bold" stroke="none" text-anchor="middle" text-decoration="undefined" transform="matrix(1 0 0 1 -30 2)" x="173.259521484375" y="643.5">break</text></g></g></g></svg>