<?xml version="1.0" encoding="utf-8"?>
<svg height="1220" version="1.1" width="884" xmlns="http://www.w3.org/2000/svg" xmlns:xlink="http://www.w3.org/1999/xlink"><defs/><g><g><path d=" M 10 10 L 874 10 L 874 1210 L 10 1210 L 10 10" fill="none" paint-order="fill stroke markers" stroke="#000000" stroke-dasharray="" stroke-miterlimit="10"/></g><g><path d=" M 10 10 L 10 33 L 179.21337890625 33 L 190.71337890625 21.5 L 190.71337890625 10 L 10 10" fill="#ffffff" paint-order="stroke fill markers" stroke="none"/></g><g><path d=" M 10 10 L 10 33 L 179.21337890625 33 L 190.71337890625 21.5 L 190.71337890625 10 L 10 10 L 10 10" fill="none" paint-order="fill stroke markers" stroke="#000000" stroke-dasharray="" stroke-miterlimit="10"/></g><g><g><path fill="none" stroke="none"/><text dominant-baseline="central" fill="#000000" font-family="Arial" font-size="13px" font-style="normal" font-weight="normal" stroke="none" text-anchor="middle" text-decoration="undefined" transform="matrix(1 0 0 1 -38 2)" x="142.4716796875" y="19.5">SDLapLichTapLuyenDoi</text></g></g><g><g><path fill="none" stroke="none"/><text dominant-baseline="central" fill="#000000" font-family="Arial" font-size="13px" font-style="normal" font-weight="bold" stroke="none" text-anchor="middle" text-decoration="undefined" transform="matrix(1 0 0 1 -38 2)" x="59.864990234375" y="19.5">sd</text></g></g><g><path d=" M 115.04210049715911 49.3 C 115.04210049715911 45.82060576 117.9205022193409 43 121.47119140625 43 C 125.0218805931591 43 127.90028231534092 45.82060576 127.90028231534092 49.3 C 127.90028231534092 52.779394239999995 125.0218805931591 55.6 121.47119140625 55.6 C 117.9205022193409 55.6 115.04210049715911 52.779394239999995 115.04210049715911 49.3 Z" fill="#ffffff" paint-order="stroke fill markers" stroke="none"/></g><g><path d=" M 115.04210049715911 49.3 C 115.04210049715911 45.82060576 117.9205022193409 43 121.47119140625 43 C 125.0218805931591 43 127.90028231534092 45.82060576 127.90028231534092 49.3 C 127.90028231534092 52.779394239999995 125.0218805931591 55.6 121.47119140625 55.6 C 117.9205022193409 55.6 115.04210049715911 52.779394239999995 115.04210049715911 49.3 Z" fill="none" paint-order="fill stroke markers" stroke="#000000" stroke-dasharray="" stroke-miterlimit="10"/></g><g><path d=" M 121.47119140625 55.6 L 121.47119140625 68.4" fill="none" paint-order="fill stroke markers" stroke="#000000" stroke-dasharray="" stroke-miterlimit="10"/></g><g><path d=" M 114.6639186789773 60.4 L 128.27846413352273 60.4" fill="none" paint-order="fill stroke markers" stroke="#000000" stroke-dasharray="" stroke-miterlimit="10"/></g><g><path d=" M 121.47119140625 68.4 L 112.01664595170456 81" fill="none" paint-order="fill stroke markers" stroke="#000000" stroke-dasharray="" stroke-miterlimit="10"/></g><g><path d=" M 121.47119140625 68.4 L 130.92573686079547 81" fill="none" paint-order="fill stroke markers" stroke="#000000" stroke-dasharray="" stroke-miterlimit="10"/></g><g><g><path fill="none" stroke="none"/><text dominant-baseline="central" fill="#000000" font-family="Arial" font-size="13px" font-style="normal" font-weight="bold" stroke="none" text-anchor="middle" text-decoration="undefined" transform="matrix(1 0 0 1 -38 2)" x="159.97119140625" y="93.5">Actor: Trưởng Đoàn</text></g></g><g><path d=" M 121.5 108 L 121.5 1210" fill="none" paint-order="fill stroke markers" stroke="#000000" stroke-dasharray="3" stroke-miterlimit="10"/></g><g><rect fill="#C0C0C0" fill-opacity="0.2" height="40" stroke="none" transform="matrix(1 0 0 1 -38 2)" width="190.9423828125" x="399" y="47"/></g><g><rect fill="#ffffff" height="40" stroke="none" transform="matrix(1 0 0 1 -38 2)" width="190.9423828125" x="392" y="40"/></g><g><path d=" M 354 42 L 544.9423828125 42 L 544.9423828125 82 L 354 82 L 354 42 Z Z" fill="none" paint-order="fill stroke markers" stroke="#000000" stroke-dasharray="" stroke-miterlimit="10"/></g><g><g><path fill="none" stroke="none"/><text dominant-baseline="central" fill="#000000" font-family="Arial" font-size="13px" font-style="normal" font-weight="bold" stroke="none" text-anchor="middle" text-decoration="undefined" transform="matrix(1 0 0 1 -38 2)" x="487.97119140625" y="53.5">GD: GiaoDien</text></g></g><g><path d=" M 449.5 83 L 449.5 1210" fill="none" paint-order="fill stroke markers" stroke="#000000" stroke-dasharray="3" stroke-miterlimit="10"/></g><g><rect fill="#C0C0C0" fill-opacity="0.2" height="40" stroke="none" transform="matrix(1 0 0 1 -38 2)" width="190.9423828125" x="695" y="47"/></g><g><rect fill="#ffffff" height="40" stroke="none" transform="matrix(1 0 0 1 -38 2)" width="190.9423828125" x="688" y="40"/></g><g><path d=" M 650 42 L 840.9423828125 42 L 840.9423828125 82 L 650 82 L 650 42 Z Z" fill="none" paint-order="fill stroke markers" stroke="#000000" stroke-dasharray="" stroke-miterlimit="10"/></g><g><g><path fill="none" stroke="none"/><text dominant-baseline="central" fill="#000000" font-family="Arial" font-size="13px" font-style="normal" font-weight="bold" stroke="none" text-anchor="middle" text-decoration="undefined" transform="matrix(1 0 0 1 -38 2)" x="783.97119140625" y="53.5">lichtapluyen: LichTapLuyen</text></g></g><g><path d=" M 745.5 83 L 745.5 1210" fill="none" paint-order="fill stroke markers" stroke="#000000" stroke-dasharray="3" stroke-miterlimit="10"/></g><g><path d=" M 146 362 L 327 362 L 337 372 L 337 412 L 146 412 L 146 362" fill="#ffffff" paint-order="stroke fill markers" stroke="none"/></g><g><path d=" M 146 362 L 327 362 L 337 372 L 337 412 L 146 412 L 146 362 L 146 362" fill="none" paint-order="fill stroke markers" stroke="#000000" stroke-dasharray="" stroke-miterlimit="10"/></g><g><path d=" M 327 362 L 327 372 L 337 372 L 327 362" fill="none" paint-order="fill stroke markers" stroke="#000000" stroke-dasharray="" stroke-miterlimit="10"/></g><g><g><path fill="none" stroke="none"/><text dominant-baseline="text-before-edge" fill="#000000" font-family="Arial" font-size="13px" font-style="normal" font-weight="normal" stroke="none" text-anchor="start" text-decoration="undefined" transform="matrix(1 0 0 1 -38 2)" x="189" y="365">Các thông tin nhập bao gồm:</text><text dominant-baseline="text-before-edge" fill="#000000" font-family="Arial" font-size="13px" font-style="normal" font-weight="normal" stroke="none" text-anchor="start" text-decoration="undefined" transform="matrix(1 0 0 1 -38 2)" x="189" y="378">ngày tập, nội dung, địa chỉ, đội </text></g></g><g><path d=" M 263 414 L 282 438" fill="none" paint-order="fill stroke markers" stroke="#000000" stroke-dasharray="3" stroke-miterlimit="10"/></g><g><path d=" M 594 602 L 719 602 L 729 612 L 729 657 L 594 657 L 594 602" fill="#ffffff" paint-order="stroke fill markers" stroke="none"/></g><g><path d=" M 594 602 L 719 602 L 729 612 L 729 657 L 594 657 L 594 602 L 594 602" fill="none" paint-order="fill stroke markers" stroke="#000000" stroke-dasharray="" stroke-miterlimit="10"/></g><g><path d=" M 719 602 L 719 612 L 729 612 L 719 602" fill="none" paint-order="fill stroke markers" stroke="#000000" stroke-dasharray="" stroke-miterlimit="10"/></g><g><g><path fill="none" stroke="none"/><text dominant-baseline="text-before-edge" fill="#000000" font-family="Arial" font-size="13px" font-style="normal" font-weight="normal" stroke="none" text-anchor="start" text-decoration="undefined" transform="matrix(1 0 0 1 -38 2)" x="637" y="605">Trả về true nếu ngày</text><text dominant-baseline="text-before-edge" fill="#000000" font-family="Arial" font-size="13px" font-style="normal" font-weight="normal" stroke="none" text-anchor="start" text-decoration="undefined" transform="matrix(1 0 0 1 -38 2)" x="637" y="618">nhập hợp lệ, ngược</text><text dominant-baseline="text-before-edge" fill="#000000" font-family="Arial" font-size="13px" font-style="normal" font-weight="normal" stroke="none" text-anchor="start" text-decoration="undefined" transform="matrix(1 0 0 1 -38 2)" x="637" y="631">lại là false</text></g></g><g><g><path fill="none" stroke="none"/><text dominant-baseline="text-before-edge" fill="#000000" font-family="Arial" font-size="13px" font-style="normal" font-weight="normal" stroke="none" text-anchor="start" text-decoration="undefined" transform="matrix(1 0 0 1 -38 2)" x="117" y="693">[ketQua == true]</text></g></g><g><g><path fill="none" stroke="none"/><text dominant-baseline="text-before-edge" fill="#000000" font-family="Arial" font-size="13px" font-style="normal" font-weight="normal" stroke="none" text-anchor="start" text-decoration="undefined" transform="matrix(1 0 0 1 -38 2)" x="101" y="901">[else]</text></g></g><g><g><path fill="none" stroke="none"/><text dominant-baseline="text-before-edge" fill="#000000" font-family="Arial" font-size="13px" font-style="normal" font-weight="normal" stroke="none" text-anchor="start" text-decoration="undefined" transform="matrix(1 0 0 1 -38 2)" x="261" y="1005">[CN == Huy]</text></g></g><g><path d=" M 634 601 L 597 562" fill="none" paint-order="fill stroke markers" stroke="#000000" stroke-dasharray="3" stroke-miterlimit="10"/></g><g><rect fill="#ffffff" height="30" stroke="none" transform="matrix(1 0 0 1 -38 2)" width="816" x="72" y="112"/></g><g><path d=" M 34 114 L 850 114 L 850 144 L 34 144 L 34 114 Z Z" fill="none" paint-order="fill stroke markers" stroke="#000000" stroke-dasharray="" stroke-miterlimit="10"/></g><g><path d=" M 34 114 L 34 137 L 59.1708984375 137 L 70.6708984375 125.5 L 70.6708984375 114 L 34 114 L 34 114" fill="none" paint-order="fill stroke markers" stroke="#000000" stroke-dasharray="" stroke-miterlimit="10"/></g><g><g><path fill="none" stroke="none"/><text dominant-baseline="central" fill="#000000" font-family="Arial" font-size="13px" font-style="normal" font-weight="normal" stroke="none" text-anchor="middle" text-decoration="undefined" transform="matrix(1 0 0 1 -38 2)" x="498.33544921875" y="123.5">Đăng nhập vào hệ thống</text></g></g><g><g><path fill="none" stroke="none"/><text dominant-baseline="central" fill="#000000" font-family="Arial" font-size="13px" font-style="normal" font-weight="bold" stroke="none" text-anchor="middle" text-decoration="undefined" transform="matrix(1 0 0 1 -38 2)" x="84.58544921875" y="123.5">ref</text></g></g><g><path d=" M 122 173 L 442 173" fill="none" paint-order="fill stroke markers" stroke="#000000" stroke-dasharray="" stroke-miterlimit="10"/></g><g><path d=" M 431.83732514237585 177.209517756016 L 442 173 L 431.83732514237585 168.790482243984" fill="#000000" paint-order="stroke fill markers" stroke="none"/></g><g><path d=" M 431.83732514237585 177.209517756016 L 442 173 L 431.83732514237585 168.790482243984 L 431.83732514237585 177.209517756016" fill="none" paint-order="fill stroke markers" stroke="#000000" stroke-dasharray="" stroke-miterlimit="10"/></g><g><rect fill="#ffffff" height="13" stroke="none" transform="matrix(1 0 0 1 -38 2)" width="180.71142578125" x="230" y="155"/></g><g><g><path fill="none" stroke="none"/><text dominant-baseline="central" fill="#000000" font-family="Arial" font-size="13px" font-style="normal" font-weight="normal" stroke="none" text-anchor="middle" text-decoration="undefined" transform="matrix(1 0 0 1 -38 2)" x="320.355712890625" y="161.5">1 : Chọn chức năng quản lý đội</text></g></g><g><rect fill="#ffffff" height="64" stroke="none" transform="matrix(1 0 0 1 -38 2)" width="14" x="480" y="171"/></g><g><path d=" M 442 173 L 456 173 L 456 237 L 442 237 L 442 173 Z Z" fill="none" paint-order="fill stroke markers" stroke="#000000" stroke-dasharray="" stroke-miterlimit="10"/></g><g><path d=" M 456 186 L 486 186 L 486 206 L 463 206" fill="none" paint-order="fill stroke markers" stroke="#000000" stroke-dasharray="" stroke-miterlimit="10"/></g><g><path d=" M 473.16267485762415 201.790482243984 L 463 206 L 473.16267485762415 210.209517756016" fill="#000000" paint-order="stroke fill markers" stroke="none"/></g><g><path d=" M 473.16267485762415 201.790482243984 L 463 206 L 473.16267485762415 210.209517756016 L 473.16267485762415 201.790482243984" fill="none" paint-order="fill stroke markers" stroke="#000000" stroke-dasharray="" stroke-miterlimit="10"/></g><g><rect fill="#ffffff" height="13" stroke="none" transform="matrix(1 0 0 1 -38 2)" width="185.01513671875" x="528" y="187"/></g><g><g><path fill="none" stroke="none"/><text dominant-baseline="central" fill="#000000" font-family="Arial" font-size="13px" font-style="normal" font-weight="normal" stroke="none" text-anchor="middle" text-decoration="undefined" transform="matrix(1 0 0 1 -38 2)" x="620.507568359375" y="193.5">2 : Hiển thị giao diện quản lý đội</text></g></g><g><rect fill="#ffffff" height="28" stroke="none" transform="matrix(1 0 0 1 -38 2)" width="14" x="487" y="204"/></g><g><path d=" M 449 206 L 463 206 L 463 234 L 449 234 L 449 206 Z Z" fill="none" paint-order="fill stroke markers" stroke="#000000" stroke-dasharray="" stroke-miterlimit="10"/></g><g><path d=" M 122 266 L 442 266" fill="none" paint-order="fill stroke markers" stroke="#000000" stroke-dasharray="" stroke-miterlimit="10"/></g><g><path d=" M 431.83732514237585 270.209517756016 L 442 266 L 431.83732514237585 261.790482243984" fill="#000000" paint-order="stroke fill markers" stroke="none"/></g><g><path d=" M 431.83732514237585 270.209517756016 L 442 266 L 431.83732514237585 261.790482243984 L 431.83732514237585 270.209517756016" fill="none" paint-order="fill stroke markers" stroke="#000000" stroke-dasharray="" stroke-miterlimit="10"/></g><g><rect fill="#ffffff" height="13" stroke="none" transform="matrix(1 0 0 1 -38 2)" width="235.63134765625" x="203" y="248"/></g><g><g><path fill="none" stroke="none"/><text dominant-baseline="central" fill="#000000" font-family="Arial" font-size="13px" font-style="normal" font-weight="normal" stroke="none" text-anchor="middle" text-decoration="undefined" transform="matrix(1 0 0 1 -38 2)" x="320.815673828125" y="254.5">3 : Chọn chức năng lập lịch tập luyện đội</text></g></g><g><rect fill="#ffffff" height="67" stroke="none" transform="matrix(1 0 0 1 -38 2)" width="14" x="480" y="264"/></g><g><path d=" M 442 266 L 456 266 L 456 333 L 442 333 L 442 266 Z Z" fill="none" paint-order="fill stroke markers" stroke="#000000" stroke-dasharray="" stroke-miterlimit="10"/></g><g><path d=" M 456 282 L 486 282 L 486 302 L 463 302" fill="none" paint-order="fill stroke markers" stroke="#000000" stroke-dasharray="" stroke-miterlimit="10"/></g><g><path d=" M 473.16267485762415 297.790482243984 L 463 302 L 473.16267485762415 306.209517756016" fill="#000000" paint-order="stroke fill markers" stroke="none"/></g><g><path d=" M 473.16267485762415 297.790482243984 L 463 302 L 473.16267485762415 306.209517756016 L 473.16267485762415 297.790482243984" fill="none" paint-order="fill stroke markers" stroke="#000000" stroke-dasharray="" stroke-miterlimit="10"/></g><g><rect fill="#ffffff" height="13" stroke="none" transform="matrix(1 0 0 1 -38 2)" width="218.97509765625" x="528" y="283"/></g><g><g><path fill="none" stroke="none"/><text dominant-baseline="central" fill="#000000" font-family="Arial" font-size="13px" font-style="normal" font-weight="normal" stroke="none" text-anchor="middle" text-decoration="undefined" transform="matrix(1 0 0 1 -38 2)" x="637.487548828125" y="289.5">4 : Hiển thị giáo diện lập lịch tập luyện</text></g></g><g><rect fill="#ffffff" height="28" stroke="none" transform="matrix(1 0 0 1 -38 2)" width="14" x="487" y="300"/></g><g><path d=" M 449 302 L 463 302 L 463 330 L 449 330 L 449 302 Z Z" fill="none" paint-order="fill stroke markers" stroke="#000000" stroke-dasharray="" stroke-miterlimit="10"/></g><g><path d=" M 122 438 L 442 438" fill="none" paint-order="fill stroke markers" stroke="#000000" stroke-dasharray="" stroke-miterlimit="10"/></g><g><path d=" M 431.83732514237585 442.209517756016 L 442 438 L 431.83732514237585 433.790482243984" fill="#000000" paint-order="stroke fill markers" stroke="none"/></g><g><path d=" M 431.83732514237585 442.209517756016 L 442 438 L 431.83732514237585 433.790482243984 L 431.83732514237585 442.209517756016" fill="none" paint-order="fill stroke markers" stroke="#000000" stroke-dasharray="" stroke-miterlimit="10"/></g><g><rect fill="#ffffff" height="13" stroke="none" transform="matrix(1 0 0 1 -38 2)" width="265.24951171875" x="188" y="420"/></g><g><g><path fill="none" stroke="none"/><text dominant-baseline="central" fill="#000000" font-family="Arial" font-size="13px" font-style="normal" font-weight="normal" stroke="none" text-anchor="middle" text-decoration="undefined" transform="matrix(1 0 0 1 -38 2)" x="320.624755859375" y="426.5">5 : Nhập thông tin tập luyện [thongtintapluyen]</text></g></g><g><rect fill="#ffffff" height="28" stroke="none" transform="matrix(1 0 0 1 -38 2)" width="14" x="480" y="436"/></g><g><path d=" M 442 438 L 456 438 L 456 466 L 442 466 L 442 438 Z Z" fill="none" paint-order="fill stroke markers" stroke="#000000" stroke-dasharray="" stroke-miterlimit="10"/></g><g><path d=" M 122 488 L 442 488" fill="none" paint-order="fill stroke markers" stroke="#000000" stroke-dasharray="" stroke-miterlimit="10"/></g><g><path d=" M 431.83732514237585 492.209517756016 L 442 488 L 431.83732514237585 483.790482243984" fill="#000000" paint-order="stroke fill markers" stroke="none"/></g><g><path d=" M 431.83732514237585 492.209517756016 L 442 488 L 431.83732514237585 483.790482243984 L 431.83732514237585 492.209517756016" fill="none" paint-order="fill stroke markers" stroke="#000000" stroke-dasharray="" stroke-miterlimit="10"/></g><g><rect fill="#ffffff" height="13" stroke="none" transform="matrix(1 0 0 1 -38 2)" width="134.2529296875" x="253" y="470"/></g><g><g><path fill="none" stroke="none"/><text dominant-baseline="central" fill="#000000" font-family="Arial" font-size="13px" font-style="normal" font-weight="normal" stroke="none" text-anchor="middle" text-decoration="undefined" transform="matrix(1 0 0 1 -38 2)" x="320.12646484375" y="476.5">6 : Bấm nút "Xác nhận"</text></g></g><g><rect fill="#ffffff" height="450" stroke="none" transform="matrix(1 0 0 1 -38 2)" width="14" x="480" y="486"/></g><g><path d=" M 442 488 L 456 488 L 456 938 L 442 938 L 442 488 Z Z" fill="none" paint-order="fill stroke markers" stroke="#000000" stroke-dasharray="" stroke-miterlimit="10"/></g><g><path d=" M 456 547 L 738 547" fill="none" paint-order="fill stroke markers" stroke="#000000" stroke-dasharray="" stroke-miterlimit="10"/></g><g><path d=" M 727.8373251423759 551.209517756016 L 738 547 L 727.8373251423758 542.790482243984" fill="#000000" paint-order="stroke fill markers" stroke="none"/></g><g><path d=" M 727.8373251423759 551.209517756016 L 738 547 L 727.8373251423758 542.790482243984 L 727.8373251423759 551.209517756016" fill="none" paint-order="fill stroke markers" stroke="#000000" stroke-dasharray="" stroke-miterlimit="10"/></g><g><rect fill="#ffffff" height="13" stroke="none" transform="matrix(1 0 0 1 -38 2)" width="270.13720703125" x="500" y="529"/></g><g><g><path fill="none" stroke="none"/><text dominant-baseline="central" fill="#000000" font-family="Arial" font-size="13px" font-style="normal" font-weight="normal" stroke="none" text-anchor="middle" text-decoration="undefined" transform="matrix(1 0 0 1 -38 2)" x="635.068603515625" y="535.5">7 : ketQua = kiemTraLichTap(thongtintapluyen)</text></g></g><g><rect fill="#ffffff" height="28" stroke="none" transform="matrix(1 0 0 1 -38 2)" width="14" x="776" y="545"/></g><g><path d=" M 738 547 L 752 547 L 752 575 L 738 575 L 738 547 Z Z" fill="none" paint-order="fill stroke markers" stroke="#000000" stroke-dasharray="" stroke-miterlimit="10"/></g><g><path d=" M 738 562 L 456 562" fill="none" paint-order="fill stroke markers" stroke="#000000" stroke-dasharray="3" stroke-miterlimit="10"/></g><g><path d=" M 466.16267485762415 557.790482243984 L 456 562 L 466.16267485762415 566.209517756016" fill="none" paint-order="fill stroke markers" stroke="#000000" stroke-dasharray="" stroke-miterlimit="10"/></g><g><rect fill="#ffffff" height="13" stroke="none" transform="matrix(1 0 0 1 -38 2)" width="99.9501953125" x="585" y="564"/></g><g><g><path fill="none" stroke="none"/><text dominant-baseline="central" fill="#000000" font-family="Arial" font-size="13px" font-style="normal" font-weight="normal" stroke="none" text-anchor="middle" text-decoration="undefined" transform="matrix(1 0 0 1 -38 2)" x="634.97509765625" y="570.5">8 : Trả về ketQua</text></g></g><g><path d=" M 456 754 L 738 754" fill="none" paint-order="fill stroke markers" stroke="#000000" stroke-dasharray="" stroke-miterlimit="10"/></g><g><path d=" M 727.8373251423759 758.209517756016 L 738 754 L 727.8373251423758 749.790482243984" fill="#000000" paint-order="stroke fill markers" stroke="none"/></g><g><path d=" M 727.8373251423759 758.209517756016 L 738 754 L 727.8373251423758 749.790482243984 L 727.8373251423759 758.209517756016" fill="none" paint-order="fill stroke markers" stroke="#000000" stroke-dasharray="" stroke-miterlimit="10"/></g><g><rect fill="#ffffff" height="13" stroke="none" transform="matrix(1 0 0 1 -38 2)" width="175.60791015625" x="548" y="736"/></g><g><g><path fill="none" stroke="none"/><text dominant-baseline="central" fill="#000000" font-family="Arial" font-size="13px" font-style="normal" font-weight="normal" stroke="none" text-anchor="middle" text-decoration="undefined" transform="matrix(1 0 0 1 -38 2)" x="635.803955078125" y="742.5">9 : lapLichDoi(thontintapluyen)</text></g></g><g><rect fill="#ffffff" height="28" stroke="none" transform="matrix(1 0 0 1 -38 2)" width="14" x="776" y="752"/></g><g><path d=" M 738 754 L 752 754 L 752 782 L 738 782 L 738 754 Z Z" fill="none" paint-order="fill stroke markers" stroke="#000000" stroke-dasharray="" stroke-miterlimit="10"/></g><g><path d=" M 738 778 L 456 778" fill="none" paint-order="fill stroke markers" stroke="#000000" stroke-dasharray="3" stroke-miterlimit="10"/></g><g><path d=" M 466.16267485762415 773.790482243984 L 456 778 L 466.16267485762415 782.209517756016" fill="none" paint-order="fill stroke markers" stroke="#000000" stroke-dasharray="" stroke-miterlimit="10"/></g><g><rect fill="#ffffff" height="13" stroke="none" transform="matrix(1 0 0 1 -38 2)" width="159.0087890625" x="555" y="780"/></g><g><g><path fill="none" stroke="none"/><text dominant-baseline="central" fill="#000000" font-family="Arial" font-size="13px" font-style="normal" font-weight="normal" stroke="none" text-anchor="middle" text-decoration="undefined" transform="matrix(1 0 0 1 -38 2)" x="634.50439453125" y="786.5">10 : Lập lịch đội thành công</text></g></g><g><path d=" M 442 802 L 122 802" fill="none" paint-order="fill stroke markers" stroke="#000000" stroke-dasharray="3" stroke-miterlimit="10"/></g><g><path d=" M 132.16267485762415 797.790482243984 L 122 802 L 132.16267485762415 806.209517756016" fill="none" paint-order="fill stroke markers" stroke="#000000" stroke-dasharray="" stroke-miterlimit="10"/></g><g><rect fill="#ffffff" height="13" stroke="none" transform="matrix(1 0 0 1 -38 2)" width="220.923828125" x="209" y="804"/></g><g><g><path fill="none" stroke="none"/><text dominant-baseline="central" fill="#000000" font-family="Arial" font-size="13px" font-style="normal" font-weight="normal" stroke="none" text-anchor="middle" text-decoration="undefined" transform="matrix(1 0 0 1 -38 2)" x="319.4619140625" y="810.5">11 : Thông báo tạo lịch tập thành công</text></g></g><g><path d=" M 456 826 L 486 826 L 486 846 L 463 846" fill="none" paint-order="fill stroke markers" stroke="#000000" stroke-dasharray="" stroke-miterlimit="10"/></g><g><path d=" M 473.16267485762415 841.790482243984 L 463 846 L 473.16267485762415 850.209517756016" fill="#000000" paint-order="stroke fill markers" stroke="none"/></g><g><path d=" M 473.16267485762415 841.790482243984 L 463 846 L 473.16267485762415 850.209517756016 L 473.16267485762415 841.790482243984" fill="none" paint-order="fill stroke markers" stroke="#000000" stroke-dasharray="" stroke-miterlimit="10"/></g><g><rect fill="#ffffff" height="13" stroke="none" transform="matrix(1 0 0 1 -38 2)" width="196.58056640625" x="534" y="827"/></g><g><g><path fill="none" stroke="none"/><text dominant-baseline="central" fill="#000000" font-family="Arial" font-size="13px" font-style="normal" font-weight="normal" stroke="none" text-anchor="middle" text-decoration="undefined" transform="matrix(1 0 0 1 -38 2)" x="632.290283203125" y="833.5">12 : Quay về giao diện quản lý đội</text></g></g><g><rect fill="#ffffff" height="28" stroke="none" transform="matrix(1 0 0 1 -38 2)" width="14" x="487" y="844"/></g><g><path d=" M 449 846 L 463 846 L 463 874 L 449 874 L 449 846 Z Z" fill="none" paint-order="fill stroke markers" stroke="#000000" stroke-dasharray="" stroke-miterlimit="10"/></g><g><path d=" M 442 922 L 122 922" fill="none" paint-order="fill stroke markers" stroke="#000000" stroke-dasharray="3" stroke-miterlimit="10"/></g><g><path d=" M 132.16267485762415 917.790482243984 L 122 922 L 132.16267485762415 926.209517756016" fill="none" paint-order="fill stroke markers" stroke="#000000" stroke-dasharray="" stroke-miterlimit="10"/></g><g><rect fill="#ffffff" height="13" stroke="none" transform="matrix(1 0 0 1 -38 2)" width="265.103515625" x="187" y="924"/></g><g><g><path fill="none" stroke="none"/><text dominant-baseline="central" fill="#000000" font-family="Arial" font-size="13px" font-style="normal" font-weight="normal" stroke="none" text-anchor="middle" text-decoration="undefined" transform="matrix(1 0 0 1 -38 2)" x="319.5517578125" y="930.5">13 : Thông báo thông tin lịch tập không hợp lệ</text></g></g><g><path d=" M 122 970 L 442 970" fill="none" paint-order="fill stroke markers" stroke="#000000" stroke-dasharray="" stroke-miterlimit="10"/></g><g><path d=" M 431.83732514237585 974.209517756016 L 442 970 L 431.83732514237585 965.790482243984" fill="none" paint-order="fill stroke markers" stroke="#000000" stroke-dasharray="" stroke-miterlimit="10"/></g><g><rect fill="#ffffff" height="13" stroke="none" transform="matrix(1 0 0 1 -38 2)" width="233.4794921875" x="204" y="952"/></g><g><g><path fill="none" stroke="none"/><text dominant-baseline="central" fill="#000000" font-family="Arial" font-size="13px" font-style="normal" font-weight="normal" stroke="none" text-anchor="middle" text-decoration="undefined" transform="matrix(1 0 0 1 -38 2)" x="320.73974609375" y="958.5">14 : Chọn chức năng cần thực hiện [CN]</text></g></g><g><rect fill="#ffffff" height="152" stroke="none" transform="matrix(1 0 0 1 -38 2)" width="14" x="480" y="968"/></g><g><path d=" M 442 970 L 456 970 L 456 1122 L 442 1122 L 442 970 Z Z" fill="none" paint-order="fill stroke markers" stroke="#000000" stroke-dasharray="" stroke-miterlimit="10"/></g><g><path d=" M 456 1066 L 486 1066 L 486 1086 L 463 1086" fill="none" paint-order="fill stroke markers" stroke="#000000" stroke-dasharray="" stroke-miterlimit="10"/></g><g><path d=" M 473.16267485762415 1081.7904822439841 L 463 1086 L 473.16267485762415 1090.2095177560159" fill="#000000" paint-order="stroke fill markers" stroke="none"/></g><g><path d=" M 473.16267485762415 1081.7904822439841 L 463 1086 L 473.16267485762415 1090.2095177560159 L 473.16267485762415 1081.7904822439841" fill="none" paint-order="fill stroke markers" stroke="#000000" stroke-dasharray="" stroke-miterlimit="10"/></g><g><rect fill="#ffffff" height="13" stroke="none" transform="matrix(1 0 0 1 -38 2)" width="196.58056640625" x="534" y="1067"/></g><g><g><path fill="none" stroke="none"/><text dominant-baseline="central" fill="#000000" font-family="Arial" font-size="13px" font-style="normal" font-weight="normal" stroke="none" text-anchor="middle" text-decoration="undefined" transform="matrix(1 0 0 1 -38 2)" x="632.290283203125" y="1073.5">15 : Quay về giao diện quản lý đội</text></g></g><g><rect fill="#ffffff" height="28" stroke="none" transform="matrix(1 0 0 1 -38 2)" width="14" x="487" y="1084"/></g><g><path d=" M 449 1086 L 463 1086 L 463 1114 L 449 1114 L 449 1086 Z Z" fill="none" paint-order="fill stroke markers" stroke="#000000" stroke-dasharray="" stroke-miterlimit="10"/></g><g><path d=" M 34 346 L 850 346 L 850 1194 L 34 1194 L 34 346" fill="none" paint-order="fill stroke markers" stroke="#000000" stroke-dasharray="" stroke-miterlimit="10"/></g><g><path d=" M 34 346 L 34 369 L 96.97900390625 369 L 108.47900390625 357.5 L 108.47900390625 346 L 34 346" fill="#ffffff" paint-order="stroke fill markers" stroke="none"/></g><g><path d=" M 34 346 L 34 369 L 96.97900390625 369 L 108.47900390625 357.5 L 108.47900390625 346 L 34 346 L 34 346" fill="none" paint-order="fill stroke markers" stroke="#000000" stroke-dasharray="" stroke-miterlimit="10"/></g><g><g><path fill="none" stroke="none"/><text dominant-baseline="central" fill="#000000" font-family="Arial" font-size="13px" font-style="normal" font-weight="normal" stroke="none" text-anchor="middle" text-decoration="undefined" transform="matrix(1 0 0 1 -38 2)" x="118.778564453125" y="355.5">true</text></g></g><g><g><path fill="none" stroke="none"/><text dominant-baseline="central" fill="#000000" font-family="Arial" font-size="13px" font-style="normal" font-weight="bold" stroke="none" text-anchor="middle" text-decoration="undefined" transform="matrix(1 0 0 1 -38 2)" x="89.2890625" y="355.5">loop</text></g></g><g><path d=" M 58 666 L 826 666 L 826 1178 L 58 1178 L 58 666" fill="none" paint-order="fill stroke markers" stroke="#000000" stroke-dasharray="" stroke-miterlimit="10"/></g><g><path d=" M 58 666 L 58 689 L 87.72998046875 689 L 99.22998046875 677.5 L 99.22998046875 666 L 58 666" fill="#ffffff" paint-order="stroke fill markers" stroke="none"/></g><g><path d=" M 58 666 L 58 689 L 87.72998046875 689 L 99.22998046875 677.5 L 99.22998046875 666 L 58 666 L 58 666" fill="none" paint-order="fill stroke markers" stroke="#000000" stroke-dasharray="" stroke-miterlimit="10"/></g><g><g><path fill="none" stroke="none"/><text dominant-baseline="central" fill="#000000" font-family="Arial" font-size="13px" font-style="normal" font-weight="bold" stroke="none" text-anchor="middle" text-decoration="undefined" transform="matrix(1 0 0 1 -38 2)" x="107.864990234375" y="675.5">alt</text></g></g><g><path d=" M 58 898 L 825 898" fill="none" paint-order="fill stroke markers" stroke="#000000" stroke-dasharray="10,3" stroke-miterlimit="10"/></g><g><path d=" M 82 722 L 786 722 L 786 882 L 82 882 L 82 722" fill="none" paint-order="fill stroke markers" stroke="#000000" stroke-dasharray="" stroke-miterlimit="10"/></g><g><path d=" M 82 722 L 82 745 L 130.51904296875 745 L 142.01904296875 733.5 L 142.01904296875 722 L 82 722" fill="#ffffff" paint-order="stroke fill markers" stroke="none"/></g><g><path d=" M 82 722 L 82 745 L 130.51904296875 745 L 142.01904296875 733.5 L 142.01904296875 722 L 82 722 L 82 722" fill="none" paint-order="fill stroke markers" stroke="#000000" stroke-dasharray="" stroke-miterlimit="10"/></g><g><g><path fill="none" stroke="none"/><text dominant-baseline="central" fill="#000000" font-family="Arial" font-size="13px" font-style="normal" font-weight="bold" stroke="none" text-anchor="middle" text-decoration="undefined" transform="matrix(1 0 0 1 -38 2)" x="141.259521484375" y="731.5">break</text></g></g><g><path d=" M 82 1002 L 802 1002 L 802 1162 L 82 1162 L 82 1002" fill="none" paint-order="fill stroke markers" stroke="#000000" stroke-dasharray="" stroke-miterlimit="10"/></g><g><path d=" M 82 1002 L 82 1025 L 204.99609375 1025 L 216.49609375 1013.5 L 216.49609375 1002 L 82 1002" fill="#ffffff" paint-order="stroke fill markers" stroke="none"/></g><g><path d=" M 82 1002 L 82 1025 L 204.99609375 1025 L 216.49609375 1013.5 L 216.49609375 1002 L 82 1002 L 82 1002" fill="none" paint-order="fill stroke markers" stroke="#000000" stroke-dasharray="" stroke-miterlimit="10"/></g><g><g><path fill="none" stroke="none"/><text dominant-baseline="central" fill="#000000" font-family="Arial" font-size="13px" font-style="normal" font-weight="normal" stroke="none" text-anchor="middle" text-decoration="undefined" transform="matrix(1 0 0 1 -38 2)" x="193.533935546875" y="1011.5">Chức năng hủy</text></g></g><g><g><path fill="none" stroke="none"/><text dominant-baseline="central" fill="#000000" font-family="Arial" font-size="13px" font-style="normal" font-weight="bold" stroke="none" text-anchor="middle" text-decoration="undefined" transform="matrix(1 0 0 1 -38 2)" x="134.035888671875" y="1011.5">opt</text></g></g><g><path d=" M 106 1034 L 778 1034 L 778 1146 L 106 1146 L 106 1034" fill="none" paint-order="fill stroke markers" stroke="#000000" stroke-dasharray="" stroke-miterlimit="10"/></g><g><path d=" M 106 1034 L 106 1057 L 154.51904296875 1057 L 166.01904296875 1045.5 L 166.01904296875 1034 L 106 1034" fill="#ffffff" paint-order="stroke fill markers" stroke="none"/></g><g><path d=" M 106 1034 L 106 1057 L 154.51904296875 1057 L 166.01904296875 1045.5 L 166.01904296875 1034 L 106 1034 L 106 1034" fill="none" paint-order="fill stroke markers" stroke="#000000" stroke-dasharray="" stroke-miterlimit="10"/></g><g><g><path fill="none" stroke="none"/><text dominant-baseline="central" fill="#000000" font-family="Arial" font-size="13px" font-style="normal" font-weight="bold" stroke="none" text-anchor="middle" text-decoration="undefined" transform="matrix(1 0 0 1 -38 2)" x="165.259521484375" y="1043.5">break</text></g></g></g></svg>