<?xml version="1.0" encoding="utf-8"?>
<svg height="1164" version="1.1" width="1092" xmlns="http://www.w3.org/2000/svg" xmlns:xlink="http://www.w3.org/1999/xlink"><defs/><g><g><path d=" M 10 10 L 1082 10 L 1082 1154 L 10 1154 L 10 10" fill="none" paint-order="fill stroke markers" stroke="#000000" stroke-dasharray="" stroke-miterlimit="10"/></g><g><path d=" M 10 10 L 10 33 L 125.71533203125 33 L 137.21533203125 21.5 L 137.21533203125 10 L 10 10" fill="#ffffff" paint-order="stroke fill markers" stroke="none"/></g><g><path d=" M 10 10 L 10 33 L 125.71533203125 33 L 137.21533203125 21.5 L 137.21533203125 10 L 10 10 L 10 10" fill="none" paint-order="fill stroke markers" stroke="#000000" stroke-dasharray="" stroke-miterlimit="10"/></g><g><g><path fill="none" stroke="none"/><text dominant-baseline="central" fill="#000000" font-family="Arial" font-size="13px" font-style="normal" font-weight="normal" stroke="none" text-anchor="middle" text-decoration="undefined" transform="matrix(1 0 0 1 -30 2)" x="107.72265625" y="19.5">SDTaoGiaiDau</text></g></g><g><g><path fill="none" stroke="none"/><text dominant-baseline="central" fill="#000000" font-family="Arial" font-size="13px" font-style="normal" font-weight="bold" stroke="none" text-anchor="middle" text-decoration="undefined" transform="matrix(1 0 0 1 -30 2)" x="51.864990234375" y="19.5">sd</text></g></g><g><path d=" M 136.9442001065341 49.3 C 136.9442001065341 45.82060576 139.8226018287159 43 143.373291015625 43 C 146.9239802025341 43 149.80238192471592 45.82060576 149.80238192471592 49.3 C 149.80238192471592 52.779394239999995 146.9239802025341 55.6 143.373291015625 55.6 C 139.8226018287159 55.6 136.9442001065341 52.779394239999995 136.9442001065341 49.3 Z" fill="#ffffff" paint-order="stroke fill markers" stroke="none"/></g><g><path d=" M 136.9442001065341 49.3 C 136.9442001065341 45.82060576 139.8226018287159 43 143.373291015625 43 C 146.9239802025341 43 149.80238192471592 45.82060576 149.80238192471592 49.3 C 149.80238192471592 52.779394239999995 146.9239802025341 55.6 143.373291015625 55.6 C 139.8226018287159 55.6 136.9442001065341 52.779394239999995 136.9442001065341 49.3 Z" fill="none" paint-order="fill stroke markers" stroke="#000000" stroke-dasharray="" stroke-miterlimit="10"/></g><g><path d=" M 143.373291015625 55.6 L 143.373291015625 68.4" fill="none" paint-order="fill stroke markers" stroke="#000000" stroke-dasharray="" stroke-miterlimit="10"/></g><g><path d=" M 136.5660182883523 60.4 L 150.18056374289773 60.4" fill="none" paint-order="fill stroke markers" stroke="#000000" stroke-dasharray="" stroke-miterlimit="10"/></g><g><path d=" M 143.373291015625 68.4 L 133.91874556107956 81" fill="none" paint-order="fill stroke markers" stroke="#000000" stroke-dasharray="" stroke-miterlimit="10"/></g><g><path d=" M 143.373291015625 68.4 L 152.82783647017047 81" fill="none" paint-order="fill stroke markers" stroke="#000000" stroke-dasharray="" stroke-miterlimit="10"/></g><g><g><path fill="none" stroke="none"/><text dominant-baseline="central" fill="#000000" font-family="Arial" font-size="13px" font-style="normal" font-weight="bold" stroke="none" text-anchor="middle" text-decoration="undefined" transform="matrix(1 0 0 1 -30 2)" x="173.873291015625" y="93.5">Actor: Trưởng Ban Tổ Chức</text></g></g><g><path d=" M 143.5 108 L 143.5 1154" fill="none" paint-order="fill stroke markers" stroke="#000000" stroke-dasharray="3" stroke-miterlimit="10"/></g><g><rect fill="#C0C0C0" fill-opacity="0.2" height="40" stroke="none" transform="matrix(1 0 0 1 -30 2)" width="202.74658203125" x="463" y="47"/></g><g><rect fill="#ffffff" height="40" stroke="none" transform="matrix(1 0 0 1 -30 2)" width="202.74658203125" x="456" y="40"/></g><g><path d=" M 426 42 L 628.74658203125 42 L 628.74658203125 82 L 426 82 L 426 42 Z Z" fill="none" paint-order="fill stroke markers" stroke="#000000" stroke-dasharray="" stroke-miterlimit="10"/></g><g><g><path fill="none" stroke="none"/><text dominant-baseline="central" fill="#000000" font-family="Arial" font-size="13px" font-style="normal" font-weight="bold" stroke="none" text-anchor="middle" text-decoration="undefined" transform="matrix(1 0 0 1 -30 2)" x="557.873291015625" y="53.5">GD: GiaoDien</text></g></g><g><path d=" M 527.5 83 L 527.5 1154" fill="none" paint-order="fill stroke markers" stroke="#000000" stroke-dasharray="3" stroke-miterlimit="10"/></g><g><rect fill="#C0C0C0" fill-opacity="0.2" height="40" stroke="none" transform="matrix(1 0 0 1 -30 2)" width="202.74658203125" x="855" y="47"/></g><g><rect fill="#ffffff" height="40" stroke="none" transform="matrix(1 0 0 1 -30 2)" width="202.74658203125" x="848" y="40"/></g><g><path d=" M 818 42 L 1020.74658203125 42 L 1020.74658203125 82 L 818 82 L 818 42 Z Z" fill="none" paint-order="fill stroke markers" stroke="#000000" stroke-dasharray="" stroke-miterlimit="10"/></g><g><g><path fill="none" stroke="none"/><text dominant-baseline="central" fill="#000000" font-family="Arial" font-size="13px" font-style="normal" font-weight="bold" stroke="none" text-anchor="middle" text-decoration="undefined" transform="matrix(1 0 0 1 -30 2)" x="949.873291015625" y="53.5">GiaiDau: GiaiDau</text></g></g><g><path d=" M 919.5 83 L 919.5 1154" fill="none" paint-order="fill stroke markers" stroke="#000000" stroke-dasharray="3" stroke-miterlimit="10"/></g><g><g><path fill="none" stroke="none"/><text dominant-baseline="text-before-edge" fill="#000000" font-family="Arial" font-size="13px" font-style="normal" font-weight="normal" stroke="none" text-anchor="start" text-decoration="undefined" transform="matrix(1 0 0 1 -30 2)" x="189" y="509">[Người dùng không nhập nữa và nhấn nút thoát ]</text></g></g><g><path d=" M 674 786 L 895 786 L 905 796 L 905 836 L 674 836 L 674 786" fill="#ffffff" paint-order="stroke fill markers" stroke="none"/></g><g><path d=" M 674 786 L 895 786 L 905 796 L 905 836 L 674 836 L 674 786 L 674 786" fill="none" paint-order="fill stroke markers" stroke="#000000" stroke-dasharray="" stroke-miterlimit="10"/></g><g><path d=" M 895 786 L 895 796 L 905 796 L 895 786" fill="none" paint-order="fill stroke markers" stroke="#000000" stroke-dasharray="" stroke-miterlimit="10"/></g><g><g><path fill="none" stroke="none"/><text dominant-baseline="text-before-edge" fill="#000000" font-family="Arial" font-size="13px" font-style="normal" font-weight="normal" stroke="none" text-anchor="start" text-decoration="undefined" transform="matrix(1 0 0 1 -30 2)" x="709" y="789">Trả về true nếu thông tin của giải đấu</text><text dominant-baseline="text-before-edge" fill="#000000" font-family="Arial" font-size="13px" font-style="normal" font-weight="normal" stroke="none" text-anchor="start" text-decoration="undefined" transform="matrix(1 0 0 1 -30 2)" x="709" y="802">đang tạo là hợp lệ, ngược lại trả về</text><text dominant-baseline="text-before-edge" fill="#000000" font-family="Arial" font-size="13px" font-style="normal" font-weight="normal" stroke="none" text-anchor="start" text-decoration="undefined" transform="matrix(1 0 0 1 -30 2)" x="709" y="815">false.</text></g></g><g><path d=" M 282 378 L 511 378 L 521 388 L 521 428 L 282 428 L 282 378" fill="#ffffff" paint-order="stroke fill markers" stroke="none"/></g><g><path d=" M 282 378 L 511 378 L 521 388 L 521 428 L 282 428 L 282 378 L 282 378" fill="none" paint-order="fill stroke markers" stroke="#000000" stroke-dasharray="" stroke-miterlimit="10"/></g><g><path d=" M 511 378 L 511 388 L 521 388 L 511 378" fill="none" paint-order="fill stroke markers" stroke="#000000" stroke-dasharray="" stroke-miterlimit="10"/></g><g><g><path fill="none" stroke="none"/><text dominant-baseline="text-before-edge" fill="#000000" font-family="Arial" font-size="13px" font-style="normal" font-weight="normal" stroke="none" text-anchor="start" text-decoration="undefined" transform="matrix(1 0 0 1 -30 2)" x="317" y="381">Nhập và chọn các thông tin cần thiết</text><text dominant-baseline="text-before-edge" fill="#000000" font-family="Arial" font-size="13px" font-style="normal" font-weight="normal" stroke="none" text-anchor="start" text-decoration="undefined" transform="matrix(1 0 0 1 -30 2)" x="317" y="394">như: Tên giải đấu, ngày tổ chức, cơ</text><text dominant-baseline="text-before-edge" fill="#000000" font-family="Arial" font-size="13px" font-style="normal" font-weight="normal" stroke="none" text-anchor="start" text-decoration="undefined" transform="matrix(1 0 0 1 -30 2)" x="317" y="407">cấu giải thưởng.</text></g></g><g><path d=" M 368 430 L 332 458" fill="none" paint-order="fill stroke markers" stroke="#000000" stroke-dasharray="3" stroke-miterlimit="10"/></g><g><path d=" M 759 785 L 723 754" fill="none" paint-order="fill stroke markers" stroke="#000000" stroke-dasharray="3" stroke-miterlimit="10"/></g><g><g><path fill="none" stroke="none"/><text dominant-baseline="text-before-edge" fill="#000000" font-family="Arial" font-size="13px" font-style="normal" font-weight="normal" stroke="none" text-anchor="start" text-decoration="undefined" transform="matrix(1 0 0 1 -30 2)" x="173" y="845">[ketQua == false]</text></g></g><g><g><path fill="none" stroke="none"/><text dominant-baseline="text-before-edge" fill="#000000" font-family="Arial" font-size="13px" font-style="normal" font-weight="normal" stroke="none" text-anchor="start" text-decoration="undefined" transform="matrix(1 0 0 1 -30 2)" x="133" y="909">[else]</text></g></g><g><rect fill="#ffffff" height="30" stroke="none" transform="matrix(1 0 0 1 -30 2)" width="1000" x="72" y="128"/></g><g><path d=" M 42 130 L 1042 130 L 1042 160 L 42 160 L 42 130 Z Z" fill="none" paint-order="fill stroke markers" stroke="#000000" stroke-dasharray="" stroke-miterlimit="10"/></g><g><path d=" M 42 130 L 42 153 L 67.1708984375 153 L 78.6708984375 141.5 L 78.6708984375 130 L 42 130 L 42 130" fill="none" paint-order="fill stroke markers" stroke="#000000" stroke-dasharray="" stroke-miterlimit="10"/></g><g><g><path fill="none" stroke="none"/><text dominant-baseline="central" fill="#000000" font-family="Arial" font-size="13px" font-style="normal" font-weight="normal" stroke="none" text-anchor="middle" text-decoration="undefined" transform="matrix(1 0 0 1 -30 2)" x="590.33544921875" y="139.5">Đăng nhập vào hệ thống</text></g></g><g><g><path fill="none" stroke="none"/><text dominant-baseline="central" fill="#000000" font-family="Arial" font-size="13px" font-style="normal" font-weight="bold" stroke="none" text-anchor="middle" text-decoration="undefined" transform="matrix(1 0 0 1 -30 2)" x="84.58544921875" y="139.5">ref</text></g></g><g><path d=" M 144 197 L 520 197" fill="none" paint-order="fill stroke markers" stroke="#000000" stroke-dasharray="" stroke-miterlimit="10"/></g><g><path d=" M 509.8373251423759 201.209517756016 L 520 197 L 509.8373251423758 192.790482243984" fill="#000000" paint-order="stroke fill markers" stroke="none"/></g><g><path d=" M 509.8373251423759 201.209517756016 L 520 197 L 509.8373251423758 192.790482243984 L 509.8373251423759 201.209517756016" fill="none" paint-order="fill stroke markers" stroke="#000000" stroke-dasharray="" stroke-miterlimit="10"/></g><g><rect fill="#ffffff" height="13" stroke="none" transform="matrix(1 0 0 1 -30 2)" width="146.70703125" x="289" y="179"/></g><g><g><path fill="none" stroke="none"/><text dominant-baseline="central" fill="#000000" font-family="Arial" font-size="13px" font-style="normal" font-weight="normal" stroke="none" text-anchor="middle" text-decoration="undefined" transform="matrix(1 0 0 1 -30 2)" x="362.353515625" y="185.5">1 : Chọn Quản lý giải đấu</text></g></g><g><rect fill="#ffffff" height="72" stroke="none" transform="matrix(1 0 0 1 -30 2)" width="14" x="550" y="195"/></g><g><path d=" M 520 197 L 534 197 L 534 269 L 520 269 L 520 197 Z Z" fill="none" paint-order="fill stroke markers" stroke="#000000" stroke-dasharray="" stroke-miterlimit="10"/></g><g><path d=" M 534 218 L 564 218 L 564 238 L 541 238" fill="none" paint-order="fill stroke markers" stroke="#000000" stroke-dasharray="" stroke-miterlimit="10"/></g><g><path d=" M 551.1626748576241 233.790482243984 L 541 238 L 551.1626748576241 242.209517756016" fill="#000000" paint-order="stroke fill markers" stroke="none"/></g><g><path d=" M 551.1626748576241 233.790482243984 L 541 238 L 551.1626748576241 242.209517756016 L 551.1626748576241 233.790482243984" fill="none" paint-order="fill stroke markers" stroke="#000000" stroke-dasharray="" stroke-miterlimit="10"/></g><g><rect fill="#ffffff" height="13" stroke="none" transform="matrix(1 0 0 1 -30 2)" width="216.0869140625" x="591" y="224"/></g><g><g><path fill="none" stroke="none"/><text dominant-baseline="central" fill="#000000" font-family="Arial" font-size="13px" font-style="normal" font-weight="normal" stroke="none" text-anchor="middle" text-decoration="undefined" transform="matrix(1 0 0 1 -30 2)" x="699.04345703125" y="230.5">2 : Hiển thị giao diện Quản lý giải đấu</text></g></g><g><rect fill="#ffffff" height="28" stroke="none" transform="matrix(1 0 0 1 -30 2)" width="14" x="557" y="236"/></g><g><path d=" M 527 238 L 541 238 L 541 266 L 527 266 L 527 238 Z Z" fill="none" paint-order="fill stroke markers" stroke="#000000" stroke-dasharray="" stroke-miterlimit="10"/></g><g><path d=" M 144 290 L 520 290" fill="none" paint-order="fill stroke markers" stroke="#000000" stroke-dasharray="" stroke-miterlimit="10"/></g><g><path d=" M 509.8373251423759 294.209517756016 L 520 290 L 509.8373251423758 285.790482243984" fill="#000000" paint-order="stroke fill markers" stroke="none"/></g><g><path d=" M 509.8373251423759 294.209517756016 L 520 290 L 509.8373251423758 285.790482243984 L 509.8373251423759 294.209517756016" fill="none" paint-order="fill stroke markers" stroke="#000000" stroke-dasharray="" stroke-miterlimit="10"/></g><g><rect fill="#ffffff" height="13" stroke="none" transform="matrix(1 0 0 1 -30 2)" width="124.30615234375" x="300" y="272"/></g><g><g><path fill="none" stroke="none"/><text dominant-baseline="central" fill="#000000" font-family="Arial" font-size="13px" font-style="normal" font-weight="normal" stroke="none" text-anchor="middle" text-decoration="undefined" transform="matrix(1 0 0 1 -30 2)" x="362.153076171875" y="278.5">3 : Chọn Tạo giải đấu</text></g></g><g><rect fill="#ffffff" height="67" stroke="none" transform="matrix(1 0 0 1 -30 2)" width="14" x="550" y="288"/></g><g><path d=" M 520 290 L 534 290 L 534 357 L 520 357 L 520 290 Z Z" fill="none" paint-order="fill stroke markers" stroke="#000000" stroke-dasharray="" stroke-miterlimit="10"/></g><g><path d=" M 534 306 L 564 306 L 564 326 L 541 326" fill="none" paint-order="fill stroke markers" stroke="#000000" stroke-dasharray="" stroke-miterlimit="10"/></g><g><path d=" M 551.1626748576241 321.790482243984 L 541 326 L 551.1626748576241 330.209517756016" fill="#000000" paint-order="stroke fill markers" stroke="none"/></g><g><path d=" M 551.1626748576241 321.790482243984 L 541 326 L 551.1626748576241 330.209517756016 L 551.1626748576241 321.790482243984" fill="none" paint-order="fill stroke markers" stroke="#000000" stroke-dasharray="" stroke-miterlimit="10"/></g><g><rect fill="#ffffff" height="13" stroke="none" transform="matrix(1 0 0 1 -30 2)" width="193.68603515625" x="607" y="312"/></g><g><g><path fill="none" stroke="none"/><text dominant-baseline="central" fill="#000000" font-family="Arial" font-size="13px" font-style="normal" font-weight="normal" stroke="none" text-anchor="middle" text-decoration="undefined" transform="matrix(1 0 0 1 -30 2)" x="703.843017578125" y="318.5">4 : Hiển thị giao diện Tạo giải đấu</text></g></g><g><rect fill="#ffffff" height="28" stroke="none" transform="matrix(1 0 0 1 -30 2)" width="14" x="557" y="324"/></g><g><path d=" M 527 326 L 541 326 L 541 354 L 527 354 L 527 326 Z Z" fill="none" paint-order="fill stroke markers" stroke="#000000" stroke-dasharray="" stroke-miterlimit="10"/></g><g><path d=" M 144 458 L 520 458" fill="none" paint-order="fill stroke markers" stroke="#000000" stroke-dasharray="" stroke-miterlimit="10"/></g><g><path d=" M 509.8373251423759 462.209517756016 L 520 458 L 509.8373251423758 453.790482243984" fill="#000000" paint-order="stroke fill markers" stroke="none"/></g><g><path d=" M 509.8373251423759 462.209517756016 L 520 458 L 509.8373251423758 453.790482243984 L 509.8373251423759 462.209517756016" fill="none" paint-order="fill stroke markers" stroke="#000000" stroke-dasharray="" stroke-miterlimit="10"/></g><g><rect fill="#ffffff" height="13" stroke="none" transform="matrix(1 0 0 1 -30 2)" width="225.494140625" x="250" y="440"/></g><g><g><path fill="none" stroke="none"/><text dominant-baseline="central" fill="#000000" font-family="Arial" font-size="13px" font-style="normal" font-weight="normal" stroke="none" text-anchor="middle" text-decoration="undefined" transform="matrix(1 0 0 1 -30 2)" x="362.7470703125" y="446.5">5 : Nhập các thông tin [thongtingiaidau]</text></g></g><g><rect fill="#ffffff" height="28" stroke="none" transform="matrix(1 0 0 1 -30 2)" width="14" x="550" y="456"/></g><g><path d=" M 520 458 L 534 458 L 534 486 L 520 486 L 520 458 Z Z" fill="none" paint-order="fill stroke markers" stroke="#000000" stroke-dasharray="" stroke-miterlimit="10"/></g><g><path d=" M 144 578 L 520 578" fill="none" paint-order="fill stroke markers" stroke="#000000" stroke-dasharray="" stroke-miterlimit="10"/></g><g><path d=" M 509.8373251423759 582.209517756016 L 520 578 L 509.8373251423758 573.790482243984" fill="#000000" paint-order="stroke fill markers" stroke="none"/></g><g><path d=" M 509.8373251423759 582.209517756016 L 520 578 L 509.8373251423758 573.790482243984 L 509.8373251423759 582.209517756016" fill="none" paint-order="fill stroke markers" stroke="#000000" stroke-dasharray="" stroke-miterlimit="10"/></g><g><rect fill="#ffffff" height="13" stroke="none" transform="matrix(1 0 0 1 -30 2)" width="127.92431640625" x="299" y="560"/></g><g><g><path fill="none" stroke="none"/><text dominant-baseline="central" fill="#000000" font-family="Arial" font-size="13px" font-style="normal" font-weight="normal" stroke="none" text-anchor="middle" text-decoration="undefined" transform="matrix(1 0 0 1 -30 2)" x="362.962158203125" y="566.5">6 : Nhấn vào nút thoát</text></g></g><g><rect fill="#ffffff" height="75" stroke="none" transform="matrix(1 0 0 1 -30 2)" width="14" x="550" y="576"/></g><g><path d=" M 520 578 L 534 578 L 534 653 L 520 653 L 520 578 Z Z" fill="none" paint-order="fill stroke markers" stroke="#000000" stroke-dasharray="" stroke-miterlimit="10"/></g><g><path d=" M 534 602 L 564 602 L 564 622 L 541 622" fill="none" paint-order="fill stroke markers" stroke="#000000" stroke-dasharray="" stroke-miterlimit="10"/></g><g><path d=" M 551.1626748576241 617.790482243984 L 541 622 L 551.1626748576241 626.209517756016" fill="#000000" paint-order="stroke fill markers" stroke="none"/></g><g><path d=" M 551.1626748576241 617.790482243984 L 541 622 L 551.1626748576241 626.209517756016 L 551.1626748576241 617.790482243984" fill="none" paint-order="fill stroke markers" stroke="#000000" stroke-dasharray="" stroke-miterlimit="10"/></g><g><rect fill="#ffffff" height="13" stroke="none" transform="matrix(1 0 0 1 -30 2)" width="209.6630859375" x="608" y="603"/></g><g><g><path fill="none" stroke="none"/><text dominant-baseline="central" fill="#000000" font-family="Arial" font-size="13px" font-style="normal" font-weight="normal" stroke="none" text-anchor="middle" text-decoration="undefined" transform="matrix(1 0 0 1 -30 2)" x="712.83154296875" y="609.5">7 : Trở về giao diện Quản lý giải đấu</text></g></g><g><rect fill="#ffffff" height="28" stroke="none" transform="matrix(1 0 0 1 -30 2)" width="14" x="557" y="620"/></g><g><path d=" M 527 622 L 541 622 L 541 650 L 527 650 L 527 622 Z Z" fill="none" paint-order="fill stroke markers" stroke="#000000" stroke-dasharray="" stroke-miterlimit="10"/></g><g><path d=" M 144 730 L 520 730" fill="none" paint-order="fill stroke markers" stroke="#000000" stroke-dasharray="" stroke-miterlimit="10"/></g><g><path d=" M 509.8373251423759 734.209517756016 L 520 730 L 509.8373251423758 725.790482243984" fill="#000000" paint-order="stroke fill markers" stroke="none"/></g><g><path d=" M 509.8373251423759 734.209517756016 L 520 730 L 509.8373251423758 725.790482243984 L 509.8373251423759 734.209517756016" fill="none" paint-order="fill stroke markers" stroke="#000000" stroke-dasharray="" stroke-miterlimit="10"/></g><g><rect fill="#ffffff" height="13" stroke="none" transform="matrix(1 0 0 1 -30 2)" width="258.01953125" x="233" y="712"/></g><g><g><path fill="none" stroke="none"/><text dominant-baseline="central" fill="#000000" font-family="Arial" font-size="13px" font-style="normal" font-weight="normal" stroke="none" text-anchor="middle" text-decoration="undefined" transform="matrix(1 0 0 1 -30 2)" x="362.009765625" y="718.5">8 : Xác nhận thông tin và chọn Tạo giải đấu</text></g></g><g><rect fill="#ffffff" height="352" stroke="none" transform="matrix(1 0 0 1 -30 2)" width="14" x="550" y="728"/></g><g><path d=" M 520 730 L 534 730 L 534 1082 L 520 1082 L 520 730 Z Z" fill="none" paint-order="fill stroke markers" stroke="#000000" stroke-dasharray="" stroke-miterlimit="10"/></g><g><path d=" M 534 738 L 912 738" fill="none" paint-order="fill stroke markers" stroke="#000000" stroke-dasharray="" stroke-miterlimit="10"/></g><g><path d=" M 901.8373251423759 742.209517756016 L 912 738 L 901.8373251423758 733.790482243984" fill="#000000" paint-order="stroke fill markers" stroke="none"/></g><g><path d=" M 901.8373251423759 742.209517756016 L 912 738 L 901.8373251423758 733.790482243984 L 901.8373251423759 742.209517756016" fill="none" paint-order="fill stroke markers" stroke="#000000" stroke-dasharray="" stroke-miterlimit="10"/></g><g><rect fill="#ffffff" height="13" stroke="none" transform="matrix(1 0 0 1 -30 2)" width="272.54296875" x="617" y="720"/></g><g><g><path fill="none" stroke="none"/><text dominant-baseline="central" fill="#000000" font-family="Arial" font-size="13px" font-style="normal" font-weight="normal" stroke="none" text-anchor="middle" text-decoration="undefined" transform="matrix(1 0 0 1 -30 2)" x="753.271484375" y="726.5">9 : ketQua = kiemTraThongTin(thongtingiaidau)</text></g></g><g><rect fill="#ffffff" height="28" stroke="none" transform="matrix(1 0 0 1 -30 2)" width="14" x="942" y="736"/></g><g><path d=" M 912 738 L 926 738 L 926 766 L 912 766 L 912 738 Z Z" fill="none" paint-order="fill stroke markers" stroke="#000000" stroke-dasharray="" stroke-miterlimit="10"/></g><g><path d=" M 912 754 L 534 754" fill="none" paint-order="fill stroke markers" stroke="#000000" stroke-dasharray="3" stroke-miterlimit="10"/></g><g><path d=" M 544.1626748576241 749.790482243984 L 534 754 L 544.1626748576241 758.209517756016" fill="none" paint-order="fill stroke markers" stroke="#000000" stroke-dasharray="" stroke-miterlimit="10"/></g><g><rect fill="#ffffff" height="13" stroke="none" transform="matrix(1 0 0 1 -30 2)" width="107.18017578125" x="699" y="756"/></g><g><g><path fill="none" stroke="none"/><text dominant-baseline="central" fill="#000000" font-family="Arial" font-size="13px" font-style="normal" font-weight="normal" stroke="none" text-anchor="middle" text-decoration="undefined" transform="matrix(1 0 0 1 -30 2)" x="752.590087890625" y="762.5">10 : Trả về ketQua</text></g></g><g><path d=" M 520 874 L 144 874" fill="none" paint-order="fill stroke markers" stroke="#000000" stroke-dasharray="3" stroke-miterlimit="10"/></g><g><path d=" M 154.16267485762415 869.790482243984 L 144 874 L 154.16267485762415 878.209517756016" fill="none" paint-order="fill stroke markers" stroke="#000000" stroke-dasharray="" stroke-miterlimit="10"/></g><g><rect fill="#ffffff" height="13" stroke="none" transform="matrix(1 0 0 1 -30 2)" width="277.9130859375" x="223" y="876"/></g><g><g><path fill="none" stroke="none"/><text dominant-baseline="central" fill="#000000" font-family="Arial" font-size="13px" font-style="normal" font-weight="normal" stroke="none" text-anchor="middle" text-decoration="undefined" transform="matrix(1 0 0 1 -30 2)" x="361.95654296875" y="882.5">11 : Thông báo thông tin vừa nhập không hợp lệ</text></g></g><g><path d=" M 534 970 L 912 970" fill="none" paint-order="fill stroke markers" stroke="#000000" stroke-dasharray="" stroke-miterlimit="10"/></g><g><path d=" M 901.8373251423759 974.209517756016 L 912 970 L 901.8373251423758 965.790482243984" fill="#000000" paint-order="stroke fill markers" stroke="none"/></g><g><path d=" M 901.8373251423759 974.209517756016 L 912 970 L 901.8373251423758 965.790482243984 L 901.8373251423759 974.209517756016" fill="none" paint-order="fill stroke markers" stroke="#000000" stroke-dasharray="" stroke-miterlimit="10"/></g><g><rect fill="#ffffff" height="13" stroke="none" transform="matrix(1 0 0 1 -30 2)" width="187.1796875" x="660" y="952"/></g><g><g><path fill="none" stroke="none"/><text dominant-baseline="central" fill="#000000" font-family="Arial" font-size="13px" font-style="normal" font-weight="normal" stroke="none" text-anchor="middle" text-decoration="undefined" transform="matrix(1 0 0 1 -30 2)" x="753.58984375" y="958.5">12 : taoGiaiDau(thongtingiaidau)</text></g></g><g><rect fill="#ffffff" height="28" stroke="none" transform="matrix(1 0 0 1 -30 2)" width="14" x="942" y="968"/></g><g><path d=" M 912 970 L 926 970 L 926 998 L 912 998 L 912 970 Z Z" fill="none" paint-order="fill stroke markers" stroke="#000000" stroke-dasharray="" stroke-miterlimit="10"/></g><g><path d=" M 912 994 L 534 994" fill="none" paint-order="fill stroke markers" stroke="#000000" stroke-dasharray="3" stroke-miterlimit="10"/></g><g><path d=" M 544.1626748576241 989.790482243984 L 534 994 L 544.1626748576241 998.209517756016" fill="none" paint-order="fill stroke markers" stroke="#000000" stroke-dasharray="" stroke-miterlimit="10"/></g><g><rect fill="#ffffff" height="13" stroke="none" transform="matrix(1 0 0 1 -30 2)" width="164.79150390625" x="670" y="996"/></g><g><g><path fill="none" stroke="none"/><text dominant-baseline="central" fill="#000000" font-family="Arial" font-size="13px" font-style="normal" font-weight="normal" stroke="none" text-anchor="middle" text-decoration="undefined" transform="matrix(1 0 0 1 -30 2)" x="752.395751953125" y="1002.5">13 : Tạo giải đấu thành công</text></g></g><g><path d=" M 520 1010 L 144 1010" fill="none" paint-order="fill stroke markers" stroke="#000000" stroke-dasharray="3" stroke-miterlimit="10"/></g><g><path d=" M 154.16267485762415 1005.790482243984 L 144 1010 L 154.16267485762415 1014.209517756016" fill="none" paint-order="fill stroke markers" stroke="#000000" stroke-dasharray="" stroke-miterlimit="10"/></g><g><rect fill="#ffffff" height="13" stroke="none" transform="matrix(1 0 0 1 -30 2)" width="260.80615234375" x="231" y="1012"/></g><g><g><path fill="none" stroke="none"/><text dominant-baseline="central" fill="#000000" font-family="Arial" font-size="13px" font-style="normal" font-weight="normal" stroke="none" text-anchor="middle" text-decoration="undefined" transform="matrix(1 0 0 1 -30 2)" x="361.403076171875" y="1018.5">14 : Thông báo giải đấu được tạo thành công</text></g></g><g><path d=" M 534 1026 L 564 1026 L 564 1046 L 541 1046" fill="none" paint-order="fill stroke markers" stroke="#000000" stroke-dasharray="" stroke-miterlimit="10"/></g><g><path d=" M 551.1626748576241 1041.7904822439841 L 541 1046 L 551.1626748576241 1050.2095177560159" fill="#000000" paint-order="stroke fill markers" stroke="none"/></g><g><path d=" M 551.1626748576241 1041.7904822439841 L 541 1046 L 551.1626748576241 1050.2095177560159 L 551.1626748576241 1041.7904822439841" fill="none" paint-order="fill stroke markers" stroke="#000000" stroke-dasharray="" stroke-miterlimit="10"/></g><g><rect fill="#ffffff" height="13" stroke="none" transform="matrix(1 0 0 1 -30 2)" width="223.31689453125" x="606" y="1027"/></g><g><g><path fill="none" stroke="none"/><text dominant-baseline="central" fill="#000000" font-family="Arial" font-size="13px" font-style="normal" font-weight="normal" stroke="none" text-anchor="middle" text-decoration="undefined" transform="matrix(1 0 0 1 -30 2)" x="717.658447265625" y="1033.5">15 : Hiển thị giao diện Quản lý giải đấu</text></g></g><g><rect fill="#ffffff" height="28" stroke="none" transform="matrix(1 0 0 1 -30 2)" width="14" x="557" y="1044"/></g><g><path d=" M 527 1046 L 541 1046 L 541 1074 L 527 1074 L 527 1046 Z Z" fill="none" paint-order="fill stroke markers" stroke="#000000" stroke-dasharray="" stroke-miterlimit="10"/></g><g><path d=" M 42 370 L 1050 370 L 1050 1146 L 42 1146 L 42 370" fill="none" paint-order="fill stroke markers" stroke="#000000" stroke-dasharray="" stroke-miterlimit="10"/></g><g><path d=" M 42 370 L 42 393 L 104.97900390625 393 L 116.47900390625 381.5 L 116.47900390625 370 L 42 370" fill="#ffffff" paint-order="stroke fill markers" stroke="none"/></g><g><path d=" M 42 370 L 42 393 L 104.97900390625 393 L 116.47900390625 381.5 L 116.47900390625 370 L 42 370 L 42 370" fill="none" paint-order="fill stroke markers" stroke="#000000" stroke-dasharray="" stroke-miterlimit="10"/></g><g><g><path fill="none" stroke="none"/><text dominant-baseline="central" fill="#000000" font-family="Arial" font-size="13px" font-style="normal" font-weight="normal" stroke="none" text-anchor="middle" text-decoration="undefined" transform="matrix(1 0 0 1 -30 2)" x="118.778564453125" y="379.5">true</text></g></g><g><g><path fill="none" stroke="none"/><text dominant-baseline="central" fill="#000000" font-family="Arial" font-size="13px" font-style="normal" font-weight="bold" stroke="none" text-anchor="middle" text-decoration="undefined" transform="matrix(1 0 0 1 -30 2)" x="89.2890625" y="379.5">loop</text></g></g><g><path d=" M 66 498 L 1026 498 L 1026 690 L 66 690 L 66 498" fill="none" paint-order="fill stroke markers" stroke="#000000" stroke-dasharray="" stroke-miterlimit="10"/></g><g><path d=" M 66 498 L 66 521 L 100.07177734375 521 L 111.57177734375 509.5 L 111.57177734375 498 L 66 498" fill="#ffffff" paint-order="stroke fill markers" stroke="none"/></g><g><path d=" M 66 498 L 66 521 L 100.07177734375 521 L 111.57177734375 509.5 L 111.57177734375 498 L 66 498 L 66 498" fill="none" paint-order="fill stroke markers" stroke="#000000" stroke-dasharray="" stroke-miterlimit="10"/></g><g><g><path fill="none" stroke="none"/><text dominant-baseline="central" fill="#000000" font-family="Arial" font-size="13px" font-style="normal" font-weight="bold" stroke="none" text-anchor="middle" text-decoration="undefined" transform="matrix(1 0 0 1 -30 2)" x="110.035888671875" y="507.5">opt</text></g></g><g><path d=" M 90 546 L 1002 546 L 1002 674 L 90 674 L 90 546" fill="none" paint-order="fill stroke markers" stroke="#000000" stroke-dasharray="" stroke-miterlimit="10"/></g><g><path d=" M 90 546 L 90 569 L 138.51904296875 569 L 150.01904296875 557.5 L 150.01904296875 546 L 90 546" fill="#ffffff" paint-order="stroke fill markers" stroke="none"/></g><g><path d=" M 90 546 L 90 569 L 138.51904296875 569 L 150.01904296875 557.5 L 150.01904296875 546 L 90 546 L 90 546" fill="none" paint-order="fill stroke markers" stroke="#000000" stroke-dasharray="" stroke-miterlimit="10"/></g><g><g><path fill="none" stroke="none"/><text dominant-baseline="central" fill="#000000" font-family="Arial" font-size="13px" font-style="normal" font-weight="bold" stroke="none" text-anchor="middle" text-decoration="undefined" transform="matrix(1 0 0 1 -30 2)" x="141.259521484375" y="555.5">break</text></g></g><g><path d=" M 66 842 L 1026 842 L 1026 1114 L 66 1114 L 66 842" fill="none" paint-order="fill stroke markers" stroke="#000000" stroke-dasharray="" stroke-miterlimit="10"/></g><g><path d=" M 66 842 L 66 865 L 95.72998046875 865 L 107.22998046875 853.5 L 107.22998046875 842 L 66 842" fill="#ffffff" paint-order="stroke fill markers" stroke="none"/></g><g><path d=" M 66 842 L 66 865 L 95.72998046875 865 L 107.22998046875 853.5 L 107.22998046875 842 L 66 842 L 66 842" fill="none" paint-order="fill stroke markers" stroke="#000000" stroke-dasharray="" stroke-miterlimit="10"/></g><g><g><path fill="none" stroke="none"/><text dominant-baseline="central" fill="#000000" font-family="Arial" font-size="13px" font-style="normal" font-weight="bold" stroke="none" text-anchor="middle" text-decoration="undefined" transform="matrix(1 0 0 1 -30 2)" x="107.864990234375" y="851.5">alt</text></g></g><g><path d=" M 66 908 L 1025 908" fill="none" paint-order="fill stroke markers" stroke="#000000" stroke-dasharray="10,3" stroke-miterlimit="10"/></g><g><path d=" M 90 946 L 1002 946 L 1002 1090 L 90 1090 L 90 946" fill="none" paint-order="fill stroke markers" stroke="#000000" stroke-dasharray="" stroke-miterlimit="10"/></g><g><path d=" M 90 946 L 90 969 L 138.51904296875 969 L 150.01904296875 957.5 L 150.01904296875 946 L 90 946" fill="#ffffff" paint-order="stroke fill markers" stroke="none"/></g><g><path d=" M 90 946 L 90 969 L 138.51904296875 969 L 150.01904296875 957.5 L 150.01904296875 946 L 90 946 L 90 946" fill="none" paint-order="fill stroke markers" stroke="#000000" stroke-dasharray="" stroke-miterlimit="10"/></g><g><g><path fill="none" stroke="none"/><text dominant-baseline="central" fill="#000000" font-family="Arial" font-size="13px" font-style="normal" font-weight="bold" stroke="none" text-anchor="middle" text-decoration="undefined" transform="matrix(1 0 0 1 -30 2)" x="141.259521484375" y="955.5">break</text></g></g></g></svg>