<?xml version="1.0" encoding="utf-8"?>
<svg height="1364" version="1.1" width="1348" xmlns="http://www.w3.org/2000/svg" xmlns:xlink="http://www.w3.org/1999/xlink"><defs/><g><g><path d=" M 10 10 L 1338 10 L 1338 1354 L 10 1354 L 10 10" fill="none" paint-order="fill stroke markers" stroke="#000000" stroke-dasharray="" stroke-miterlimit="10"/></g><g><path d=" M 10 10 L 10 33 L 132.9580078125 33 L 144.4580078125 21.5 L 144.4580078125 10 L 10 10" fill="#ffffff" paint-order="stroke fill markers" stroke="none"/></g><g><path d=" M 10 10 L 10 33 L 132.9580078125 33 L 144.4580078125 21.5 L 144.4580078125 10 L 10 10 L 10 10" fill="none" paint-order="fill stroke markers" stroke="#000000" stroke-dasharray="" stroke-miterlimit="10"/></g><g><g><path fill="none" stroke="none"/><text dominant-baseline="central" fill="#000000" font-family="Arial" font-size="13px" font-style="normal" font-weight="normal" stroke="none" text-anchor="middle" text-decoration="undefined" transform="matrix(1 0 0 1 10 10)" x="71.343994140625" y="11.5">SDTaoTaiKhoan</text></g></g><g><g><path fill="none" stroke="none"/><text dominant-baseline="central" fill="#000000" font-family="Arial" font-size="13px" font-style="normal" font-weight="bold" stroke="none" text-anchor="middle" text-decoration="undefined" transform="matrix(1 0 0 1 10 10)" x="11.864990234375" y="11.5">sd</text></g></g><g><path d=" M 223.6258407315341 57.3 C 223.6258407315341 53.82060576 226.5042424537159 51 230.054931640625 51 C 233.6056208275341 51 236.48402254971592 53.82060576 236.48402254971592 57.3 C 236.48402254971592 60.779394239999995 233.6056208275341 63.6 230.054931640625 63.6 C 226.5042424537159 63.6 223.6258407315341 60.779394239999995 223.6258407315341 57.3 Z" fill="#ffffff" paint-order="stroke fill markers" stroke="none"/></g><g><path d=" M 223.6258407315341 57.3 C 223.6258407315341 53.82060576 226.5042424537159 51 230.054931640625 51 C 233.6056208275341 51 236.48402254971592 53.82060576 236.48402254971592 57.3 C 236.48402254971592 60.779394239999995 233.6056208275341 63.6 230.054931640625 63.6 C 226.5042424537159 63.6 223.6258407315341 60.779394239999995 223.6258407315341 57.3 Z" fill="none" paint-order="fill stroke markers" stroke="#000000" stroke-dasharray="" stroke-miterlimit="10"/></g><g><path d=" M 230.054931640625 63.6 L 230.054931640625 76.4" fill="none" paint-order="fill stroke markers" stroke="#000000" stroke-dasharray="" stroke-miterlimit="10"/></g><g><path d=" M 223.2476589133523 68.4 L 236.86220436789773 68.4" fill="none" paint-order="fill stroke markers" stroke="#000000" stroke-dasharray="" stroke-miterlimit="10"/></g><g><path d=" M 230.054931640625 76.4 L 220.60038618607956 89" fill="none" paint-order="fill stroke markers" stroke="#000000" stroke-dasharray="" stroke-miterlimit="10"/></g><g><path d=" M 230.054931640625 76.4 L 239.50947709517047 89" fill="none" paint-order="fill stroke markers" stroke="#000000" stroke-dasharray="" stroke-miterlimit="10"/></g><g><g><path fill="none" stroke="none"/><text dominant-baseline="central" fill="#000000" font-family="Arial" font-size="13px" font-style="normal" font-weight="bold" stroke="none" text-anchor="middle" text-decoration="undefined" transform="matrix(1 0 0 1 10 10)" x="220.554931640625" y="93.5">Actor: Quản Trị Viên</text></g></g><g><path d=" M 230.5 116 L 230.5 1354" fill="none" paint-order="fill stroke markers" stroke="#000000" stroke-dasharray="3" stroke-miterlimit="10"/></g><g><rect fill="#C0C0C0" fill-opacity="0.2" height="40" stroke="none" transform="matrix(1 0 0 1 10 10)" width="184.10986328125" x="555" y="47"/></g><g><rect fill="#ffffff" height="40" stroke="none" transform="matrix(1 0 0 1 10 10)" width="184.10986328125" x="548" y="40"/></g><g><path d=" M 558 50 L 742.10986328125 50 L 742.10986328125 90 L 558 90 L 558 50 Z Z" fill="none" paint-order="fill stroke markers" stroke="#000000" stroke-dasharray="" stroke-miterlimit="10"/></g><g><g><path fill="none" stroke="none"/><text dominant-baseline="central" fill="#000000" font-family="Arial" font-size="13px" font-style="normal" font-weight="bold" stroke="none" text-anchor="middle" text-decoration="undefined" transform="matrix(1 0 0 1 10 10)" x="640.554931640625" y="53.5">GD: GiaoDien</text></g></g><g><path d=" M 650.5 91 L 650.5 1354" fill="none" paint-order="fill stroke markers" stroke="#000000" stroke-dasharray="3" stroke-miterlimit="10"/></g><g><rect fill="#C0C0C0" fill-opacity="0.2" height="40" stroke="none" transform="matrix(1 0 0 1 10 10)" width="184.10986328125" x="975" y="47"/></g><g><rect fill="#ffffff" height="40" stroke="none" transform="matrix(1 0 0 1 10 10)" width="184.10986328125" x="968" y="40"/></g><g><path d=" M 978 50 L 1162.10986328125 50 L 1162.10986328125 90 L 978 90 L 978 50 Z Z" fill="none" paint-order="fill stroke markers" stroke="#000000" stroke-dasharray="" stroke-miterlimit="10"/></g><g><g><path fill="none" stroke="none"/><text dominant-baseline="central" fill="#000000" font-family="Arial" font-size="13px" font-style="normal" font-weight="bold" stroke="none" text-anchor="middle" text-decoration="undefined" transform="matrix(1 0 0 1 10 10)" x="1060.554931640625" y="53.5">taikhoan: TaiKhoan</text></g></g><g><path d=" M 1070.5 91 L 1070.5 1354" fill="none" paint-order="fill stroke markers" stroke="#000000" stroke-dasharray="3" stroke-miterlimit="10"/></g><g><path d=" M 314 434 L 615 434 L 625 444 L 625 497 L 314 497 L 314 434" fill="#ffffff" paint-order="stroke fill markers" stroke="none"/></g><g><path d=" M 314 434 L 615 434 L 625 444 L 625 497 L 314 497 L 314 434 L 314 434" fill="none" paint-order="fill stroke markers" stroke="#000000" stroke-dasharray="" stroke-miterlimit="10"/></g><g><path d=" M 615 434 L 615 444 L 625 444 L 615 434" fill="none" paint-order="fill stroke markers" stroke="#000000" stroke-dasharray="" stroke-miterlimit="10"/></g><g><g><path fill="none" stroke="none"/><text dominant-baseline="text-before-edge" fill="#000000" font-family="Arial" font-size="13px" font-style="normal" font-weight="normal" stroke="none" text-anchor="start" text-decoration="undefined" transform="matrix(1 0 0 1 10 10)" x="309" y="429">Chọn vai trò tài khoản bao gồm: trưởng ban tổ chức</text><text dominant-baseline="text-before-edge" fill="#000000" font-family="Arial" font-size="13px" font-style="normal" font-weight="normal" stroke="none" text-anchor="start" text-decoration="undefined" transform="matrix(1 0 0 1 10 10)" x="309" y="442">hoặc trưởng đoàn. Nhập dữ liệu tài khoản bao gồm:</text><text dominant-baseline="text-before-edge" fill="#000000" font-family="Arial" font-size="13px" font-style="normal" font-weight="normal" stroke="none" text-anchor="start" text-decoration="undefined" transform="matrix(1 0 0 1 10 10)" x="309" y="455">Họ và tên, email, mật khẩu, giới tính, số điện thoại</text></g></g><g><g><path fill="none" stroke="none"/><text dominant-baseline="text-before-edge" fill="#000000" font-family="Arial" font-size="13px" font-style="normal" font-weight="normal" stroke="none" text-anchor="start" text-decoration="undefined" transform="matrix(1 0 0 1 10 10)" x="205" y="605">[Người dùng không nhập nữa và nhấn nút thoát ]</text></g></g><g><path d=" M 459 499 L 437 562" fill="none" paint-order="fill stroke markers" stroke="#000000" stroke-dasharray="3" stroke-miterlimit="10"/></g><g><path d=" M 866 954 L 1031 954 L 1041 964 L 1041 1004 L 866 1004 L 866 954" fill="#ffffff" paint-order="stroke fill markers" stroke="none"/></g><g><path d=" M 866 954 L 1031 954 L 1041 964 L 1041 1004 L 866 1004 L 866 954 L 866 954" fill="none" paint-order="fill stroke markers" stroke="#000000" stroke-dasharray="" stroke-miterlimit="10"/></g><g><path d=" M 1031 954 L 1031 964 L 1041 964 L 1031 954" fill="none" paint-order="fill stroke markers" stroke="#000000" stroke-dasharray="" stroke-miterlimit="10"/></g><g><g><path fill="none" stroke="none"/><text dominant-baseline="text-before-edge" fill="#000000" font-family="Arial" font-size="13px" font-style="normal" font-weight="normal" stroke="none" text-anchor="start" text-decoration="undefined" transform="matrix(1 0 0 1 10 10)" x="861" y="949">Trả về true nếu tài khoản</text><text dominant-baseline="text-before-edge" fill="#000000" font-family="Arial" font-size="13px" font-style="normal" font-weight="normal" stroke="none" text-anchor="start" text-decoration="undefined" transform="matrix(1 0 0 1 10 10)" x="861" y="962">hợp lệ và trảvề false nếu tài</text><text dominant-baseline="text-before-edge" fill="#000000" font-family="Arial" font-size="13px" font-style="normal" font-weight="normal" stroke="none" text-anchor="start" text-decoration="undefined" transform="matrix(1 0 0 1 10 10)" x="861" y="975">khoản không hợp lệ</text></g></g><g><path d=" M 911 953 L 860 922" fill="none" paint-order="fill stroke markers" stroke="#000000" stroke-dasharray="3" stroke-miterlimit="10"/></g><g><g><path fill="none" stroke="none"/><text dominant-baseline="text-before-edge" fill="#000000" font-family="Arial" font-size="13px" font-style="normal" font-weight="normal" stroke="none" text-anchor="start" text-decoration="undefined" transform="matrix(1 0 0 1 10 10)" x="205" y="1021">[kiemTra == false] </text></g></g><g><g><path fill="none" stroke="none"/><text dominant-baseline="text-before-edge" fill="#000000" font-family="Arial" font-size="13px" font-style="normal" font-weight="normal" stroke="none" text-anchor="start" text-decoration="undefined" transform="matrix(1 0 0 1 10 10)" x="173" y="1109">[else]</text></g></g><g><rect fill="#ffffff" height="30" stroke="none" transform="matrix(1 0 0 1 10 10)" width="1176" x="96" y="128"/></g><g><path d=" M 106 138 L 1282 138 L 1282 168 L 106 168 L 106 138 Z Z" fill="none" paint-order="fill stroke markers" stroke="#000000" stroke-dasharray="" stroke-miterlimit="10"/></g><g><path d=" M 106 138 L 106 161 L 131.1708984375 161 L 142.6708984375 149.5 L 142.6708984375 138 L 106 138 L 106 138" fill="none" paint-order="fill stroke markers" stroke="#000000" stroke-dasharray="" stroke-miterlimit="10"/></g><g><g><path fill="none" stroke="none"/><text dominant-baseline="central" fill="#000000" font-family="Arial" font-size="13px" font-style="normal" font-weight="normal" stroke="none" text-anchor="middle" text-decoration="undefined" transform="matrix(1 0 0 1 10 10)" x="702.33544921875" y="139.5">Đăng nhập vào hệ thống</text></g></g><g><g><path fill="none" stroke="none"/><text dominant-baseline="central" fill="#000000" font-family="Arial" font-size="13px" font-style="normal" font-weight="bold" stroke="none" text-anchor="middle" text-decoration="undefined" transform="matrix(1 0 0 1 10 10)" x="108.58544921875" y="139.5">ref</text></g></g><g><path d=" M 231 218 L 643 218" fill="none" paint-order="fill stroke markers" stroke="#000000" stroke-dasharray="" stroke-miterlimit="10"/></g><g><path d=" M 632.8373251423759 222.209517756016 L 643 218 L 632.8373251423758 213.790482243984" fill="#000000" paint-order="stroke fill markers" stroke="none"/></g><g><path d=" M 632.8373251423759 222.209517756016 L 643 218 L 632.8373251423758 213.790482243984 L 632.8373251423759 222.209517756016" fill="none" paint-order="fill stroke markers" stroke="#000000" stroke-dasharray="" stroke-miterlimit="10"/></g><g><rect fill="#ffffff" height="13" stroke="none" transform="matrix(1 0 0 1 10 10)" width="226.09716796875" x="314" y="192"/></g><g><g><path fill="none" stroke="none"/><text dominant-baseline="central" fill="#000000" font-family="Arial" font-size="13px" font-style="normal" font-weight="normal" stroke="none" text-anchor="middle" text-decoration="undefined" transform="matrix(1 0 0 1 10 10)" x="427.048583984375" y="198.5">1 : Chọn danh mục quản lý người dùng</text></g></g><g><rect fill="#ffffff" height="72" stroke="none" transform="matrix(1 0 0 1 10 10)" width="14" x="633" y="208"/></g><g><path d=" M 643 218 L 657 218 L 657 290 L 643 290 L 643 218 Z Z" fill="none" paint-order="fill stroke markers" stroke="#000000" stroke-dasharray="" stroke-miterlimit="10"/></g><g><path d=" M 657 234 L 687 234 L 687 254 L 664 254" fill="none" paint-order="fill stroke markers" stroke="#000000" stroke-dasharray="" stroke-miterlimit="10"/></g><g><path d=" M 674.1626748576241 249.790482243984 L 664 254 L 674.1626748576241 258.209517756016" fill="#000000" paint-order="stroke fill markers" stroke="none"/></g><g><path d=" M 674.1626748576241 249.790482243984 L 664 254 L 674.1626748576241 258.209517756016 L 674.1626748576241 249.790482243984" fill="none" paint-order="fill stroke markers" stroke="#000000" stroke-dasharray="" stroke-miterlimit="10"/></g><g><rect fill="#ffffff" height="13" stroke="none" transform="matrix(1 0 0 1 10 10)" width="189.24267578125" x="692" y="224"/></g><g><g><path fill="none" stroke="none"/><text dominant-baseline="central" fill="#000000" font-family="Arial" font-size="13px" font-style="normal" font-weight="normal" stroke="none" text-anchor="middle" text-decoration="undefined" transform="matrix(1 0 0 1 10 10)" x="786.621337890625" y="230.5">2 : Hiển thị giao diện người dùng</text></g></g><g><rect fill="#ffffff" height="28" stroke="none" transform="matrix(1 0 0 1 10 10)" width="14" x="640" y="244"/></g><g><path d=" M 650 254 L 664 254 L 664 282 L 650 282 L 650 254 Z Z" fill="none" paint-order="fill stroke markers" stroke="#000000" stroke-dasharray="" stroke-miterlimit="10"/></g><g><path d=" M 231 315 L 643 315" fill="none" paint-order="fill stroke markers" stroke="#000000" stroke-dasharray="" stroke-miterlimit="10"/></g><g><path d=" M 632.8373251423759 319.209517756016 L 643 315 L 632.8373251423758 310.790482243984" fill="#000000" paint-order="stroke fill markers" stroke="none"/></g><g><path d=" M 632.8373251423759 319.209517756016 L 643 315 L 632.8373251423758 310.790482243984 L 632.8373251423759 319.209517756016" fill="none" paint-order="fill stroke markers" stroke="#000000" stroke-dasharray="" stroke-miterlimit="10"/></g><g><rect fill="#ffffff" height="13" stroke="none" transform="matrix(1 0 0 1 10 10)" width="262.99609375" x="296" y="289"/></g><g><g><path fill="none" stroke="none"/><text dominant-baseline="central" fill="#000000" font-family="Arial" font-size="13px" font-style="normal" font-weight="normal" stroke="none" text-anchor="middle" text-decoration="undefined" transform="matrix(1 0 0 1 10 10)" x="427.498046875" y="295.5">3 : Chọn chức năng tạo tài khoản người dùng</text></g></g><g><rect fill="#ffffff" height="71" stroke="none" transform="matrix(1 0 0 1 10 10)" width="14" x="633" y="305"/></g><g><path d=" M 643 315 L 657 315 L 657 386 L 643 386 L 643 315 Z Z" fill="none" paint-order="fill stroke markers" stroke="#000000" stroke-dasharray="" stroke-miterlimit="10"/></g><g><path d=" M 657 330 L 687 330 L 687 350 L 664 350" fill="none" paint-order="fill stroke markers" stroke="#000000" stroke-dasharray="" stroke-miterlimit="10"/></g><g><path d=" M 674.1626748576241 345.790482243984 L 664 350 L 674.1626748576241 354.209517756016" fill="#000000" paint-order="stroke fill markers" stroke="none"/></g><g><path d=" M 674.1626748576241 345.790482243984 L 664 350 L 674.1626748576241 354.209517756016 L 674.1626748576241 345.790482243984" fill="none" paint-order="fill stroke markers" stroke="#000000" stroke-dasharray="" stroke-miterlimit="10"/></g><g><rect fill="#ffffff" height="13" stroke="none" transform="matrix(1 0 0 1 10 10)" width="262.99609375" x="684" y="323"/></g><g><g><path fill="none" stroke="none"/><text dominant-baseline="central" fill="#000000" font-family="Arial" font-size="13px" font-style="normal" font-weight="normal" stroke="none" text-anchor="middle" text-decoration="undefined" transform="matrix(1 0 0 1 10 10)" x="815.498046875" y="329.5">4 : Chọn chức năng tạo tài khoản người dùng</text></g></g><g><rect fill="#ffffff" height="28" stroke="none" transform="matrix(1 0 0 1 10 10)" width="14" x="640" y="340"/></g><g><path d=" M 650 350 L 664 350 L 664 378 L 650 378 L 650 350 Z Z" fill="none" paint-order="fill stroke markers" stroke="#000000" stroke-dasharray="" stroke-miterlimit="10"/></g><g><path d=" M 231 562 L 643 562" fill="none" paint-order="fill stroke markers" stroke="#000000" stroke-dasharray="" stroke-miterlimit="10"/></g><g><path d=" M 632.8373251423759 566.209517756016 L 643 562 L 632.8373251423758 557.790482243984" fill="#000000" paint-order="stroke fill markers" stroke="none"/></g><g><path d=" M 632.8373251423759 566.209517756016 L 643 562 L 632.8373251423758 557.790482243984 L 632.8373251423759 566.209517756016" fill="none" paint-order="fill stroke markers" stroke="#000000" stroke-dasharray="" stroke-miterlimit="10"/></g><g><rect fill="#ffffff" height="13" stroke="none" transform="matrix(1 0 0 1 10 10)" width="354.1357421875" x="250" y="536"/></g><g><g><path fill="none" stroke="none"/><text dominant-baseline="central" fill="#000000" font-family="Arial" font-size="13px" font-style="normal" font-weight="normal" stroke="none" text-anchor="middle" text-decoration="undefined" transform="matrix(1 0 0 1 10 10)" x="427.06787109375" y="542.5">5 : Chọn vai trò và nhập thông tin tài khoản [thongtintaikhoan]</text></g></g><g><rect fill="#ffffff" height="28" stroke="none" transform="matrix(1 0 0 1 10 10)" width="14" x="633" y="552"/></g><g><path d=" M 643 562 L 657 562 L 657 590 L 643 590 L 643 562 Z Z" fill="none" paint-order="fill stroke markers" stroke="#000000" stroke-dasharray="" stroke-miterlimit="10"/></g><g><path d=" M 231 690 L 643 690" fill="none" paint-order="fill stroke markers" stroke="#000000" stroke-dasharray="" stroke-miterlimit="10"/></g><g><path d=" M 632.8373251423759 694.209517756016 L 643 690 L 632.8373251423758 685.790482243984" fill="#000000" paint-order="stroke fill markers" stroke="none"/></g><g><path d=" M 632.8373251423759 694.209517756016 L 643 690 L 632.8373251423758 685.790482243984 L 632.8373251423759 694.209517756016" fill="none" paint-order="fill stroke markers" stroke="#000000" stroke-dasharray="" stroke-miterlimit="10"/></g><g><rect fill="#ffffff" height="13" stroke="none" transform="matrix(1 0 0 1 10 10)" width="127.92431640625" x="364" y="664"/></g><g><g><path fill="none" stroke="none"/><text dominant-baseline="central" fill="#000000" font-family="Arial" font-size="13px" font-style="normal" font-weight="normal" stroke="none" text-anchor="middle" text-decoration="undefined" transform="matrix(1 0 0 1 10 10)" x="427.962158203125" y="670.5">6 : Nhấn vào nút thoát</text></g></g><g><rect fill="#ffffff" height="80" stroke="none" transform="matrix(1 0 0 1 10 10)" width="14" x="633" y="680"/></g><g><path d=" M 643 690 L 657 690 L 657 770 L 643 770 L 643 690 Z Z" fill="none" paint-order="fill stroke markers" stroke="#000000" stroke-dasharray="" stroke-miterlimit="10"/></g><g><path d=" M 657 714 L 687 714 L 687 734 L 664 734" fill="none" paint-order="fill stroke markers" stroke="#000000" stroke-dasharray="" stroke-miterlimit="10"/></g><g><path d=" M 674.1626748576241 729.790482243984 L 664 734 L 674.1626748576241 738.209517756016" fill="#000000" paint-order="stroke fill markers" stroke="none"/></g><g><path d=" M 674.1626748576241 729.790482243984 L 664 734 L 674.1626748576241 738.209517756016 L 674.1626748576241 729.790482243984" fill="none" paint-order="fill stroke markers" stroke="#000000" stroke-dasharray="" stroke-miterlimit="10"/></g><g><rect fill="#ffffff" height="13" stroke="none" transform="matrix(1 0 0 1 10 10)" width="228.3505859375" x="686" y="707"/></g><g><g><path fill="none" stroke="none"/><text dominant-baseline="central" fill="#000000" font-family="Arial" font-size="13px" font-style="normal" font-weight="normal" stroke="none" text-anchor="middle" text-decoration="undefined" transform="matrix(1 0 0 1 10 10)" x="800.17529296875" y="713.5">7 : Trở về giao diện quản lý người dùng</text></g></g><g><rect fill="#ffffff" height="28" stroke="none" transform="matrix(1 0 0 1 10 10)" width="14" x="640" y="724"/></g><g><path d=" M 650 734 L 664 734 L 664 762 L 650 762 L 650 734 Z Z" fill="none" paint-order="fill stroke markers" stroke="#000000" stroke-dasharray="" stroke-miterlimit="10"/></g><g><path d=" M 231 882 L 643 882" fill="none" paint-order="fill stroke markers" stroke="#000000" stroke-dasharray="" stroke-miterlimit="10"/></g><g><path d=" M 632.8373251423759 886.209517756016 L 643 882 L 632.8373251423758 877.790482243984" fill="#000000" paint-order="stroke fill markers" stroke="none"/></g><g><path d=" M 632.8373251423759 886.209517756016 L 643 882 L 632.8373251423758 877.790482243984 L 632.8373251423759 886.209517756016" fill="none" paint-order="fill stroke markers" stroke="#000000" stroke-dasharray="" stroke-miterlimit="10"/></g><g><rect fill="#ffffff" height="13" stroke="none" transform="matrix(1 0 0 1 10 10)" width="153.9560546875" x="351" y="856"/></g><g><g><path fill="none" stroke="none"/><text dominant-baseline="central" fill="#000000" font-family="Arial" font-size="13px" font-style="normal" font-weight="normal" stroke="none" text-anchor="middle" text-decoration="undefined" transform="matrix(1 0 0 1 10 10)" x="427.97802734375" y="862.5">8 : nhấn nút tạo tài khoản</text></g></g><g><rect fill="#ffffff" height="384" stroke="none" transform="matrix(1 0 0 1 10 10)" width="14" x="633" y="872"/></g><g><path d=" M 643 882 L 657 882 L 657 1266 L 643 1266 L 643 882 Z Z" fill="none" paint-order="fill stroke markers" stroke="#000000" stroke-dasharray="" stroke-miterlimit="10"/></g><g><path d=" M 657 898 L 1063 898" fill="none" paint-order="fill stroke markers" stroke="#000000" stroke-dasharray="" stroke-miterlimit="10"/></g><g><path d=" M 1052.837325142376 902.209517756016 L 1063 898 L 1052.837325142376 893.790482243984" fill="#000000" paint-order="stroke fill markers" stroke="none"/></g><g><path d=" M 1052.837325142376 902.209517756016 L 1063 898 L 1052.837325142376 893.790482243984 L 1052.837325142376 902.209517756016" fill="none" paint-order="fill stroke markers" stroke="#000000" stroke-dasharray="" stroke-miterlimit="10"/></g><g><rect fill="#ffffff" height="13" stroke="none" transform="matrix(1 0 0 1 10 10)" width="292.75390625" x="704" y="872"/></g><g><g><path fill="none" stroke="none"/><text dominant-baseline="central" fill="#000000" font-family="Arial" font-size="13px" font-style="normal" font-weight="normal" stroke="none" text-anchor="middle" text-decoration="undefined" transform="matrix(1 0 0 1 10 10)" x="850.376953125" y="878.5">9 : kiemTra = kiemTraThongTin(thongtintaikhoan)</text></g></g><g><rect fill="#ffffff" height="40" stroke="none" transform="matrix(1 0 0 1 10 10)" width="14" x="1053" y="888"/></g><g><path d=" M 1063 898 L 1077 898 L 1077 938 L 1063 938 L 1063 898 Z Z" fill="none" paint-order="fill stroke markers" stroke="#000000" stroke-dasharray="" stroke-miterlimit="10"/></g><g><path d=" M 1063 922 L 657 922" fill="none" paint-order="fill stroke markers" stroke="#000000" stroke-dasharray="3" stroke-miterlimit="10"/></g><g><path d=" M 667.1626748576241 917.790482243984 L 657 922 L 667.1626748576241 926.209517756016" fill="none" paint-order="fill stroke markers" stroke="#000000" stroke-dasharray="" stroke-miterlimit="10"/></g><g><rect fill="#ffffff" height="13" stroke="none" transform="matrix(1 0 0 1 10 10)" width="157.98681640625" x="771" y="916"/></g><g><g><path fill="none" stroke="none"/><text dominant-baseline="central" fill="#000000" font-family="Arial" font-size="13px" font-style="normal" font-weight="normal" stroke="none" text-anchor="middle" text-decoration="undefined" transform="matrix(1 0 0 1 10 10)" x="849.993408203125" y="922.5">10 : Trả về kết qua kiemTra</text></g></g><g><path d=" M 643 1058 L 231 1058" fill="none" paint-order="fill stroke markers" stroke="#000000" stroke-dasharray="3" stroke-miterlimit="10"/></g><g><path d=" M 241.16267485762415 1053.7904822439841 L 231 1058 L 241.16267485762415 1062.2095177560159" fill="none" paint-order="fill stroke markers" stroke="#000000" stroke-dasharray="" stroke-miterlimit="10"/></g><g><rect fill="#ffffff" height="13" stroke="none" transform="matrix(1 0 0 1 10 10)" width="387.16259765625" x="233" y="1052"/></g><g><g><path fill="none" stroke="none"/><text dominant-baseline="central" fill="#000000" font-family="Arial" font-size="13px" font-style="normal" font-weight="normal" stroke="none" text-anchor="middle" text-decoration="undefined" transform="matrix(1 0 0 1 10 10)" x="426.581298828125" y="1058.5">11 : Thông báo tạo tài khoản không thành công và yêu cầu nhập lại</text></g></g><g><path d=" M 657 1130 L 1063 1130" fill="none" paint-order="fill stroke markers" stroke="#000000" stroke-dasharray="" stroke-miterlimit="10"/></g><g><path d=" M 1052.837325142376 1134.2095177560159 L 1063 1130 L 1052.837325142376 1125.7904822439841" fill="#000000" paint-order="stroke fill markers" stroke="none"/></g><g><path d=" M 1052.837325142376 1134.2095177560159 L 1063 1130 L 1052.837325142376 1125.7904822439841 L 1052.837325142376 1134.2095177560159" fill="none" paint-order="fill stroke markers" stroke="#000000" stroke-dasharray="" stroke-miterlimit="10"/></g><g><rect fill="#ffffff" height="13" stroke="none" transform="matrix(1 0 0 1 10 10)" width="210.5517578125" x="744" y="1103"/></g><g><g><path fill="none" stroke="none"/><text dominant-baseline="central" fill="#000000" font-family="Arial" font-size="13px" font-style="normal" font-weight="normal" stroke="none" text-anchor="middle" text-decoration="undefined" transform="matrix(1 0 0 1 10 10)" x="849.27587890625" y="1109.5">12 : taoTaiKhoan(thongtintaikhoan)</text></g></g><g><rect fill="#ffffff" height="28" stroke="none" transform="matrix(1 0 0 1 10 10)" width="14" x="1053" y="1120"/></g><g><path d=" M 1063 1130 L 1077 1130 L 1077 1158 L 1063 1158 L 1063 1130 Z Z" fill="none" paint-order="fill stroke markers" stroke="#000000" stroke-dasharray="" stroke-miterlimit="10"/></g><g><path d=" M 1063 1154 L 657 1154" fill="none" paint-order="fill stroke markers" stroke="#000000" stroke-dasharray="3" stroke-miterlimit="10"/></g><g><path d=" M 667.1626748576241 1149.7904822439841 L 657 1154 L 667.1626748576241 1158.2095177560159" fill="none" paint-order="fill stroke markers" stroke="#000000" stroke-dasharray="" stroke-miterlimit="10"/></g><g><rect fill="#ffffff" height="13" stroke="none" transform="matrix(1 0 0 1 10 10)" width="210.5517578125" x="744" y="1148"/></g><g><g><path fill="none" stroke="none"/><text dominant-baseline="central" fill="#000000" font-family="Arial" font-size="13px" font-style="normal" font-weight="normal" stroke="none" text-anchor="middle" text-decoration="undefined" transform="matrix(1 0 0 1 10 10)" x="849.27587890625" y="1154.5">13 : Tạo tài khoản thành công</text></g></g><g><path d=" M 643 1186 L 231 1186" fill="none" paint-order="fill stroke markers" stroke="#000000" stroke-dasharray="3" stroke-miterlimit="10"/></g><g><path d=" M 241.16267485762415 1181.7904822439841 L 231 1186 L 241.16267485762415 1190.2095177560159" fill="none" paint-order="fill stroke markers" stroke="#000000" stroke-dasharray="" stroke-miterlimit="10"/></g><g><rect fill="#ffffff" height="13" stroke="none" transform="matrix(1 0 0 1 10 10)" width="233.46044921875" x="310" y="1180"/></g><g><g><path fill="none" stroke="none"/><text dominant-baseline="central" fill="#000000" font-family="Arial" font-size="13px" font-style="normal" font-weight="normal" stroke="none" text-anchor="middle" text-decoration="undefined" transform="matrix(1 0 0 1 10 10)" x="426.730224609375" y="1186.5">14 : Thông báo tạo tài khoản thành công</text></g></g><g><path d=" M 657 1202 L 687 1202 L 687 1222 L 664 1222" fill="none" paint-order="fill stroke markers" stroke="#000000" stroke-dasharray="" stroke-miterlimit="10"/></g><g><path d=" M 674.1626748576241 1217.7904822439841 L 664 1222 L 674.1626748576241 1226.2095177560159" fill="#000000" paint-order="stroke fill markers" stroke="none"/></g><g><path d=" M 674.1626748576241 1217.7904822439841 L 664 1222 L 674.1626748576241 1226.2095177560159 L 674.1626748576241 1217.7904822439841" fill="none" paint-order="fill stroke markers" stroke="#000000" stroke-dasharray="" stroke-miterlimit="10"/></g><g><rect fill="#ffffff" height="13" stroke="none" transform="matrix(1 0 0 1 10 10)" width="260.076171875" x="688" y="1195"/></g><g><g><path fill="none" stroke="none"/><text dominant-baseline="central" fill="#000000" font-family="Arial" font-size="13px" font-style="normal" font-weight="normal" stroke="none" text-anchor="middle" text-decoration="undefined" transform="matrix(1 0 0 1 10 10)" x="818.0380859375" y="1201.5">15 : Chuyển về giao diện quản lý người dùng</text></g></g><g><rect fill="#ffffff" height="28" stroke="none" transform="matrix(1 0 0 1 10 10)" width="14" x="640" y="1212"/></g><g><path d=" M 650 1222 L 664 1222 L 664 1250 L 650 1250 L 650 1222 Z Z" fill="none" paint-order="fill stroke markers" stroke="#000000" stroke-dasharray="" stroke-miterlimit="10"/></g><g><path d=" M 106 426 L 1282 426 L 1282 1346 L 106 1346 L 106 426" fill="none" paint-order="fill stroke markers" stroke="#000000" stroke-dasharray="" stroke-miterlimit="10"/></g><g><path d=" M 106 426 L 106 449 L 168.97900390625 449 L 180.47900390625 437.5 L 180.47900390625 426 L 106 426" fill="#ffffff" paint-order="stroke fill markers" stroke="none"/></g><g><path d=" M 106 426 L 106 449 L 168.97900390625 449 L 180.47900390625 437.5 L 180.47900390625 426 L 106 426 L 106 426" fill="none" paint-order="fill stroke markers" stroke="#000000" stroke-dasharray="" stroke-miterlimit="10"/></g><g><g><path fill="none" stroke="none"/><text dominant-baseline="central" fill="#000000" font-family="Arial" font-size="13px" font-style="normal" font-weight="normal" stroke="none" text-anchor="middle" text-decoration="undefined" transform="matrix(1 0 0 1 10 10)" x="142.778564453125" y="427.5">true</text></g></g><g><g><path fill="none" stroke="none"/><text dominant-baseline="central" fill="#000000" font-family="Arial" font-size="13px" font-style="normal" font-weight="bold" stroke="none" text-anchor="middle" text-decoration="undefined" transform="matrix(1 0 0 1 10 10)" x="113.2890625" y="427.5">loop</text></g></g><g><path d=" M 162 602 L 1258 602 L 1258 850 L 162 850 L 162 602" fill="none" paint-order="fill stroke markers" stroke="#000000" stroke-dasharray="" stroke-miterlimit="10"/></g><g><path d=" M 162 602 L 162 625 L 196.07177734375 625 L 207.57177734375 613.5 L 207.57177734375 602 L 162 602" fill="#ffffff" paint-order="stroke fill markers" stroke="none"/></g><g><path d=" M 162 602 L 162 625 L 196.07177734375 625 L 207.57177734375 613.5 L 207.57177734375 602 L 162 602 L 162 602" fill="none" paint-order="fill stroke markers" stroke="#000000" stroke-dasharray="" stroke-miterlimit="10"/></g><g><g><path fill="none" stroke="none"/><text dominant-baseline="central" fill="#000000" font-family="Arial" font-size="13px" font-style="normal" font-weight="bold" stroke="none" text-anchor="middle" text-decoration="undefined" transform="matrix(1 0 0 1 10 10)" x="166.035888671875" y="603.5">opt</text></g></g><g><path d=" M 202 650 L 1218 650 L 1218 818 L 202 818 L 202 650" fill="none" paint-order="fill stroke markers" stroke="#000000" stroke-dasharray="" stroke-miterlimit="10"/></g><g><path d=" M 202 650 L 202 673 L 250.51904296875 673 L 262.01904296875 661.5 L 262.01904296875 650 L 202 650" fill="#ffffff" paint-order="stroke fill markers" stroke="none"/></g><g><path d=" M 202 650 L 202 673 L 250.51904296875 673 L 262.01904296875 661.5 L 262.01904296875 650 L 202 650 L 202 650" fill="none" paint-order="fill stroke markers" stroke="#000000" stroke-dasharray="" stroke-miterlimit="10"/></g><g><g><path fill="none" stroke="none"/><text dominant-baseline="central" fill="#000000" font-family="Arial" font-size="13px" font-style="normal" font-weight="bold" stroke="none" text-anchor="middle" text-decoration="undefined" transform="matrix(1 0 0 1 10 10)" x="213.259521484375" y="651.5">break</text></g></g><g><path d=" M 170 1018 L 1266 1018 L 1266 1282 L 170 1282 L 170 1018" fill="none" paint-order="fill stroke markers" stroke="#000000" stroke-dasharray="" stroke-miterlimit="10"/></g><g><path d=" M 170 1018 L 170 1041 L 199.72998046875 1041 L 211.22998046875 1029.5 L 211.22998046875 1018 L 170 1018" fill="#ffffff" paint-order="stroke fill markers" stroke="none"/></g><g><path d=" M 170 1018 L 170 1041 L 199.72998046875 1041 L 211.22998046875 1029.5 L 211.22998046875 1018 L 170 1018 L 170 1018" fill="none" paint-order="fill stroke markers" stroke="#000000" stroke-dasharray="" stroke-miterlimit="10"/></g><g><g><path fill="none" stroke="none"/><text dominant-baseline="central" fill="#000000" font-family="Arial" font-size="13px" font-style="normal" font-weight="bold" stroke="none" text-anchor="middle" text-decoration="undefined" transform="matrix(1 0 0 1 10 10)" x="171.864990234375" y="1019.5">alt</text></g></g><g><path d=" M 170 1106 L 1265 1106" fill="none" paint-order="fill stroke markers" stroke="#000000" stroke-dasharray="10,3" stroke-miterlimit="10"/></g></g></svg>