<?xml version="1.0" encoding="utf-8"?>
<svg height="1420" version="1.1" width="1252" xmlns="http://www.w3.org/2000/svg" xmlns:xlink="http://www.w3.org/1999/xlink"><defs/><g><g><path d=" M 193 107 C 193 101.477152 197.477152 97 203 97 C 208.522848 97 213 101.477152 213 107 C 213 112.52284800000001 208.522848 117 203 117 C 197.477152 117 193 112.52284800000001 193 107 Z" fill="#C0C0C0" fill-opacity="0.2" paint-order="stroke fill markers" stroke="none"/></g><g><path d=" M 186 100 C 186 94.477152 190.477152 90 196 90 C 201.522848 90 206 94.477152 206 100 C 206 105.522848 201.522848 110 196 110 C 190.477152 110 186 105.522848 186 100 Z" fill="#000000" paint-order="stroke fill markers" stroke="none"/></g><g><path d=" M 107 185 L 321.47216796875 185 Q 331.47216796875 185 331.47216796875 195 L 331.47216796875 216 Q 331.47216796875 226 321.47216796875 226 L 107 226 Q 97 226 97 216 L 97 195 Q 97 185 107 185 Z" fill="#C0C0C0" fill-opacity="0.2" paint-order="stroke fill markers" stroke="none"/></g><g><path d=" M 100 178 L 314.47216796875 178 Q 324.47216796875 178 324.47216796875 188 L 324.47216796875 209 Q 324.47216796875 219 314.47216796875 219 L 100 219 Q 90 219 90 209 L 90 188 Q 90 178 100 178 Z" fill="#ffffff" paint-order="stroke fill markers" stroke="none"/></g><g><path d=" M 100 178 L 314.47216796875 178 Q 324.47216796875 178 324.47216796875 188 L 324.47216796875 209 Q 324.47216796875 219 314.47216796875 219 L 100 219 Q 90 219 90 209 L 90 188 Q 90 178 100 178 Z" fill="none" paint-order="fill stroke markers" stroke="#000000" stroke-dasharray="" stroke-miterlimit="10"/></g><g><g><path fill="none" stroke="none"/><text dominant-baseline="central" fill="#000000" font-family="Arial" font-size="13px" font-style="normal" font-weight="bold" stroke="none" text-anchor="middle" text-decoration="undefined" transform="matrix(1 0 0 1 -22 -22)" x="229.736083984375" y="213.5">Chọn danh mục quản lý người dùng</text></g></g><g><path d=" M 483 185 L 711.2021484375 185 Q 721.2021484375 185 721.2021484375 195 L 721.2021484375 216 Q 721.2021484375 226 711.2021484375 226 L 483 226 Q 473 226 473 216 L 473 195 Q 473 185 483 185 Z" fill="#C0C0C0" fill-opacity="0.2" paint-order="stroke fill markers" stroke="none"/></g><g><path d=" M 476 178 L 704.2021484375 178 Q 714.2021484375 178 714.2021484375 188 L 714.2021484375 209 Q 714.2021484375 219 704.2021484375 219 L 476 219 Q 466 219 466 209 L 466 188 Q 466 178 476 178 Z" fill="#ffffff" paint-order="stroke fill markers" stroke="none"/></g><g><path d=" M 476 178 L 704.2021484375 178 Q 714.2021484375 178 714.2021484375 188 L 714.2021484375 209 Q 714.2021484375 219 704.2021484375 219 L 476 219 Q 466 219 466 209 L 466 188 Q 466 178 476 178 Z" fill="none" paint-order="fill stroke markers" stroke="#000000" stroke-dasharray="" stroke-miterlimit="10"/></g><g><g><path fill="none" stroke="none"/><text dominant-baseline="central" fill="#000000" font-family="Arial" font-size="13px" font-style="normal" font-weight="bold" stroke="none" text-anchor="middle" text-decoration="undefined" transform="matrix(1 0 0 1 -22 -22)" x="612.60107421875" y="213.5">Hiển thị giao diện quản lý người dùng</text></g></g><g><path d=" M 107 321 L 302.69580078125 321 Q 312.69580078125 321 312.69580078125 331 L 312.69580078125 352 Q 312.69580078125 362 302.69580078125 362 L 107 362 Q 97 362 97 352 L 97 331 Q 97 321 107 321 Z" fill="#C0C0C0" fill-opacity="0.2" paint-order="stroke fill markers" stroke="none"/></g><g><path d=" M 100 314 L 295.69580078125 314 Q 305.69580078125 314 305.69580078125 324 L 305.69580078125 345 Q 305.69580078125 355 295.69580078125 355 L 100 355 Q 90 355 90 345 L 90 324 Q 90 314 100 314 Z" fill="#ffffff" paint-order="stroke fill markers" stroke="none"/></g><g><path d=" M 100 314 L 295.69580078125 314 Q 305.69580078125 314 305.69580078125 324 L 305.69580078125 345 Q 305.69580078125 355 295.69580078125 355 L 100 355 Q 90 355 90 345 L 90 324 Q 90 314 100 314 Z" fill="none" paint-order="fill stroke markers" stroke="#000000" stroke-dasharray="" stroke-miterlimit="10"/></g><g><g><path fill="none" stroke="none"/><text dominant-baseline="central" fill="#000000" font-family="Arial" font-size="13px" font-style="normal" font-weight="bold" stroke="none" text-anchor="middle" text-decoration="undefined" transform="matrix(1 0 0 1 -22 -22)" x="220.347900390625" y="349.5">Chọn thêm tài khoản người dùng</text></g></g><g><path d=" M 483 321 L 742.26123046875 321 Q 752.26123046875 321 752.26123046875 331 L 752.26123046875 352 Q 752.26123046875 362 742.26123046875 362 L 483 362 Q 473 362 473 352 L 473 331 Q 473 321 483 321 Z" fill="#C0C0C0" fill-opacity="0.2" paint-order="stroke fill markers" stroke="none"/></g><g><path d=" M 476 314 L 735.26123046875 314 Q 745.26123046875 314 745.26123046875 324 L 745.26123046875 345 Q 745.26123046875 355 735.26123046875 355 L 476 355 Q 466 355 466 345 L 466 324 Q 466 314 476 314 Z" fill="#ffffff" paint-order="stroke fill markers" stroke="none"/></g><g><path d=" M 476 314 L 735.26123046875 314 Q 745.26123046875 314 745.26123046875 324 L 745.26123046875 345 Q 745.26123046875 355 735.26123046875 355 L 476 355 Q 466 355 466 345 L 466 324 Q 466 314 476 314 Z" fill="none" paint-order="fill stroke markers" stroke="#000000" stroke-dasharray="" stroke-miterlimit="10"/></g><g><g><path fill="none" stroke="none"/><text dominant-baseline="central" fill="#000000" font-family="Arial" font-size="13px" font-style="normal" font-weight="bold" stroke="none" text-anchor="middle" text-decoration="undefined" transform="matrix(1 0 0 1 -22 -22)" x="628.130615234375" y="349.5">Hiển thị giao diện tạo tài khoản người dùng</text></g></g><g><path d=" M 49 481 L 384.583984375 481 L 384.583984375 522 L 49 522 L 59.25 501.5" fill="#C0C0C0" fill-opacity="0.2" paint-order="stroke fill markers" stroke="none"/></g><g><path d=" M 42 474 L 377.583984375 474 L 377.583984375 515 L 42 515 L 52.25 494.5" fill="#ffffff" paint-order="stroke fill markers" stroke="none"/></g><g><path d=" M 42 474 L 377.583984375 474 L 377.583984375 515 L 42 515 L 52.25 494.5 L 42 474" fill="none" paint-order="fill stroke markers" stroke="#000000" stroke-dasharray="" stroke-miterlimit="10"/></g><g><g><path fill="none" stroke="none"/><text dominant-baseline="central" fill="#000000" font-family="Arial" font-size="13px" font-style="normal" font-weight="bold" stroke="none" text-anchor="middle" text-decoration="undefined" transform="matrix(1 0 0 1 -22 -22)" x="232.2919921875" y="509.5">Chọn vai trò và nhập thông tin tài khoản người dùng</text></g></g><g><path d=" M 325 198 L 465 198" fill="none" paint-order="fill stroke markers" stroke="#000000" stroke-dasharray="" stroke-miterlimit="10"/></g><g><path d=" M 454.83732514237585 202.209517756016 L 465 198 L 454.83732514237585 193.790482243984" fill="none" paint-order="fill stroke markers" stroke="#000000" stroke-dasharray="" stroke-miterlimit="10"/></g><g><path d=" M 526 220 L 258 313" fill="none" paint-order="fill stroke markers" stroke="#000000" stroke-dasharray="" stroke-miterlimit="10"/></g><g><path d=" M 266.2209925333596 305.69142409450063 L 258 313 L 268.9810631520177 313.64517598482735" fill="none" paint-order="fill stroke markers" stroke="#000000" stroke-dasharray="" stroke-miterlimit="10"/></g><g><path d=" M 307 334 L 465 334" fill="none" paint-order="fill stroke markers" stroke="#000000" stroke-dasharray="" stroke-miterlimit="10"/></g><g><path d=" M 454.83732514237585 338.209517756016 L 465 334 L 454.83732514237585 329.790482243984" fill="none" paint-order="fill stroke markers" stroke="#000000" stroke-dasharray="" stroke-miterlimit="10"/></g><g><path d=" M 564 355 L 564 502 L 378 502" fill="none" paint-order="fill stroke markers" stroke="#000000" stroke-dasharray="" stroke-miterlimit="10"/></g><g><path d=" M 388.16267485762415 497.790482243984 L 378 502 L 388.16267485762415 506.209517756016" fill="none" paint-order="fill stroke markers" stroke="#000000" stroke-dasharray="" stroke-miterlimit="10"/></g><g><path d=" M 155 841 L 285.11181640625 841 Q 295.11181640625 841 295.11181640625 851 L 295.11181640625 872 Q 295.11181640625 882 285.11181640625 882 L 155 882 Q 145 882 145 872 L 145 851 Q 145 841 155 841 Z" fill="#C0C0C0" fill-opacity="0.2" paint-order="stroke fill markers" stroke="none"/></g><g><path d=" M 148 834 L 278.11181640625 834 Q 288.11181640625 834 288.11181640625 844 L 288.11181640625 865 Q 288.11181640625 875 278.11181640625 875 L 148 875 Q 138 875 138 865 L 138 844 Q 138 834 148 834 Z" fill="#ffffff" paint-order="stroke fill markers" stroke="none"/></g><g><path d=" M 148 834 L 278.11181640625 834 Q 288.11181640625 834 288.11181640625 844 L 288.11181640625 865 Q 288.11181640625 875 278.11181640625 875 L 148 875 Q 138 875 138 865 L 138 844 Q 138 834 148 834 Z" fill="none" paint-order="fill stroke markers" stroke="#000000" stroke-dasharray="" stroke-miterlimit="10"/></g><g><g><path fill="none" stroke="none"/><text dominant-baseline="central" fill="#000000" font-family="Arial" font-size="13px" font-style="normal" font-weight="bold" stroke="none" text-anchor="middle" text-decoration="undefined" transform="matrix(1 0 0 1 -22 -22)" x="235.555908203125" y="869.5">Nhấn nút tạo tài khoản</text></g></g><g><path d=" M 1003 1169 L 1206.6748046875 1169 Q 1216.6748046875 1169 1216.6748046875 1179 L 1216.6748046875 1200 Q 1216.6748046875 1210 1206.6748046875 1210 L 1003 1210 Q 993 1210 993 1200 L 993 1179 Q 993 1169 1003 1169 Z" fill="#C0C0C0" fill-opacity="0.2" paint-order="stroke fill markers" stroke="none"/></g><g><path d=" M 996 1162 L 1199.6748046875 1162 Q 1209.6748046875 1162 1209.6748046875 1172 L 1209.6748046875 1193 Q 1209.6748046875 1203 1199.6748046875 1203 L 996 1203 Q 986 1203 986 1193 L 986 1172 Q 986 1162 996 1162 Z" fill="#ffffff" paint-order="stroke fill markers" stroke="none"/></g><g><path d=" M 996 1162 L 1199.6748046875 1162 Q 1209.6748046875 1162 1209.6748046875 1172 L 1209.6748046875 1193 Q 1209.6748046875 1203 1199.6748046875 1203 L 996 1203 Q 986 1203 986 1193 L 986 1172 Q 986 1162 996 1162 Z" fill="none" paint-order="fill stroke markers" stroke="#000000" stroke-dasharray="" stroke-miterlimit="10"/></g><g><g><path fill="none" stroke="none"/><text dominant-baseline="central" fill="#000000" font-family="Arial" font-size="13px" font-style="normal" font-weight="bold" stroke="none" text-anchor="middle" text-decoration="undefined" transform="matrix(1 0 0 1 -22 -22)" x="1120.33740234375" y="1197.5">Thực hiện tạo giải đấu</text></g></g><g><path d=" M 939 841 L 1195.40478515625 841 Q 1205.40478515625 841 1205.40478515625 851 L 1205.40478515625 872 Q 1205.40478515625 882 1195.40478515625 882 L 939 882 Q 929 882 929 872 L 929 851 Q 929 841 939 841 Z" fill="#C0C0C0" fill-opacity="0.2" paint-order="stroke fill markers" stroke="none"/></g><g><path d=" M 932 834 L 1188.40478515625 834 Q 1198.40478515625 834 1198.40478515625 844 L 1198.40478515625 865 Q 1198.40478515625 875 1188.40478515625 875 L 932 875 Q 922 875 922 865 L 922 844 Q 922 834 932 834 Z" fill="#ffffff" paint-order="stroke fill markers" stroke="none"/></g><g><path d=" M 932 834 L 1188.40478515625 834 Q 1198.40478515625 834 1198.40478515625 844 L 1198.40478515625 865 Q 1198.40478515625 875 1188.40478515625 875 L 932 875 Q 922 875 922 865 L 922 844 Q 922 834 932 834 Z" fill="none" paint-order="fill stroke markers" stroke="#000000" stroke-dasharray="" stroke-miterlimit="10"/></g><g><g><path fill="none" stroke="none"/><text dominant-baseline="central" fill="#000000" font-family="Arial" font-size="13px" font-style="normal" font-weight="bold" stroke="none" text-anchor="middle" text-decoration="undefined" transform="matrix(1 0 0 1 -22 -22)" x="1082.702392578125" y="869.5">Kiểm tra thông tin tài khoản</text></g></g><g><path d=" M 197 110 L 197 178" fill="none" paint-order="fill stroke markers" stroke="#000000" stroke-dasharray="" stroke-miterlimit="10"/></g><g><path d=" M 192.790482243984 167.83732514237585 L 197 178 L 201.209517756016 167.83732514237585" fill="none" paint-order="fill stroke markers" stroke="#000000" stroke-dasharray="" stroke-miterlimit="10"/></g><g><path d=" M 481 1033 L 481 1074 L 726.8359375 1074 L 737.0859375 1053.5 L 726.8359375 1033" fill="#C0C0C0" fill-opacity="0.2" paint-order="stroke fill markers" stroke="none"/></g><g><path d=" M 474 1026 L 474 1067 L 719.8359375 1067 L 730.0859375 1046.5 L 719.8359375 1026" fill="#ffffff" paint-order="stroke fill markers" stroke="none"/></g><g><path d=" M 474 1026 L 474 1067 L 719.8359375 1067 L 730.0859375 1046.5 L 719.8359375 1026 L 474 1026" fill="none" paint-order="fill stroke markers" stroke="#000000" stroke-dasharray="" stroke-miterlimit="10"/></g><g><g><path fill="none" stroke="none"/><text dominant-baseline="central" fill="#000000" font-family="Arial" font-size="13px" font-style="normal" font-weight="bold" stroke="none" text-anchor="middle" text-decoration="undefined" transform="matrix(1 0 0 1 -22 -22)" x="624.54296875" y="1061.5">Thông báo thông tin nhập không hợp lệ</text></g></g><g><path d=" M 1081 1050.5 L 1092.5 1041 L 1104 1050.5 L 1092.5 1060 L 1081 1050.5" fill="#C0C0C0" fill-opacity="0.2" paint-order="stroke fill markers" stroke="none"/></g><g><path d=" M 1074 1043.5 L 1085.5 1034 L 1097 1043.5 L 1085.5 1053 L 1074 1043.5" fill="#ffffff" paint-order="stroke fill markers" stroke="none"/></g><g><path d=" M 1074 1043.5 L 1085.5 1034 L 1097 1043.5 L 1085.5 1053 L 1074 1043.5 L 1074 1043.5" fill="none" paint-order="fill stroke markers" stroke="#000000" stroke-dasharray="" stroke-miterlimit="10"/></g><g><path d=" M 1082 875 L 1082 1034" fill="none" paint-order="fill stroke markers" stroke="#000000" stroke-dasharray="" stroke-miterlimit="10"/></g><g><path d=" M 1077.7904822439841 1023.8373251423759 L 1082 1034 L 1086.2095177560159 1023.8373251423759" fill="none" paint-order="fill stroke markers" stroke="#000000" stroke-dasharray="" stroke-miterlimit="10"/></g><g><path d=" M 474 1046 L 34 1046 L 34 498 L 42 498" fill="none" paint-order="fill stroke markers" stroke="#000000" stroke-dasharray="" stroke-miterlimit="10"/></g><g><path d=" M 31.837325142375846 502.209517756016 L 42 498 L 31.837325142375846 493.790482243984" fill="none" paint-order="fill stroke markers" stroke="#000000" stroke-dasharray="" stroke-miterlimit="10"/></g><g><path d=" M 1073 1043 L 731 1045" fill="none" paint-order="fill stroke markers" stroke="#000000" stroke-dasharray="" stroke-miterlimit="10"/></g><g><path d=" M 741.137884445697 1040.7311243909319 L 731 1045 L 741.1871177296518 1049.150015947224" fill="none" paint-order="fill stroke markers" stroke="#000000" stroke-dasharray="" stroke-miterlimit="10"/></g><g><rect fill="#ffffff" height="13" stroke="none" transform="matrix(1 0 0 1 -22 -22)" width="197.1708984375" x="879" y="1042"/></g><g><g><path fill="none" stroke="none"/><text dominant-baseline="central" fill="#000000" font-family="Arial" font-size="13px" font-style="normal" font-weight="normal" stroke="none" text-anchor="middle" text-decoration="undefined" transform="matrix(1 0 0 1 -22 -22)" x="977.58544921875" y="1048.5"> [thông tin nhập vào không hợp lệ]</text></g></g><g><path d=" M 289 854 L 921 854" fill="none" paint-order="fill stroke markers" stroke="#000000" stroke-dasharray="" stroke-miterlimit="10"/></g><g><path d=" M 910.8373251423759 858.209517756016 L 921 854 L 910.8373251423758 849.790482243984" fill="none" paint-order="fill stroke markers" stroke="#000000" stroke-dasharray="" stroke-miterlimit="10"/></g><g><path d=" M 481 1169 L 481 1210 L 716.1845703125 1210 L 726.4345703125 1189.5 L 716.1845703125 1169" fill="#C0C0C0" fill-opacity="0.2" paint-order="stroke fill markers" stroke="none"/></g><g><path d=" M 474 1162 L 474 1203 L 709.1845703125 1203 L 719.4345703125 1182.5 L 709.1845703125 1162" fill="#ffffff" paint-order="stroke fill markers" stroke="none"/></g><g><path d=" M 474 1162 L 474 1203 L 709.1845703125 1203 L 719.4345703125 1182.5 L 709.1845703125 1162 L 474 1162" fill="none" paint-order="fill stroke markers" stroke="#000000" stroke-dasharray="" stroke-miterlimit="10"/></g><g><g><path fill="none" stroke="none"/><text dominant-baseline="central" fill="#000000" font-family="Arial" font-size="13px" font-style="normal" font-weight="bold" stroke="none" text-anchor="middle" text-decoration="undefined" transform="matrix(1 0 0 1 -22 -22)" x="619.21728515625" y="1197.5">Thông báo thêm tài khoản thành công</text></g></g><g><path d=" M 985 1182 L 720 1182" fill="none" paint-order="fill stroke markers" stroke="#000000" stroke-dasharray="" stroke-miterlimit="10"/></g><g><path d=" M 730.1626748576241 1177.7904822439841 L 720 1182 L 730.1626748576241 1186.2095177560159" fill="none" paint-order="fill stroke markers" stroke="#000000" stroke-dasharray="" stroke-miterlimit="10"/></g><g><rect fill="#ffffff" height="13" stroke="none" transform="matrix(1 0 0 1 -22 -22)" width="153.22607421875" x="847" y="1183"/></g><g><g><path fill="none" stroke="none"/><text dominant-baseline="central" fill="#000000" font-family="Arial" font-size="13px" font-style="normal" font-weight="normal" stroke="none" text-anchor="middle" text-decoration="undefined" transform="matrix(1 0 0 1 -22 -22)" x="923.613037109375" y="1189.5"> [tạo tài khoản thành công]</text></g></g><g><path d=" M 593 1350 C 593 1342.8202976 598.8202976 1337 606 1337 C 613.1797024 1337 619 1342.8202976 619 1350 C 619 1357.1797024 613.1797024 1363 606 1363 C 598.8202976 1363 593 1357.1797024 593 1350 Z" fill="#C0C0C0" fill-opacity="0.2" paint-order="stroke fill markers" stroke="none"/></g><g><path d=" M 586 1343 C 586 1335.8202976 591.8202976 1330 599 1330 C 606.1797024 1330 612 1335.8202976 612 1343 C 612 1350.1797024 606.1797024 1356 599 1356 C 591.8202976 1356 586 1350.1797024 586 1343 Z" fill="none" paint-order="fill stroke markers" stroke="#000000" stroke-dasharray="" stroke-miterlimit="10"/></g><g><path d=" M 591 1343 C 591 1338.5817216 594.5817216 1335 599 1335 C 603.4182784 1335 607 1338.5817216 607 1343 C 607 1347.4182784 603.4182784 1351 599 1351 C 594.5817216 1351 591 1347.4182784 591 1343 Z" fill="#000000" paint-order="stroke fill markers" stroke="none"/></g><g><path d=" M 603 1203 L 603 1330" fill="none" paint-order="fill stroke markers" stroke="#000000" stroke-dasharray="" stroke-miterlimit="10"/></g><g><path d=" M 598.790482243984 1319.837325142376 L 603 1330 L 607.209517756016 1319.837325142376" fill="none" paint-order="fill stroke markers" stroke="#000000" stroke-dasharray="" stroke-miterlimit="10"/></g><g><rect fill="#ffffff" height="21" stroke="none" transform="matrix(1 0 0 1 -22 -22)" width="384" x="32" y="32"/></g><g><path d=" M 10 10 L 394 10 L 394 31 L 10 31 L 10 10 Z Z" fill="none" paint-order="fill stroke markers" stroke="#000000" stroke-dasharray="" stroke-miterlimit="10" stroke-width="2"/></g><g><path d=" M 10 1410 L 10 10 L 394 10 L 394 1410" fill="none" paint-order="fill stroke markers" stroke="#000000" stroke-dasharray="" stroke-miterlimit="10" stroke-width="2"/></g><g><g><path fill="none" stroke="none"/><text dominant-baseline="text-before-edge" fill="#000000" font-family="Arial" font-size="13px" font-style="normal" font-weight="normal" stroke="none" text-anchor="middle" text-decoration="undefined" transform="matrix(1 0 0 1 -22 -22)" x="224" y="36">Quản trị viên</text></g></g><g><rect fill="#ffffff" height="21" stroke="none" transform="matrix(1 0 0 1 -22 -22)" width="416" x="416" y="32"/></g><g><path d=" M 394 10 L 810 10 L 810 31 L 394 31 L 394 10 Z Z" fill="none" paint-order="fill stroke markers" stroke="#000000" stroke-dasharray="" stroke-miterlimit="10" stroke-width="2"/></g><g><path d=" M 394 1410 L 394 10 L 810 10 L 810 1410" fill="none" paint-order="fill stroke markers" stroke="#000000" stroke-dasharray="" stroke-miterlimit="10" stroke-width="2"/></g><g><g><path fill="none" stroke="none"/><text dominant-baseline="text-before-edge" fill="#000000" font-family="Arial" font-size="13px" font-style="normal" font-weight="normal" stroke="none" text-anchor="middle" text-decoration="undefined" transform="matrix(1 0 0 1 -22 -22)" x="624" y="36">Giao diện hệ thống</text></g></g><g><path d=" M 1082 1053 L 1082 1162" fill="none" paint-order="fill stroke markers" stroke="#000000" stroke-dasharray="" stroke-miterlimit="10"/></g><g><path d=" M 1077.7904822439841 1151.837325142376 L 1082 1162 L 1086.2095177560159 1151.837325142376" fill="none" paint-order="fill stroke markers" stroke="#000000" stroke-dasharray="" stroke-miterlimit="10"/></g><g><rect fill="#ffffff" height="13" stroke="none" transform="matrix(1 0 0 1 -22 -22)" width="101.03564453125" x="1064" y="1127"/></g><g><g><path fill="none" stroke="none"/><text dominant-baseline="central" fill="#000000" font-family="Arial" font-size="13px" font-style="normal" font-weight="normal" stroke="none" text-anchor="middle" text-decoration="undefined" transform="matrix(1 0 0 1 -22 -22)" x="1114.517822265625" y="1133.5"> [thông tin hợp lệ]</text></g></g><g><rect fill="#ffffff" height="21" stroke="none" transform="matrix(1 0 0 1 -22 -22)" width="432" x="832" y="32"/></g><g><path d=" M 810 10 L 1242 10 L 1242 31 L 810 31 L 810 10 Z Z" fill="none" paint-order="fill stroke markers" stroke="#000000" stroke-dasharray="" stroke-miterlimit="10" stroke-width="2"/></g><g><path d=" M 810 1410 L 810 10 L 1242 10 L 1242 1410" fill="none" paint-order="fill stroke markers" stroke="#000000" stroke-dasharray="" stroke-miterlimit="10" stroke-width="2"/></g><g><g><path fill="none" stroke="none"/><text dominant-baseline="text-before-edge" fill="#000000" font-family="Arial" font-size="13px" font-style="normal" font-weight="normal" stroke="none" text-anchor="middle" text-decoration="undefined" transform="matrix(1 0 0 1 -22 -22)" x="1048" y="36">Tài khoản </text></g></g><g><path d=" M 81 690.5 L 92.5 681 L 104 690.5 L 92.5 700 L 81 690.5" fill="#C0C0C0" fill-opacity="0.2" paint-order="stroke fill markers" stroke="none"/></g><g><path d=" M 74 683.5 L 85.5 674 L 97 683.5 L 85.5 693 L 74 683.5" fill="#ffffff" paint-order="stroke fill markers" stroke="none"/></g><g><path d=" M 74 683.5 L 85.5 674 L 97 683.5 L 85.5 693 L 74 683.5 L 74 683.5" fill="none" paint-order="fill stroke markers" stroke="#000000" stroke-dasharray="" stroke-miterlimit="10"/></g><g><path d=" M 299 665 L 380.70458984375 665 Q 390.70458984375 665 390.70458984375 675 L 390.70458984375 696 Q 390.70458984375 706 380.70458984375 706 L 299 706 Q 289 706 289 696 L 289 675 Q 289 665 299 665 Z" fill="#C0C0C0" fill-opacity="0.2" paint-order="stroke fill markers" stroke="none"/></g><g><path d=" M 292 658 L 373.70458984375 658 Q 383.70458984375 658 383.70458984375 668 L 383.70458984375 689 Q 383.70458984375 699 373.70458984375 699 L 292 699 Q 282 699 282 689 L 282 668 Q 282 658 292 658 Z" fill="#ffffff" paint-order="stroke fill markers" stroke="none"/></g><g><path d=" M 292 658 L 373.70458984375 658 Q 383.70458984375 658 383.70458984375 668 L 383.70458984375 689 Q 383.70458984375 699 373.70458984375 699 L 292 699 Q 282 699 282 689 L 282 668 Q 282 658 292 658 Z" fill="none" paint-order="fill stroke markers" stroke="#000000" stroke-dasharray="" stroke-miterlimit="10"/></g><g><g><path fill="none" stroke="none"/><text dominant-baseline="central" fill="#000000" font-family="Arial" font-size="13px" font-style="normal" font-weight="bold" stroke="none" text-anchor="middle" text-decoration="undefined" transform="matrix(1 0 0 1 -22 -22)" x="355.352294921875" y="693.5">Nhấn nút thoát</text></g></g><g><path d=" M 98 683 L 281 679" fill="none" paint-order="fill stroke markers" stroke="#000000" stroke-dasharray="" stroke-miterlimit="10"/></g><g><path d=" M 270.9317413222714 683.4305944520282 L 281 679 L 270.7477626325212 675.0135693959545" fill="none" paint-order="fill stroke markers" stroke="#000000" stroke-dasharray="" stroke-miterlimit="10"/></g><g><rect fill="#ffffff" height="13" stroke="none" transform="matrix(1 0 0 1 -22 -22)" width="154.59716796875" x="133" y="682"/></g><g><g><path fill="none" stroke="none"/><text dominant-baseline="central" fill="#000000" font-family="Arial" font-size="13px" font-style="normal" font-weight="normal" stroke="none" text-anchor="middle" text-decoration="undefined" transform="matrix(1 0 0 1 -22 -22)" x="210.298583984375" y="688.5">người dùng không tạo nữa</text></g></g><g><path d=" M 93 694 L 197 833" fill="none" paint-order="fill stroke markers" stroke="#000000" stroke-dasharray="" stroke-miterlimit="10"/></g><g><path d=" M 187.54124387349626 827.3846698637277 L 197 833 L 194.28228741931875 822.3410113834001" fill="none" paint-order="fill stroke markers" stroke="#000000" stroke-dasharray="" stroke-miterlimit="10"/></g><g><rect fill="#ffffff" height="13" stroke="none" transform="matrix(1 0 0 1 -22 -22)" width="134.31640625" x="120" y="783"/></g><g><g><path fill="none" stroke="none"/><text dominant-baseline="central" fill="#000000" font-family="Arial" font-size="13px" font-style="normal" font-weight="normal" stroke="none" text-anchor="middle" text-decoration="undefined" transform="matrix(1 0 0 1 -22 -22)" x="187.158203125" y="789.5">người dùng tiếp tục tạo</text></g></g><g><path d=" M 195 516 L 92 673" fill="none" paint-order="fill stroke markers" stroke="#000000" stroke-dasharray="" stroke-miterlimit="10"/></g><g><path d=" M 94.05495492121537 662.193651853111 L 92 673 L 101.09431461435199 666.8118305052961" fill="none" paint-order="fill stroke markers" stroke="#000000" stroke-dasharray="" stroke-miterlimit="10"/></g><g><path d=" M 384 678 L 770 678 L 770 202 L 714 202" fill="none" paint-order="fill stroke markers" stroke="#000000" stroke-dasharray="" stroke-miterlimit="10"/></g><g><path d=" M 724.1626748576241 197.790482243984 L 714 202 L 724.1626748576241 206.209517756016" fill="none" paint-order="fill stroke markers" stroke="#000000" stroke-dasharray="" stroke-miterlimit="10"/></g></g></svg>