<?xml version="1.0" encoding="utf-8"?>
<svg height="860" version="1.1" width="1396" xmlns="http://www.w3.org/2000/svg" xmlns:xlink="http://www.w3.org/1999/xlink"><defs/><g><g><rect fill="#ffffff" height="21" stroke="none" transform="matrix(1 0 0 1 -182 -406)" width="344" x="192" y="416"/></g><g><path d=" M 10 10 L 354 10 L 354 31 L 10 31 L 10 10 Z Z" fill="none" paint-order="fill stroke markers" stroke="#000000" stroke-dasharray="" stroke-miterlimit="10" stroke-width="2"/></g><g><path d=" M 10 850 L 10 10 L 354 10 L 354 850" fill="none" paint-order="fill stroke markers" stroke="#000000" stroke-dasharray="" stroke-miterlimit="10" stroke-width="2"/></g><g><g><path fill="none" stroke="none"/><text dominant-baseline="text-before-edge" fill="#000000" font-family="Arial" font-size="13px" font-style="normal" font-weight="normal" stroke="none" text-anchor="middle" text-decoration="undefined" transform="matrix(1 0 0 1 -182 -406)" x="364" y="420">Vận động viên</text></g></g><g><rect fill="#ffffff" height="21" stroke="none" transform="matrix(1 0 0 1 -182 -406)" width="344" x="536" y="416"/></g><g><path d=" M 354 10 L 698 10 L 698 31 L 354 31 L 354 10 Z Z" fill="none" paint-order="fill stroke markers" stroke="#000000" stroke-dasharray="" stroke-miterlimit="10" stroke-width="2"/></g><g><path d=" M 354 850 L 354 10 L 698 10 L 698 850" fill="none" paint-order="fill stroke markers" stroke="#000000" stroke-dasharray="" stroke-miterlimit="10" stroke-width="2"/></g><g><g><path fill="none" stroke="none"/><text dominant-baseline="text-before-edge" fill="#000000" font-family="Arial" font-size="13px" font-style="normal" font-weight="normal" stroke="none" text-anchor="middle" text-decoration="undefined" transform="matrix(1 0 0 1 -182 -406)" x="708" y="420">Giao diện</text></g></g><g><rect fill="#ffffff" height="21" stroke="none" transform="matrix(1 0 0 1 -182 -406)" width="344" x="880" y="416"/></g><g><path d=" M 698 10 L 1042 10 L 1042 31 L 698 31 L 698 10 Z Z" fill="none" paint-order="fill stroke markers" stroke="#000000" stroke-dasharray="" stroke-miterlimit="10" stroke-width="2"/></g><g><path d=" M 698 850 L 698 10 L 1042 10 L 1042 850" fill="none" paint-order="fill stroke markers" stroke="#000000" stroke-dasharray="" stroke-miterlimit="10" stroke-width="2"/></g><g><g><path fill="none" stroke="none"/><text dominant-baseline="text-before-edge" fill="#000000" font-family="Arial" font-size="13px" font-style="normal" font-weight="normal" stroke="none" text-anchor="middle" text-decoration="undefined" transform="matrix(1 0 0 1 -182 -406)" x="1052" y="420">Lớp Vận động viên</text></g></g><g><rect fill="#ffffff" height="21" stroke="none" transform="matrix(1 0 0 1 -182 -406)" width="344" x="1224" y="416"/></g><g><path d=" M 1042 10 L 1386 10 L 1386 31 L 1042 31 L 1042 10 Z Z" fill="none" paint-order="fill stroke markers" stroke="#000000" stroke-dasharray="" stroke-miterlimit="10" stroke-width="2"/></g><g><path d=" M 1042 850 L 1042 10 L 1386 10 L 1386 850" fill="none" paint-order="fill stroke markers" stroke="#000000" stroke-dasharray="" stroke-miterlimit="10" stroke-width="2"/></g><g><g><path fill="none" stroke="none"/><text dominant-baseline="text-before-edge" fill="#000000" font-family="Arial" font-size="13px" font-style="normal" font-weight="normal" stroke="none" text-anchor="middle" text-decoration="undefined" transform="matrix(1 0 0 1 -182 -406)" x="1396" y="420">Thông tin chỉnh sửa</text></g></g><g><path d=" M 54 153 L 324.287109375 153 Q 334.287109375 153 334.287109375 163 L 334.287109375 184 Q 334.287109375 194 324.287109375 194 L 54 194 Q 44 194 44 184 L 44 163 Q 44 153 54 153 Z" fill="#C0C0C0" fill-opacity="0.2" paint-order="stroke fill markers" stroke="none"/></g><g><path d=" M 47 146 L 317.287109375 146 Q 327.287109375 146 327.287109375 156 L 327.287109375 177 Q 327.287109375 187 317.287109375 187 L 47 187 Q 37 187 37 177 L 37 156 Q 37 146 47 146 Z" fill="#ffffff" paint-order="stroke fill markers" stroke="none"/></g><g><path d=" M 47 146 L 317.287109375 146 Q 327.287109375 146 327.287109375 156 L 327.287109375 177 Q 327.287109375 187 317.287109375 187 L 47 187 Q 37 187 37 177 L 37 156 Q 37 146 47 146 Z" fill="none" paint-order="fill stroke markers" stroke="#000000" stroke-dasharray="" stroke-miterlimit="10"/></g><g><g><path fill="none" stroke="none"/><text dominant-baseline="central" fill="#000000" font-family="Arial" font-size="13px" font-style="normal" font-weight="bold" stroke="none" text-anchor="middle" text-decoration="undefined" transform="matrix(1 0 0 1 -182 -406)" x="364.6435546875" y="565.5">Chọn chức năng yêu cầu chỉnh sửa thông tin</text></g></g><g><path d=" M 179 83 C 179 77.47715199999999 183.477152 73 189 73 C 194.522848 73 199 77.47715199999999 199 83 C 199 88.52284800000001 194.522848 93 189 93 C 183.477152 93 179 88.52284800000001 179 83 Z" fill="#C0C0C0" fill-opacity="0.2" paint-order="stroke fill markers" stroke="none"/></g><g><path d=" M 172 76 C 172 70.47715199999999 176.477152 66 182 66 C 187.522848 66 192 70.47715199999999 192 76 C 192 81.52284800000001 187.522848 86 182 86 C 176.477152 86 172 81.52284800000001 172 76 Z" fill="#000000" paint-order="stroke fill markers" stroke="none"/></g><g><path d=" M 92 257 L 285.47265625 257 L 285.47265625 298 L 92 298 L 102.25 277.5" fill="#C0C0C0" fill-opacity="0.2" paint-order="stroke fill markers" stroke="none"/></g><g><path d=" M 85 250 L 278.47265625 250 L 278.47265625 291 L 85 291 L 95.25 270.5" fill="#ffffff" paint-order="stroke fill markers" stroke="none"/></g><g><path d=" M 85 250 L 278.47265625 250 L 278.47265625 291 L 85 291 L 95.25 270.5 L 85 250" fill="none" paint-order="fill stroke markers" stroke="#000000" stroke-dasharray="" stroke-miterlimit="10"/></g><g><g><path fill="none" stroke="none"/><text dominant-baseline="central" fill="#000000" font-family="Arial" font-size="13px" font-style="normal" font-weight="bold" stroke="none" text-anchor="middle" text-decoration="undefined" transform="matrix(1 0 0 1 -182 -406)" x="364.236328125" y="669.5">Nhập thông tin cần chỉnh sửa</text></g></g><g><path d=" M 396 153 L 669.84814453125 153 Q 679.84814453125 153 679.84814453125 163 L 679.84814453125 184 Q 679.84814453125 194 669.84814453125 194 L 396 194 Q 386 194 386 184 L 386 163 Q 386 153 396 153 Z" fill="#C0C0C0" fill-opacity="0.2" paint-order="stroke fill markers" stroke="none"/></g><g><path d=" M 389 146 L 662.84814453125 146 Q 672.84814453125 146 672.84814453125 156 L 672.84814453125 177 Q 672.84814453125 187 662.84814453125 187 L 389 187 Q 379 187 379 177 L 379 156 Q 379 146 389 146 Z" fill="#ffffff" paint-order="stroke fill markers" stroke="none"/></g><g><path d=" M 389 146 L 662.84814453125 146 Q 672.84814453125 146 672.84814453125 156 L 672.84814453125 177 Q 672.84814453125 187 662.84814453125 187 L 389 187 Q 379 187 379 177 L 379 156 Q 379 146 389 146 Z" fill="none" paint-order="fill stroke markers" stroke="#000000" stroke-dasharray="" stroke-miterlimit="10"/></g><g><g><path fill="none" stroke="none"/><text dominant-baseline="central" fill="#000000" font-family="Arial" font-size="13px" font-style="normal" font-weight="bold" stroke="none" text-anchor="middle" text-decoration="undefined" transform="matrix(1 0 0 1 -182 -406)" x="708.424072265625" y="565.5">Hiển thị giao diện yêu cầu chỉnh sủa thông tin</text></g></g><g><path d=" M 128 341 L 250.92626953125 341 Q 260.92626953125 341 260.92626953125 351 L 260.92626953125 372 Q 260.92626953125 382 250.92626953125 382 L 128 382 Q 118 382 118 372 L 118 351 Q 118 341 128 341 Z" fill="#C0C0C0" fill-opacity="0.2" paint-order="stroke fill markers" stroke="none"/></g><g><path d=" M 121 334 L 243.92626953125 334 Q 253.92626953125 334 253.92626953125 344 L 253.92626953125 365 Q 253.92626953125 375 243.92626953125 375 L 121 375 Q 111 375 111 365 L 111 344 Q 111 334 121 334 Z" fill="#ffffff" paint-order="stroke fill markers" stroke="none"/></g><g><path d=" M 121 334 L 243.92626953125 334 Q 253.92626953125 334 253.92626953125 344 L 253.92626953125 365 Q 253.92626953125 375 243.92626953125 375 L 121 375 Q 111 375 111 365 L 111 344 Q 111 334 121 334 Z" fill="none" paint-order="fill stroke markers" stroke="#000000" stroke-dasharray="" stroke-miterlimit="10"/></g><g><g><path fill="none" stroke="none"/><text dominant-baseline="central" fill="#000000" font-family="Arial" font-size="13px" font-style="normal" font-weight="bold" stroke="none" text-anchor="middle" text-decoration="undefined" transform="matrix(1 0 0 1 -182 -406)" x="364.963134765625" y="753.5">Nhấn nút gửi yêu câu</text></g></g><g><path d=" M 805 341 L 949.40673828125 341 Q 959.40673828125 341 959.40673828125 351 L 959.40673828125 372 Q 959.40673828125 382 949.40673828125 382 L 805 382 Q 795 382 795 372 L 795 351 Q 795 341 805 341 Z" fill="#C0C0C0" fill-opacity="0.2" paint-order="stroke fill markers" stroke="none"/></g><g><path d=" M 798 334 L 942.40673828125 334 Q 952.40673828125 334 952.40673828125 344 L 952.40673828125 365 Q 952.40673828125 375 942.40673828125 375 L 798 375 Q 788 375 788 365 L 788 344 Q 788 334 798 334 Z" fill="#ffffff" paint-order="stroke fill markers" stroke="none"/></g><g><path d=" M 798 334 L 942.40673828125 334 Q 952.40673828125 334 952.40673828125 344 L 952.40673828125 365 Q 952.40673828125 375 942.40673828125 375 L 798 375 Q 788 375 788 365 L 788 344 Q 788 334 798 334 Z" fill="none" paint-order="fill stroke markers" stroke="#000000" stroke-dasharray="" stroke-miterlimit="10"/></g><g><g><path fill="none" stroke="none"/><text dominant-baseline="central" fill="#000000" font-family="Arial" font-size="13px" font-style="normal" font-weight="bold" stroke="none" text-anchor="middle" text-decoration="undefined" transform="matrix(1 0 0 1 -182 -406)" x="1052.703369140625" y="753.5">Kiểm tra thông tin hợp lệ</text></g></g><g><path d=" M 853 473.5 L 877 452 L 901 473.5 L 877 495 L 853 473.5" fill="#C0C0C0" fill-opacity="0.2" paint-order="stroke fill markers" stroke="none"/></g><g><path d=" M 846 466.5 L 870 445 L 894 466.5 L 870 488 L 846 466.5" fill="#ffffff" paint-order="stroke fill markers" stroke="none"/></g><g><path d=" M 846 466.5 L 870 445 L 894 466.5 L 870 488 L 846 466.5 L 846 466.5" fill="none" paint-order="fill stroke markers" stroke="#000000" stroke-dasharray="" stroke-miterlimit="10"/></g><g><path d=" M 422 453 L 422 494 L 633.17138671875 494 L 643.42138671875 473.5 L 633.17138671875 453" fill="#C0C0C0" fill-opacity="0.2" paint-order="stroke fill markers" stroke="none"/></g><g><path d=" M 415 446 L 415 487 L 626.17138671875 487 L 636.42138671875 466.5 L 626.17138671875 446" fill="#ffffff" paint-order="stroke fill markers" stroke="none"/></g><g><path d=" M 415 446 L 415 487 L 626.17138671875 487 L 636.42138671875 466.5 L 626.17138671875 446 L 415 446" fill="none" paint-order="fill stroke markers" stroke="#000000" stroke-dasharray="" stroke-miterlimit="10"/></g><g><g><path fill="none" stroke="none"/><text dominant-baseline="central" fill="#000000" font-family="Arial" font-size="13px" font-style="normal" font-weight="bold" stroke="none" text-anchor="middle" text-decoration="undefined" transform="matrix(1 0 0 1 -182 -406)" x="708.210693359375" y="865.5">Thông báo thông tin không hợp lệ</text></g></g><g><path d=" M 414 609 L 414 650 L 641.326171875 650 L 651.576171875 629.5 L 641.326171875 609" fill="#C0C0C0" fill-opacity="0.2" paint-order="stroke fill markers" stroke="none"/></g><g><path d=" M 407 602 L 407 643 L 634.326171875 643 L 644.576171875 622.5 L 634.326171875 602" fill="#ffffff" paint-order="stroke fill markers" stroke="none"/></g><g><path d=" M 407 602 L 407 643 L 634.326171875 643 L 644.576171875 622.5 L 634.326171875 602 L 407 602" fill="none" paint-order="fill stroke markers" stroke="#000000" stroke-dasharray="" stroke-miterlimit="10"/></g><g><g><path fill="none" stroke="none"/><text dominant-baseline="central" fill="#000000" font-family="Arial" font-size="13px" font-style="normal" font-weight="bold" stroke="none" text-anchor="middle" text-decoration="undefined" transform="matrix(1 0 0 1 -182 -406)" x="708.2880859375" y="1021.5">Thông báo đã gửi yêu cầu chỉnh sửa</text></g></g><g><path d=" M 1151 609 L 1291.25537109375 609 Q 1301.25537109375 609 1301.25537109375 619 L 1301.25537109375 640 Q 1301.25537109375 650 1291.25537109375 650 L 1151 650 Q 1141 650 1141 640 L 1141 619 Q 1141 609 1151 609 Z" fill="#C0C0C0" fill-opacity="0.2" paint-order="stroke fill markers" stroke="none"/></g><g><path d=" M 1144 602 L 1284.25537109375 602 Q 1294.25537109375 602 1294.25537109375 612 L 1294.25537109375 633 Q 1294.25537109375 643 1284.25537109375 643 L 1144 643 Q 1134 643 1134 633 L 1134 612 Q 1134 602 1144 602 Z" fill="#ffffff" paint-order="stroke fill markers" stroke="none"/></g><g><path d=" M 1144 602 L 1284.25537109375 602 Q 1294.25537109375 602 1294.25537109375 612 L 1294.25537109375 633 Q 1294.25537109375 643 1284.25537109375 643 L 1144 643 Q 1134 643 1134 633 L 1134 612 Q 1134 602 1144 602 Z" fill="none" paint-order="fill stroke markers" stroke="#000000" stroke-dasharray="" stroke-miterlimit="10"/></g><g><g><path fill="none" stroke="none"/><text dominant-baseline="central" fill="#000000" font-family="Arial" font-size="13px" font-style="normal" font-weight="bold" stroke="none" text-anchor="middle" text-decoration="undefined" transform="matrix(1 0 0 1 -182 -406)" x="1396.627685546875" y="1021.5">Lưu thông tin chỉnh sửa</text></g></g><g><path d=" M 520 782 C 520 774.8202976 525.8202976 769 533 769 C 540.1797024 769 546 774.8202976 546 782 C 546 789.1797024 540.1797024 795 533 795 C 525.8202976 795 520 789.1797024 520 782 Z" fill="#C0C0C0" fill-opacity="0.2" paint-order="stroke fill markers" stroke="none"/></g><g><path d=" M 513 775 C 513 767.8202976 518.8202976 762 526 762 C 533.1797024 762 539 767.8202976 539 775 C 539 782.1797024 533.1797024 788 526 788 C 518.8202976 788 513 782.1797024 513 775 Z" fill="none" paint-order="fill stroke markers" stroke="#000000" stroke-dasharray="" stroke-miterlimit="10"/></g><g><path d=" M 518 775 C 518 770.5817216 521.5817216 767 526 767 C 530.4182784 767 534 770.5817216 534 775 C 534 779.4182784 530.4182784 783 526 783 C 521.5817216 783 518 779.4182784 518 775 Z" fill="#000000" paint-order="stroke fill markers" stroke="none"/></g><g><path d=" M 182 87 L 182 145" fill="none" paint-order="fill stroke markers" stroke="#000000" stroke-dasharray="" stroke-miterlimit="10"/></g><g><path d=" M 177.790482243984 134.8373251423759 L 182 145 L 186.209517756016 134.8373251423759" fill="none" paint-order="fill stroke markers" stroke="#000000" stroke-dasharray="" stroke-miterlimit="10"/></g><g><path d=" M 328 166 L 378 166" fill="none" paint-order="fill stroke markers" stroke="#000000" stroke-dasharray="" stroke-miterlimit="10"/></g><g><path d=" M 367.8373251423759 170.209517756016 L 378 166 L 367.8373251423758 161.790482243984" fill="none" paint-order="fill stroke markers" stroke="#000000" stroke-dasharray="" stroke-miterlimit="10"/></g><g><path d=" M 530 187 L 530 270 L 278 270" fill="none" paint-order="fill stroke markers" stroke="#000000" stroke-dasharray="" stroke-miterlimit="10"/></g><g><path d=" M 288.16267485762415 265.790482243984 L 278 270 L 288.16267485762415 274.209517756016" fill="none" paint-order="fill stroke markers" stroke="#000000" stroke-dasharray="" stroke-miterlimit="10"/></g><g><path d=" M 181 292 L 182 333" fill="none" paint-order="fill stroke markers" stroke="#000000" stroke-dasharray="" stroke-miterlimit="10"/></g><g><path d=" M 177.543937348628 322.9429872403856 L 182 333 L 185.96046980262577 322.73770596101974" fill="none" paint-order="fill stroke markers" stroke="#000000" stroke-dasharray="" stroke-miterlimit="10"/></g><g><path d=" M 255 354 L 787 354" fill="none" paint-order="fill stroke markers" stroke="#000000" stroke-dasharray="" stroke-miterlimit="10"/></g><g><path d=" M 776.8373251423759 358.209517756016 L 787 354 L 776.8373251423758 349.790482243984" fill="none" paint-order="fill stroke markers" stroke="#000000" stroke-dasharray="" stroke-miterlimit="10"/></g><g><path d=" M 870 376 L 870 444" fill="none" paint-order="fill stroke markers" stroke="#000000" stroke-dasharray="" stroke-miterlimit="10"/></g><g><path d=" M 865.7904822439841 433.8373251423759 L 870 444 L 874.2095177560159 433.8373251423759" fill="none" paint-order="fill stroke markers" stroke="#000000" stroke-dasharray="" stroke-miterlimit="10"/></g><g><path d=" M 845 466 L 637 466" fill="none" paint-order="fill stroke markers" stroke="#000000" stroke-dasharray="" stroke-miterlimit="10"/></g><g><path d=" M 647.1626748576241 461.790482243984 L 637 466 L 647.1626748576241 470.209517756016" fill="none" paint-order="fill stroke markers" stroke="#000000" stroke-dasharray="" stroke-miterlimit="10"/></g><g><path d=" M 894 466 L 1210 466 L 1210 602" fill="none" paint-order="fill stroke markers" stroke="#000000" stroke-dasharray="" stroke-miterlimit="10"/></g><g><path d=" M 1205.7904822439841 591.8373251423759 L 1210 602 L 1214.2095177560159 591.8373251423759" fill="none" paint-order="fill stroke markers" stroke="#000000" stroke-dasharray="" stroke-miterlimit="10"/></g><g><path d=" M 1133 622 L 646 622" fill="none" paint-order="fill stroke markers" stroke="#000000" stroke-dasharray="" stroke-miterlimit="10"/></g><g><path d=" M 656.1626748576241 617.790482243984 L 646 622 L 656.1626748576241 626.2095177560159" fill="none" paint-order="fill stroke markers" stroke="#000000" stroke-dasharray="" stroke-miterlimit="10"/></g><g><path d=" M 525 644 L 526 761" fill="none" paint-order="fill stroke markers" stroke="#000000" stroke-dasharray="" stroke-miterlimit="10"/></g><g><path d=" M 521.7037786946438 750.8736737907866 L 526 761 L 530.1225067125464 750.8017188504625" fill="none" paint-order="fill stroke markers" stroke="#000000" stroke-dasharray="" stroke-miterlimit="10"/></g><g><path d=" M 415 470 L 42 470 L 42 274 L 85 274" fill="none" paint-order="fill stroke markers" stroke="#000000" stroke-dasharray="" stroke-miterlimit="10"/></g><g><path d=" M 74.83732514237585 278.209517756016 L 85 274 L 74.83732514237585 269.790482243984" fill="none" paint-order="fill stroke markers" stroke="#000000" stroke-dasharray="" stroke-miterlimit="10"/></g><g><g><path fill="none" stroke="none"/><text dominant-baseline="text-before-edge" fill="#000000" font-family="Arial" font-size="13px" font-style="normal" font-weight="normal" stroke="none" text-anchor="start" text-decoration="undefined" transform="matrix(1 0 0 1 -182 -406)" x="885" y="853">[Thông tin không hợp lệ]</text></g></g><g><g><path fill="none" stroke="none"/><text dominant-baseline="text-before-edge" fill="#000000" font-family="Arial" font-size="13px" font-style="normal" font-weight="normal" stroke="none" text-anchor="start" text-decoration="undefined" transform="matrix(1 0 0 1 -182 -406)" x="1085" y="853">[Thông tin hợp lệ]</text></g></g></g></svg>