<?xml version="1.0" encoding="utf-8"?>
<svg height="948" version="1.1" width="1316" xmlns="http://www.w3.org/2000/svg" xmlns:xlink="http://www.w3.org/1999/xlink"><defs/><g><g><rect fill="#ffffff" height="21" stroke="none" transform="matrix(1 0 0 1 -102 -542)" width="432" x="112" y="552"/></g><g><path d=" M 10 10 L 442 10 L 442 31 L 10 31 L 10 10 Z Z" fill="none" paint-order="fill stroke markers" stroke="#000000" stroke-dasharray="" stroke-miterlimit="10" stroke-width="2"/></g><g><path d=" M 10 938 L 10 10 L 442 10 L 442 938" fill="none" paint-order="fill stroke markers" stroke="#000000" stroke-dasharray="" stroke-miterlimit="10" stroke-width="2"/></g><g><g><path fill="none" stroke="none"/><text dominant-baseline="text-before-edge" fill="#000000" font-family="Arial" font-size="13px" font-style="normal" font-weight="normal" stroke="none" text-anchor="middle" text-decoration="undefined" transform="matrix(1 0 0 1 -102 -542)" x="328" y="556">Trưởng Ban Tổ Chức</text></g></g><g><rect fill="#ffffff" height="21" stroke="none" transform="matrix(1 0 0 1 -102 -542)" width="432" x="544" y="552"/></g><g><path d=" M 442 10 L 874 10 L 874 31 L 442 31 L 442 10 Z Z" fill="none" paint-order="fill stroke markers" stroke="#000000" stroke-dasharray="" stroke-miterlimit="10" stroke-width="2"/></g><g><path d=" M 442 938 L 442 10 L 874 10 L 874 938" fill="none" paint-order="fill stroke markers" stroke="#000000" stroke-dasharray="" stroke-miterlimit="10" stroke-width="2"/></g><g><g><path fill="none" stroke="none"/><text dominant-baseline="text-before-edge" fill="#000000" font-family="Arial" font-size="13px" font-style="normal" font-weight="normal" stroke="none" text-anchor="middle" text-decoration="undefined" transform="matrix(1 0 0 1 -102 -542)" x="760" y="556">Giao Diện</text></g></g><g><rect fill="#ffffff" height="21" stroke="none" transform="matrix(1 0 0 1 -102 -542)" width="432" x="976" y="552"/></g><g><path d=" M 874 10 L 1306 10 L 1306 31 L 874 31 L 874 10 Z Z" fill="none" paint-order="fill stroke markers" stroke="#000000" stroke-dasharray="" stroke-miterlimit="10" stroke-width="2"/></g><g><path d=" M 874 938 L 874 10 L 1306 10 L 1306 938" fill="none" paint-order="fill stroke markers" stroke="#000000" stroke-dasharray="" stroke-miterlimit="10" stroke-width="2"/></g><g><g><path fill="none" stroke="none"/><text dominant-baseline="text-before-edge" fill="#000000" font-family="Arial" font-size="13px" font-style="normal" font-weight="normal" stroke="none" text-anchor="middle" text-decoration="undefined" transform="matrix(1 0 0 1 -102 -542)" x="1192" y="556">Giái Đấu</text></g></g><g><path d=" M 134 140 L 348.47216796875 140 Q 358.47216796875 140 358.47216796875 150 L 358.47216796875 171 Q 358.47216796875 181 348.47216796875 181 L 134 181 Q 124 181 124 171 L 124 150 Q 124 140 134 140 Z" fill="#C0C0C0" fill-opacity="0.2" paint-order="stroke fill markers" stroke="none"/></g><g><path d=" M 127 133 L 341.47216796875 133 Q 351.47216796875 133 351.47216796875 143 L 351.47216796875 164 Q 351.47216796875 174 341.47216796875 174 L 127 174 Q 117 174 117 164 L 117 143 Q 117 133 127 133 Z" fill="#ffffff" paint-order="stroke fill markers" stroke="none"/></g><g><path d=" M 127 133 L 341.47216796875 133 Q 351.47216796875 133 351.47216796875 143 L 351.47216796875 164 Q 351.47216796875 174 341.47216796875 174 L 127 174 Q 117 174 117 164 L 117 143 Q 117 133 127 133 Z" fill="none" paint-order="fill stroke markers" stroke="#000000" stroke-dasharray="" stroke-miterlimit="10"/></g><g><g><path fill="none" stroke="none"/><text dominant-baseline="central" fill="#000000" font-family="Arial" font-size="13px" font-style="normal" font-weight="bold" stroke="none" text-anchor="middle" text-decoration="undefined" transform="matrix(1 0 0 1 -102 -542)" x="336.736083984375" y="688.5">Chọn Quản lý giải đấu</text></g></g><g><path d=" M 553 140 L 777.59033203125 140 Q 787.59033203125 140 787.59033203125 150 L 787.59033203125 171 Q 787.59033203125 181 777.59033203125 181 L 553 181 Q 543 181 543 171 L 543 150 Q 543 140 553 140 Z" fill="#C0C0C0" fill-opacity="0.2" paint-order="stroke fill markers" stroke="none"/></g><g><path d=" M 546 133 L 770.59033203125 133 Q 780.59033203125 133 780.59033203125 143 L 780.59033203125 164 Q 780.59033203125 174 770.59033203125 174 L 546 174 Q 536 174 536 164 L 536 143 Q 536 133 546 133 Z" fill="#ffffff" paint-order="stroke fill markers" stroke="none"/></g><g><path d=" M 546 133 L 770.59033203125 133 Q 780.59033203125 133 780.59033203125 143 L 780.59033203125 164 Q 780.59033203125 174 770.59033203125 174 L 546 174 Q 536 174 536 164 L 536 143 Q 536 133 546 133 Z" fill="none" paint-order="fill stroke markers" stroke="#000000" stroke-dasharray="" stroke-miterlimit="10"/></g><g><g><path fill="none" stroke="none"/><text dominant-baseline="central" fill="#000000" font-family="Arial" font-size="13px" font-style="normal" font-weight="bold" stroke="none" text-anchor="middle" text-decoration="undefined" transform="matrix(1 0 0 1 -102 -542)" x="760.795166015625" y="688.5">Hiển thị giao diện Quản lý giải đấu</text></g></g><g><path d=" M 535 250 L 794.26123046875 250 Q 804.26123046875 250 804.26123046875 260 L 804.26123046875 281 Q 804.26123046875 291 794.26123046875 291 L 535 291 Q 525 291 525 281 L 525 260 Q 525 250 535 250 Z" fill="#C0C0C0" fill-opacity="0.2" paint-order="stroke fill markers" stroke="none"/></g><g><path d=" M 528 243 L 787.26123046875 243 Q 797.26123046875 243 797.26123046875 253 L 797.26123046875 274 Q 797.26123046875 284 787.26123046875 284 L 528 284 Q 518 284 518 274 L 518 253 Q 518 243 528 243 Z" fill="#ffffff" paint-order="stroke fill markers" stroke="none"/></g><g><path d=" M 528 243 L 787.26123046875 243 Q 797.26123046875 243 797.26123046875 253 L 797.26123046875 274 Q 797.26123046875 284 787.26123046875 284 L 528 284 Q 518 284 518 274 L 518 253 Q 518 243 528 243 Z" fill="none" paint-order="fill stroke markers" stroke="#000000" stroke-dasharray="" stroke-miterlimit="10"/></g><g><g><path fill="none" stroke="none"/><text dominant-baseline="central" fill="#000000" font-family="Arial" font-size="13px" font-style="normal" font-weight="bold" stroke="none" text-anchor="middle" text-decoration="undefined" transform="matrix(1 0 0 1 -102 -542)" x="760.130615234375" y="798.5">Hiển thị giao diện Tạo giải đấu</text></g></g><g><path d=" M 143 250 L 338.69580078125 250 Q 348.69580078125 250 348.69580078125 260 L 348.69580078125 281 Q 348.69580078125 291 338.69580078125 291 L 143 291 Q 133 291 133 281 L 133 260 Q 133 250 143 250 Z" fill="#C0C0C0" fill-opacity="0.2" paint-order="stroke fill markers" stroke="none"/></g><g><path d=" M 136 243 L 331.69580078125 243 Q 341.69580078125 243 341.69580078125 253 L 341.69580078125 274 Q 341.69580078125 284 331.69580078125 284 L 136 284 Q 126 284 126 274 L 126 253 Q 126 243 136 243 Z" fill="#ffffff" paint-order="stroke fill markers" stroke="none"/></g><g><path d=" M 136 243 L 331.69580078125 243 Q 341.69580078125 243 341.69580078125 253 L 341.69580078125 274 Q 341.69580078125 284 331.69580078125 284 L 136 284 Q 126 284 126 274 L 126 253 Q 126 243 136 243 Z" fill="none" paint-order="fill stroke markers" stroke="#000000" stroke-dasharray="" stroke-miterlimit="10"/></g><g><g><path fill="none" stroke="none"/><text dominant-baseline="central" fill="#000000" font-family="Arial" font-size="13px" font-style="normal" font-weight="bold" stroke="none" text-anchor="middle" text-decoration="undefined" transform="matrix(1 0 0 1 -102 -542)" x="336.347900390625" y="798.5">Chọn Tạo giải đấu</text></g></g><g><path d=" M 231 67 C 231 61.477152000000046 235.477152 57 241 57 C 246.522848 57 251 61.477152000000046 251 67 C 251 72.52284799999995 246.522848 77 241 77 C 235.477152 77 231 72.52284799999995 231 67 Z" fill="#C0C0C0" fill-opacity="0.2" paint-order="stroke fill markers" stroke="none"/></g><g><path d=" M 224 60 C 224 54.477152000000046 228.477152 50 234 50 C 239.522848 50 244 54.477152000000046 244 60 C 244 65.52284799999995 239.522848 70 234 70 C 228.477152 70 224 65.52284799999995 224 60 Z" fill="#000000" paint-order="stroke fill markers" stroke="none"/></g><g><path d=" M 291 417 L 372.70458984375 417 Q 382.70458984375 417 382.70458984375 427 L 382.70458984375 448 Q 382.70458984375 458 372.70458984375 458 L 291 458 Q 281 458 281 448 L 281 427 Q 281 417 291 417 Z" fill="#C0C0C0" fill-opacity="0.2" paint-order="stroke fill markers" stroke="none"/></g><g><path d=" M 284 410 L 365.70458984375 410 Q 375.70458984375 410 375.70458984375 420 L 375.70458984375 441 Q 375.70458984375 451 365.70458984375 451 L 284 451 Q 274 451 274 441 L 274 420 Q 274 410 284 410 Z" fill="#ffffff" paint-order="stroke fill markers" stroke="none"/></g><g><path d=" M 284 410 L 365.70458984375 410 Q 375.70458984375 410 375.70458984375 420 L 375.70458984375 441 Q 375.70458984375 451 365.70458984375 451 L 284 451 Q 274 451 274 441 L 274 420 Q 274 410 284 410 Z" fill="none" paint-order="fill stroke markers" stroke="#000000" stroke-dasharray="" stroke-miterlimit="10"/></g><g><g><path fill="none" stroke="none"/><text dominant-baseline="central" fill="#000000" font-family="Arial" font-size="13px" font-style="normal" font-weight="bold" stroke="none" text-anchor="middle" text-decoration="undefined" transform="matrix(1 0 0 1 -102 -542)" x="427.352294921875" y="965.5">Nhấn nút thoát</text></g></g><g><path d=" M 291 517 L 421.11181640625 517 Q 431.11181640625 517 431.11181640625 527 L 431.11181640625 548 Q 431.11181640625 558 421.11181640625 558 L 291 558 Q 281 558 281 548 L 281 527 Q 281 517 291 517 Z" fill="#C0C0C0" fill-opacity="0.2" paint-order="stroke fill markers" stroke="none"/></g><g><path d=" M 284 510 L 414.11181640625 510 Q 424.11181640625 510 424.11181640625 520 L 424.11181640625 541 Q 424.11181640625 551 414.11181640625 551 L 284 551 Q 274 551 274 541 L 274 520 Q 274 510 284 510 Z" fill="#ffffff" paint-order="stroke fill markers" stroke="none"/></g><g><path d=" M 284 510 L 414.11181640625 510 Q 424.11181640625 510 424.11181640625 520 L 424.11181640625 541 Q 424.11181640625 551 414.11181640625 551 L 284 551 Q 274 551 274 541 L 274 520 Q 274 510 284 510 Z" fill="none" paint-order="fill stroke markers" stroke="#000000" stroke-dasharray="" stroke-miterlimit="10"/></g><g><g><path fill="none" stroke="none"/><text dominant-baseline="central" fill="#000000" font-family="Arial" font-size="13px" font-style="normal" font-weight="bold" stroke="none" text-anchor="middle" text-decoration="undefined" transform="matrix(1 0 0 1 -102 -542)" x="451.555908203125" y="1065.5">Nhấn nút Tạo giải đấu</text></g></g><g><path d=" M 65 336 L 417 336 L 417 377 L 65 377 L 75.25 356.5" fill="#C0C0C0" fill-opacity="0.2" paint-order="stroke fill markers" stroke="none"/></g><g><path d=" M 58 329 L 410 329 L 410 370 L 58 370 L 68.25 349.5" fill="#ffffff" paint-order="stroke fill markers" stroke="none"/></g><g><path d=" M 58 329 L 410 329 L 410 370 L 58 370 L 68.25 349.5 L 58 329" fill="none" paint-order="fill stroke markers" stroke="#000000" stroke-dasharray="" stroke-miterlimit="10"/></g><g><g><path fill="none" stroke="none"/><text dominant-baseline="central" fill="#000000" font-family="Arial" font-size="13px" font-style="normal" font-weight="bold" stroke="none" text-anchor="middle" text-decoration="undefined" transform="matrix(1 0 0 1 -102 -542)" x="336.5" y="884.5">Nhập các thông tin</text></g></g><g><path d=" M 1007 517 L 1187.6708984375 517 Q 1197.6708984375 517 1197.6708984375 527 L 1197.6708984375 548 Q 1197.6708984375 558 1187.6708984375 558 L 1007 558 Q 997 558 997 548 L 997 527 Q 997 517 1007 517 Z" fill="#C0C0C0" fill-opacity="0.2" paint-order="stroke fill markers" stroke="none"/></g><g><path d=" M 1000 510 L 1180.6708984375 510 Q 1190.6708984375 510 1190.6708984375 520 L 1190.6708984375 541 Q 1190.6708984375 551 1180.6708984375 551 L 1000 551 Q 990 551 990 541 L 990 520 Q 990 510 1000 510 Z" fill="#ffffff" paint-order="stroke fill markers" stroke="none"/></g><g><path d=" M 1000 510 L 1180.6708984375 510 Q 1190.6708984375 510 1190.6708984375 520 L 1190.6708984375 541 Q 1190.6708984375 551 1180.6708984375 551 L 1000 551 Q 990 551 990 541 L 990 520 Q 990 510 1000 510 Z" fill="none" paint-order="fill stroke markers" stroke="#000000" stroke-dasharray="" stroke-miterlimit="10"/></g><g><g><path fill="none" stroke="none"/><text dominant-baseline="central" fill="#000000" font-family="Arial" font-size="13px" font-style="normal" font-weight="bold" stroke="none" text-anchor="middle" text-decoration="undefined" transform="matrix(1 0 0 1 -102 -542)" x="1192.83544921875" y="1065.5">Kiểm tra thông tin Tạo giải đấu</text></g></g><g><path d=" M 1020 741 L 1174.6962890625 741 Q 1184.6962890625 741 1184.6962890625 751 L 1184.6962890625 772 Q 1184.6962890625 782 1174.6962890625 782 L 1020 782 Q 1010 782 1010 772 L 1010 751 Q 1010 741 1020 741 Z" fill="#C0C0C0" fill-opacity="0.2" paint-order="stroke fill markers" stroke="none"/></g><g><path d=" M 1013 734 L 1167.6962890625 734 Q 1177.6962890625 734 1177.6962890625 744 L 1177.6962890625 765 Q 1177.6962890625 775 1167.6962890625 775 L 1013 775 Q 1003 775 1003 765 L 1003 744 Q 1003 734 1013 734 Z" fill="#ffffff" paint-order="stroke fill markers" stroke="none"/></g><g><path d=" M 1013 734 L 1167.6962890625 734 Q 1177.6962890625 734 1177.6962890625 744 L 1177.6962890625 765 Q 1177.6962890625 775 1167.6962890625 775 L 1013 775 Q 1003 775 1003 765 L 1003 744 Q 1003 734 1013 734 Z" fill="none" paint-order="fill stroke markers" stroke="#000000" stroke-dasharray="" stroke-miterlimit="10"/></g><g><g><path fill="none" stroke="none"/><text dominant-baseline="central" fill="#000000" font-family="Arial" font-size="13px" font-style="normal" font-weight="bold" stroke="none" text-anchor="middle" text-decoration="undefined" transform="matrix(1 0 0 1 -102 -542)" x="1192.84814453125" y="1289.5">Ghi nhận việc Tạo giải đấu</text></g></g><g><path d=" M 533 622 L 533 663 L 786.75 663 L 797 642.5 L 786.75 622" fill="#C0C0C0" fill-opacity="0.2" paint-order="stroke fill markers" stroke="none"/></g><g><path d=" M 526 615 L 526 656 L 779.75 656 L 790 635.5 L 779.75 615" fill="#ffffff" paint-order="stroke fill markers" stroke="none"/></g><g><path d=" M 526 615 L 526 656 L 779.75 656 L 790 635.5 L 779.75 615 L 526 615" fill="none" paint-order="fill stroke markers" stroke="#000000" stroke-dasharray="" stroke-miterlimit="10"/></g><g><g><path fill="none" stroke="none"/><text dominant-baseline="central" fill="#000000" font-family="Arial" font-size="13px" font-style="normal" font-weight="bold" stroke="none" text-anchor="middle" text-decoration="undefined" transform="matrix(1 0 0 1 -102 -542)" x="760.5" y="1170.5">Thông báo thông tin nhập không hợp lệ</text></g></g><g><path d=" M 539 741 L 539 782 L 779.75 782 L 790 761.5 L 779.75 741" fill="#C0C0C0" fill-opacity="0.2" paint-order="stroke fill markers" stroke="none"/></g><g><path d=" M 532 734 L 532 775 L 772.75 775 L 783 754.5 L 772.75 734" fill="#ffffff" paint-order="stroke fill markers" stroke="none"/></g><g><path d=" M 532 734 L 532 775 L 772.75 775 L 783 754.5 L 772.75 734 L 532 734" fill="none" paint-order="fill stroke markers" stroke="#000000" stroke-dasharray="" stroke-miterlimit="10"/></g><g><g><path fill="none" stroke="none"/><text dominant-baseline="central" fill="#000000" font-family="Arial" font-size="13px" font-style="normal" font-weight="bold" stroke="none" text-anchor="middle" text-decoration="undefined" transform="matrix(1 0 0 1 -102 -542)" x="760" y="1289.5">Thông báo thêm tài khoản thành công</text></g></g><g><path d=" M 652 862 C 652 854.8202976 657.8202976 849 665 849 C 672.1797024 849 678 854.8202976 678 862 C 678 869.1797024 672.1797024 875 665 875 C 657.8202976 875 652 869.1797024 652 862 Z" fill="#C0C0C0" fill-opacity="0.2" paint-order="stroke fill markers" stroke="none"/></g><g><path d=" M 645 855 C 645 847.8202976 650.8202976 842 658 842 C 665.1797024 842 671 847.8202976 671 855 C 671 862.1797024 665.1797024 868 658 868 C 650.8202976 868 645 862.1797024 645 855 Z" fill="none" paint-order="fill stroke markers" stroke="#000000" stroke-dasharray="" stroke-miterlimit="10"/></g><g><path d=" M 650 855 C 650 850.5817216 653.5817216 847 658 847 C 662.4182784 847 666 850.5817216 666 855 C 666 859.4182784 662.4182784 863 658 863 C 653.5817216 863 650 859.4182784 650 855 Z" fill="#000000" paint-order="stroke fill markers" stroke="none"/></g><g><path d=" M 145 478.5 L 169 457 L 193 478.5 L 169 500 L 145 478.5" fill="#C0C0C0" fill-opacity="0.2" paint-order="stroke fill markers" stroke="none"/></g><g><path d=" M 138 471.5 L 162 450 L 186 471.5 L 162 493 L 138 471.5" fill="#ffffff" paint-order="stroke fill markers" stroke="none"/></g><g><path d=" M 138 471.5 L 162 450 L 186 471.5 L 162 493 L 138 471.5 L 138 471.5" fill="none" paint-order="fill stroke markers" stroke="#000000" stroke-dasharray="" stroke-miterlimit="10"/></g><g><path d=" M 1073 642.5 L 1097 621 L 1121 642.5 L 1097 664 L 1073 642.5" fill="#C0C0C0" fill-opacity="0.2" paint-order="stroke fill markers" stroke="none"/></g><g><path d=" M 1066 635.5 L 1090 614 L 1114 635.5 L 1090 657 L 1066 635.5" fill="#ffffff" paint-order="stroke fill markers" stroke="none"/></g><g><path d=" M 1066 635.5 L 1090 614 L 1114 635.5 L 1090 657 L 1066 635.5 L 1066 635.5" fill="none" paint-order="fill stroke markers" stroke="#000000" stroke-dasharray="" stroke-miterlimit="10"/></g><g><path d=" M 234 71 L 234 132" fill="none" paint-order="fill stroke markers" stroke="#000000" stroke-dasharray="" stroke-miterlimit="10"/></g><g><path d=" M 229.790482243984 121.8373251423759 L 234 132 L 238.209517756016 121.8373251423759" fill="none" paint-order="fill stroke markers" stroke="#000000" stroke-dasharray="" stroke-miterlimit="10"/></g><g><path d=" M 352 153 L 535 153" fill="none" paint-order="fill stroke markers" stroke="#000000" stroke-dasharray="" stroke-miterlimit="10"/></g><g><path d=" M 524.8373251423759 157.209517756016 L 535 153 L 524.8373251423758 148.790482243984" fill="none" paint-order="fill stroke markers" stroke="#000000" stroke-dasharray="" stroke-miterlimit="10"/></g><g><path d=" M 666 174 L 666 202 L 233 202 L 233 243" fill="none" paint-order="fill stroke markers" stroke="#000000" stroke-dasharray="" stroke-miterlimit="10"/></g><g><path d=" M 228.790482243984 232.8373251423759 L 233 243 L 237.209517756016 232.8373251423759" fill="none" paint-order="fill stroke markers" stroke="#000000" stroke-dasharray="" stroke-miterlimit="10"/></g><g><path d=" M 343 263 L 517 263" fill="none" paint-order="fill stroke markers" stroke="#000000" stroke-dasharray="" stroke-miterlimit="10"/></g><g><path d=" M 506.8373251423759 267.209517756016 L 517 263 L 506.8373251423758 258.790482243984" fill="none" paint-order="fill stroke markers" stroke="#000000" stroke-dasharray="" stroke-miterlimit="10"/></g><g><path d=" M 666 284 L 666 349 L 410 349" fill="none" paint-order="fill stroke markers" stroke="#000000" stroke-dasharray="" stroke-miterlimit="10"/></g><g><path d=" M 420.1626748576241 344.790482243984 L 410 349 L 420.1626748576241 353.209517756016" fill="none" paint-order="fill stroke markers" stroke="#000000" stroke-dasharray="" stroke-miterlimit="10"/></g><g><path d=" M 162 370 L 162 450" fill="none" paint-order="fill stroke markers" stroke="#000000" stroke-dasharray="" stroke-miterlimit="10"/></g><g><path d=" M 157.790482243984 439.8373251423759 L 162 450 L 166.209517756016 439.8373251423759" fill="none" paint-order="fill stroke markers" stroke="#000000" stroke-dasharray="" stroke-miterlimit="10"/></g><g><path d=" M 186 474 L 218 474 L 218 426 L 274 426" fill="none" paint-order="fill stroke markers" stroke="#000000" stroke-dasharray="" stroke-miterlimit="10"/></g><g><path d=" M 263.83732514237585 430.209517756016 L 274 426 L 263.83732514237585 421.790482243984" fill="none" paint-order="fill stroke markers" stroke="#000000" stroke-dasharray="" stroke-miterlimit="10"/></g><g><path d=" M 162 493 L 162 530 L 274 530" fill="none" paint-order="fill stroke markers" stroke="#000000" stroke-dasharray="" stroke-miterlimit="10"/></g><g><path d=" M 263.83732514237585 534.2095177560159 L 274 530 L 263.83732514237585 525.7904822439841" fill="none" paint-order="fill stroke markers" stroke="#000000" stroke-dasharray="" stroke-miterlimit="10"/></g><g><path d=" M 376 430 L 834 430 L 834 154 L 781 154" fill="none" paint-order="fill stroke markers" stroke="#000000" stroke-dasharray="" stroke-miterlimit="10"/></g><g><path d=" M 791.1626748576241 149.790482243984 L 781 154 L 791.1626748576241 158.209517756016" fill="none" paint-order="fill stroke markers" stroke="#000000" stroke-dasharray="" stroke-miterlimit="10"/></g><g><path d=" M 425 530 L 989 530" fill="none" paint-order="fill stroke markers" stroke="#000000" stroke-dasharray="" stroke-miterlimit="10"/></g><g><path d=" M 978.8373251423759 534.2095177560159 L 989 530 L 978.8373251423759 525.7904822439841" fill="none" paint-order="fill stroke markers" stroke="#000000" stroke-dasharray="" stroke-miterlimit="10"/></g><g><path d=" M 1090 552 L 1090 613" fill="none" paint-order="fill stroke markers" stroke="#000000" stroke-dasharray="" stroke-miterlimit="10"/></g><g><path d=" M 1085.7904822439841 602.8373251423759 L 1090 613 L 1094.2095177560159 602.8373251423759" fill="none" paint-order="fill stroke markers" stroke="#000000" stroke-dasharray="" stroke-miterlimit="10"/></g><g><path d=" M 1090 552 L 1090 613" fill="none" paint-order="fill stroke markers" stroke="#000000" stroke-dasharray="" stroke-miterlimit="10"/></g><g><path d=" M 1085.7904822439841 602.8373251423759 L 1090 613 L 1094.2095177560159 602.8373251423759" fill="none" paint-order="fill stroke markers" stroke="#000000" stroke-dasharray="" stroke-miterlimit="10"/></g><g><path d=" M 1065 635 L 791 635" fill="none" paint-order="fill stroke markers" stroke="#000000" stroke-dasharray="" stroke-miterlimit="10"/></g><g><path d=" M 801.1626748576241 630.7904822439841 L 791 635 L 801.1626748576241 639.2095177560159" fill="none" paint-order="fill stroke markers" stroke="#000000" stroke-dasharray="" stroke-miterlimit="10"/></g><g><path d=" M 1090 658 L 1090 733" fill="none" paint-order="fill stroke markers" stroke="#000000" stroke-dasharray="" stroke-miterlimit="10"/></g><g><path d=" M 1085.7904822439841 722.8373251423759 L 1090 733 L 1094.2095177560159 722.8373251423759" fill="none" paint-order="fill stroke markers" stroke="#000000" stroke-dasharray="" stroke-miterlimit="10"/></g><g><path d=" M 526 630 L 34 630 L 34 346 L 58 346" fill="none" paint-order="fill stroke markers" stroke="#000000" stroke-dasharray="" stroke-miterlimit="10"/></g><g><path d=" M 47.837325142375846 350.209517756016 L 58 346 L 47.837325142375846 341.790482243984" fill="none" paint-order="fill stroke markers" stroke="#000000" stroke-dasharray="" stroke-miterlimit="10"/></g><g><path d=" M 1002 754 L 784 754" fill="none" paint-order="fill stroke markers" stroke="#000000" stroke-dasharray="" stroke-miterlimit="10"/></g><g><path d=" M 794.1626748576241 749.7904822439841 L 784 754 L 794.1626748576241 758.2095177560159" fill="none" paint-order="fill stroke markers" stroke="#000000" stroke-dasharray="" stroke-miterlimit="10"/></g><g><path d=" M 657 776 L 658 841" fill="none" paint-order="fill stroke markers" stroke="#000000" stroke-dasharray="" stroke-miterlimit="10"/></g><g><path d=" M 653.6346499789255 830.9032817612106 L 658 841 L 662.0526893322234 830.7737734634675" fill="none" paint-order="fill stroke markers" stroke="#000000" stroke-dasharray="" stroke-miterlimit="10"/></g><g><g><path fill="none" stroke="none"/><text dominant-baseline="text-before-edge" fill="#000000" font-family="Arial" font-size="13px" font-style="normal" font-weight="normal" stroke="none" text-anchor="start" text-decoration="undefined" transform="matrix(1 0 0 1 -102 -542)" x="277" y="949">[Nhấn nút thoát]</text></g></g><g><g><path fill="none" stroke="none"/><text dominant-baseline="text-before-edge" fill="#000000" font-family="Arial" font-size="13px" font-style="normal" font-weight="normal" stroke="none" text-anchor="start" text-decoration="undefined" transform="matrix(1 0 0 1 -102 -542)" x="229" y="1077">[Nhấn nút tạo giải đấu]</text></g></g><g><g><path fill="none" stroke="none"/><text dominant-baseline="text-before-edge" fill="#000000" font-family="Arial" font-size="13px" font-style="normal" font-weight="normal" stroke="none" text-anchor="start" text-decoration="undefined" transform="matrix(1 0 0 1 -102 -542)" x="1205" y="1213">[Thông tin hợp lệ]</text></g></g><g><g><path fill="none" stroke="none"/><text dominant-baseline="text-before-edge" fill="#000000" font-family="Arial" font-size="13px" font-style="normal" font-weight="normal" stroke="none" text-anchor="start" text-decoration="undefined" transform="matrix(1 0 0 1 -102 -542)" x="1005" y="1157">[Thông tin không hợp lệ]</text></g></g></g></svg>