<?xml version="1.0" encoding="utf-8"?>
<svg height="948" version="1.1" width="1316" xmlns="http://www.w3.org/2000/svg" xmlns:xlink="http://www.w3.org/1999/xlink"><defs/><g><g><rect fill="#ffffff" height="21" stroke="none" transform="matrix(1 0 0 1 -102 -542)" width="432" x="112" y="552"/></g><g><path d=" M 10 10 L 442 10 L 442 31 L 10 31 L 10 10 Z Z" fill="none" paint-order="fill stroke markers" stroke="#000000" stroke-dasharray="" stroke-miterlimit="10" stroke-width="2"/></g><g><path d=" M 10 938 L 10 10 L 442 10 L 442 938" fill="none" paint-order="fill stroke markers" stroke="#000000" stroke-dasharray="" stroke-miterlimit="10" stroke-width="2"/></g><g><g><path fill="none" stroke="none"/><text dominant-baseline="text-before-edge" fill="#000000" font-family="Arial" font-size="13px" font-style="normal" font-weight="normal" stroke="none" text-anchor="middle" text-decoration="undefined" transform="matrix(1 0 0 1 -102 -542)" x="328" y="556">Trưởng Đoàn</text></g></g><g><rect fill="#ffffff" height="21" stroke="none" transform="matrix(1 0 0 1 -102 -542)" width="432" x="544" y="552"/></g><g><path d=" M 442 10 L 874 10 L 874 31 L 442 31 L 442 10 Z Z" fill="none" paint-order="fill stroke markers" stroke="#000000" stroke-dasharray="" stroke-miterlimit="10" stroke-width="2"/></g><g><path d=" M 442 938 L 442 10 L 874 10 L 874 938" fill="none" paint-order="fill stroke markers" stroke="#000000" stroke-dasharray="" stroke-miterlimit="10" stroke-width="2"/></g><g><g><path fill="none" stroke="none"/><text dominant-baseline="text-before-edge" fill="#000000" font-family="Arial" font-size="13px" font-style="normal" font-weight="normal" stroke="none" text-anchor="middle" text-decoration="undefined" transform="matrix(1 0 0 1 -102 -542)" x="760" y="556">Giao Diện</text></g></g><g><rect fill="#ffffff" height="21" stroke="none" transform="matrix(1 0 0 1 -102 -542)" width="432" x="976" y="552"/></g><g><path d=" M 874 10 L 1306 10 L 1306 31 L 874 31 L 874 10 Z Z" fill="none" paint-order="fill stroke markers" stroke="#000000" stroke-dasharray="" stroke-miterlimit="10" stroke-width="2"/></g><g><path d=" M 874 938 L 874 10 L 1306 10 L 1306 938" fill="none" paint-order="fill stroke markers" stroke="#000000" stroke-dasharray="" stroke-miterlimit="10" stroke-width="2"/></g><g><g><path fill="none" stroke="none"/><text dominant-baseline="text-before-edge" fill="#000000" font-family="Arial" font-size="13px" font-style="normal" font-weight="normal" stroke="none" text-anchor="middle" text-decoration="undefined" transform="matrix(1 0 0 1 -102 -542)" x="1192" y="556">Lịch Tập Luyện</text></g></g><g><path d=" M 134 140 L 348.47216796875 140 Q 358.47216796875 140 358.47216796875 150 L 358.47216796875 171 Q 358.47216796875 181 348.47216796875 181 L 134 181 Q 124 181 124 171 L 124 150 Q 124 140 134 140 Z" fill="#C0C0C0" fill-opacity="0.2" paint-order="stroke fill markers" stroke="none"/></g><g><path d=" M 127 133 L 341.47216796875 133 Q 351.47216796875 133 351.47216796875 143 L 351.47216796875 164 Q 351.47216796875 174 341.47216796875 174 L 127 174 Q 117 174 117 164 L 117 143 Q 117 133 127 133 Z" fill="#ffffff" paint-order="stroke fill markers" stroke="none"/></g><g><path d=" M 127 133 L 341.47216796875 133 Q 351.47216796875 133 351.47216796875 143 L 351.47216796875 164 Q 351.47216796875 174 341.47216796875 174 L 127 174 Q 117 174 117 164 L 117 143 Q 117 133 127 133 Z" fill="none" paint-order="fill stroke markers" stroke="#000000" stroke-dasharray="" stroke-miterlimit="10"/></g><g><g><path fill="none" stroke="none"/><text dominant-baseline="central" fill="#000000" font-family="Arial" font-size="13px" font-style="normal" font-weight="bold" stroke="none" text-anchor="middle" text-decoration="undefined" transform="matrix(1 0 0 1 -102 -542)" x="336.736083984375" y="688.5">Chọn danh mục quản lý đội</text></g></g><g><path d=" M 553 140 L 777.59033203125 140 Q 787.59033203125 140 787.59033203125 150 L 787.59033203125 171 Q 787.59033203125 181 777.59033203125 181 L 553 181 Q 543 181 543 171 L 543 150 Q 543 140 553 140 Z" fill="#C0C0C0" fill-opacity="0.2" paint-order="stroke fill markers" stroke="none"/></g><g><path d=" M 546 133 L 770.59033203125 133 Q 780.59033203125 133 780.59033203125 143 L 780.59033203125 164 Q 780.59033203125 174 770.59033203125 174 L 546 174 Q 536 174 536 164 L 536 143 Q 536 133 546 133 Z" fill="#ffffff" paint-order="stroke fill markers" stroke="none"/></g><g><path d=" M 546 133 L 770.59033203125 133 Q 780.59033203125 133 780.59033203125 143 L 780.59033203125 164 Q 780.59033203125 174 770.59033203125 174 L 546 174 Q 536 174 536 164 L 536 143 Q 536 133 546 133 Z" fill="none" paint-order="fill stroke markers" stroke="#000000" stroke-dasharray="" stroke-miterlimit="10"/></g><g><g><path fill="none" stroke="none"/><text dominant-baseline="central" fill="#000000" font-family="Arial" font-size="13px" font-style="normal" font-weight="bold" stroke="none" text-anchor="middle" text-decoration="undefined" transform="matrix(1 0 0 1 -102 -542)" x="760.795166015625" y="688.5">Hiển thị giao diện quản lý đội</text></g></g><g><path d=" M 535 250 L 794.26123046875 250 Q 804.26123046875 250 804.26123046875 260 L 804.26123046875 281 Q 804.26123046875 291 794.26123046875 291 L 535 291 Q 525 291 525 281 L 525 260 Q 525 250 535 250 Z" fill="#C0C0C0" fill-opacity="0.2" paint-order="stroke fill markers" stroke="none"/></g><g><path d=" M 528 243 L 787.26123046875 243 Q 797.26123046875 243 797.26123046875 253 L 797.26123046875 274 Q 797.26123046875 284 787.26123046875 284 L 528 284 Q 518 284 518 274 L 518 253 Q 518 243 528 243 Z" fill="#ffffff" paint-order="stroke fill markers" stroke="none"/></g><g><path d=" M 528 243 L 787.26123046875 243 Q 797.26123046875 243 797.26123046875 253 L 797.26123046875 274 Q 797.26123046875 284 787.26123046875 284 L 528 284 Q 518 284 518 274 L 518 253 Q 518 243 528 243 Z" fill="none" paint-order="fill stroke markers" stroke="#000000" stroke-dasharray="" stroke-miterlimit="10"/></g><g><g><path fill="none" stroke="none"/><text dominant-baseline="central" fill="#000000" font-family="Arial" font-size="13px" font-style="normal" font-weight="bold" stroke="none" text-anchor="middle" text-decoration="undefined" transform="matrix(1 0 0 1 -102 -542)" x="760.130615234375" y="798.5">Hiển thị giao diện diện lập lịch tập luyện</text></g></g><g><path d=" M 143 250 L 345.3798828125 250 Q 355.3798828125 250 355.3798828125 260 L 355.3798828125 281 Q 355.3798828125 291 345.3798828125 291 L 143 291 Q 133 291 133 281 L 133 260 Q 133 250 143 250 Z" fill="#C0C0C0" fill-opacity="0.2" paint-order="stroke fill markers" stroke="none"/></g><g><path d=" M 136 243 L 338.3798828125 243 Q 348.3798828125 243 348.3798828125 253 L 348.3798828125 274 Q 348.3798828125 284 338.3798828125 284 L 136 284 Q 126 284 126 274 L 126 253 Q 126 243 136 243 Z" fill="#ffffff" paint-order="stroke fill markers" stroke="none"/></g><g><path d=" M 136 243 L 338.3798828125 243 Q 348.3798828125 243 348.3798828125 253 L 348.3798828125 274 Q 348.3798828125 284 338.3798828125 284 L 136 284 Q 126 284 126 274 L 126 253 Q 126 243 136 243 Z" fill="none" paint-order="fill stroke markers" stroke="#000000" stroke-dasharray="" stroke-miterlimit="10"/></g><g><g><path fill="none" stroke="none"/><text dominant-baseline="central" fill="#000000" font-family="Arial" font-size="13px" font-style="normal" font-weight="bold" stroke="none" text-anchor="middle" text-decoration="undefined" transform="matrix(1 0 0 1 -102 -542)" x="339.68994140625" y="798.5">Chọn chức năng lập lịch tập luyện</text></g></g><g><path d=" M 231 67 C 231 61.477152000000046 235.477152 57 241 57 C 246.522848 57 251 61.477152000000046 251 67 C 251 72.52284799999995 246.522848 77 241 77 C 235.477152 77 231 72.52284799999995 231 67 Z" fill="#C0C0C0" fill-opacity="0.2" paint-order="stroke fill markers" stroke="none"/></g><g><path d=" M 224 60 C 224 54.477152000000046 228.477152 50 234 50 C 239.522848 50 244 54.477152000000046 244 60 C 244 65.52284799999995 239.522848 70 234 70 C 228.477152 70 224 65.52284799999995 224 60 Z" fill="#000000" paint-order="stroke fill markers" stroke="none"/></g><g><path d=" M 180 495 L 286.2890625 495 Q 296.2890625 495 296.2890625 505 L 296.2890625 526 Q 296.2890625 536 286.2890625 536 L 180 536 Q 170 536 170 526 L 170 505 Q 170 495 180 495 Z" fill="#C0C0C0" fill-opacity="0.2" paint-order="stroke fill markers" stroke="none"/></g><g><path d=" M 173 488 L 279.2890625 488 Q 289.2890625 488 289.2890625 498 L 289.2890625 519 Q 289.2890625 529 279.2890625 529 L 173 529 Q 163 529 163 519 L 163 498 Q 163 488 173 488 Z" fill="#ffffff" paint-order="stroke fill markers" stroke="none"/></g><g><path d=" M 173 488 L 279.2890625 488 Q 289.2890625 488 289.2890625 498 L 289.2890625 519 Q 289.2890625 529 279.2890625 529 L 173 529 Q 163 529 163 519 L 163 498 Q 163 488 173 488 Z" fill="none" paint-order="fill stroke markers" stroke="#000000" stroke-dasharray="" stroke-miterlimit="10"/></g><g><g><path fill="none" stroke="none"/><text dominant-baseline="central" fill="#000000" font-family="Arial" font-size="13px" font-style="normal" font-weight="bold" stroke="none" text-anchor="middle" text-decoration="undefined" transform="matrix(1 0 0 1 -102 -542)" x="328.64453125" y="1043.5">Nhấn nút xác nhận</text></g></g><g><path d=" M 125 336 L 341 336 L 341 377 L 125 377 L 135.25 356.5" fill="#C0C0C0" fill-opacity="0.2" paint-order="stroke fill markers" stroke="none"/></g><g><path d=" M 118 329 L 334 329 L 334 370 L 118 370 L 128.25 349.5" fill="#ffffff" paint-order="stroke fill markers" stroke="none"/></g><g><path d=" M 118 329 L 334 329 L 334 370 L 118 370 L 128.25 349.5 L 118 329" fill="none" paint-order="fill stroke markers" stroke="#000000" stroke-dasharray="" stroke-miterlimit="10"/></g><g><g><path fill="none" stroke="none"/><text dominant-baseline="central" fill="#000000" font-family="Arial" font-size="13px" font-style="normal" font-weight="bold" stroke="none" text-anchor="middle" text-decoration="undefined" transform="matrix(1 0 0 1 -102 -542)" x="328.5" y="884.5">Nhập thông tin lịch tập luyện</text></g></g><g><path d=" M 1016 495 L 1177.89453125 495 Q 1187.89453125 495 1187.89453125 505 L 1187.89453125 526 Q 1187.89453125 536 1177.89453125 536 L 1016 536 Q 1006 536 1006 526 L 1006 505 Q 1006 495 1016 495 Z" fill="#C0C0C0" fill-opacity="0.2" paint-order="stroke fill markers" stroke="none"/></g><g><path d=" M 1009 488 L 1170.89453125 488 Q 1180.89453125 488 1180.89453125 498 L 1180.89453125 519 Q 1180.89453125 529 1170.89453125 529 L 1009 529 Q 999 529 999 519 L 999 498 Q 999 488 1009 488 Z" fill="#ffffff" paint-order="stroke fill markers" stroke="none"/></g><g><path d=" M 1009 488 L 1170.89453125 488 Q 1180.89453125 488 1180.89453125 498 L 1180.89453125 519 Q 1180.89453125 529 1170.89453125 529 L 1009 529 Q 999 529 999 519 L 999 498 Q 999 488 1009 488 Z" fill="none" paint-order="fill stroke markers" stroke="#000000" stroke-dasharray="" stroke-miterlimit="10"/></g><g><g><path fill="none" stroke="none"/><text dominant-baseline="central" fill="#000000" font-family="Arial" font-size="13px" font-style="normal" font-weight="bold" stroke="none" text-anchor="middle" text-decoration="undefined" transform="matrix(1 0 0 1 -102 -542)" x="1192.447265625" y="1043.5">Kiểm tra lịch tập hợp lệ</text></g></g><g><path d=" M 1029 741 L 1165.64990234375 741 Q 1175.64990234375 741 1175.64990234375 751 L 1175.64990234375 772 Q 1175.64990234375 782 1165.64990234375 782 L 1029 782 Q 1019 782 1019 772 L 1019 751 Q 1019 741 1029 741 Z" fill="#C0C0C0" fill-opacity="0.2" paint-order="stroke fill markers" stroke="none"/></g><g><path d=" M 1022 734 L 1158.64990234375 734 Q 1168.64990234375 734 1168.64990234375 744 L 1168.64990234375 765 Q 1168.64990234375 775 1158.64990234375 775 L 1022 775 Q 1012 775 1012 765 L 1012 744 Q 1012 734 1022 734 Z" fill="#ffffff" paint-order="stroke fill markers" stroke="none"/></g><g><path d=" M 1022 734 L 1158.64990234375 734 Q 1168.64990234375 734 1168.64990234375 744 L 1168.64990234375 765 Q 1168.64990234375 775 1158.64990234375 775 L 1022 775 Q 1012 775 1012 765 L 1012 744 Q 1012 734 1022 734 Z" fill="none" paint-order="fill stroke markers" stroke="#000000" stroke-dasharray="" stroke-miterlimit="10"/></g><g><g><path fill="none" stroke="none"/><text dominant-baseline="central" fill="#000000" font-family="Arial" font-size="13px" font-style="normal" font-weight="bold" stroke="none" text-anchor="middle" text-decoration="undefined" transform="matrix(1 0 0 1 -102 -542)" x="1192.824951171875" y="1289.5">Thực hiện tạo tài khoản</text></g></g><g><path d=" M 537 620 L 537 661 L 782.8359375 661 L 793.0859375 640.5 L 782.8359375 620" fill="#C0C0C0" fill-opacity="0.2" paint-order="stroke fill markers" stroke="none"/></g><g><path d=" M 530 613 L 530 654 L 775.8359375 654 L 786.0859375 633.5 L 775.8359375 613" fill="#ffffff" paint-order="stroke fill markers" stroke="none"/></g><g><path d=" M 530 613 L 530 654 L 775.8359375 654 L 786.0859375 633.5 L 775.8359375 613 L 530 613" fill="none" paint-order="fill stroke markers" stroke="#000000" stroke-dasharray="" stroke-miterlimit="10"/></g><g><g><path fill="none" stroke="none"/><text dominant-baseline="central" fill="#000000" font-family="Arial" font-size="13px" font-style="normal" font-weight="bold" stroke="none" text-anchor="middle" text-decoration="undefined" transform="matrix(1 0 0 1 -102 -542)" x="760.54296875" y="1168.5">Thông báo lịch tập không hợp lệ</text></g></g><g><path d=" M 542 741 L 542 782 L 777.1845703125 782 L 787.4345703125 761.5 L 777.1845703125 741" fill="#C0C0C0" fill-opacity="0.2" paint-order="stroke fill markers" stroke="none"/></g><g><path d=" M 535 734 L 535 775 L 770.1845703125 775 L 780.4345703125 754.5 L 770.1845703125 734" fill="#ffffff" paint-order="stroke fill markers" stroke="none"/></g><g><path d=" M 535 734 L 535 775 L 770.1845703125 775 L 780.4345703125 754.5 L 770.1845703125 734 L 535 734" fill="none" paint-order="fill stroke markers" stroke="#000000" stroke-dasharray="" stroke-miterlimit="10"/></g><g><g><path fill="none" stroke="none"/><text dominant-baseline="central" fill="#000000" font-family="Arial" font-size="13px" font-style="normal" font-weight="bold" stroke="none" text-anchor="middle" text-decoration="undefined" transform="matrix(1 0 0 1 -102 -542)" x="760.21728515625" y="1289.5">Thông báo thêm lịch tập thành công</text></g></g><g><path d=" M 1073 640.5 L 1097 619 L 1121 640.5 L 1097 662 L 1073 640.5" fill="#C0C0C0" fill-opacity="0.2" paint-order="stroke fill markers" stroke="none"/></g><g><path d=" M 1066 633.5 L 1090 612 L 1114 633.5 L 1090 655 L 1066 633.5" fill="#ffffff" paint-order="stroke fill markers" stroke="none"/></g><g><path d=" M 1066 633.5 L 1090 612 L 1114 633.5 L 1090 655 L 1066 633.5 L 1066 633.5" fill="none" paint-order="fill stroke markers" stroke="#000000" stroke-dasharray="" stroke-miterlimit="10"/></g><g><path d=" M 234 71 L 234 132" fill="none" paint-order="fill stroke markers" stroke="#000000" stroke-dasharray="" stroke-miterlimit="10"/></g><g><path d=" M 229.790482243984 121.8373251423759 L 234 132 L 238.209517756016 121.8373251423759" fill="none" paint-order="fill stroke markers" stroke="#000000" stroke-dasharray="" stroke-miterlimit="10"/></g><g><path d=" M 352 153 L 535 153" fill="none" paint-order="fill stroke markers" stroke="#000000" stroke-dasharray="" stroke-miterlimit="10"/></g><g><path d=" M 524.8373251423759 157.209517756016 L 535 153 L 524.8373251423758 148.790482243984" fill="none" paint-order="fill stroke markers" stroke="#000000" stroke-dasharray="" stroke-miterlimit="10"/></g><g><path d=" M 666 174 L 666 202 L 233 202 L 233 243" fill="none" paint-order="fill stroke markers" stroke="#000000" stroke-dasharray="" stroke-miterlimit="10"/></g><g><path d=" M 228.790482243984 232.8373251423759 L 233 243 L 237.209517756016 232.8373251423759" fill="none" paint-order="fill stroke markers" stroke="#000000" stroke-dasharray="" stroke-miterlimit="10"/></g><g><path d=" M 349 263 L 517 263" fill="none" paint-order="fill stroke markers" stroke="#000000" stroke-dasharray="" stroke-miterlimit="10"/></g><g><path d=" M 506.8373251423759 267.209517756016 L 517 263 L 506.8373251423758 258.790482243984" fill="none" paint-order="fill stroke markers" stroke="#000000" stroke-dasharray="" stroke-miterlimit="10"/></g><g><path d=" M 666 284 L 666 349 L 334 349" fill="none" paint-order="fill stroke markers" stroke="#000000" stroke-dasharray="" stroke-miterlimit="10"/></g><g><path d=" M 344.16267485762415 344.790482243984 L 334 349 L 344.16267485762415 353.209517756016" fill="none" paint-order="fill stroke markers" stroke="#000000" stroke-dasharray="" stroke-miterlimit="10"/></g><g><path d=" M 1089 530 L 1090 611" fill="none" paint-order="fill stroke markers" stroke="#000000" stroke-dasharray="" stroke-miterlimit="10"/></g><g><path d=" M 1085.6653474444463 600.8900649249053 L 1090 611 L 1094.0837414328355 600.7861341349251" fill="none" paint-order="fill stroke markers" stroke="#000000" stroke-dasharray="" stroke-miterlimit="10"/></g><g><path d=" M 1089 530 L 1090 611" fill="none" paint-order="fill stroke markers" stroke="#000000" stroke-dasharray="" stroke-miterlimit="10"/></g><g><path d=" M 1085.6653474444463 600.8900649249053 L 1090 611 L 1094.0837414328355 600.7861341349251" fill="none" paint-order="fill stroke markers" stroke="#000000" stroke-dasharray="" stroke-miterlimit="10"/></g><g><path d=" M 1065 633 L 787 633" fill="none" paint-order="fill stroke markers" stroke="#000000" stroke-dasharray="" stroke-miterlimit="10"/></g><g><path d=" M 797.1626748576241 628.7904822439841 L 787 633 L 797.1626748576241 637.2095177560159" fill="none" paint-order="fill stroke markers" stroke="#000000" stroke-dasharray="" stroke-miterlimit="10"/></g><g><path d=" M 1090 656 L 1090 733" fill="none" paint-order="fill stroke markers" stroke="#000000" stroke-dasharray="" stroke-miterlimit="10"/></g><g><path d=" M 1085.7904822439841 722.8373251423759 L 1090 733 L 1094.2095177560159 722.8373251423759" fill="none" paint-order="fill stroke markers" stroke="#000000" stroke-dasharray="" stroke-miterlimit="10"/></g><g><path d=" M 1011 754 L 781 754" fill="none" paint-order="fill stroke markers" stroke="#000000" stroke-dasharray="" stroke-miterlimit="10"/></g><g><path d=" M 791.1626748576241 749.7904822439841 L 781 754 L 791.1626748576241 758.2095177560159" fill="none" paint-order="fill stroke markers" stroke="#000000" stroke-dasharray="" stroke-miterlimit="10"/></g><g><g><path fill="none" stroke="none"/><text dominant-baseline="text-before-edge" fill="#000000" font-family="Arial" font-size="13px" font-style="normal" font-weight="normal" stroke="none" text-anchor="start" text-decoration="undefined" transform="matrix(1 0 0 1 -102 -542)" x="1003" y="1154">[Thông tin không hợp lệ]</text></g></g><g><g><path fill="none" stroke="none"/><text dominant-baseline="text-before-edge" fill="#000000" font-family="Arial" font-size="13px" font-style="normal" font-weight="normal" stroke="none" text-anchor="start" text-decoration="undefined" transform="matrix(1 0 0 1 -102 -542)" x="1203" y="1210">[Thông tin hợp lệ]</text></g></g><g><path d=" M 142 620 L 324.17529296875 620 Q 334.17529296875 620 334.17529296875 630 L 334.17529296875 651 Q 334.17529296875 661 324.17529296875 661 L 142 661 Q 132 661 132 651 L 132 630 Q 132 620 142 620 Z" fill="#C0C0C0" fill-opacity="0.2" paint-order="stroke fill markers" stroke="none"/></g><g><path d=" M 135 613 L 317.17529296875 613 Q 327.17529296875 613 327.17529296875 623 L 327.17529296875 644 Q 327.17529296875 654 317.17529296875 654 L 135 654 Q 125 654 125 644 L 125 623 Q 125 613 135 613 Z" fill="#ffffff" paint-order="stroke fill markers" stroke="none"/></g><g><path d=" M 135 613 L 317.17529296875 613 Q 327.17529296875 613 327.17529296875 623 L 327.17529296875 644 Q 327.17529296875 654 317.17529296875 654 L 135 654 Q 125 654 125 644 L 125 623 Q 125 613 135 613 Z" fill="none" paint-order="fill stroke markers" stroke="#000000" stroke-dasharray="" stroke-miterlimit="10"/></g><g><g><path fill="none" stroke="none"/><text dominant-baseline="central" fill="#000000" font-family="Arial" font-size="13px" font-style="normal" font-weight="bold" stroke="none" text-anchor="middle" text-decoration="undefined" transform="matrix(1 0 0 1 -102 -542)" x="328.587646484375" y="1168.5">Chọn chức năng cần thực hiện</text></g></g><g><path d=" M 209 845.5 L 233 824 L 257 845.5 L 233 867 L 209 845.5" fill="#C0C0C0" fill-opacity="0.2" paint-order="stroke fill markers" stroke="none"/></g><g><path d=" M 202 838.5 L 226 817 L 250 838.5 L 226 860 L 202 838.5" fill="#ffffff" paint-order="stroke fill markers" stroke="none"/></g><g><path d=" M 202 838.5 L 226 817 L 250 838.5 L 226 860 L 202 838.5 L 202 838.5" fill="none" paint-order="fill stroke markers" stroke="#000000" stroke-dasharray="" stroke-miterlimit="10"/></g><g><path d=" M 226 655 L 226 816" fill="none" paint-order="fill stroke markers" stroke="#000000" stroke-dasharray="" stroke-miterlimit="10"/></g><g><path d=" M 221.790482243984 805.8373251423759 L 226 816 L 230.209517756016 805.8373251423759" fill="none" paint-order="fill stroke markers" stroke="#000000" stroke-dasharray="" stroke-miterlimit="10"/></g><g><path d=" M 202 838 L 34 838 L 34 346 L 118 346" fill="none" paint-order="fill stroke markers" stroke="#000000" stroke-dasharray="" stroke-miterlimit="10"/></g><g><path d=" M 107.83732514237585 350.209517756016 L 118 346 L 107.83732514237585 341.790482243984" fill="none" paint-order="fill stroke markers" stroke="#000000" stroke-dasharray="" stroke-miterlimit="10"/></g><g><path d=" M 226 371 L 226 487" fill="none" paint-order="fill stroke markers" stroke="#000000" stroke-dasharray="" stroke-miterlimit="10"/></g><g><path d=" M 221.790482243984 476.8373251423759 L 226 487 L 230.209517756016 476.8373251423759" fill="none" paint-order="fill stroke markers" stroke="#000000" stroke-dasharray="" stroke-miterlimit="10"/></g><g><path d=" M 290 508 L 998 508" fill="none" paint-order="fill stroke markers" stroke="#000000" stroke-dasharray="" stroke-miterlimit="10"/></g><g><path d=" M 987.8373251423759 512.2095177560159 L 998 508 L 987.8373251423759 503.7904822439841" fill="none" paint-order="fill stroke markers" stroke="#000000" stroke-dasharray="" stroke-miterlimit="10"/></g><g><path d=" M 529 633 L 328 633" fill="none" paint-order="fill stroke markers" stroke="#000000" stroke-dasharray="" stroke-miterlimit="10"/></g><g><path d=" M 338.16267485762415 628.7904822439841 L 328 633 L 338.16267485762415 637.2095177560159" fill="none" paint-order="fill stroke markers" stroke="#000000" stroke-dasharray="" stroke-miterlimit="10"/></g><g><g><path fill="none" stroke="none"/><text dominant-baseline="text-before-edge" fill="#000000" font-family="Arial" font-size="13px" font-style="normal" font-weight="normal" stroke="none" text-anchor="start" text-decoration="undefined" transform="matrix(1 0 0 1 -102 -542)" x="141" y="1349">[Không chọn chức năng khác]</text></g></g><g><g><path fill="none" stroke="none"/><text dominant-baseline="text-before-edge" fill="#000000" font-family="Arial" font-size="13px" font-style="normal" font-weight="normal" stroke="none" text-anchor="start" text-decoration="undefined" transform="matrix(1 0 0 1 -102 -542)" x="357" y="1349">[Nhấn nút hủy]</text></g></g><g><path d=" M 578 825 L 751.47900390625 825 Q 761.47900390625 825 761.47900390625 835 L 761.47900390625 856 Q 761.47900390625 866 751.47900390625 866 L 578 866 Q 568 866 568 856 L 568 835 Q 568 825 578 825 Z" fill="#C0C0C0" fill-opacity="0.2" paint-order="stroke fill markers" stroke="none"/></g><g><path d=" M 571 818 L 744.47900390625 818 Q 754.47900390625 818 754.47900390625 828 L 754.47900390625 849 Q 754.47900390625 859 744.47900390625 859 L 571 859 Q 561 859 561 849 L 561 828 Q 561 818 571 818 Z" fill="#ffffff" paint-order="stroke fill markers" stroke="none"/></g><g><path d=" M 571 818 L 744.47900390625 818 Q 754.47900390625 818 754.47900390625 828 L 754.47900390625 849 Q 754.47900390625 859 744.47900390625 859 L 571 859 Q 561 859 561 849 L 561 828 Q 561 818 571 818 Z" fill="none" paint-order="fill stroke markers" stroke="#000000" stroke-dasharray="" stroke-miterlimit="10"/></g><g><g><path fill="none" stroke="none"/><text dominant-baseline="central" fill="#000000" font-family="Arial" font-size="13px" font-style="normal" font-weight="bold" stroke="none" text-anchor="middle" text-decoration="undefined" transform="matrix(1 0 0 1 -102 -542)" x="760.239501953125" y="1373.5">Quay về giao diện quản lý đội</text></g></g><g><path d=" M 657 776 L 657 817" fill="none" paint-order="fill stroke markers" stroke="#000000" stroke-dasharray="" stroke-miterlimit="10"/></g><g><path d=" M 652.790482243984 806.8373251423759 L 657 817 L 661.209517756016 806.8373251423759" fill="none" paint-order="fill stroke markers" stroke="#000000" stroke-dasharray="" stroke-miterlimit="10"/></g><g><path d=" M 251 838 L 560 838" fill="none" paint-order="fill stroke markers" stroke="#000000" stroke-dasharray="" stroke-miterlimit="10"/></g><g><path d=" M 549.8373251423759 842.2095177560159 L 560 838 L 549.8373251423758 833.7904822439841" fill="none" paint-order="fill stroke markers" stroke="#000000" stroke-dasharray="" stroke-miterlimit="10"/></g><g><path d=" M 652 918 C 652 910.8202976 657.8202976 905 665 905 C 672.1797024 905 678 910.8202976 678 918 C 678 925.1797024 672.1797024 931 665 931 C 657.8202976 931 652 925.1797024 652 918 Z" fill="#C0C0C0" fill-opacity="0.2" paint-order="stroke fill markers" stroke="none"/></g><g><path d=" M 645 911 C 645 903.8202976 650.8202976 898 658 898 C 665.1797024 898 671 903.8202976 671 911 C 671 918.1797024 665.1797024 924 658 924 C 650.8202976 924 645 918.1797024 645 911 Z" fill="none" paint-order="fill stroke markers" stroke="#000000" stroke-dasharray="" stroke-miterlimit="10"/></g><g><path d=" M 650 911 C 650 906.5817216 653.5817216 903 658 903 C 662.4182784 903 666 906.5817216 666 911 C 666 915.4182784 662.4182784 919 658 919 C 653.5817216 919 650 915.4182784 650 911 Z" fill="#000000" paint-order="stroke fill markers" stroke="none"/></g><g><path d=" M 657 860 L 658 897" fill="none" paint-order="fill stroke markers" stroke="#000000" stroke-dasharray="" stroke-miterlimit="10"/></g><g><path d=" M 653.5174522184309 886.9547640452824 L 658 897 L 661.9334145288594 886.7273056044601" fill="none" paint-order="fill stroke markers" stroke="#000000" stroke-dasharray="" stroke-miterlimit="10"/></g></g></svg>